<?xml version="1.0" encoding="UTF-8" standalone="no"?>
<!-- Created with Inkscape (http://www.inkscape.org/) -->

<svg
   xmlns:dc="http://purl.org/dc/elements/1.1/"
   xmlns:cc="http://creativecommons.org/ns#"
   xmlns:rdf="http://www.w3.org/1999/02/22-rdf-syntax-ns#"
   xmlns:svg="http://www.w3.org/2000/svg"
   xmlns="http://www.w3.org/2000/svg"
   xmlns:sodipodi="http://sodipodi.sourceforge.net/DTD/sodipodi-0.dtd"
   xmlns:inkscape="http://www.inkscape.org/namespaces/inkscape"
   width="827.87701"
   height="171.145"
   id="svg3403"
   version="1.1"
   inkscape:version="0.47 r22583"
   sodipodi:docname="New document 15">
  <defs
     id="defs3405">
    <inkscape:perspective
       sodipodi:type="inkscape:persp3d"
       inkscape:vp_x="0 : 526.18109 : 1"
       inkscape:vp_y="0 : 1000 : 0"
       inkscape:vp_z="744.09448 : 526.18109 : 1"
       inkscape:persp3d-origin="372.04724 : 350.78739 : 1"
       id="perspective3411" />
    <inkscape:perspective
       id="perspective3398"
       inkscape:persp3d-origin="0.5 : 0.33333333 : 1"
       inkscape:vp_z="1 : 0.5 : 1"
       inkscape:vp_y="0 : 1000 : 0"
       inkscape:vp_x="0 : 0.5 : 1"
       sodipodi:type="inkscape:persp3d" />
  </defs>
  <sodipodi:namedview
     id="base"
     pagecolor="#ffffff"
     bordercolor="#666666"
     borderopacity="1.0"
     inkscape:pageopacity="0.0"
     inkscape:pageshadow="2"
     inkscape:zoom="0.35"
     inkscape:cx="426.08136"
     inkscape:cy="-85.856073"
     inkscape:document-units="px"
     inkscape:current-layer="layer1"
     showgrid="false"
     inkscape:window-width="607"
     inkscape:window-height="491"
     inkscape:window-x="343"
     inkscape:window-y="361"
     inkscape:window-maximized="0" />
  <metadata
     id="metadata3408">
    <rdf:RDF>
      <cc:Work
         rdf:about="">
        <dc:format>image/svg+xml</dc:format>
        <dc:type
           rdf:resource="http://purl.org/dc/dcmitype/StillImage" />
        <dc:title></dc:title>
      </cc:Work>
    </rdf:RDF>
  </metadata>
  <g
     inkscape:label="Layer 1"
     inkscape:groupmode="layer"
     id="layer1"
     transform="translate(51.081357,-275.36111)">
    <path
       style="fill:none;stroke:#000000;stroke-width:1;stroke-linecap:round;stroke-linejoin:round"
       id="path2970"
       d="m -46.582357,334.72111 -1.143,0 -0.381,0 -0.094,0 -0.286,0 -0.191,0 -0.952,0 -0.38,0 -0.177,0 -0.204,0 -0.191,0 1.333,0 0.115,0 0.266,0 0.381,0 1.042,0 0.481,0 0.761,0 1.143,0 0.058,0 0.703,0 1.523,0 0.329,0 0.433,0 1.142,0 0.541,0 0.221,0 1.523,0 0.762,0 0.016,0 0.364,0 1.143,0 0.253,0 0.508,0 0.381,0 0.981,0 0.542,0 0.762,0 1.447,0 0.076,0 0.761,0 1.143,0 0.203,0 0.558,0 1.524,0 0.453,0 0.308,0 1.523,0 0.752,0 0.01,0 1.904,-0.378 0.761,-0.379 0.642,-0.127 1.262,-0.251 0.762,0 0.986,0 0.537,0 0.761,0 1.09,0 0.053,0 0.761,0 0.381,0 0.308,0 0.834,0 0.762,0 0.221,0 0.16,0 1.142,0 0.678,0 0.084,0 0.3809999,0 1.142,-0.379 0.151,0 0.61,0 0.381,0 0.586,-0.194 0.557,-0.185 0.761,0 0.938,-0.31 0.204,-0.068 0.762,-0.379 1.523,-0.378 0.129,-0.064 0.633,-0.314 1.52299996,-0.379 0.416,-0.207 0.34500004,-0.172 1.904,-0.378 0.98,-0.325 0.163,-0.054 1.523,-0.378 0.761,-0.379 0.319,-0.126 1.585,-0.631 1.143,-0.378 0.9080001,-0.181 0.996,-0.198 1.142,-0.378 1.2,-0.895 0.323,-0.241 0.762,-0.757 1.523,-1.514 0.15,-0.15 0.611,-0.607 1.523,-1.136 0.311,-0.308 0.451,-0.449 0.381,-0.378 0.548,-0.818 0.213,-0.318 0.381,-0.757 0.381,-0.378 0.012,-0.012 0.749,-1.502 0.381,-0.757 0.387,-0.641 0.756,-1.252 0.38,-0.757 0.741,-1.228 0.402,-0.665 0.38,-1.135 0.73,-1.814 0.032,-0.079 0.381,-1.135 0.381,-2.271 0.103,-0.513 0.277,-1.38 0.381,-1.135 0.22,-1.092 0.161,-0.801 0.381,-1.136 0.339,-1.687 0.042,-0.205 0.38,-1.136 0,-1.892 0,-0.224 0,-0.912 0.381,-1.892 0,-0.581 0,-0.555 0,-0.379 0,-1.244 0,-0.27 0,-0.757 0,-0.378 0,-0.052 0,-1.462 0,-0.758 0,-0.378 0,-1.135 0,-0.572 0,-0.186 0,-0.378 0,-1.136 0,-0.071 0,-0.686 0,-0.378 0,-0.143 0,-0.993 0,-0.259 0,-0.119 0,-0.379 0,-0.189 0,-0.946 0,-0.118 0,-0.261 0,-0.378 0,-0.19 -0.381,0.947 0,0.378 0,0.035 -0.38,1.101 0,0.757 0,0.756 0,1.136 0,0.757 0,1.629 0,0.643 0,1.135 -0.381,1.893 -0.01,0.05 0.01,2.221 0,1.893 0,0.641 0,1.251 0,1.893 0,1.479 0,0.792 -0.381,2.271 0,1.814 0,0.078 0,1.893 0,1.893 0,0.514 0,1.378 0,1.893 0,0.66 0,0.475 0,1.893 0,1.012 0,0.124 0,2.271 0,1.135 0,0.45 0,1.821 0.381,1.893 0.194,0.966 0.187,0.926 0.38,1.893 0,1.558 0,0.335 0,1.135 0,1.893 0.08,0.394 0.301,1.499 0,1.892 0,1.347 0,0.924 0,2.271 0,2.466 0,0.184 0,3.028 0,3.028 0,0.608 0,2.042 0,2.649 0,1.313 0,0.958 0,2.272 -0.338,1.679 -0.043,0.213 0,2.272 -0.38,1.892 -0.074,0.437 -0.307,1.834 0,1.893 0,0.966 0,0.926 -0.381,1.893 0,1.557 0,0.335 0,1.136 0,1.893 0,0.25 0,0.885 0,1.893 0,0.504 0,0.631 -0.381,1.893 -0.287,1.428 -0.094,0.464 -0.38,1.893 0,0.757 0,0.049 -0.381,1.844 0,2.271 0,0.71 0,1.183 0.381,1.892 0,1.297 0,0.596 0,1.135 0,1.509 0,0.005 0,0.757 0,1.514 0,0.235 0,0.522 0,0.379 0,0.938 0,0.576 0,0.757 0,0.352 0,0.027 0,1.135 0,0.093 0,0.286 0,0.378 0,0.189 0,-1.324 0,-1.515 0,-0.147 0,-1.366 0,-1.893 0,-0.794 0,-1.099 0,-1.892 0,-1.374 0,-0.519 0,-1.893 0,-1.892 0,-0.068 0,-1.825 0,-1.892 0,-0.658 0,-1.235 0,-0.757 0.252,-1.503 0.128,-0.768 0,-1.136 0,-1.844 0,-0.048 0,-1.136 0,-2.271 0,-0.529 0,-1.363 0,-1.893 0,-1.125 0,-0.768 0,-1.892 0,-1.022 0,-0.114 0.381,-1.892 0,-1.136 0.079,-0.393 0.302,-1.5 0,-1.892 0,-0.597 0,-0.539 0,-1.892 0,-0.946 0,-0.19 0,-1.893 0,-0.756 0,-0.112 0,-0.267 0,-1.514 0,-0.344 0,-0.413 0,-0.379 0,-0.865 0,-0.27 0,-0.757 0,-0.379 0,-0.028 0,-1.107 0,-0.757 0,-0.146 0,-0.233 0,-1.135 0,-0.526 0,-0.231 0,-0.379 0,-1.135 0,-0.013 0,-0.366 0,-0.379 0,-0.118 0,-1.017 0,-0.379 0,-0.362 0,-0.016 0,-0.189 1.142,-0.568 0.216,-0.214 0.165,-0.165 0.381,0 1.001,-0.331 0.141,-0.047 0.381,-0.379 0.381,0 0.276,-0.068 1.247,-0.31 0.761,0 0.755,0 0.769,0 0.761,0 1.542,-0.307 0.362,-0.072 1.904,0 1.904,0 0.351,0 1.934,0 2.284,0 1.037,-0.172 1.248,-0.206 2.285,-0.379 1.768,-0.293 0.516,-0.085 2.285,-0.379 1.904,-0.378 0.168,-0.034 1.736,-0.345 2.285,-0.757 0.895,-0.297 1.389,-0.46 1.904,-1.136 0.825,-0.273 0.318,-0.105 2.284,-1.514 1.143,-0.757 0.085,-0.057 2.199,-1.457 1.143,-0.757 0.724,-0.865 1.18,-1.407 1.903,-1.892 1.062,-1.584 0.462,-0.687 1.142,-2.271 1.523,-2.271 0.011,-0.017 1.512,-2.255 1.143,-2.271 0.254,-0.757 0.507,-1.514 0.762,-2.271 0.48,-1.433 0.281,-0.838 0.762,-2.271 0.357,-2.131 0.024,-0.14 0.38,-1.136 0.381,-2.271 0.093,-0.278 0.288,-0.858 0.381,-2.271 0.213,-1.271 0.168,-0.999 0.38,-1.136 0.331,-1.644 0.05,-0.249 0,-0.757 0,-0.378 0,-0.207 0,-0.929 0,-0.757 -0.187,-0.745 -0.194,-0.769 0,-0.757 0,-0.304 0,-0.075 -0.38,-1.135 0,-0.757 0,-0.084 0,-0.295 -0.272,-0.81 -0.109,-0.325 -0.381,-0.379 0,-0.276 0,-0.102 0,-0.19 -0.381,0.947 -0.223,0.222 -0.158,0.156 0,1.893 0,1.695 0,0.198 0,1.892 -0.38,2.271 0,0.483 0,1.788 0,2.65 0,1.401 0,1.249 0,2.649 0,2.227 0,0.423 0,2.649 0,2.272 0,0.339 0,1.553 -0.381,1.893 0,0.875 0,1.017 0,1.893 -0.292,1.451 -0.089,0.442 0,1.892 0,1.136 0,0.086 0,1.806 0,1.136 0,0.886 0,1.385 0,1.892 0,1.328 0,0.565 0,1.893 0,1.892 0,0.023 0,2.248 0,2.272 0,0.768 0,1.503 0,2.271 0,1.676 0,0.974 0,2.649 -0.358,2.492 -0.023,0.158 -0.381,2.649 0,2.272 0,0.471 0,1.421 -0.38,1.893 0,1.051 0,0.841 0,1.136 -0.332,1.98 -0.049,0.291 0,1.892 -0.381,1.893 0,0.347 0,1.546 -0.381,1.892 -0.187,0.93 -0.193,0.963 0,1.135 -0.306,1.216 -0.075,0.299 -0.381,0.757 -0.381,1.514 0,0.139 0,0.618 -0.381,1.514 -0.219,0.435 -0.161,0.322 -0.381,1.514 0,0.723 0,0.034 0,1.514 0,0.757 0,0.131 0,0.248 0,1.135 0,0.555 0,0.202 0,0.379 0,0.189 0,0.946 0,0.379 0,0.196 0,0.182 0,0.19 0,0.946 0,0.378 0,0.117 0,0.262 0,0.189 0,0.946 0,0.379 0,0.026 0,0.353 0,0.189 0,0.946 0,0.31 0,0.068 0,0.379 0,0.189 0,0.947 0,0.228 0,0.15 0,0.379 0,0.189 0,0.946 0,0.126 0,0.253 0,0.378 0,0.189 0,0.947 0,0.378 0,0.379 0,0.124 0.761,1.011 0.381,0.379 0.381,0.378 0.106,0.106 1.036,-0.106 0.346,0 0.035,0 0.381,0 0.19,0 0.952,0 0.295,0 0.086,0 0.381,0 0.19,0 0.952,0 0.762,0 0.522,0 0.62,0 0.762,0 1.169,0 0.354,0 0.761,0 1.523,0 0.169,0 0.593,0 1.904,-0.378 0.476,-0.158 0.666,-0.221 1.903997,0 1.388,-0.276 0.516,-0.102 1.904,-0.757 1.904,-0.379 0.068,-0.013 1.836,-0.744 1.904,-0.757 0.69,-0.412 1.214,-0.723 2.284,-1.136 1.651,-0.82 0.634,-0.315 2.285,-1.136 2.284,-1.135 0.066,-0.033 2.219,-1.482 2.285,-1.892 0.787,-0.652 1.498,-1.241 2.284,-1.892 1.253,-1.494 0.651,-0.777 2.285,-2.272 1.838,-1.826 0.066,-0.066 1.904,-1.514 1.904,-1.893 0.633,-0.629 1.27,-1.263 1.524,-1.893 0.934,-1.161 0.589,-0.732 1.523,-1.892 1.404,-1.745 0.119,-0.148 0.762,-0.757 1.142,-1.892 0.089,-0.267 0.292,-0.869 0.761,-1.514 0.208,-0.412 0.173,-0.345 0.762,-1.893 0.347,-0.689 0.033,-0.068 0,-1.892 0,-0.758 -0.096,-0.382 -0.284,-1.131 0,-0.758 -0.217,-0.859 -0.164,-0.655 -0.381,-0.757 -0.669,-1.33 -0.093,-0.184 -0.38,-0.757 -0.381,-0.378 -0.209,-0.208 -0.933,-0.928 -0.762,-0.757 -0.19,-0.189 -0.191,-0.189 -1.142,-1.136 -0.613,-0.609 -0.149,-0.148 -0.38,-0.378 -1.143,-0.758 -0.133,-0.088 -0.628,-0.29 -0.381,0 -0.489,0 -0.654,0 -0.761,0 -0.281,0 -0.1,0 -1.523,0.378 -0.762,0 -0.057,0 -1.466,0.379 -0.761,0.379 -0.595,0.147 -0.928,0.231 -0.762,0.378 -1.067,0.531 -0.456,0.227 -0.762,0.378 -1.523,0.757 -0.014,0.007 -0.747,0.372 -1.523,1.514 -0.256,0.253 -0.506,0.504 -1.142,1.892 -0.723,1.198 -0.42,0.695 -0.761,1.893 -1.075,1.78 -0.068,0.112 -1.142,2.271 -0.762,1.893 -0.208,0.62 -0.553,1.651 -0.381,2.271 -0.212,1.264 -0.169,1.007 -0.38,2.65 -0.331,1.972 -0.05,0.299 0,1.893 0,1.892 0,0.348 0,1.545 0,1.892 0,0.562 0,0.574 0,1.892 0,1.524 0,0.369 0,0.757 0,1.893 0,0.226 0,0.909 0.381,1.893 0.16,0.319 0.22,0.438 0.762,2.271 0.865,1.433 0.277,0.46 0.381,1.135 1.904,1.893 0.128,0.127 0.633,1.008 1.904,1.893 0.443,0.293 0.7,0.464 1.904,1.514 0.789,0.523 0.353,0.234 1.904,1.514 1.898,1.132 0.006,0.004 1.142,0.757 1.904,1.135 0.366,0.121 0.776,0.258 1.904,0.757 1.242,0.247 0.662,0.131 1.143,0 1.825,0 0.079,0 1.142,0 1.904,0 0.207,0 0.554,0 1.904,-0.757 0.445,-0.221 0.317,-0.157 1.523,-1.136 0.681,-0.677 0.081,-0.08 1.903,-1.892 1.524,-1.893 0.299,-0.371 1.224,-1.522 1.523,-2.271 0.591,-1.176 0.551,-1.095 1.143,-2.271 0.944,-1.879 0.198,-0.392 1.523,-2.65 1.142,-2.649 0.158,-0.418 0.985,-2.611 1.142,-2.649 0.384,-1.338 0.378,-1.312 1.142,-3.028 0.931,-2.467 0.211,-0.561 1.143,-3.407 0.761,-3.406 0.095,-0.426 0.667,-2.981 0.761,-3.785 0.362,-1.8 0.4,-1.986 0.761,-3.785 0.568,-2.537 0.194,-0.869 0.762,-3.407 0.761,-3.407 0.04,-0.18 0.341,-2.848 0.381,-2.649 0.279,-0.972 0.482,-1.678 0.381,-2.65 0.26,-1.552 0.121,-0.719 0.381,-2.271 0.377,-2.25 0.003,-0.021 0,-1.136 0,-2.271 0,-1.086 0,-0.049 0,-1.893 0,-1.15 0,-0.743 0,-1.135 0,-1.735 0,-0.158 0,-1.135 0,-1.893 0,-0.264 0,-0.871 0,-1.893 0,-0.41 0,-0.347 0,-0.379 0,-0.969 0,-0.166 0,-0.757 0,-0.379 0,-0.063 -0.38,1.199 -0.381,0.378 0,1.451 0,0.821 0,2.271 0,1.791 0,0.101 0,2.271 0,2.65 0,0.683 0,1.967 0,3.028 0,1.756 0,1.272 -0.381,3.028 -0.339,2.36 -0.042,0.29 0,3.028 -0.38,3.407 -0.074,0.731 -0.307,3.054 -0.381,3.407 -0.195,1.549 -0.186,1.479 -0.381,3.028 -0.334,2.326 -0.046,0.323 -0.381,2.65 -0.381,2.271 -0.1,0.596 -0.281,1.675 0,2.272 -0.25,1.242 -0.131,0.65 0,1.893 0,1.892 0,0.087 0,1.806 0,1.892 0,0.756 0,1.137 0,1.136 0,1.447 0,0.445 0,1.136 0,1.892 0,0.172 0,0.964 0.381,2.271 0.375,0.932 0.387,0.96 0.381,1.893 0.304,1.515 0.076,0.378 0.381,1.892 0.381,1.893 0.04,0.201 0.341,1.691 0.381,1.893 0.16,0.479 0.22,0.657 0.381,1.892 0.279,0.554 0.102,0.203 0.381,1.514 0.38,0.757 0.016,0.031 -0.016,0.348 0.381,1.514 0.136,0.269 0.245,0.488 0,0.378 0,0.19 1.142,0.946 0.37,0.368 0.011,0.011 0.381,0.378 0.19,0.189 0.952,0.568 0.381,0.379 0.348,0.345 0.033,0.033 0.19,0.19 0.952,-0.947 0.762,-0.378 0.991,-1.314 0.151,-0.2 0.762,-1.514 0.761,-1.893 0.125,-0.373 0.637,-1.898 1.142,-2.271 0.558,-1.48 0.584,-1.549 1.524,-3.028 0.911,-2.417 0.231,-0.611 1.142,-2.649 0.762,-2.271 0.078,-0.234 0.683,-2.038 0.762,-2.271 0.481,-1.115 0.661,-1.534 0.762,-2.65 0.556,-1.936 0.205,-0.714 0.381,-2.649 0.762,-2.65 0.027,-0.093 0.354,-3.314 0.761,-3.406 0.134,-1.33 0.247,-2.456 0.381,-3.406 0.251,-2.25 0.129,-1.157 0.381,-3.406 0.369,-3.298 0.012,-0.109 0.381,-2.65 0.381,-2.271 0,-0.753 0,-1.897 0,-2.649 0,-1.581 0,-1.069 0,-2.271 0,-2.4 0,-0.25 0,-2.649 0.38,-2.65 0.081,-0.563 0.3,-2.086 0,-2.65 0.199,-1.386 0.182,-1.264 0,-2.649 0,-2.191 0,-0.459 0,-2.271 0,-2.271 0,-0.339 0,-1.932 0,-2.271 0.381,-1.893 0,-1.892 0,-0.868 0,-0.268 0,-1.893 0,-0.757 0,-0.048 0,-0.33 0,-0.379 0,-0.432 0,-0.703 0,-0.379 0,-0.263 0,-0.116 -0.381,-1.135 -0.38,-0.377 -0.001,-10e-4 0,-0.379 0,-0.189 -0.381,1.325 -0.38,0.756 -0.381,2.272 -0.062,0.37 -0.319,1.901 -0.381,2.649 0,1.596 0,1.811 -0.381,3.407 -0.3,2.685 -0.08,0.722 -0.381,3.028 -0.381,2.649 -0.031,0.218 0.031,2.053 -0.381,2.272 0,1.892 -0.38,2.271 -0.272,1.62 -0.109,0.651 0,1.893 0,1.892 0,0.043 -0.381,1.85 -0.381,1.893 -0.128,0.638 -0.253,1.254 0,1.893 0,1.277 0,0.615 0,2.272 0,2.271 0,2.271 0,2.271 0,0.765 0,1.506 0,2.271 0,1.375 0,0.896 0,1.893 0,1.747 0,0.145 0,1.893 0,1.893 0,0.277 0,0.858 0,1.893 0,0.757 0,2.271 0,1.685 0,0.207 0,2.272 0,1.892 0,0.356 0,1.537 0,1.892 0,0.958 0,0.935 0,1.136 0,1.892 0.381,2.271 0.381,2.271 0.05,0.3 0.712,1.593 0.38,1.893 0.322,0.799 0.44,1.093 0.761,1.893 0.567,1.409 0.195,0.483 0.381,1.893 0.381,1.893 0.018,0.091 0.362,1.801 0.381,1.136 0.381,1.892 0.381,1.136 0.254,1.01 0.127,0.504 0.38,0.757 0,0.379 0.762,1.135 0.381,0.757 0,0.112 0,0.267 0,0.189 1.142,0.946 0.381,0.379 0.381,0.378 1.523,0.379 0.24,0.119 0.521,0.259 1.143,0 0.761,0 0.381,0 1.142,-1.135 0.284,-0.282 0.478,-0.097 1.523,-1.514 0.762,-0.757 1.142,-1.892 0.632,-1.048 0.51,-0.845 1.143,-1.893 0.991,-1.97 0.151,-0.301 0.762,-2.271 0.761,-2.271 0.762,-2.271 0.761,-2.271 0.372,-1.11 0.39,-1.161 0.761,-1.893 0.762,-1.893 0.761,-2.271 0.762,-2.271 0.086,-0.255 0.676,-2.016 1.142,-2.271 0.762,-2.271 1.142,-1.893 0.824,-1.365 0.318,-0.527 0.381,-1.136 1.142,-1.892 0.043,-0.064 0.719,-1.072 1.523,-1.893 0.762,-1.135 1.904,-1.893 1.285,-1.277 0.618,-0.615 1.904,-1.514 1.904,-1.515 1.904,-1.514 0.762,-0.757 0.557,-0.332 1.347,-0.803 1.142,-0.757 1.523,-1.136 0.762,-0.378 0.348,-0.346 0.032,-0.033 1.524,-0.757 0.761,-0.378 0.381,0 0.882,-0.293 0.26,-0.086 0.381,0 0.32,0 0.061,0 0.19,0 -0.19,0.757 0,0.379 0,0.119 0,0.259 -1.142,1.136 -0.476,0.472 -0.286,0.285 -1.142,1.135 -0.762,0.379 -0.381,0.378 -1.142,1.514 -0.188,0.188 -0.574,0.569 -1.523,1.515 -0.761,0.756 -1.523,1.893 -0.666,0.662 -0.096,0.095 -1.142,1.514 -0.762,0.757 -1.142,1.515 -0.381,0.756 -0.563,0.747 -0.579,0.768 -0.381,0.756 -0.899,1.191 -0.244,0.324 -0.38,0.757 -1.143,1.514 -0.38,0.757 -0.762,1.514 -0.158,0.313 -0.223,0.444 -0.381,1.514 -0.38,0.757 -0.381,1.514 -0.381,0.757 -0.016,0.032 0.016,0.347 0,1.514 0,0.757 0,0.378 0,0.751 0,0.385 0,0.757 0,0.378 0,1.136 0,0.757 0,0.121 0,0.258 0,1.135 0,0.379 0,0.378 0,0.189 0.381,0.946 0.381,0.379 0,0.379 0,0.189 1.142,0.946 0.381,0.757 0.381,0.379 1.142,1.135 0.341,0.339 0.42,0.418 0.381,0.379 1.523,0.757 0.762,0.379 0.381,0 0.024,0 1.118,0.756 0.762,0.379 0.38,0 1.524,0.378 0.522,0.26 0.239,0.119 1.523,0 0.762,0 1.142,0 0.762,0 0.12,0 0.26,0 1.143,0 0.761,0 0.381,0 0.191,0 0.952,0 0.38,0 0.381,0 1.024,-0.339 0.118,-0.04 0.762,-0.378 0.381,0 1.523,-1.514 0.761,-0.757 1.143,-1.893 0.761,-0.757 0.833,-1.379 0.31,-0.513 0.381,-1.136 0.761,-1.893 0.381,-1.135 0.381,-1.893 0.129,-0.387 0.251,-0.748 0.381,-1.893 0.381,-1.135 0.381,-1.893 0.365,-1.089 0.016,-0.046 0.38,-1.893 0.381,-0.757 0,-0.379 0,-1.514 0,-0.438 0,-0.319 0,-0.378 0,-1.136 0,-0.757 -0.338,-1.345 -0.043,-0.169 0,-0.757 0,-0.378 -1.142,-1.515 -0.762,-0.756 -0.289,-0.288 -0.091,-0.091 -1.143,-1.136 -0.761,-0.757 -1.143,-1.135 -0.38,-0.757 -0.436,-0.433 -0.707,-0.703 -0.761,-0.757 -1.143,-1.135 -0.761,-0.379 -0.381,-0.378 0,0 -1.142,-0.758 -0.381,-0.378 -0.381,-0.379 -1.142,-1.135 -0.471,-0.234 -0.291,-0.145 -0.381,-0.378 -1.142,-1.136 -0.381,-0.378 -0.381,-0.379 -0.088,-0.088 -1.054,-1.047 -0.381,-0.379 -0.326,-0.324 -0.054,-0.054 -0.191,-0.19 -0.571,-0.946 -0.361,-0.358 -0.02,-0.02 0,-0.379 0.68,0 0.082,0 0.381,0 0.38,0 0.191,0 0.952,0 0.38,0 0.307,0 0.074,0 0.191,0 0.952,0 0.38,0 0.022,0 0.359,0 0.191,0 0.952,0 0.38,0 0.342,0 0.039,0 1.142,0.757 0.251,0.249 0.13,0.13 0.381,0.378 1.142,1.136 0.094,0.092 0.287,0.286 0.381,0.379 1.142,1.135 0.025,0.025 0.356,0.354 0.381,0.378 0.761,1.136 0.26,0.258 0.121,0.12 0.381,0.379 0.762,1.135 0.38,0.758 0,0.378 0.253,0.377 0.509,0.758 0.381,0.758 0,0.378 0.38,1.136 0,0.694 0,0.063 0,0.378 0.381,1.514 0,0.757 0,0.379 0,0.61 0,0.525 0,0.757 0,1.514 0,0.758 0,1.514 0,0.237 0,0.52 0,1.135 0,0.757 0,1.136 0,0.585 0,0.172 0.381,1.514 0,0.757 0,0.379 0,1.135 0,0.298 0,0.459 0,0.379 0,1.135 0,0.757 0,0.379 0,0.005 0,1.13 0,0.757 0,0.379 0,1.135 0,0.476 0,0.281 0,0.379 0.381,1.135 0,0.758 0.761,1.135 0.096,0.19 0.285,0.567 0,0.379 0.762,1.135 0.38,0.379 0,0.329 0,0.049 1.143,1.136 0.381,0.757 0.38,0.378 0.186,0.184 0.957,0.952 0.381,0.379 0.38,0.378 0.041,0.04 0.721,1.095 0.381,0.379 0.38,0.379 0.986,0.98 0.157,0.155 0.381,0.379 0.38,0.378 1.143,0.757 0.38,0.379 0.619,0.153 0.905,0.225 0.761,0.379 1.523,0.378 0.762,0 1.142,0.379 0.03,0.01 0.732,-0.01 1.142,0 0.762,0 0.38,0 0.734,0 0.409,0 0.761,0 1.143,0 0.761,0 1.523,0 0.2,0 0.562,0 1.523,0 0.762,0 1.523,0 0.671,0 0.09,0 1.143,0 0.761,0 1.523,0 0.762,0 0.698,0 0.444,0 0.762,0 1.142,-0.379 0.762,-0.378 0.381,0 0.424,-0.316 1.099,-0.82 0.761,-0.378 1.523,-0.757 0.762,-0.379 1.365,-1.018 0.158,-0.117 0.762,-0.379 1.523,-1.136 0.761,-0.756 1.523,-1.136 0.392,-0.389 0.37,-0.368 1.523,-1.514 0.762,-0.757 1.523,-1.514 0.761,-0.758 0.103,-0.101 1.421,-1.412 0.761,-0.758 1.523,-1.514 0.762,-0.757 1.193,-1.186 0.33,-0.328 0.762,-0.757 1.903,-1.514 1.143,-0.757 1.523,-1.514 0.306,-0.304 0.455,-0.453 1.524,-1.514 0.761,-0.757 1.904,-1.514 1.904,-1.514 0.037,-0.03 0.725,-0.727 1.903,-1.514 0.762,-0.757 1.523,-1.136 0.487,-0.242 0.275,-0.136 1.904,-1.136 0.761,-0.378 1.523,-1.136 0.762,-0.379 0.303,-0.15 1.22,-0.606 0.762,-0.379 1.523,-0.757 0.761,-0.379 1.246,-0.309 0.277,-0.069 0.762,-0.379 1.523,-0.378 0.762,-0.379 2.284,-0.378 0.5,-0.166 0.643,-0.213 1.904,-0.378 1.142,-0.379 1.904,-0.378 0.761,0 0.043,0 1.481,0 0.761,0 0.381,0 1.523,-0.379 0.497,0 0.265,0 0.38,0 1.143,0 0.761,0 0.381,0 0.103,0 -0.864,-0.378 -0.381,-0.379 -0.083,-0.082 -1.44,-0.297 -0.762,0 -1.523,0 -0.762,0 -1.389,0 -0.515,0 -0.761,0 -2.285,0 -1.904,0 -1.904,0.379 -0.398,0 -0.744,0 -1.904,0.379 -1.904,0.378 -1.142,0.379 -1.839,0.365 -0.065,0.013 -0.762,0.379 -1.523,0.757 -0.761,0.378 -1.523,1.136 -0.444,0.22 -0.318,0.158 -1.523,1.136 -0.762,0.379 -1.523,1.135 -0.761,0.378 -0.305,0.228 -1.219,0.908 -0.761,0.757 -1.142,1.514 -0.762,0.757 -0.936,1.24 -0.206,0.274 -0.381,0.757 -0.762,1.514 -0.381,0.757 -0.761,1.893 -0.173,0.343 -0.208,0.414 -0.381,1.893 0,1.135 0,2.271 0.381,2.271 0.046,0.273 0.335,1.62 0.761,1.893 1.143,1.892 1.142,1.893 0.281,0.838 0.1,0.297 1.904,2.272 1.904,1.892 2.284,1.514 2.285,1.136 0.816,0.405 1.469,0.73 2.285,0.757 1.142,0.379 1.904,0.378 1.857,0 0.047,0 2.284,-0.378 1.904,-0.379 1.904,-0.757 1.904,-1.135 1.127,-0.673 0.777,-0.463 1.142,-0.757 1.524,-1.514 0.761,-0.757 1.523,-1.893 0.223,-0.277 0.539,-0.48 1.142,-1.892 0.762,-1.136 0.761,-1.892 0.591,-1.469 0.171,-0.424 0.381,-1.136 0.38,-1.892 0.381,-1.136 0,-1.892 0,-0.3 0,-0.457 -0.381,-1.514 0,-0.757 -0.38,-1.893 -0.381,-1.136 -0.004,-0.012 -0.377,-1.502 -0.381,-0.757 0,-0.378 -0.761,-1.514 -0.201,-0.4 -0.18,-0.357 0,-0.379 -0.762,-1.135 -0.38,-0.758 0,-0.378 0,-0.093 -0.381,-1.043 0,-0.378 0,-0.327 0,-0.052 0,-0.189 0,1.704 0,1.892 0.246,1.465 0.135,0.806 0.761,2.65 0.762,2.649 0.761,2.65 0.381,3.028 0.2,0.895 0.562,2.512 0.761,3.407 0.381,3.028 0.381,2.649 0.347,2.074 0.034,0.197 0.38,2.272 0.381,1.135 0,1.514 0,0.757 0,0.942 0,0.572 0,0.757 0,1.515 0,0.757 0,1.514 0,0.757 0,0.378 0,0.831 0,0.305 0,0.757 0,0.378 0,1.136 0,0.757 0,0.533 0,0.981 0,0.757 -0.381,1.514 -0.38,0.757 -0.37,1.469 -0.011,0.045 -0.381,0.757 -0.381,1.514 -0.381,0.757 -0.38,1.893 -0.224,0.668 -0.157,0.467 -0.762,1.893 -0.761,2.271 -0.381,1.136 -0.762,1.892 -0.076,0.152 -0.304,0.605 -1.143,1.893 -0.761,1.135 -1.143,1.893 -0.626,0.623 -0.135,0.134 -1.143,1.514 -0.38,0.757 -1.143,1.136 -0.761,0.757 -0.726,0.541 -0.797,0.594 -0.762,0.379 -1.523,1.136 -0.762,0.378 -1.142,0.757 -0.106,0.07 -0.656,0.308 -0.38,0.379 -1.143,0.757 -0.761,0.379 -0.272,0 -0.109,0 -1.142,0.378 -0.762,0.379 -1.523,0 -0.762,0 -0.504,-0.126 -1.019,-0.253 -0.761,0 -1.904,-0.757 -1.143,-0.378 -1.862,-0.741 -0.042,-0.017 -1.142,-0.378 -1.904,-1.514 -1.142,-0.757 -1.904,-1.514 -0.762,-0.757 -1.523,-1.514 -0.69,-0.687 -0.071,-0.07 -1.143,-1.893 -0.761,-1.135 -0.762,-1.514 -0.381,-0.757 -0.198,-0.987 -0.182,-0.906 0,-1.136 0,-1.892 0,-0.757 0.761,-1.893 0.067,-0.199 0.314,-0.937 1.142,-2.271 1.523,-2.271 1.524,-1.892 1.206,-1.499 0.317,-0.394 1.523,-1.893 1.904,-1.892 1.904,-1.893 1.904,-1.514 0.93,-0.77 1.354,-1.122 2.285,-1.515 1.904,-1.135 1.904,-1.136 2.285,-1.135 0.057,-0.028 1.846,-1.108 1.904,-0.757 2.285,-1.135 2.285,-0.757 1.222,-0.405 1.062,-0.352 2.285,-0.757 2.285,-0.379 1.904,-0.378 1.142,-0.379 0.741,-0.123 1.544,-0.256 1.904,-0.378 1.904,-0.379 2.284,-0.756 1.794,-0.714 0.11,-0.044 1.904,-0.378 1.142,-0.379 1.904,-0.757 1.143,-0.378 1.064,-0.423 0.84,-0.334 1.142,-0.379 1.904,-1.135 1.142,-0.757 2.285,-1.514 0.2,-0.133 0.942,-0.624 1.904,-1.514 0.762,-0.758 2.284,-1.892 0.909,-0.903 0.234,-0.233 1.904,-1.514 0.761,-0.757 1.523,-1.514 0.762,-0.757 0.624,-0.62 0.899,-0.894 0.762,-0.757 0.761,-1.514 0.381,-0.757 0.381,-0.379 0.01,-0.009 0.751,-1.505 0.381,-0.757 0,-0.378 0.762,-1.136 0.245,-0.488 0.135,-0.269 0,-0.378 0.762,-1.136 0.381,-0.757 0,-0.379 0.1,-0.297 0.281,-0.838 0,-0.378 0,-0.379 0,-0.189 0,-0.947 0,-0.378 0,-0.379 0,-0.189 0,0.946 0,0.379 0,0.682 0,0.832 0,1.893 0,1.892 0,2.271 0,1.831 0,0.062 0,1.892 0,1.893 -0.381,1.893 0,1.892 0,0.665 0,0.471 -0.381,2.271 -0.381,1.135 -0.381,1.893 0,0.757 0,0.369 -0.38,1.145 -0.381,0.757 0,1.514 0,0.757 -0.381,1.893 -0.043,0.214 -0.338,0.543 -0.38,1.514 0,0.757 0,1.514 0,0.331 0,0.426 0.38,1.514 0,0.757 0,0.379 0,1.514 0,0.085 0,0.672 0,0.378 0,0.931 0,0.205 0,0.379 0,0.378 0,0.189 0,-0.946 0,-0.199 0,-0.18 0,-1.514 0.381,-1.514 0.381,-1.892 0.381,-1.893 0.055,-0.277 -0.055,-1.616 0,-0.756 0.38,-1.893 0,-1.136 0.291,-1.443 0.09,-0.449 0.381,-1.136 0.381,-2.271 0.381,-1.893 0,-1.135 0,-0.483 0.38,-1.41 0.381,-1.135 0.381,-1.893 0,-1.135 0,-1.498 0,-0.395 0,-1.136 0.381,-1.892 0.381,-1.136 0.38,-1.514 0.233,-0.463 0.148,-0.294 0.381,-1.514 0.381,-0.757 0.38,-1.514 0.381,-0.757 0.025,-0.049 -0.025,-0.33 1.143,-1.514 0.38,-0.757 0.381,-0.378 0.607,-0.603 0.535,-0.533 0.762,-0.757 1.142,-1.135 0.762,-0.757 1.523,-1.136 0.238,-0.118 0.524,-0.26 1.523,-0.757 1.904,-0.379 0.761,0 1.759,0 0.145,0 1.143,0 1.903,0 1.143,0 1.904,0 0.619,0 0.523,0 2.285,0 1.904,0.379 1.142,0 2.285,0.378 0.357,0.059 1.927,0.32 1.904,0.378 1.143,0 1.904,0 0.887,0 0.255,0 1.904,0 1.142,0 1.523,0 0.762,0 0.103,0 0.278,0 1.142,0 0.762,0 0.38,0 0.744,0 0.399,0 0.38,0 0.381,0 0.191,0 -0.191,0 -0.761,1.136 -0.221,0.219 -0.16,0.159 0,0.379 -1.142,0.757 -0.381,0.378 -0.381,0 -0.075,0 -1.067,0.757 -0.381,0.379 -0.381,0.378 -0.928,0.616 -0.214,0.141 -0.762,0.379 -0.381,0.378 -1.523,1.136 -0.761,0.757 -0.409,0.406 -0.734,0.73 -0.761,0.756 -1.523,1.515 -1.143,1.892 -1.142,1.893 -0.09,0.15 -1.052,1.742 -0.762,1.893 -0.762,1.893 -0.38,1.892 -0.266,0.528 -0.115,0.229 -0.381,1.893 -0.381,1.135 0,1.514 0,0.758 0,0.461 0,1.81 0,1.135 0.381,1.893 0.381,0.757 0.314,1.251 0.067,0.263 0.38,0.757 0.762,1.514 0.381,0.757 1.142,1.514 0.16,0.318 0.221,0.439 1.523,1.514 0.762,0.757 1.904,1.136 1.142,0.378 0.071,0.024 2.214,0.733 1.142,0.379 1.904,0 1.142,0 1.189,0 0.715,0 1.142,0 1.904,0 1.143,0 1.904,-0.757 0.459,-0.183 1.445,-0.574 1.903,-1.136 1.904,-1.135 0.762,-0.757 1.634,-1.3 0.27,-0.214 0.761,-0.758 1.524,-1.892 0.761,-1.136 1.142,-1.892 0.183,-0.543 0.198,-0.593 1.143,-1.893 0.38,-1.135 0.762,-1.892 0.381,-1.136 0.036,-0.107 0.345,-1.786 0,-0.757 0,-1.892 0,-1.136 -0.271,-1.346 -0.11,-0.546 0,-0.757 -0.762,-1.515 -0.381,-0.757 -0.38,-0.378 -0.375,-0.373 -0.768,-0.763 -0.381,-0.757 -0.38,-0.378 -1.143,-1.136 -0.683,-0.679 -0.078,-0.078 -1.143,-1.135 -0.761,-0.379 -1.523,-0.757 -0.762,-0.379 -0.693,-0.172 -0.83,-0.206 -0.762,-0.378 -1.523,-0.379 -0.761,-0.379 -0.381,0 -0.027,0 -1.115,-0.378 -0.762,-0.379 -0.381,0 -1.142,-0.378 -0.525,-0.261 -0.237,-0.117 -0.38,0 -1.143,0 -0.164,0 -0.217,0 -0.38,0 -1.115,-0.37 -0.028,-0.009 -0.38,0 -0.381,0 -0.191,0 0.191,-1.136 0,-0.378 0,-0.161 0,-0.218 0.358,-1.069 0.023,-0.066 0.38,-0.379 0,-0.378 1.523,-0.379 0.266,0 0.496,0 1.523,-0.378 0.762,0 1.523,0 1.84,0 0.064,0 1.904,-0.379 2.284,0 1.904,0 1.143,0 1.264,-0.209 1.02,-0.169 1.904,0 1.143,0 2.284,0 1.143,0 0.175,0 1.729,0 1.142,0 1.904,0 1.142,0 1.459,0 0.445,0 1.904,-0.379 1.142,0 1.523,0 0.762,0 0.146,0 0.235,0 1.142,0 0.762,0 0.38,0 0.191,0 0.952,0 0.381,0 0.38,0 0.191,0 -0.191,0.757 0,0.379 0,0.208 0,0.17 0,1.136 0,0.378 0,0.161 0,0.218 0.381,1.135 0,0.379 0,1.136 0,0.585 0,0.171 -0.381,1.515 -0.38,0.756 -0.381,1.893 -0.381,1.136 -0.181,1.081 -0.2,1.19 0,1.892 0,1.136 0,1.514 0,0.757 0,0.233 0,1.281 0,0.757 0,1.893 0,1.135 0.238,1.184 0.143,0.709 0,0.757 0.381,1.514 0.381,0.757 0.38,1.514 0.16,0.317 0.221,0.44 0.381,1.514 0.381,0.757 0.381,1.514 0.325,0.648 0.055,0.109 0.381,1.514 0.381,0.757 0,0.379 0.761,1.136 0.181,0.359 0.2,0.398 0,0.378 1.143,1.136 0.114,0.114 0.647,0.264 1.142,0.757 0.762,0.379 0.381,0 0.685,0.454 0.457,0.303 0.762,0.378 1.523,0.379 0.761,0 0.381,0 0.32,0 1.203,0 0.762,0 1.904,-0.757 1.904,-0.757 1.589,-0.948 0.315,-0.188 0.761,-0.378 1.904,-1.514 0.762,-0.757 1.523,-1.515 0.744,-0.739 0.017,-0.018 1.524,-1.892 0.761,-1.136 1.142,-1.892 0.762,-1.136 0.012,-0.018 1.13,-1.874 0.762,-1.136 1.142,-1.893 0.381,-1.135 0.482,-1.197 0.28,-0.696 0.38,-1.135 0.762,-1.514 0.381,-0.757 0,-0.379 0,-0.16 0.761,-0.975 0.381,-0.757 0.381,-1.515 0,-0.757 0.331,-0.988 0.05,-0.147 0,-0.757 0,-0.379 0,-1.135 0,-0.757 0,-0.184 0,-0.195 0,-1.135 0,-0.757 0,-0.379 0,-1.135 0,-0.12 0,-0.638 0,-0.378 0,-1.135 0,-0.379 0,-0.273 0,-0.106 0,-1.135 0,-0.379 0,-0.127 0,-0.251 0,-0.19 0,0.19 0,0.757 0,0.378 0,0.379 0,0.05 -0.381,1.464 -0.381,0.757 -0.381,1.892 -0.38,0.758 -0.279,1.385 -0.102,0.507 -0.381,1.136 -0.381,2.271 -0.381,1.892 -0.38,1.136 -0.134,0.662 -0.247,1.231 -0.381,1.135 0,1.893 0,0.757 0,1.468 0,0.046 0,0.757 0,1.893 0,1.892 0,1.893 0,0.441 0,0.316 0,1.892 0,0.757 0.381,1.514 0.381,0.758 0.058,0.115 0.322,1.398 0.381,0.758 0,0.378 0.762,1.514 0.291,0.58 0.09,0.177 0,0.379 0.761,1.135 0.381,0.379 0.145,0.144 0.236,0.234 1.142,1.136 0.38,0.378 10e-4,0 0.381,0.379 1.142,0.378 0.381,0 0.939,0 0.584,0 0.761,0 1.904,-0.378 0.762,-0.379 0.381,0 0.355,-0.265 1.168,-0.87 0.761,-0.757 1.523,-1.514 0.762,-0.757 1.297,-1.612 0.226,-0.281 1.523,-1.893 1.523,-1.892 0.762,-0.757 1.142,-1.893 0.357,-0.532 0.405,-0.603 1.142,-1.893 0.762,-1.135 1.142,-2.272 0.381,-1.135 0.033,-0.098 1.109,-1.795 0.381,-1.135 0.762,-1.893 0.38,-1.135 0.538,-1.336 0.224,-0.557 0.381,-1.136 0.761,-1.892 0.381,-1.136 0.381,-1.892 0.122,-0.244 0.259,-0.513 0.761,-1.514 0.381,-0.758 0.762,-1.135 0.358,-0.712 0.022,-0.045 0.762,-1.135 0.381,-0.758 0.381,-0.378 0.761,-1.136 0.211,-0.419 0.17,-0.338 0.761,-1.514 0.381,-0.757 0.762,-1.514 0.381,-0.757 0.064,-0.064 0.316,-0.314 1.143,-1.136 0.38,-0.757 0.381,-0.379 0.966,-0.639 0.177,-0.118 0.38,-0.378 0.381,0 1.143,-0.757 0.38,-0.379 0.381,0 1.038,-0.343 0.104,-0.035 0.381,0 0.381,0 0.923,0 0.219,0 0.762,0 0.381,0 1.142,0.757 0.023,0.015 0.358,0.363 0.381,0 1.142,0.757 0.762,0.379 0.753,0.749 0.389,0.386 0.761,0.379 0.381,0.378 1.143,1.515 0.761,0.756 0.313,0.415 0.829,1.1 0.381,0.757 0.381,0.378 1.142,1.514 0.68,0.676 0.082,0.081 0.381,0.379 1.142,1.136 0.381,0.756 0.381,0.379 0.388,0.579 0.373,0.557 0.381,0.756 0.381,1.515 0.381,0.757 0.38,1.514 0.05,0.198 0.331,0.559 0,0.378 0,1.136 0,0.757 0,0.378 0,1.514 0,0.758 0,0.048 0,1.087 0,0.757 0,0.379 0,1.135 0,0.505 0,0.252 0,0.379 0,1.135 0,0.757 0,0.379 0,0.323 0,0.812 0,0.757 0,0.379 0,1.135 0,0.758 0,0.378 0,1.514 0,0.338 0,0.419 0.381,1.514 0.381,0.757 0,0.379 0.316,0.942 0.064,0.193 0.381,0.757 0,0.379 0.381,1.135 0.381,0.379 0,0.378 0,0.19 1.142,0.946 0.381,0.379 0.381,0.378 0.19,0.189 0.952,0.947 0.381,0.378 0.381,0.379 0.19,0.189 0.952,0.568 0.381,0.378 0.381,0.379 0.19,0.189 0.952,-0.568 0.381,-0.378 0.38,0 0.762,-1.514 0.381,-0.757 1.142,-1.893 0.411,-0.408 0.351,-0.349 1.142,-1.893 0.762,-1.135 1.142,-1.893 0.381,-1.135 0.058,-0.174 1.084,-1.719 0.381,-1.135 1.142,-1.893 0.762,-1.893 0.381,-1.135 1.142,-1.893 0.381,-1.135 0.026,-0.078 1.116,-1.815 0.381,-1.135 1.142,-1.893 0.381,-1.136 1.142,-1.514 0.762,-0.757 1.367,-1.358 0.156,-0.156 0.762,-0.757 1.142,-1.514 0.761,-0.757 0.381,-0.378 1.523,-1.515 0.762,-0.756 1.566,-0.935 0.338,-0.201 0.761,-0.379 1.524,-0.757 0.761,-0.378 0.381,-0.379 1.142,-0.757 0.762,-0.378 0.838,-0.278 0.304,-0.101 0.762,-0.378 0.381,0 1.142,-0.379 0.381,-0.378 0.38,0 0.191,0 0.952,-0.379 0.381,0 0.38,0 0.191,0 -0.191,0 -0.761,0.379 -0.381,0.378 -0.018,0.018 -0.363,-0.018 -1.142,0.757 -0.762,0.379 -1.142,1.135 -0.762,0.379 -1.523,1.135 -0.021,0.016 -0.74,0.363 -1.523,1.136 -0.762,0.756 -1.904,1.136 -0.761,0.757 -1.524,1.514 -0.692,0.688 -0.069,0.069 -1.143,1.136 -0.761,0.378 -0.381,0.379 -1.142,1.135 -0.762,0.757 -0.381,0.379 -0.652,0.973 -0.109,0.162 -0.381,0.757 -0.381,0.379 -0.761,1.136 -0.381,0.757 0,0.378 -0.762,1.136 -0.261,0.519 -0.119,0.238 0,0.378 -0.381,1.514 -0.381,0.757 -0.381,1.893 -0.381,1.893 -0.38,1.892 0,0.798 0,0.337 0,1.893 0,1.893 0.38,1.892 0,1.136 0.381,1.893 0.381,1.135 0.756,1.252 0.386,0.641 0.381,1.135 1.523,1.514 0.762,0.757 1.142,1.136 0.762,0.757 1.523,0.757 0.445,0.221 0.316,0.157 1.143,0.758 0.761,0.378 1.524,0.379 0.761,0 1.523,0 0.762,0 0.773,-0.193 0.75,-0.186 0.761,0 1.143,-1.136 0.761,-0.378 1.524,-1.893 1.142,-1.892 1.142,-2.271 0.33,-0.983 0.432,-1.288 1.142,-2.272 0.762,-2.271 0.761,-2.271 0.762,-2.271 0.761,-2.271 0.762,-2.271 0.321,-0.957 0.44,-1.314 0.762,-2.271 0.762,-2.271 0.761,-2.65 0.762,-2.65 0.381,-2.649 0.38,-2.65 0.263,-1.044 0.499,-1.984 0.381,-3.407 0.38,-3.028 0.762,-3.028 0.381,-3.407 0.381,-3.406 0.761,-3.029 0.103,-0.821 0.278,-2.207 0.381,-2.649 0.38,-2.65 0.381,-2.65 0.381,-2.649 0.381,-2.65 0.352,-2.797 0.029,-0.231 0.38,-3.028 0.381,-2.65 0.381,-2.65 0.381,-2.649 0,-2.65 0,-2.649 0,-2.65 0,-0.312 0.381,-1.959 0.38,-2.271 0.381,-1.136 0.381,-2.271 0.381,-1.893 0,-1.135 0.38,-1.893 0.017,-0.081 -0.017,-1.054 0,-1.893 0,-1.135 0,-0.379 0,-0.378 0,-1.136 0,-0.366 0,-0.012 0,-0.379 0.381,-1.136 0,-0.757 0,-0.378 0,-0.189 0.381,1.703 0,0.757 0,0.036 0,2.235 0,2.271 -0.381,2.65 -0.381,2.271 -0.38,2.649 -0.381,2.65 -0.37,2.575 -0.011,0.075 -0.381,2.271 -0.38,1.893 -0.381,1.892 -0.381,1.893 -0.381,1.892 0,1.136 -0.341,1.697 -0.04,0.195 -0.38,1.893 -0.381,2.271 -0.381,2.271 -0.381,2.271 -0.761,1.893 -0.381,1.893 -0.323,1.605 -0.058,0.287 -0.381,1.893 -0.38,1.892 -0.381,2.272 -0.381,2.271 -0.381,2.271 -0.381,1.892 0,1.644 0,0.249 0,1.893 -0.38,1.892 0,1.893 0,1.135 0,1.893 0,1.136 -0.352,1.399 -0.029,0.114 0,0.758 -0.381,1.514 0,0.757 0,1.514 0,0.757 0,2.271 0,1.136 0,0.064 0,1.828 0,0.757 -0.381,1.514 -0.38,0.757 -0.381,1.893 0,0.757 -0.381,1.514 0,0.185 0,0.572 -0.381,1.514 0,0.757 -0.381,1.514 0,0.757 -0.38,1.514 0,0.757 -0.166,0.822 -0.215,1.071 -0.381,1.892 0,0.758 -0.381,1.892 -0.381,1.893 0,1.892 0,1.893 0,0.916 0,0.976 0,1.136 0,1.893 0,0.757 0,1.514 0,0.757 0,1.514 0,0.471 0,0.286 0,0.379 0,1.135 0,0.757 0,0.379 0,1.135 0,0.757 0,0.298 0,0.081 0.381,1.135 0,0.757 0,0.379 0.762,1.135 0.381,0.379 0.3,0.299 0.08,0.079 1.143,1.136 0.381,0.378 0.38,0.379 0.191,0.189 0.952,0.947 0.38,0.378 0.381,0.378 1.143,0.758 0.24,0.239 0.14,0.139 0.381,0 1.142,0 0.762,0 0.381,0 0.641,-0.212 0.501,-0.166 0.762,0 0.381,0 1.142,-0.379 0.381,0 0.38,0 0.556,-0.184 0.587,-0.195 0.381,-0.378 0.38,0 1.143,-0.378 0.761,-0.379 1.523,-0.378 0.762,-0.379 0.543,-0.18 0.599,-0.199 0.762,0 0.381,0 1.142,-0.757 0.762,-0.378 0.38,0 1.143,-0.757 0.304,-0.151 0.457,-0.228 0.381,0 1.142,-0.757 0.762,-0.378 1.523,-0.757 0.762,-0.379 1.523,-0.757 0.255,-0.127 0.506,-0.251 1.523,-1.136 0.762,-0.378 1.523,-1.515 0.762,-0.756 1.142,-1.136 0.762,-0.757 0.366,-0.486 0.776,-1.028 0.762,-0.757 0.38,-0.379 1.143,-1.135 0.761,-0.757 1.143,-1.136 0.761,-0.757 0.408,-0.54 0.735,-0.974 0.761,-0.757 1.142,-1.514 0.762,-0.757 1.142,-1.514 0.381,-0.757 0.762,-1.136 0.108,-0.215 0.273,-0.542 0.38,-0.379 0.762,-1.135 0.381,-0.757 1.142,-1.514 0.762,-0.757 0.761,-1.514 0.078,-0.155 0.303,-0.602 0.381,-0.379 0.761,-1.514 0.381,-0.757 0,-0.378 0.762,-1.136 0.38,-0.757 0.051,-0.101 0.711,-1.413 0.381,-0.757 0.381,-0.379 0.761,-1.135 0.381,-0.757 0,-0.379 0.761,-1.135 0.04,-0.059 0.341,-0.698 0,-0.379 0.762,-1.135 0.381,-0.757 0,-0.379 0.761,-1.136 0.373,-0.741 0.008,-0.015 0.381,-0.379 1.142,-1.136 0.381,-0.756 0.381,-0.379 1.142,-1.136 0.761,-0.378 0.381,-0.379 0.163,-0.107 0.98,-0.65 0.761,-0.378 0.381,0 1.142,-0.757 0.381,-0.379 0.381,0 1.523,-0.757 0.24,-0.119 0.522,-0.259 1.523,-0.758 0.761,-0.378 0.381,-0.378 1.523,-0.757 0.762,-0.379 0.38,0 0.563,-0.187 0.58,-0.192 0.381,0 0.38,0 1.143,-0.378 0.381,-0.379 0.256,0 0.124,0 1.143,-0.757 0.38,-0.378 0.381,-0.379 1.063,0 0.08,0 0.38,0 0.381,0 1.142,-0.378 0.381,0 0.381,0 1.142,-0.379 0.048,-0.015 0.714,0.015 0.381,0 1.142,-0.378 0.381,-0.379 0.381,0 0.141,0 1.001,-0.378 0.381,-0.379 0.381,0 1.029,-0.341 0.113,-0.037 0.381,0 0.38,0 1.143,-0.379 0.381,0 0.38,0 0.008,0"
       __comy="749.429"
       __comx="370.763"
       __timestamp="0x13dc2a39815" />
  </g>
</svg>
