<?xml version="1.0" encoding="UTF-8" standalone="no"?>
<svg
   xmlns:dc="http://purl.org/dc/elements/1.1/"
   xmlns:cc="http://creativecommons.org/ns#"
   xmlns:rdf="http://www.w3.org/1999/02/22-rdf-syntax-ns#"
   xmlns:svg="http://www.w3.org/2000/svg"
   xmlns="http://www.w3.org/2000/svg"
   xmlns:sodipodi="http://sodipodi.sourceforge.net/DTD/sodipodi-0.dtd"
   xmlns:inkscape="http://www.inkscape.org/namespaces/inkscape"
   width="200"
   height="50"
   id="svg2"
   version="1.1"
   inkscape:version="0.47 r22583"
   sodipodi:docname="blah.svg">
  <metadata
     id="metadata3276">
    <rdf:RDF>
      <cc:Work
         rdf:about="">
        <dc:format>image/svg+xml</dc:format>
        <dc:type
           rdf:resource="http://purl.org/dc/dcmitype/StillImage" />
        <dc:title></dc:title>
      </cc:Work>
    </rdf:RDF>
  </metadata>
  <defs
     id="defs3274">
    <inkscape:perspective
       sodipodi:type="inkscape:persp3d"
       inkscape:vp_x="0 : 25 : 1"
       inkscape:vp_y="0 : 1000 : 0"
       inkscape:vp_z="200 : 25 : 1"
       inkscape:persp3d-origin="100 : 16.666667 : 1"
       id="perspective3278" />
  </defs>
  <sodipodi:namedview
     pagecolor="#ffffff"
     bordercolor="#666666"
     borderopacity="1"
     objecttolerance="10"
     gridtolerance="10"
     guidetolerance="10"
     inkscape:pageopacity="0"
     inkscape:pageshadow="2"
     inkscape:window-width="1680"
     inkscape:window-height="975"
     id="namedview3272"
     showgrid="false"
     inkscape:zoom="3.7971634"
     inkscape:cx="69.02367"
     inkscape:cy="26.95719"
     inkscape:window-x="0"
     inkscape:window-y="25"
     inkscape:window-maximized="1"
     inkscape:current-layer="svg2" />
  <path
     style="fill:none;stroke:#000000;stroke-width:0.35722798"
     id="path3270"
     d="m 0.17861399,16.23941 0.20397608,0 0.10181606,0 0.40830773,-0.101456 0.0368244,-0.0093 0.16718774,0.0093 0.5101214,-0.101456 0.1578881,0 0.1482492,0 0.5097682,0 0.4986895,0 0.011388,0 0.2043305,0 0.509767,-0.101456 0.069314,0 0.1350324,0 0.4079522,0 0.1243173,0 0.079656,0 0.5101215,0 0.1932599,0 0.010691,0 0.5101215,0 0.3061454,0 0.1639689,0.03251 0.3461525,0.06894 0.2039761,0 0.274707,0.06822 0.1332463,0.03322 0.2043375,0 0.4022338,0.100027 0.00546,0.0014 0.2039761,0 0.4079533,0.101456 0.062156,0.03072 0.1421764,0.07037 0.1018045,0 0.1854012,0.122886 0.1207442,0.08002 0.203976,0.101456 0.093589,0 0.0086,0 0.3061453,0.202906 0.2039761,0.101456 0.023205,0 0.078599,0 0.3061447,0.304001 0.055,0.109311 0.04713,0.09359 0.101804,0.101456 0.172901,0.257918 0.03107,0.04645 0.102165,0.202906 0,0.101456 0.01605,0.04786 0.08609,0.256132 0.101805,0.202906 0,0.04752 0,0.05394 0,0.304358 0,0.157537 0,0.045 0.102164,0.405811 0.101805,0.202906 0.0089,0.0175 0.09324,0.286497 0.101804,0.202905 0.04107,0.121815 0.06105,0.182542 0.102165,0.202906 0.07215,0.287212 0.02967,0.118242 0,0.202906 0.102165,0.405454 0.0016,0.0053 -0.0016,0.197547 0.101804,0.405811 0,0.06715 0,0.135747 0.102165,0.405453 0,0.12896 0,0.07395 0,0.405454 0,0.192546 0,0.01034 0,0.304358 0,0.202906 0.02644,0.105384 0.07576,0.300071 0,0.202906 0,0.231483 0,0.174328 0,0.202547 0,0.269351 0,0.03501 0,0.202906 0,0.101456 0,0.0568 0,0.247202 0,0.202906 0,0.05073 0,0.05072 0,0.304359 0,0.164325 0,0.03822 0,0.101456 0.101805,0.304358 0.01283,0.03858 0.0893,0.164324 0,0.101456 0.0439,0.131816 0.05782,0.172184 0,0.101456 0,0.07502 0,0.02644 0,0.05073 0.102164,0.253631 0,0.101456 0,0.03573 0,0.06574 0,0.05072 0.203978,0.253274 0.100386,0.09967 0.0016,0.0019 0.101805,0.101456 0.05106,0.05073 0.25506,0.05072 0.0561,0 0.04611,0 0.101804,0 0.262921,0 0.04319,0 0.102164,0 0.101805,0 0.05256,0 0.253629,0 0.203976,0 0.04933,0 0.05287,0 0.305784,-0.101456 0.161829,-0.08038 0.04248,-0.02108 0.101804,0 0.306146,-0.202906 0.203976,-0.101456 0.102164,0 0.04359,0 0.262205,-0.202548 0.102164,-0.101456 0.07286,-0.07252 0.02927,-0.02893 0.203976,-0.304359 0.101805,-0.101455 0.0031,-0.0028 0.09896,-0.0986 0.203977,-0.304001 0.03462,-0.06894 0.0675,-0.133961 0.306145,-0.40581 0.06608,-0.131817 0.03572,-0.07073 0.306145,-0.507265 0.09752,-0.290783 0.0039,-0.01322 0.306146,-0.507262 0.203977,-0.30436 0.05538,-0.136818 0.148966,-0.370088 0.101804,-0.304358 0.05893,-0.234698 0.04319,-0.170755 0,-0.202906 0.09074,-0.542272 0.01104,-0.06608 0.102164,-0.507264 0.102165,-0.506906 0.01999,-0.09967 0.08179,-0.407598 0.102165,-0.506906 0.05177,-0.258633 0.05004,-0.248631 0.102165,-0.506908 0.0836,-0.415455 0.01825,-0.09145 0.102165,-0.507263 0,-0.608359 0.01361,-0.08109 0.08859,-0.527625 0,-0.60836 0,-0.266491 0,-0.341867 0,-0.608717 0,-0.45761 0,-0.150749 0.101805,-0.60836 0.102164,-0.608715 0.0071,-0.04001 -0.0071,-0.56835 0.101805,-0.709811 0,-0.302573 0,-0.508692 0,-0.710169 0,-0.486545 0,-0.223268 0,-0.709812 0,-0.7065968 0,-0.00325 0,-0.6087164 0,-0.5069062 0,-0.1707563 0,-0.336151 0,-0.3043582 0,-0.3104309 0,-0.196832 0,-0.3040015 0.09431,-0.468326 0.0079,-0.038939 0.102165,-0.3040015 0,-0.507264 0,-0.072161 0,-0.2318413 0,-0.4058117 0,-0.1103801 0,-0.09252 0,-0.1014559 0,-0.3461548 0,-0.059298 0,-0.2029065 0,-0.1014558 0,-0.016791 0,-0.2875682 0,-0.048235 0,-0.052872 0,-0.1014558 0,-0.050734 0,0.2532747 0,0.1014558 0,0.5776376 0,0.031072 0,0.6083585 0,0.6083597 0,0.1557523 0,0.4529653 0,0.7098108 0,0.464754 0,0.3465116 0,0.709812 0,0.6297919 0,0.080017 0,0.7101688 0,0.7098119 0,0.119672 0,0.488688 0,0.507264 0,0.155036 0,0.148964 0,0.507264 0,0.166826 0,0.03608 0,0.506907 0,0.507263 0,0.06753 0,0.439391 0,0.506906 0,0.223268 0,0.283996 0,0.506906 0,0.153251 0,0.04965 0,0.506906 0,0.304358 0,0.01965 0,0.487615 0,0.304002 0,0.151822 0,0.253988 0,0.202906 0,0.277924 0,0.12753 0,0.202906 -0.101456,0.603715 -7.16e-4,0.0046 -0.102165,0.304357 -0.101804,0.506907 0,0.168255 0,0.339009 0,0.304358 0,0.311861 0,0.195046 0,0.202905 0,0.376876 0,0.02857 0,0.202906 0,0.40581 0,0.04786 0,0.15468 -0.102165,0.40581 0,0.110741 0,0.09216 0,0.101456 -0.08752,0.347583 -0.01432,0.05787 0,0.202905 0,0.101456 0,0.05072 0,0.253632 0,0.202549 0,0.04822 0,0.05322 0,0.304358 0,0.159681 0,0.04323 0,0.101455 -0.102165,0.304002 -0.04177,0.124315 0.04177,0.07859 -0.102164,0.30436 -0.04107,0.08181 -0.06074,0.120743 0,0.101456 -0.07286,0.217195 -0.02927,0.08716 0,0.101456 0,0.101455 0,0.0026 0,0.301501 0,0.101455 0,0.06608 0,0.03536 0,0.05072 0,0.253632 0,0.101456 0,0.02679 0,0.07466 0,0.05072 0,0.253273 0,0.09002 0,0.01139 0,0.101456 0,0.05073 -0.101804,0.253633 0,0.0518 0,0.04965 0,0.101456 0,0.05072 0,-0.253631 0,-0.06787 0,-0.03358 0,-0.101456 0,-0.05072 0,-0.253632 0,-0.06645 0,-0.136103 0,-0.405812 0,-0.122886 0,-0.08002 0,-0.405454 0,-0.18433 0,-0.01858 0,-0.507264 0,-0.506906 0,-0.04609 0,-0.156822 0,-0.60836 0.05468,-0.327578 0.04713,-0.28078 0.102165,-0.608717 0,-0.602644 0,-0.107172 0,-0.608359 0,-0.608718 0,-0.09645 0,-0.207551 0,-0.608716 0,-0.142534 0,-0.161466 0.101816,-0.507265 0,-0.238271 0,-0.06574 0,-0.507264 0,-0.202906 0,-0.01858 0,-0.386878 0,-0.202906 0.04106,-0.122529 0.06105,-0.181829 0,-0.202548 0.07286,-0.217195 0.02927,-0.08716 0,-0.202906 0,-0.101456 0,-0.0026 0,-0.301858 0,-0.202548 0,-0.03393 0,-0.06751 0,-0.304358 0,-0.06574 0,-0.03572 0,-0.101456 0,-0.05073 0,-0.253274 0,-0.02715 0,-0.0743 0,-0.101455 0,-0.05073 0.305782,-0.05073 0.102165,0 0.102165,0 0.01857,0 0.287208,0 0.102164,0 0.08539,0 0.01644,0 0.306137,0 0.203985,0 0.02754,0 0.07466,0 0.40796,0 0.09288,0 0.111449,0 0.407952,0.101456 0.156472,0.07788 0.04753,0.02358 0.102165,0 0.407952,0 0.02825,0 0.175755,0 0.40796,0 0.180398,0 0.02391,0 0.101816,0 0.285422,0 0.122885,0 0.203976,0 0.101816,0 7.87e-4,0 0.305068,0 0.03218,0 0.07002,0 0.101816,0 0.05106,0 0.255062,0 0.0961,0 0.0063,0 0.101816,0 0.05106,0 0.255061,0 0.0568,0 0.0454,0 0.101816,0 0.05106,0 0.25506,0 0.0454,0 0.05681,0 0.101804,0 0.05106,0 0.1529,-0.202905 0.102164,-0.101456 0.01139,-0.01139 -0.01139,-0.09002 0,-0.05072 0.101816,-0.253275 0,-0.07037 0,-0.03107 0,-0.101456 0,-0.05073 0,0.05073 0.102165,-0.304357 0.0236,-0.04645 0.0786,-0.156465 0,-0.101095 0.04784,-0.143963 0.05398,-0.160394 0,-0.202906 0.0675,-0.268635 0.03462,-0.136819 0,-0.202906 0.100387,-0.500119 0.0016,-0.0072 0,-0.202906 0.102165,-0.506907 0.0332,-0.09896 0.06892,-0.205406 0,-0.506906 0,-0.192904 0,-0.11146 0,-0.506907 0,-0.192188 0,-0.01069 0,-0.40581 0,-0.2025493 0,-0.028934 0,-0.3768752 0,-0.2029058 0,-0.1407484 0,-0.2647054 0,-0.2029059 0,-0.2657769 0,-0.1400337 0,-0.2025491 0,-0.351155 0,-0.054661 0,-0.2029059 0,-0.4054538 0,-0.024646 0,-0.1782571 0,-0.3043583 0,-0.068594 0,-0.1339598 0,-0.1014559 0,-0.1421776 0,-0.1621817 0,-0.2029047 0,-0.088232 0,-0.013212 0,-0.3040015 0,-0.1014558 0,-0.016071 0,-0.085374 0,-0.050722 0,-0.2536314 0,-0.063237 0,-0.038219 0,-0.1014559 0,-0.050722 0,0.050722 0,0.3043594 0,0.1010956 0,3.579e-4 0,0.3043582 0,0.202548 -0.03289,0.1303889 -0.06931,0.2754216 -0.102165,0.2029059 0,0.3822343 0,0.2261254 -0.101816,0.6083596 0,0.5697784 0,0.038939 -0.102165,0.5069062 -0.101816,0.5072629 -0.02502,0.1232448 -0.07718,0.3836625 0,0.5072629 0,0.2825666 0,0.224341 -0.102165,0.506906 0,0.263634 0,0.04073 0,0.40581 0,0.202549 0,0.07144 0,0.334365 0,0.202906 0,0.19719 0,0.208264 0,0.202906 0,0.405454 0,0.101804 0,0.202548 0,0.405811 0,0.04251 0,0.160395 0,0.405455 0,0.08394 0,0.118957 -0.101816,0.405812 0,0.147534 0,0.05501 0,0.507264 0,0.202906 0,0.0074 -0.102165,0.397952 0,0.202906 0,0.142176 0,0.263277 0,0.202905 0,0.26935 0,0.136461 0,0.202906 0,0.394023 0,0.01139 0,0.202906 0,0.101456 0,0.114668 0,0.290784 0,0.202904 -0.06034,0.240773 -0.04146,0.165039 0,0.202906 0,0.45618 0,0.05072 0,0.202906 0,0.405454 0,0.04287 0,0.160038 0,0.405812 0,0.106092 0,0.09645 0,0.405812 0,0.169325 0,0.03358 0,0.405454 0,0.202905 0,0.03 -0.102165,0.375804 0,0.202548 0,0.182901 0,0.22291 0,0.202905 0,0.07716 0,0.0243 0,0.304 0,0.202905 0,0.015 0,0.08645 0,0.304357 0,0.07824 0,0.124315 0,0.101455 0,0.212551 0,0.09181 0,0.202906 0,0.101456 0,7.13e-4 -0.101804,0.303287 -0.03391,0.06715 -0.06821,0.135747 0,0.101456 0,0.191475 0,0.112879 0,0.101455 0,0.09467 0,0.0065 0,0.304359 0,0.202905 0,0.02465 0,0.0768 0,0.05073 0,0.253275 0,0.08823 0,0.01322 0,0.101456 0,0.05072 0,0.253632 0,0.04965 0,0.0518 0,0.101456 0,0.05073 0,0.253273 0,0.01069 0,0.09073 0,0.101456 0,0.04216 0.203977,0.160753 0.102165,0.101456 0.05256,0 0.04933,0 0.05106,0 0.255061,0 0.102165,0 0.01503,0 0.08681,0 0.05106,0 0.255061,0 0.0782,0 0.02391,0 0.101816,0 0.306137,0 0.0225,0 0.07931,0 0.102165,0 0.117534,0 0.188611,0 0.203977,0 0.213629,0 0.09252,0 0.203976,0 0.40796,0 0.0016,0 0.202191,0 0.408307,0 0.06428,0 0.139675,0 0.102164,0 0.190052,-0.06324 0.115737,-0.03822 0.20433,0 0.09825,0 0.004,0 0.306138,-0.202906 0.203984,-0.101456 0.03572,0 0.06648,0 0.305791,-0.202906 0.15039,-0.07466 0.05398,-0.02643 0.101816,0 0.306138,-0.202906 0.02573,-0.01714 0.178257,-0.08431 0.102165,0 0.121461,-0.08038 0.184331,-0.122529 0.20433,-0.101456 0.07215,0 0.02967,0 0.306146,-0.304002 0.203976,-0.202906 0.004,-0.0035 0.09858,-0.09788 0.305791,-0.304357 0.06719,-0.06644 0.137172,-0.13646 0.101816,-0.101096 0.195763,-0.194689 0.11038,-0.109671 0.203977,-0.202906 0.28971,-0.191832 0.01644,-0.01104 0.203978,-0.101456 0.306145,-0.304 0.05248,-0.02608 0.151468,-0.07537 0.102164,-0.101455 0.174331,-0.173613 0.13146,-0.130746 0.204331,-0.202548 0.08931,-0.08931 0.01252,-0.01214 0.203976,-0.304359 0.102164,-0.202905 0.01896,-0.01857 0.08288,-0.08288 0.20433,-0.303999 0.05074,-0.101456 0.05106,-0.101455 0.203976,-0.405811 0.08252,-0.163969 0.01967,-0.03858 0.306145,-0.507263 0.101804,-0.304359 0.01212,-0.03608 0.192183,-0.470827 0.101816,-0.304358 0.04398,-0.04358 0.05822,-0.05787 0.203976,-0.405454 0.07537,-0.150035 0.02644,-0.05287 0,-0.101456 0.102165,-0.304001 0.0048,-0.015 -0.0048,-0.187902 0,-0.101455 0,-0.108951 0,-0.195403 0,-0.202906 0,-0.06822 0,-0.03286 0,-0.304358 0,-0.198619 0,-0.0043 0,-0.101456 0,-0.05072 0,-0.253274 0,-0.121815 0,-0.08108 0,-0.101456 0,-0.05073 0,-0.253633 0,-0.101455 0,-0.0225 0,-0.07895 -0.0782,-0.23327 -0.02391,-0.07073 -0.101805,-0.101456 0,-0.08501 0,-0.01643 0,-0.05072 -0.306145,-0.253632 -0.101816,-0.101456 -0.04682,-0.04609 -0.05539,-0.05537 -0.180044,-0.267922 -0.02391,-0.03608 -0.102165,-0.202905 -0.101816,-0.101456 -0.0079,-0.0072 -0.29864,-0.09431 -0.0786,0 -0.125394,0 -0.102164,0 -0.212915,0 -0.09323,0 -0.203978,0 -0.101816,0 -7.07e-4,0 -0.30543,0 -0.203984,0 -0.03289,0 -0.06932,0 -0.05106,0 -0.255061,0 -0.101095,0 -7.16e-4,0 -0.102165,0 -0.05106,0 -0.25506,0 -0.06821,0 -0.03359,0 -0.102165,0 -0.05106,0 -0.25506,0.202906 -0.02927,0.02929 -0.07253,0.07216 -0.102164,0.101456 -0.05106,0.05072 -0.25506,0.253275 -0.101805,0.101456 -0.102164,0.101455 -0.0225,0.0225 -0.181468,0.281853 -0.05287,0.05251 -0.04893,0.04893 -0.102165,0.101455 -0.171113,0.255061 -0.03289,0.04893 -0.102165,0.202906 0,0.101456 0,0.015 -0.101816,0.289354 0,0.202906 0,0.04679 0,0.0543 0,0.304359 0,0.15575 0,0.04716 0,0.304358 0,0.202548 0,0.01536 -0.102164,0.390451 0,0.202906 0,0.15718 0,0.248274 0,0.202904 0,0.28221 0,0.123601 0,0.202549 0,0.405811 0,0.0021 0,0.200762 0,0.304002 0,0.145391 0,0.05751 0,0.101455 0,0.190403 0,0.113959 0,0.202548 0,0.0986 0,0.0028 0,0.304357 0,0.202906 0,0.03573 0,0.06574 0,0.303999 0,0.150393 0,0.05251 0,0.101456 0.102164,0.304358 0.01283,0.03858 0.08895,0.163968 0,0.101456 0,0.04822 0.306146,0.256133 0.102164,0.101456 0.101816,0.101456 0.0088,0.0086 0.297216,0.295427 0.101805,0.101456 0.07184,0.07144 0.03036,0.03 0.203976,0.304359 0.101456,0.100735 7.08e-4,7.15e-4 0,0.101456 0.205409,0.136105 0.100735,0.06644 0.101816,0.101456 0.06467,0.06431 0.03753,0.03715 0.305792,0.202904 0.191112,0.09502 0.01322,0.0065 0.101816,0 0.306146,0.202905 0.02533,0.02501 0.07679,0.07645 0.101816,0 0.05106,0 0.255061,0.202547 0.08859,0.08823 0.01354,0.01322 0.101816,0 0.306147,0.202906 0.03603,0.01786 0.167904,0.0836 0.102164,0 0.149328,0 0.156463,0 0.204331,0 0.08109,0 0.0207,0 0.306145,0 0.102165,0 0.0055,0 0.09646,0 0.306145,0 0.03683,0 0.06499,0 0.102165,0 0.205762,0 0.100387,0 0.101804,0 0.100027,0 0.0023,0 0.306145,-0.101456 0.06679,0 0.13718,0 0.101804,0 0.05106,0 0.255061,-0.202905 0.185755,-0.09217 0.01825,-0.0093 0.102164,0 0.187541,-0.124315 0.118605,-0.07824 0.101804,-0.101456 0.05429,0 0.04791,0 0.05106,0 0.255061,-0.304358 0.101804,-0.101456 0.01573,-0.01536 0.08645,-0.08609 0.05106,-0.05073 0.255061,-0.253275 0.0786,-0.07859 0.0232,-0.02287 0.102165,-0.101456 0.203976,-0.304358 0.01573,-0.02358 0.08645,-0.07788 0.101804,-0.101455 0.120383,-0.119672 0.185763,-0.184329 0.203976,-0.202906 0.07144,-0.07109 0.03076,-0.03036 0.203976,-0.304357 0.101805,-0.20255 0.0016,-0.0028 -0.0016,-0.0986 0.204337,-0.304358 0.03249,-0.06466 0.06932,-0.138247 0.203976,-0.304001 0.12932,-0.256845 0.07506,-0.148965 0.101804,-0.202906 0.191475,-0.476185 0.0125,-0.03072 0.102165,-0.304359 0.203976,-0.506907 0.08787,-0.218623 0.01432,-0.08573 0.101804,-0.506907 0.05751,-0.171112 0.04469,-0.133247 0.101804,-0.507262 0.08966,-0.266493 0.01252,-0.03751 0.102164,-0.507263 0.101805,-0.304001 0.03785,-0.11253 0.06428,-0.394738 0.101804,-0.304 0.04248,-0.211123 0.05964,-0.296141 0.102165,-0.202905 0.07324,-0.364374 0.02856,-0.142533 0.102165,-0.304359 0.101804,-0.405453 0.0071,-0.02679 0.09538,-0.176114 0.101805,-0.405811 0.03894,-0.07681 0.06326,-0.126103 0.102165,-0.304 0,-0.202906 0.101804,-0.304358 0,-0.202548 0,-3.58e-4 0,-0.304001 0,-0.202905 0,-0.1236 0,-0.281854 0,-0.202906 0.06326,-0.251488 0.03894,-0.154322 0,-0.202548 0.09431,-0.374733 0.0079,-0.03107 0.102165,-0.405812 0,-0.202548 0.02431,-0.120743 0.07789,-0.386521 0,-0.304358 0.0561,-0.278995 0.04571,-0.227911 0,-0.304358 0.08716,-0.433318 0.01502,-0.07359 0,-0.304359 0.101805,-0.5069061 0,-0.051082 0,-0.2532735 0,-0.5069073 0,-0.097168 0,-0.1057437 0,-0.4058105 0,-0.202548 0,-0.01965 0,-0.3861632 0,-0.2029058 0,-0.6083597 0,-0.3043582 0.04177,-0.207906 0.06034,-0.2990002 0,-0.3043582 0,-0.2889975 0,-0.1164563 0,-0.2029059 0,-0.1014558 0,-0.00256 0,-0.3018576 0,-0.2029047 0,-0.033931 0,-0.067153 0,-0.2522033 0,-0.052151 0,-0.1014558 0,-0.096808 0,-0.00465 0,-0.2307687 0,-0.073591 0,-0.1010956 0,-0.058229 0,-0.043227 0,-0.050734 0,0.2532759 0,0.042867 0,0.058577 0,0.1014558 -0.07497,0.2239826 -0.02714,0.080377 -0.101805,0.2029059 -0.102165,0.4054538 -0.01212,0.048584 0.01212,0.1543218 -0.101804,0.5069062 -0.05074,0.1511077 -0.05145,0.1532505 -0.102164,0.6083597 -0.09074,0.451536 -0.01104,0.05573 -0.102165,0.5069061 -0.101804,0.5072641 -0.0207,0.1028851 -0.08145,0.4040245 -0.102165,0.5072641 -0.05248,0.2611334 -0.04933,0.2457739 -0.102165,0.5072629 -0.0843,0.4190286 -0.01755,0.08787 0,0.506907 0,0.507264 0,0.06681 0,0.237556 -0.102164,0.506906 -0.04571,0.09109 -0.05609,0.111809 0,0.405455 0,0.153251 0,0.04965 -0.102164,0.608716 -0.102165,0.506906 -0.0063,0.03144 -0.09574,0.272922 0,0.506906 0,0.114668 0,0.189688 0,0.506907 0,0.139319 0,0.06359 -0.102164,0.506906 -0.101096,0.301857 -7.08e-4,0.0026 0,0.40581 0,0.20255 -0.03178,0.125744 -0.07034,0.280066 0,0.202906 0,0.251487 0,0.153967 0,0.202906 0,0.47011 0,0.03715 0,0.506906 -0.102164,0.506907 0,0.04858 0,0.154321 0,0.507266 0,0.1111 0,0.09145 0,0.405811 0,0.17397 0,0.02893 -0.101805,0.405454 -0.102165,0.202905 0,0.0668 0,0.33901 0,0.202548 -0.04862,0.193261 -0.05327,0.212551 0,0.202904 -0.102165,0.405454 -0.0093,0.03751 0.0093,0.165397 0,0.101456 0,0.304358 0,0.202547 0,0.04073 0,0.06073 0,0.304358 0,0.145391 0,0.05751 0,0.101456 0,0.304001 0,0.0067 0,0.196117 0,0.101456 -0.03391,0.101816 -0.06821,0.202548 0,0.202548 0,0.06501 0,0.03643 0,0.304358 0,0.194333 0,0.0086 0,0.101456 0,0.304001 0,0.0543 0,0.148607 0,0.101456 0,0.173614 0,0.130744 0,0.202549 0,0.08966 0,0.01178 0,0.304358 0,0.202906 0,0.01893 0,0.08252 0.102165,0.304001 0,0.102165 0,0.100735 0,0.101456 0.203976,0.304359 0.01252,0.01858 0.08967,0.08287 0.101805,0.101096 0.05106,0.05072 0.255061,0.253633 0.102164,0.101456 0.101805,0.101455 0.01644,0.01607 0.28971,0.186829 0.102165,0.101456 0.0782,0.07788 0.0236,0.02322 0.05106,0.05073 0.255061,-0.05073 0.102165,0 0.03965,0 0.06216,0 0.260419,0 0.04571,0 0.203976,0 0.102165,0 3.53e-4,0 0.305429,0 0.0343,0 0.0679,0 0.102165,0 0.192898,-0.06359 0.11289,-0.03751 0.102165,-0.101456 0.09538,0 0.0071,0 0.305776,-0.202904 0.204341,-0.101456 0.02498,0 0.07681,0 0.306146,-0.101456 0.05717,-0.0568 0.04474,-0.04466 0.102141,0 0.05101,0 0.255063,-0.202906 0.01813,-0.01786 0.08355,-0.08324 0.102141,-0.101456 0.04939,-0.04893 0.256852,-0.255418 0.101793,-0.101456 0.102142,-0.101456 0.01162,-0.01104 0.192906,-0.292926 0.102142,-0.101456 0.07472,-0.0743 0.02719,-0.02715 0.203969,-0.304359 0.102141,-0.202905 0.0035,-0.0057 -0.0035,-0.09574 0.137885,-0.205765 0.06612,-0.09824 0.102142,-0.101455 0.06391,-0.06359 0.03788,-0.03787 0.204341,-0.304359 0.0832,-0.165395 0.01859,-0.03715 0,-0.101456 0.203981,-0.304359 0.01162,-0.01643 0.0911,-0.186473 0,-0.101456 0.203969,-0.304001 0.102141,-0.202905 0,-0.0693 0,-0.03214 0.203969,-0.304358 0.100399,-0.199334 0.0012,-0.0033 0,-0.101456 0.204341,-0.304358 0.03102,-0.06252 0.07077,-0.140391 0,-0.101456 0.124673,-0.185759 0.07937,-0.118241 0.102142,-0.202906 0,-0.09217 0,-0.0093 0.20398,-0.405811 0.102142,-0.202549 0.02324,-0.06966 0.07855,-0.234699 0.102141,-0.202905 0.101793,-0.304001 0.102141,-0.202906 0.08645,-0.257561 0.01569,-0.0468 0,-0.202904 0.101792,-0.304002 0.01569,-0.04679 -0.01569,-0.156108 0,-0.101456 0.09471,-0.141106 0.109346,-0.163253 0.102141,-0.202548 0,-0.07859 0,-0.02287 0,-0.304358 0,-0.202906 0,-0.01679 0,-0.08467 0.102142,-0.405454 0,-0.07931 0,-0.123601 0.101793,-0.304358 0,-0.202548 0.102141,-0.405812 0,-0.202904 0,-0.0028 0,-0.0986 0,-0.101455 0,-0.0986 0,-0.205406 0,-0.101456 0,-0.06359 0,-0.03787 0,-0.05072 0,-0.253632 0,-0.101455 0,-0.02501 0,-0.07645 0,-0.05037 -0.102141,0.253275 -0.101793,0.101456 -0.0035,0.004 0.0035,0.09753 -0.102142,0.304358 -0.03393,0.03393 -0.06821,0.06751 0,0.101456 -0.06682,0.199333 -0.03498,0.104663 0,0.202905 0,0.09753 0,0.004 -0.203981,0.304358 -0.102141,0.202548 0,0.507264 0,0.506906 0,0.178971 0,0.125387 0,0.506906 0,0.268636 0,0.03573 -0.102141,0.608358 -0.101793,0.507264 0,0.506907 0,0.304358 0,0.260062 0,0.246845 0,0.202906 -0.0832,0.330436 -0.01894,0.07537 -0.101793,0.202547 0,0.405811 0,0.202906 0,0.506906 0,0.109672 0,0.09324 0,0.506907 0,0.169684 0,0.03322 0,0.405812 0,0.202905 -0.01604,0.07931 -0.08611,0.427601 0,0.304359 0,0.506907 0,0.202905 0,0.346869 0,0.05858 0,0.202906 0,0.507263 0,0.202549 0,0.405811 0,0.128601 0,0.0743 0,0.405455 0,0.202904 0,7.16e-4 -0.101793,0.506548 0,0.506907 0,0.506907 0,0.202905 -0.08006,0.397595 -0.02208,0.109671 0,0.304002 -0.102142,0.608715 -0.01534,0.07752 -0.08645,0.429388 0,0.304358 -0.05682,0.28221 -0.04543,0.224696 -0.101793,0.202907 -0.102141,0.405811 -0.102142,0.202548 0,0.40581 0,0.06145 0,0.141462 -0.101793,0.405452 0,0.202906 -0.102141,0.405812 0,0.196833 0,0.0057 -0.101793,0.405811 -0.102141,0.202905 -0.02684,0.107173 -0.07542,0.298286 0,0.202906 0,0.40581 0,0.202548 0,0.360443 0,0.04537 0,0.202906 -0.101793,0.405454 0,0.202906 0,0.304358 0,0.102885 0,0.09967 0,0.101456 0,0.304358 0,0.202904 0,0.101456 0,0.01429 -0.102141,0.289712 0,0.202905 0,0.101456 0,0.304359 0,0.152536 0,0.05037 0,0.101096 -0.101793,0.304358 0,0.202905 0,0.101456 0,0.03894 -0.102141,0.265063 0,0.101456 0,0.101096 0,3.57e-4 0,0.304359 0,0.101456 0,0.0618 0,0.03965 0,0.05072 0,-0.05072 0,-0.202905 0,-0.05859 0,-0.04287 0,-0.101455 0,-0.304359 0,-0.101095 0,-0.101456 0,-0.101096 0,-0.203263 0,-0.202905 0,-0.101456 0,-0.304001 0,-0.18826 0,-0.01465 0,-0.304358 0,-0.202905 0,-0.405454 0,-0.202906 0,-0.220409 0,-0.185402 0,-0.202548 0.102141,-0.507263 0.101793,-0.506908 0,-0.304358 0,-0.04965 0.102141,-0.558704 0.101793,-0.507264 0,-0.304001 0.102142,-0.608717 0.07077,-0.422243 0.03149,-0.186116 0.101793,-0.608359 0.102141,-0.608717 0.101793,-0.608359 0.102142,-0.608359 0.02498,-0.148607 0.07716,-0.460111 0,-0.608358 0,-0.506906 0,-0.507264 0,-0.381163 0,-0.125743 0,-0.507264 0.101793,-0.608359 0.102141,-0.60836 0,-0.507264 0,-0.114319 0,-0.190045 0,-0.506906 0,-0.304359 0,-0.506906 0,-0.302215 0,-0.0021 0,-0.506908 0,-0.304358 0.101793,-0.506906 0,-0.202906 0.06252,-0.309359 0.03963,-0.197905 0,-0.304 0,-0.507264 0,-0.506907 0,-0.202905 0.02359,-0.117885 0.07855,-0.38902 0,-0.304359 0.101793,-0.506907 0,-0.304358 0.0868,-0.431531 0.01534,-0.07574 0,-0.304 0.101793,-0.405812 0,-0.202905 0.102142,-0.405454 0,-0.09503 0,-0.107881 0,-0.101456 0.101792,-0.405454 0.102142,-0.202906 0,-0.101456 0,-0.0086 0.20398,-0.295784 0.102142,-0.202548 0,-0.101456 0.203981,-0.304358 0.07216,-0.143606 0.02998,-0.0593 0,-0.101456 0.101793,-0.304001 0.102141,-0.101456 0,-0.101456 0.06717,-0.100027 0.136816,-0.204333 0.102141,-0.101456 0.101793,-0.101456 0.306146,-0.202548 0.09645,-0.0961 0.0058,-0.0053 0.102142,0 0.306145,-0.202906 0.05752,-0.05751 0.04427,-0.04394 0.102141,0 0.306146,-0.202906 0.203969,-0.101456 0.02533,0 0.07646,0 0.306145,-0.202549 0.203969,-0.101456 0.408322,-0.101456 0.177184,0 0.02673,0 0.510114,-0.101456 0.510126,-0.101456 0.611931,0 0.612291,0.101456 0.148971,0 0.157174,0 0.510126,0.101456 0.305774,0.101456 0.510126,0.101456 0.306145,0.101095 0.03254,0.01104 0.375448,0.09038 0.204341,0.101456 0.509766,0.202906 0.306134,0.101456 0.370451,0.220766 0.139675,0.0836 0.306145,0.101455 0.40795,0.304002 0.203981,0.202905 0.102141,0.101455 0.105047,0.104315 0.201122,0.200048 0.101793,0.202548 0.102141,0.101456 0.203969,0.304359 0.09819,0.195404 0.0035,0.0074 0,0.101456 0.20398,0.405454 0.101793,0.202906 0.102142,0.304357 0,0.117529 0,0.08502 0,0.101455 0,0.304359 0,0.202905 0,0.101456 0,0.06073 0,0.243272 0,0.202906 0,0.101456 0,0.304359 0,0.165754 0,0.0368 0,0.101456 0,0.304358 0,0.101456 0,0.0443 0,0.05716 0,0.304002 0,0.0961 0,0.0053 0,0.101456 -0.306146,0.304358 -0.05183,0.05144 -0.05008,0.05001 -0.102141,0.101455 -0.306134,0.304001 -0.0136,0.01357 -0.0882,0.08788 -0.102141,0.101455 -0.280418,0.278639 -0.02568,0.02572 -0.101793,0.101456 -0.102141,0.101095 -0.160742,0.2397 -0.04323,0.06466 -0.102142,0.101456 -0.101793,0.101456 -0.05101,0.05072 -0.255063,0.253633 -0.101793,0.101095 -0.102142,0.101456 -0.05101,0.05072 -0.255063,0.253632 -0.101793,0.101455 -0.102141,0.101456 -0.05101,0.05073 -0.255063,0.253275 -0.101793,0.101456 -0.102141,0.101455 -0.04358,0.04358 -0.26257,0.05787 -0.101793,0.101455 -0.102141,0 -0.04787,0 -0.258282,0.202906 -0.203969,0.101456 -0.101793,0 -0.0081,0 -0.29757,0.202548 -0.102141,0.101456 -0.101793,0.101456 -0.244698,0.08109 -0.06147,0.02036 -0.102141,0 -0.101793,0 -0.306145,0.101456 -0.203969,0.101456 -0.04218,0 -0.06008,0 -0.306145,0.101455 -0.203981,0 -0.101793,0 -0.05101,0 -0.255063,0.101456 -0.102141,0 -0.101793,0 -0.252913,0.0836 -0.05322,0.01786 -0.102141,0 -0.101793,0 -0.306145,0 -0.101793,0 -0.02754,0 -0.07472,0 -0.306145,0.101096 -0.101793,0 -0.102141,0 -0.271843,0 -0.03428,0 -0.20398,0 -0.102142,0 -0.305785,0 -0.05183,0 -0.05032,0 -0.101793,0 -0.306145,0 -0.102142,0 -0.01325,0 -0.08855,0 -0.306145,0 -0.07611,0 -0.02603,0 -0.101792,0 -0.306146,0 -0.102141,0 -0.04497,0 -0.05682,0 -0.306145,0 -0.102142,0 -0.02034,0 -0.08146,0 -0.306145,0 -0.0868,0 -0.01534,0 -0.101793,0 -0.306146,0 -0.04787,0 -0.05392,0 -0.102142,0 -0.306145,0 -0.0093,0 -0.09285,0 -0.102141,0 -0.05101,0 0.255052,0 0.102141,0 0.05032,0 0.05148,0 0.05101,0 0.255063,0 0.102141,0 0.0046,0 0.0968,0 0.05101,0 0.255063,0 0.0035,0 0.09784,0 0.101793,0 0.05101,0 0.255052,0 0.04567,0 0.05636,0 0.101793,0 0.05101,0 0.255064,0 0.102141,0 0.101793,0 0.05101,0 0.255063,0 0.101793,0 0.102142,0 0.03149,0 0.274713,0 0.09436,0 0.0081,0 0.102142,0 0.05113,0 0.255052,0.101456 0.101793,0 0.0165,0 0.08576,0 0.306146,0 0.07925,0 0.02254,0 0.102141,0 0.306145,0 0.04172,0 0.06008,0 0.102142,0 0.306145,0 0.01824,0 0.08355,0 0.102141,0 0.285787,0 0.01999,0 0.102141,0 0.102142,0 0.246847,0 0.05892,0 0.102141,0 0.102141,0 0.305786,0.101455 0.20398,0 0.0081,0 0.400455,0.101456 0.203981,0 0.510114,0 0.306146,0 0.3358,0 0.174326,0 0.203969,0 0.510126,0 0.203981,0 0.510114,0 0.08471,0 0.22148,0 0.611931,0 0.306145,0 0.510126,0.101456 0.273993,0 0.03219,0 0.611919,0 0.306145,0 0.510126,0.101456 0.306145,0 0.26221,0 0.247917,0 0.305785,0 0.40831,0 0.20398,0 0.407962,0 0.02789,0 0.176116,0 0.40831,0 0.203981,0 0.407961,0 0.160033,0 0.04393,0 0.40831,0 0.203969,0 0.306145,0 0.203981,0 0.04102,0 0.06077,0 0.306145,0 0.203981,0 0.306145,0 0.203969,0 0.0046,0 0.301498,0 0.20398,0 0.40831,0 0.20397,0 0.06496,0 0.03684,0 0.40831,0 0.203981,0 0.101793,0 0.306145,-0.202906 0.05287,-0.02608 0.151098,-0.07537 0.102141,0 0.306134,-0.202906 0.20398,-0.101096 0.08971,0 0.01208,0 0.306146,-0.202904 0.102141,-0.101456 0.101793,0 0.306145,-0.202905 0.05543,-0.05501 0.04683,-0.04645 0.101793,0 0.306145,-0.202906 0.102142,-0.101095 0.101792,0 0.02464,0 0.281488,-0.304358 0.102141,-0.101456 0.0875,-0.08716 0.01429,-0.01429 0.306145,-0.304358 0.102142,-0.101096 0.04857,-0.04858 0.05322,-0.05287 0.203981,-0.304359 0.102142,-0.101456 0,-0.101456 0,-0.05072 0.101792,-0.253275 0.102142,-0.202905 0,-0.101456 0.07286,-0.217194 0.02928,-0.08716 0.101793,-0.101456 0,-0.101456 0,-0.304 0,-0.03358 0,-0.06787 0,-0.101456 0,-0.304358 0,-0.101456 0,-0.28864 0,-0.01536 0,-0.202906 0,-0.101456 0.102141,-0.30436 0.101793,-0.202547 0,-0.05751 0,-0.04394 0.102142,-0.304357 0,-0.202906 0,-0.101455 0.102141,-0.304001 0,-0.03715 0,-0.165754 0,-0.101456 0,-0.304358 0,-0.202548 0,-0.08145 0,-0.02001 0,-0.304358 0,-0.202905 0,-0.101456 0.203981,-0.304001 0.04288,-0.08537 0.05891,-0.117527 0,-0.101456 0,-0.304359 0,-0.0035 0,-0.09753 0,-0.101456 0.09075,-0.270063 0.01162,-0.03429 0,-0.202905 0,-0.101456 0,-0.304003 0,-0.02857 0,-0.07288 0,-0.101456 0,-0.30436 0,-0.101455 0,-0.101456 0,-0.02072 0.20398,-0.283282 0.102142,-0.202905 0,-0.101456 0,-0.05072 0,0.253631 0,0.08573 0,0.01572 0,0.101456 -0.102142,0.304001 -0.101793,0.101456 0,0.04679 0,0.05466 -0.102141,0.405809 -0.102141,0.202549 -0.101793,0.507265 0,0.506906 0,0.04037 0,0.466898 0,0.304002 -0.102142,0.507262 0,0.304359 0,0.354728 0,0.152179 0,0.202905 -0.101793,0.405455 0,0.202904 -0.102141,0.405811 0,0.06465 0,0.137889 -0.102141,0.405812 0,0.202906 0,0.101456 0,0.379376 0,0.02607 0,0.202905 0,0.101456 0,0.304359 0,0.202548 0,0.06751 0,0.03393 0,0.30436 0,0.202904 0,0.101456 0,0.304002 0,0.07251 0,0.130387 0,0.101456 0,0.304358 0,0.202548 0,0.09896 0,0.0026 0,0.304359 0,0.101455 0,0.101456 0,0.05072 0,0.253274 0,0.101456 0,0.101456 0,0.05073 -0.101793,0.253633 0,0.101456 0,0.101456 0,0.05072 0,-0.253632 0,-0.101456 0,-0.08288 0,-0.01858 0,-0.304359 0,-0.101456 0,-0.0443 0,-0.0568 0,-0.304358 0,-0.101456 0,-0.0057 0,-0.09574 0.203981,-0.304358 0.102141,-0.202548 0,-0.101456 0.137176,-0.272922 0.06682,-0.132888 0.101793,-0.202906 0.102142,-0.405454 0.102141,-0.202905 0.101793,-0.405453 0.02998,-0.0593 0.07216,-0.143606 0.203981,-0.507263 0.101793,-0.202549 0,-0.101456 0.185772,-0.369016 0.01859,-0.0368 0.101793,-0.202906 0.102141,-0.304002 0,-0.202906 0.101793,-0.40581 0,-0.106813 0,-0.09574 0,-0.101455 0.102141,-0.304359 0.102142,-0.202904 0,-0.101456 0.03149,-0.04679 0.172548,-0.257203 0.101793,-0.202906 0,-0.101456 0.102141,-0.304359 0.101793,-0.101456 0,-0.101096 0,-0.05072 0.204341,-0.253632 0.101793,-0.101456 0.102141,-0.101456 0.05101,-0.05073 0.255063,-0.253631 0.101792,-0.101096 0.102142,-0.101456 0.05101,-0.05073 0.255064,-0.05072 0.101792,0 0.102142,0 0.05101,0 0.254692,0 0.102141,0 0.06391,0 0.03823,0 0.05078,0 0.255063,0 0.102141,0 0.102142,0 0.05078,0 0.255051,0 0.102142,0 0.07111,0 0.03068,0 0.102142,0.304001 0.102141,0.101456 0,0.03214 0,0.0693 0.101793,0.304358 0.0954,0.09467 0.007,0.0067 0,0.101455 0.203981,0.304001 0.102141,0.101456 0.112832,0.168611 0.0911,0.135747 0.101793,0.202906 0.204341,0.405453 0.101793,0.202905 0.306145,0.506906 0.01743,0.05215 0.08436,0.252203 0.306146,0.507264 0.102141,0.304 0.306145,0.608717 0.161103,0.240413 0.04288,0.06359 0.203969,0.507263 0.102142,0.202549 0,0.101456 0.101792,0.40581 0.04172,0.08288 0.06031,0.120029 0.101792,0.405453 0.102142,0.202906 0.101793,0.304358 0,0.202549 0,0.0053 0,0.0961 0.102141,0.304358 0,0.202905 0,0.101456 0,0.05072 0,0.253274 0,0.101455 0,0.101456 0,0.02644 0,0.277924 0,0.101455 0,0.08895 0,0.0125 0,0.05072 0,-0.253631 0,-0.101456 0,-0.05894 0,-0.04251 0,-0.30436 0,-0.101455 0,-0.02001 0,-0.08109 0,-0.304358 0,-0.08251 0,-0.01894 0,-0.101456 0.102142,-0.304358 0,-0.101096 0,-0.04608 0,-0.05537 0.20398,-0.304358 0.101793,-0.202906 0.102142,-0.304 0.102141,-0.202906 0.0046,-0.01 0.0968,-0.294357 0,-0.202905 0,-0.101455 0.102142,-0.304002 0.06786,-0.135389 0.03393,-0.06751 0.102142,-0.304358 0,-0.202548 0.101793,-0.405811 0.102141,-0.202906 0.02928,-0.115737 0.07286,-0.289713 0,-0.202905 0,-0.101456 0.101792,-0.405811 0.09215,-0.183258 0.01046,-0.01929 0,-0.101456 0.101792,-0.304358 0,-0.101456 0,-0.101456 0,-0.05072 0.102142,-0.253275 0,-0.101455 0,-0.101456 0,-0.05073 0.203981,-0.253632 0.102141,-0.101455 0.101793,-0.101456 0.05101,-0.05072 0.255063,-0.253275 0.102142,-0.101456 0.101793,-0.101456 0.04462,-0.0443 0.261501,-0.260062 0.102141,-0.101456 0.101793,-0.101095 0.0046,-0.005 -0.0046,0.005 0.306146,-0.202906 0.102141,-0.101456 0.06821,0 0.03358,0 0.306145,0 0.02928,0 0.07286,0 0.101792,0 0.05101,0 0.255063,0 0.05357,0 0.04822,0 0.102141,0 0.05101,0 -0.05101,0.202906 0,0.101456 0,0.03787 0,0.06324 0.306134,0.304358 0.101444,0.100736 3.61e-4,7.14e-4 0.102141,0.101456 0.203969,0.304358 0.102141,0.101096 0,0.06216 0,0.0393 0.101793,0.405811 0.102142,0.202905 0.101793,0.405454 0.102141,0.202906 0.02359,0.09395 0.07855,0.311861 0.101793,0.202548 0.102142,0.405811 0.101792,0.202906 0.08645,0.342223 0.01569,0.06324 0.102141,0.202906 0.101793,0.405811 0.102142,0.202548 0,0.101456 0,0.141463 0,0.162895 0,0.202906 0,0.101456 0.101792,0.304001 0,0.202906 0,0.01679 0,0.08467 0,0.304358 0,0.202548 0,0.101456 0,0.05072 0,0.253631 0,0.101456 0,0.101456 0,0.200047 0,0.103954 0,0.101456 0,0.101456 0,0.05073 0,0.253631 0,0.101456 0,0.101456 0,0.05037 0,0.253632 0,0.101456 0,0.101456 0,0.05072 0,0.253631 0,0.101456 0,0.101096 0,0.05073 0.306146,0.05072 7.9e-4,3.58e-4 0.101096,-3.58e-4 0.101792,0 0.05101,0 0.255063,0 0.102141,0 0.03928,0 0.06252,0 0.306146,0 0.102141,0 0.01278,0 0.08889,0 0.286135,0 0.01999,0 0.102141,0 0.101793,0 0.240422,0 0.06577,0 0.101793,0 0.102141,0 0.05101,0 0.255051,0 0.101793,0 0.102142,0 0.243268,0 0.06287,0 0.101793,0 0.102142,0 0.306145,0 0.101793,0 0.02138,0 0.08076,0 0.306151,0 0.10179,0 0.0847,0 0.0175,0 0.30614,0 0.20398,0 0.1018,0 0.22112,0 0.0851,0 0.20398,0 0.30614,0 0.20397,0 0.30615,-0.101455 0.0408,-0.01321 0.16326,-0.08788 0.30614,-0.101456 0.20397,-0.101456 0.40796,-0.202906 0.15933,-0.07895 0.045,-0.0225 0.40795,-0.202906 0.20398,-0.101456 0.40795,-0.101095 0.20434,-0.101456 0.0403,0 0.0615,0 0.30615,-0.202906 0.20397,-0.101456 0.10214,0 0.30578,-0.202904 0.003,-0.0026 0.2004,-0.09896 0.30579,-0.101456 0.20434,-0.101096 0.10179,0 0.19255,-0.127887 0.11364,-0.07502 0.20398,-0.101456 0.10214,0 0.30579,-0.202904 0.10214,-0.101456 0.025,0 0.0772,0 0.30577,-0.202906 0.10215,-0.101096 0.10214,0 0.17432,-0.260418 0.0296,-0.04394 0.1018,-0.101456 0,-0.101456 0.20397,-0.304359 0.0494,-0.04893 0.0529,-0.05215 0,-0.101456 0.20397,-0.304358 0.10214,-0.101456 0,-0.101456 0,-0.01 0,-0.293998 0,-0.101456 0,-0.101456 0,-0.05073 0,-0.355084 0,-0.202906 0,-0.405454 0,-0.202905 0,-0.03358 0,-0.06787 0,-0.304001 0,-0.202906 0,-0.101455 -0.0968,-0.28864 -0.006,-0.01572 -0.10179,-0.101456 0,-0.101456 -0.23864,-0.236842 -0.0675,-0.06715 -0.10214,-0.101456 -0.10179,-0.101456 -0.22291,-0.221482 -0.0832,-0.08288 -0.10215,-0.101456 -0.10179,-0.101096 -0.27578,-0.09145 -0.0303,-0.01 -0.10214,0 -0.10179,0 -0.30615,0 -0.0854,0 -0.11859,0 -0.10214,0 -0.30579,0 -0.10214,0 -0.009,0 -0.0925,0 -0.30579,0 -0.20434,0 -0.10179,0 -0.21862,0 -0.0875,0 -0.1018,0 -0.10214,0 -0.23827,0.157538 -0.0679,0.045 -0.1018,0.101456 -0.10214,0.101456 -0.051,0.05072 -0.25505,0.253632 -0.10179,0.101456 -0.10215,0.101455 -0.051,0.05073 -0.25506,0.253275 -0.10179,0.101456 -0.10215,0.101455 -0.20396,0.304359 -0.0865,0.128959 -0.0157,-0.02751 0,0.101456 -0.20398,0.304002 -0.10179,0.202904 0,0.06324 0,0.03822 -0.20434,0.304358 -0.10179,0.20255 -0.20397,0.304358 -0.10214,0.202904 -0.0429,0.04251 -0.0594,0.05895 -0.20397,0.304001 -0.10179,0.202904 0,0.101456 -0.20397,0.304358 -0.0696,0.103594 -0.0325,0.09896 0,0.101456 -0.10214,0.304358 -0.0643,0.128245 -0.0375,0.07466 0,0.101456 0,0.304002 0,0.101456 0,0.101455 0,0.02787 0,0.276494 0,0.101456 0,0.09038 0,0.01104 0.20397,0.304001 0.10214,0.101456 0.0393,0.0393 0.0625,0.06216 0.20398,0.304358 0.10214,0.101456 0.0136,0.01322 -0.0136,0.08788 0.30614,0.202905 0.1018,0.101456 0.006,0.006 0.0957,0.09538 0.30614,0.101455 0.0393,0.03929 0.0625,0.06217 0.10215,0 0.30614,0.101456 7.1e-4,0 0.1011,0 0.10214,0 0.30578,0.101456 0.0636,0.06286 0.0386,0.03822 0.10215,0 0.30578,0 0.10214,0 0.0243,0 0.0778,0 0.30579,0.101456 0.10214,0 0.0871,0 0.015,0 0.30579,0.101456 0.10214,0.101455 0.30614,0.101456 0.20398,0 0.0482,0 0.0536,0 0.30614,0 0.20398,0 0.10214,0 0.30615,0.101456 0.0272,0.0089 0.17684,0.09252 0.30614,0 0.20397,0 0.30615,0 0.14896,0 0.055,0 0.30578,0 0.20433,0 0.40797,0 0.20396,0 0.10865,0 0.19755,0 0.20398,0 0.30614,0 0.20398,0 0.39688,0 0.0116,0 0.20434,0 0.50975,0 0.20435,0 0.51012,0 0.12003,0 0.0839,0 0.40795,0 0.20398,0 0.10215,0 0.30614,-0.101455 0.0408,0 0.16325,0 0.10179,0 0.30615,-0.202906 0.20398,-0.101456 0.0839,0 0.0182,0 0.30615,-0.101456 0.10179,-0.101456 0.10214,0 0.30615,-0.101095 0.0561,-0.05609 0.0457,-0.04537 0.10214,0 0.30615,-0.202906 0.20398,-0.101456 0.10179,0 0.0564,-0.03751 0.2497,-0.165396 0.20398,-0.101456 0.30615,-0.202548 0.20397,-0.101455 0.0818,-0.08145 0.0203,-0.02001 0.30615,-0.202906 0.20398,-0.101456 0.10179,-0.101456 0.30614,-0.304001 0.0425,-0.08467 0.0596,-0.118243 0.10179,-0.101456 0.20397,-0.304358 0.10214,-0.202906 0.003,-0.0065 0.099,-0.09467 0.20397,-0.304358 0.10179,-0.202906 0.10214,-0.101456 0.20398,-0.304 0.10214,-0.101456 0.0272,-0.02751 0.0747,-0.07395 0.10214,-0.304359 0.1018,-0.101456 0,-0.08966 0,-0.01178 0,-0.304 0,-0.101455 0,-0.05108 0,-0.05037 -0.1018,-0.304359 0,-0.101455 0,-0.101456 0,-0.05072 -0.10214,-0.253275 -0.10179,-0.101456 0,-0.101456 0,-0.05073 -0.30614,-0.253632 -0.10215,-0.101456 -0.10179,-0.101095 -0.051,-0.05073 -0.25506,-0.253633 -0.10215,-0.101455 -0.10179,-0.101456 -0.051,-0.05072 -0.25506,-0.05073 -0.10215,-0.101456 -0.10179,0 -0.051,0 -0.25506,-0.101456 -0.1018,-0.101095 -0.10214,0 -0.0236,0 -0.28255,0 -0.1018,0 -0.0864,0 -0.0157,0 -0.30614,0 -0.1018,0 -0.0479,0 -0.0543,0 -0.30614,0.304001 -0.1018,0.101456 -0.008,0.0083 -0.0937,0.09324 -0.20397,0.304358 -0.10214,0.101456 -0.0715,0.07073 -0.0303,0.03036 -0.20397,0.30436 -0.10214,0.202904 -0.10214,0.101456 -0.20399,0.304002 -0.0322,0.06431 -0.0696,0.138604 0,0.101456 -0.20398,0.304358 -0.10214,0.202905 0,0.09645 0,0.0046 -0.20398,0.304359 -0.10214,0.202906 0,0.101455 -0.1579,0.235413 -0.0461,0.06859 -0.10214,0.101456 -0.10179,0.101456 0,0.304358 0,0.202906 0,0.01714 0,0.0843 0,0.304002 0,0.101456 0,0.101456 0.16039,0.238986 0.0436,0.06538 0.10214,0.202548 0.10179,0.101456 0.2447,0.24363 0.0615,0.06073 0.10214,0.101456 0.10179,0.101456 0.051,0.05073 0.25506,0.253276 0.10179,0.101456 0.10214,0.101456 0.30615,0.202906 0.0596,0.0593 0.0422,0.04216 0.10214,0 0.40796,0.202906 0.20397,0.101455 0.40832,0.101096 0.041,0.02072 0.16289,0.08074 0.10214,0 0.30579,0.101456 0.20434,0.101456 0.0836,0 0.0181,0 0.40795,0.101455 0.20434,0 0.40795,0 0.20398,0 0.0446,0 0.0575,0 0.30615,0 0.20396,0 0.1018,0 0.30614,0 0.0167,0 0.18719,0 0.10214,0 0.30614,0 0.20398,0 0.0708,0 0.031,0 0.30614,0 0.20397,0 0.40832,0 0.20397,0 0.14575,0 0.26221,0 0.20397,0 0.30615,0 0.20398,0 0.39723,-0.0986 0.0116,-0.0028 0.20397,0 0.40796,-0.101456 0.20397,-0.101455 0.40832,-0.101456 0.11967,0 0.0844,0 0.51013,0 0.30578,0 0.40831,0 0.20398,0 0.0625,-0.02072 0.24363,-0.08038 0.20398,0 0.10214,0 0.3058,-0.101456 0.20398,-0.101456 0.10214,0 0.30615,-0.202905 0.20398,-0.101456 0.10214,0 0.15933,-0.105744 0.14647,-0.09717 0.20432,-0.101456 0.1018,0 0.30614,-0.202548 0.20398,-0.101456 0.0322,-0.01607 0.0701,0.01607 0.30579,-0.202905 0.10214,-0.101456 0.10214,0 0.0508,0 0.25505,-0.202906 0.10214,-0.101456 0.10179,-0.101096 0.051,-0.05073 0.25506,-0.253632 0.10214,-0.101456 0.10179,-0.101455 0.051,-0.05073 0.25506,-0.253633 0.10214,-0.101095 0.10179,-0.101456 0.051,-0.05073 0.15324,-0.253631 0.1018,-0.101456 0,-0.101456 0.20398,-0.304 0.0246,-0.04893 0.0775,-0.153965 0,-0.101456 0.20398,-0.304358 0.10214,-0.101456 0.0872,-0.0868 0.0146,-0.01465 0,-0.303999 0,-0.101456 0,-0.04786 0,-0.05359 0,-0.304358 0,-0.202548 0,-0.101456 0,-0.0093 -0.10179,-0.29507 -0.10214,-0.101456 0,-0.101456 0,-0.05073 -0.20397,-0.253275 -0.10214,-0.101456 -0.10179,-0.101456 -0.0332,-0.03286 -0.27292,-0.271494 -0.10214,-0.101455 -0.10179,-0.101456 -0.0186,-0.01822 -0.28756,-0.184331 -0.10214,-0.101455 -0.1018,-0.101456 -0.15288,-0.101456 -0.15326,-0.101456 -0.10214,-0.101456 -0.1018,0 -0.30614,-0.202906 -0.20397,-0.101456 -0.0257,-0.01286 -0.0765,0.01286 -0.3058,-0.101095 -0.10214,-0.101456 -0.10214,0 -0.003,0 -0.30292,0 -0.20398,0 -0.0361,0 -0.0661,0 -0.30615,0 -0.20397,0 -0.10214,0 -0.0508,0 -0.25506,0 -0.10214,0 -0.10214,0 -0.0508,0 -0.25507,0.202548 -0.10214,0.101456 -0.10179,0.101456 -0.0207,0.02036 -0.18362,0.283998 -0.10179,0.101455 -0.10214,0.101456 -0.16646,0.248274 -0.0375,0.05573 -0.10215,0.202906 -0.20398,0.40581 -0.10179,0.20255 -0.20433,0.304358 -0.0443,0.08823 -0.0575,0.114668 0,0.101456 -0.20398,0.304 -0.10214,0.202906 0,0.101456 0,0.0053 -0.1018,0.299 -0.10214,0.202905 0,0.101095 0,0.304359 0,0.136104 0,0.06681 0,0.101456 0,0.304001 0,0.101456 0,0.101456 0,0.02929 0,0.275065 0,0.101456 0,0.101456 0,0.05072 0,0.253275 0,0.101456 0,0.101455 0,0.05073 0.20398,0.253632 0.10214,0.101455 0,0.101456 0,0.05037 0.3058,0.253632 0.10214,0.101456 0.10214,0.101456 0.30579,0.304358 0.0768,0.07609 0.0253,0.02537 0.10214,0.101096 0.30579,0.202906 0.10214,0.101455 0.0375,0.03751 0.0646,0.06395 0.3058,0.304358 0.10074,0.100027 0.001,0.0014 0.10179,0.101096 0.30614,0 0.10215,0 0.0632,0 0.0386,0 0.30613,0.101456 0.10214,0 0.1018,0 0.30613,0 0.051,0 0.1529,0 0.10214,0 0.30615,0 0.10179,0 0.0885,0 0.0136,0 0.30615,0.101456 0.20398,0 0.10179,0 0.14788,0 0.15825,0 0.20399,0 0.10214,0 0.40796,0.101455 0.20398,0 0.0214,0 0.28472,0 0.20397,0 0.10214,0 0.30614,0 0.14646,0 0.0575,0 0.30615,0 0.20397,0 0.10179,0 0.30615,0 0.0708,0 0.13325,0 0.10214,0 0.40797,0 0.20396,0 0.40832,0 0.0207,0 0.18325,0 0.10179,0 0.4083,0 0.20399,0 0.0682,0 0.0339,0 0.3058,0 0.20433,0 0.30579,0 0.20398,0 0.0871,0 0.21898,0 0.20397,0 0.40831,0 0.20399,0 0.36793,0 0.0401,0 0.20398,0 0.10214,0 0.30615,0 0.20398,0 0.0529,0 0.0494,0 0.30579,0 0.10215,0 0.10179,0 0.30614,-0.101455 0.0408,-0.01321 0.16325,-0.08823 0.10214,0 0.30615,-0.202548 0.20398,-0.101455 0.0885,0 0.0135,0 0.30579,-0.202905 0.20397,-0.101456 0.10214,0 0.30615,-0.202906 0.0601,-0.05966 0.0417,-0.0418 0.10214,0 0.30615,-0.202548 0.10179,-0.101455 0.10214,0 0.021,0 0.28507,-0.30436 0.10179,-0.101456 0.0839,-0.08359 0.0182,-0.01786 0.20397,-0.304002 0.10215,-0.101456 0.0447,-0.04466 0.0572,-0.0568 0.10215,-0.304358 0,-0.101456 0,-0.0057 0,-0.09574 0,-0.304 0,-0.06859 0,-0.03286 0,-0.101456 0,-0.30436 0,-0.02929 0,-0.07216 0,-0.101456 0,-0.05072 0,-0.253276 0,-0.101456 0,-0.101456 0,-0.05073 -0.10215,-0.253631 0,-0.101456 0,-0.101095 0,-0.0083 -0.30614,-0.09324 -0.10179,-0.101456 -0.0603,0 -0.0418,0 -0.30614,-0.101456 -0.10179,-0.101456 -0.021,0 -0.0811,0 -0.29258,-0.193974 -0.0132,-0.0089 -0.10215,-0.101456 -0.10214,0 -0.24898,-0.08252 -0.0568,-0.01894 -0.10214,-0.101096 -0.10214,0 -0.0508,0 -0.25506,-0.304359 -0.10214,-0.101456 -0.1018,-0.101456 -0.051,-0.05072 -0.25505,-0.05073 -0.10214,-0.101456 -0.10179,0 -0.051,0 -0.25506,0 -0.10214,0 -0.10179,0 -0.051,0 -0.25505,0 -0.10214,0 -0.10179,0 -0.051,0 -0.25506,0 -0.10214,0 -0.10179,0 -0.0146,0 -0.29151,0.101456 -0.10214,0.101456 -0.0715,0 -0.0303,0 -0.30615,0.202905 -0.20398,0.101455 -0.10214,0 -0.3058,0.202906 -0.0657,0.03251 -0.13861,0.06859 -0.10179,0 -0.30613,0.202904 -0.0961,0.09574 -0.006,0.0057 -0.10179,0.101456 -0.30614,0.304358 -0.10179,0.101456 -0.10214,0.101095 -0.051,0.05073 -0.25506,0.253631 -0.10179,0.101456 -0.10214,0.101456 -0.0489,0.04858 -0.0532,0.255776 -0.1018,0.101095 0,0.101456 0,0.01 0,0.294356 0,0.101456 0,0.07251 0,0.02893 0,0.304001 0,0.101456 0,0.03501 0,0.06644 0,0.304358 0,0.0961 0,0.0053 0,0.101456 0,0.05072 0,0.253275 0,0.101456 0,0.101456 0,0.01894 0,0.285424 0,0.101456 0,0.08752 0,0.01393 0,0.05037 0.20398,0.253632 0.10214,0.101455 0.1018,0.101456 0.009,0.0096 0.29649,0.09181 0.10214,0 0.0722,0 0.0296,0 0.30614,0.202906 0.1018,0.101456 0.0336,0 0.0686,0 0.051,0 0.25506,0.101095 0.1018,0.101456 0.10214,0 0.051,0 0.25506,0.202906 0.1018,0.101456 0.10214,0 0.051,0 0.25506,0.101456 0.1018,0.101456 0.10214,0 0.051,0 0.25506,0.101455 0.1018,0.101456 0.10214,0 0.0418,0 0.26435,0.101096 0.10179,0 0.10214,0 0.003,0 0.30292,0.101456 0.10215,0 0.0661,0 0.036,0 0.30579,0.101456 0.10214,0.101455 0.10215,0 0.10283,0.03429 0.20292,0.06715 0.10214,0 0.10214,0 0.30578,0.101455 0.20399,0 0.10214,0 0.30614,0.101456 0.0679,0 0.13612,0 0.10214,0 0.3058,0.101456 0.20397,0 0.10214,0 0.30615,0 0.20397,0 0.0529,0 0.25327,0 0.20398,0 0.40795,0 0.20398,0 0.0882,0 0.0139,0 0.40795,0 0.20433,0 0.1018,0 0.30614,0 0.0975,0 0.10645,0 0.10214,0 0.30578,0 0.10214,0 0.10215,0 0.30578,0 0.0425,0 0.0596,0 0.10214,0 0.30579,0 0.0165,0 0.0858,0 0.10179,0 0.30614,0 0.10215,0 0.10179,0 0.30614,0 0.10215,0 0.0128,0 0.0889,0 0.30615,0 0.10214,0 0.10179,0 0.051,0 0.25506,0 0.10214,0 0.10179,0 0.30615,0 0.20398,0 0.10214,0 0.20291,0 0.10319,0 0.20398,0 0.30577,-0.101456 0.20434,0 0.10179,0 0.0815,-0.02716 0.22471,-0.0743 0.20397,0 0.10214,0 0.30578,0 0.10214,0 0.10214,0 0.0207,0 0.28507,-0.101455 0.10214,-0.101456 0.10214,0 0.0508,0 0.25507,0 0.10214,0 0.10179,0 0.051,0 0.25507,-0.101456 0.10214,0 0.10179,0 0.051,0 0.25507,-0.101456 0.10214,0 0.10179,0 0.30615,-0.202548 0.0218,-0.02179 0.0804,-0.07967 0.1018,-0.101456 0.30614,-0.202905 0.10214,-0.101456 0.1018,0 0.30614,-0.202905 0.0239,-0.01572 0.0782,-0.08573 0.1018,0 0.30614,-0.202548 0.10179,-0.101456 0.10215,0 0.051,0 0.25506,-0.304359 0.10179,-0.101456 0.10214,-0.101456 0.051,-0.05073 0.25505,-0.05072 0.20398,0 0.10214,0 0.30579,-0.101096 0.0615,0 0.0408,0 0.1018,0 0.30614,0 0.0219,0 0.0804,0 0.10179,0 0.30615,-0.202906 0.10214,-0.101456 0.016,-0.01607 0.0857,-0.08537 0.30615,-0.101456 0.0772,0 0.025,0 0.10179,0 0.30615,-0.101456 0.10214,-0.101455 0.10179,0 0.051,0 0.25507,-0.20255 0.03,-0.03 0.0722,-0.07144 0.10179,0 0.30615,-0.304359 0.10214,-0.101456 0.0221,-0.02215 0.0797,-0.07931 0.051,-0.05072 0.15289,-0.253275 0.10214,-0.101455 0.10179,-0.101456 0.051,-0.05072 0.25506,-0.152178 0.10214,-0.101456 0.10179,-0.101456 0.051,-0.05073 0.15324,-0.253274 0.1018,-0.101456 0.10214,-0.101456 0.29077,-0.192903 0.015,-0.01 0.10214,-0.101456 0.10214,-0.101455 0.28972,-0.287926 0.016,-0.01607 0.10214,-0.101456 0.10215,-0.101456 0.23827,-0.237199 0.0675,-0.06715 0.10214,-0.101456 0.10214,-0.101456 0.30579,-0.101456 0.0268,0 0.0754,0 0.10179,0 0.30615,0 0.10214,0 0.10179,0 0.0196,0 0.28649,-0.101095 0.10214,-0.101456 0.1018,0 0.051,0 0.25506,-0.202906 0.10214,-0.101456 0.1018,0 0.051,0 0.15289,-0.304358 0.10214,-0.101456 0,-0.101096 0.20398,-0.304358 0.10214,-0.101456 0,-0.09717 0,-0.0043 0.20398,-0.304358 0.10214,-0.101096 0,-0.101456 0,-0.05073 0.20398,-0.253632 0.1018,-0.101456 0.10214,-0.101456 0.051,-0.05073 0.25506,-0.152179 0.1018,-0.101096 0.10214,0 0.30614,-0.202906 0.1018,-0.101456 7.9e-4,-0.0011 0.10109,0.0011 0.30615,-0.202905 0.10179,-0.101456 0.095,0 0.007,0 0.29972,-0.198618 0.006,-0.0043 0.10215,-0.101095 0.10214,-0.101456 0.29257,-0.194333 0.0132,-0.0086 0.10214,-0.101456 0.10214,0 0.3058,-0.202905 0.1461,-0.07251 0.0579,-0.02894 0.10214,-0.101455 0.30614,-0.101096 0.1018,-0.101456 0.10214,0 0.051,0 0.25505,-0.101456 0.10179,-0.101456 0.10215,0 0.30614,-0.101455 0.0568,-0.05644 0.045,-0.045 0.10215,0 0.30614,-0.101455 0.10179,0 0.10214,0 0.0486,0 0.25756,-0.101456 0.10179,-0.101456 0.0415,0 0.0608,0 0.30614,-0.101096 0.1018,-0.101456 0.0508,0 0.0515,0 0.30579,-0.101455 0.10214,0 0.0596,0 0.0425,0 0.3058,-0.101456 0.10214,-0.101456 0.10214,0 0.0508,0 0.25507,-0.101456 0.10214,0 0.10179,0 0.051,0 0.25507,0 0.10214,0 0.10179,0 0.28114,-0.09324 0.025,-0.0083 0.10214,0 0.1018,0 0.30615,0 0.10214,0 0.0603,0 0.0415,0 0.20398,-0.304358 0.0529,-0.05215 0.0494,-0.04894 0,-0.101456 0.30613,-0.101456 0.045,0 0.0568,0 0.10214,0 0.30615,0 0.10179,0 0.10214,0 0.0372,0 0.26898,0 0.10179,0 0.0618,0 0.0403,0 0.051,0 0.25506,0 0.10179,0 0.10215,0 0.051,0 0.25506,0 0.10179,0 0.10215,0 0.051,0 0.25471,0 0.10214,0 0.10215,0 0.0508,0 0.25506,-0.304357 0.10214,-0.101456 0.10214,-0.101456 0.0508,-0.05073 0.25507,-0.05073 0.10214,-0.101096 0.10214,0 0.0508,0 0.25506,-0.101456 0.10214,-0.101455 0.1018,0 0.051,0 0.25506,-0.101456 0.10214,0 0.1018,0 0.051,0 0.25506,0 0.10214,0 0.1018,0 0.051,0 0.25505,0 0.10214,0 0.10179,0 0.051,0 0.25506,0 0.20398,0 0.10214,0 0.051,0 0.25506,0 0.10179,0 0.10214,0 0.051,0 0.25472,0 0.10214,0 0.10214,0 0.30579,0 0.10109,0 7.8e-4,0 0.10214,0 0.3058,0 0.0935,0 0.008,0 0.10215,0 0.30578,0 0.10214,0 0.1018,0 0.051,0 0.25506,0 0.10214,0 0.10179,0 0.22113,0 0.0851,0 0.10214,0 0.10179,0 0.30614,0 0.10215,0 0.0116,0 0.0907,0 0.30615,-0.101456 0.10214,0 0.10179,0 0.051,0 0.25505,0 0.10215,0 0.10179,0 0.051,0 0.25506,0 0.1018,0 0.10214,0 0.051,0 0.25506,0 0.1018,0 0.10214,0 0.051,0 0.25506,0 0.1018,0 0.10214,0 0.051,0 0.25506,-0.101456 0.1018,0 0.10214,0 0.051,0 0.25505,0 0.10179,0 0.10215,0 0.30614,0 0.0582,0 0.0436,0 0.10215,0 0.30578,0 0.10214,0 0.10214,0 0.0508,0 0.25507,0 0.10214,0 0.10214,0 0.0508,0 0.25506,0 0.10214,0 0.0908,0 0.0116,0 0.30577,0 0.10214,0 0.1018,0 0.005,0 0.30115,0 0.10214,0 0.1018,0 0.051,0 0.25506,-0.101456 0.10214,0 0.1018,0 0.051,0 0.25506,-0.101456 0.10214,0 0.0411,0 0.0608,0 0.30615,0 0.10214,0 0.10179,0 0.051,0 0.25506,0 0.10214,0 0.10179,0 0.30615,0 0.0786,0 0.0232,0 0.10214,0 0.30615,0 0.10179,0 0.10214,0 0.051,0 0.25507,0 0.10179,0 0.0143,0 0.0879,0 0.051,0 0.25507,0 0.10179,0 0.10214,0 0.051,0 0.25507,0 0.10179,0 0.10214,0 0.051,0 0.25506,0 0.10179,0 0.10214,0 0.0336,0 0.27257,0 0.10179,0 0.10214,0 0.0325,0"
     __comy="315.874"
     __comx="395.746"
     __timestamp="0x13dc284156e" />
</svg>
