<?xml version="1.0" encoding="UTF-8" standalone="no"?>
<!-- Created with Inkscape (http://www.inkscape.org/) -->

<svg
   xmlns:dc="http://purl.org/dc/elements/1.1/"
   xmlns:cc="http://creativecommons.org/ns#"
   xmlns:rdf="http://www.w3.org/1999/02/22-rdf-syntax-ns#"
   xmlns:svg="http://www.w3.org/2000/svg"
   xmlns="http://www.w3.org/2000/svg"
   xmlns:sodipodi="http://sodipodi.sourceforge.net/DTD/sodipodi-0.dtd"
   xmlns:inkscape="http://www.inkscape.org/namespaces/inkscape"
   width="786.17297"
   height="126.289"
   id="svg2970"
   version="1.1"
   inkscape:version="0.47 r22583"
   sodipodi:docname="New document 2">
  <defs
     id="defs2972">
    <inkscape:perspective
       sodipodi:type="inkscape:persp3d"
       inkscape:vp_x="0 : 526.18109 : 1"
       inkscape:vp_y="0 : 1000 : 0"
       inkscape:vp_z="744.09448 : 526.18109 : 1"
       inkscape:persp3d-origin="372.04724 : 350.78739 : 1"
       id="perspective2978" />
    <inkscape:perspective
       id="perspective2965"
       inkscape:persp3d-origin="0.5 : 0.33333333 : 1"
       inkscape:vp_z="1 : 0.5 : 1"
       inkscape:vp_y="0 : 1000 : 0"
       inkscape:vp_x="0 : 0.5 : 1"
       sodipodi:type="inkscape:persp3d" />
  </defs>
  <sodipodi:namedview
     id="base"
     pagecolor="#ffffff"
     bordercolor="#666666"
     borderopacity="1.0"
     inkscape:pageopacity="0.0"
     inkscape:pageshadow="2"
     inkscape:zoom="0.49497475"
     inkscape:cx="607.9446"
     inkscape:cy="87.412793"
     inkscape:document-units="px"
     inkscape:current-layer="layer1"
     showgrid="false"
     inkscape:window-width="1680"
     inkscape:window-height="975"
     inkscape:window-x="0"
     inkscape:window-y="25"
     inkscape:window-maximized="1" />
  <metadata
     id="metadata2975">
    <rdf:RDF>
      <cc:Work
         rdf:about="">
        <dc:format>image/svg+xml</dc:format>
        <dc:type
           rdf:resource="http://purl.org/dc/dcmitype/StillImage" />
        <dc:title></dc:title>
      </cc:Work>
    </rdf:RDF>
  </metadata>
  <g
     inkscape:label="Layer 1"
     inkscape:groupmode="layer"
     id="layer1"
     transform="translate(18.0865,-469.21768)">
    <path
       style="fill:none;stroke:#000000;stroke-width:1;stroke-linecap:round;stroke-linejoin:round"
       id="path89"
       d="m -17.5865,544.28568 0.762,0.379 0.38,0.378 0.381,0 0.076,0 1.067,0 0.38,0 0.316,0 0.065,0 0.808,0.536 0.335,0.221 0.38,0.379 0.158,0 0.223,0 1.006,0.333 0.136,0.045 0.381,0 1.523,0.379 0.114,0.056 0.648,0.322 1.904,0.379 0.42,0.209 0.341,0.169 1.524,0.379 0.727,0 0.034,0 1.523,0 0.762,0 0.548,0 0.975,0 1.904,0 1.321,0 0.583,0 0.761,0 1.904,0 0.001,0 1.142,0 0.38,0 0.121,0 0.26,0 1.142,0 0.238,0 0.143,0 1.523,0 0.737,0 0.025,0 1.523,0 0.762,0 0.55,0 0.973,0 0.761,0 0.865,0.286 0.278,0.092 0.761,0 0.381,0 0.23,0 1.293,0 0.762,0 0.626,0.208 0.516,0.171 0.762,0 1.382,0 0.141,0 0.761,0 1.904,0 0.166,0 0.596,0 1.904,0 0.608,0 0.534,0 0.381,0 0.319,0 0.062,0 1.142,0 0.381,0 0.057,0 0.324,0 1.523,0 0.374,0 0.387,0 1.523,0 0.633,0 0.129,0 1.523,0 0.762,0 0.086,0 0.294,0 1.524,0 0.473,0 0.288,0 0.381,0 1.523,0 0.019,0 0.743,0 1.523,0 0.252,0 0.509,0 1.523,0 0.482,0 0.28,0 1.904,0 1.07,0 0.072,0 0.381,0 1.523,0 0.188,0 0.574,0 1.142,-0.379 0.422,0 0.34,0 1.523,0 0.686,0 0.075,0 1.904,0 0.762,0 0.391,0 1.132,0 0.761,0 0.244,0 0.137,0 1.523,-0.757 0.762,-0.378 0.018,-0.009 1.886,-0.37 0.761,-0.378 0.761,-0.151 1.143,-0.228 0.762,-0.378 1.077,0 0.446,0 0.762,0 1.904,-0.379 0.026,-0.005 1.116,0.005 0.381,0 0.495,0 1.028,0 0.761,0 0.243,0 0.138,0 1.142,0 0.588,0 0.174,0 0.381,0 1.142,0 0.231,0 0.531,0 0.381,0 0.795,-0.263 0.347,-0.116 0.761,-0.378 1.143,-0.378 0.095,-0.032 0.666,0.032 0.381,0 0.67,-0.167 0.853,-0.212 0.762,0 0.323,0 0.058,0 1.523,-0.378 0.761,0 0.282,-0.094 0.861,-0.285 0.761,0 0.883,0 0.64,0 0.762,0 1.015,0 0.127,0 0.762,0 1.142,0 0.151,0 0.611,0 0.38,0 0.581,-0.193 0.562,-0.186 0.761,-0.378 1.246,-0.31 0.278,-0.068 0.761,-0.379 1.904,-0.757 0.124,-0.062 0.638,-0.317 1.903,-1.135 0.625,-0.207 0.518,-0.172 1.904,-1.135 0.688,-0.342 0.073,-0.037 0.381,-0.378 1.523,-0.758 0.161,-0.079 0.601,-0.299 0.381,0 0.595,-0.395 0.547,-0.362 0.761,-0.378 0.948,-0.943 0.195,-0.193 0.761,-0.378 1.524,-1.136 0.225,-0.168 0.536,-0.589 1.523,-1.135 0.344,-0.342 0.418,-0.416 0.381,-0.378 0.867,-0.862 0.275,-0.274 0.381,-0.757 0.38,-0.378 0.026,-0.026 0.736,-1.11 0.381,-0.757 0,-0.144 0,-0.234 0,-0.189 0.761,-0.947 0.381,-0.757 0,0 0,-0.378 0.251,-0.748 0.13,-0.388 0.381,-0.757 0.235,-0.936 0.146,-0.578 0,-0.757 0,-1.409 0,-0.105 0,-0.757 0.38,-1.514 0,-0.181 0,-0.577 0,-1.513 0,-0.414 0,-0.344 0,-1.514 0,-0.65 0,-0.107 0.381,-1.514 0,-0.757 0.067,-0.267 0.314,-1.247 0,-0.757 0.181,-0.898 0.2,-0.995 0.38,-0.756 0.299,-1.188 0.082,-0.327 0,-0.756 0.762,-1.893 0.073,-0.181 0.308,-0.955 0.761,-1.892 0.154,-0.458 0.227,-0.678 0.761,-1.514 0.271,-0.538 0.11,-0.219 0.381,-1.514 0.381,-0.757 0.009,-0.018 -0.009,-0.361 0.381,-1.135 0,-0.251 0,-0.507 0,-0.377 0,-0.971 0,-0.544 0,-0.757 0,-1.438 0,-0.076 0,-0.757 0,-0.378 0,-0.298 0,-0.838 0,-0.379 0,-0.173 0,-0.205 -0.71,-1.059 -0.052,-0.077 -0.381,-0.378 -0.381,-0.379 -0.073,-0.073 -1.069,-0.305 -0.31,-0.308 -0.071,-0.071 -0.38,0 -0.191,0 -0.952,-0.757 -0.194,-0.129 -0.187,-0.249 -0.38,-0.379 -0.191,-0.189 -0.952,-0.568 -0.044,-0.029 -0.717,-0.349 -0.381,-0.379 -0.504,-0.334 -0.638,-0.423 -0.381,-0.378 -0.316,0 -0.065,0 -1.142,-0.757 -0.167,-0.083 -0.595,-0.296 -0.381,-0.379 -0.19,-0.189 -0.952,-0.189 -0.689,-0.343 -0.073,-0.036 -0.38,0 -1.143,-0.378 -0.077,0 -0.303,0 -0.381,0 -0.595,0 -0.548,0 -0.761,0 -0.95,0 -0.193,0 -0.761,0 -0.381,0 -0.056,0 -1.086,-0.379 -0.762,0 -0.172,0 -0.209,0 -0.879,0 -0.263,0 -0.761,0 -0.381,0 -0.025,0 -1.118,0 -0.761,0 -0.437,-0.144 -0.706,-0.234 -0.761,0 -0.284,0 -0.097,0 -1.523,0 -0.762,0 -0.054,0 -0.326,0 -1.143,0 -0.378,0 -0.383,0 -1.143,0.378 -0.65,0 -0.111,0 -1.523,0.379 -0.762,0.378 -0.252,0.063 -1.271,0.316 -0.762,0.378 -0.541,0.18 -0.601,0.199 -0.761,0.379 -0.298,0 -0.083,0 -1.143,0 -0.761,0 -0.073,0 -0.308,0 -1.142,0.378 -0.155,0.154 -0.226,0.225 -0.381,0 -0.19,0 -0.952,0.756 -0.381,0.379 -0.008,0.008 -0.373,0.371 -1.142,0.378 -0.128,0.127 -0.253,0.252 -0.381,0 -0.741,0.491 -0.401,0.266 -0.381,0.378 -0.364,0 -0.017,0 -1.142,0.757 -0.761,0.379 -0.103,0 -0.278,0 -1.143,0.757 -0.363,0.181 -0.398,0.197 -0.381,0 -0.19,0 -0.952,1.136 -0.381,0.378 -0.153,0.152 -0.228,0.227 -0.761,1.136 -0.299,0.593 -0.082,0.163 0,0.379 -1.143,1.136 -0.062,0.124 -0.318,0.632 -0.381,0.379 -1.142,1.136 -0.381,0.756 -0.381,0.379 -0.762,1.136 -0.38,0.757 -0.138,0.136 -0.243,0.242 -0.762,1.136 -0.275,0.547 -0.106,0.21 0,0.378 -0.761,1.136 -0.023,0.035 -0.358,0.722 0,0.379 -0.261,0.389 -0.5,0.746 -0.381,0.757 0,0.249 0,0.13 -0.381,1.135 0,0.731 0,0.026 0,0.379 0,1.136 0,0.207 0,0.549 0,0.379 0,0.663 0,0.473 0,0.756 0,0.34 0,0.039 0,1.136 0,0.756 0,0.106 0,0.273 0,1.136 0,0.488 0,0.269 0,0.378 0,1.136 0,0.042 0,0.715 0,0.378 0,0.491 0,0.645 0,0.757 0,0.313 0,0.066 0,1.135 0,0.084 0,0.294 0,0.379 0,0.189 0,0.947 0,0.757 0,0.007 0,0.371 0,1.136 0,0.3 0,0.457 0,0.378 0,0.894 0,0.242 0,0.757 0,0.378 0,0.069 0.381,1.067 0.178,0.177 0.203,0.202 0,0.378 0,0.189 0.38,0.947 0,0.135 0,0.243 0,0.379 0,0.189 0.762,0.946 0.015,0.023 0.366,0.356 0,0.378 0,0.165 0.38,0.971 0,0.378 0,0.379 0,0.068 0.381,1.067 0.381,0.379 0,0.333 0,0.046 0.762,1.135 0.184,0.275 0.196,0.103 0,0.379 0.195,0.581 0.186,0.555 0.381,0.757 0,0.318 0,0.06 0,0.189 1.142,0.947 0.381,0.378 0.177,0.176 0.204,0.202 0.19,0.19 0.952,0.946 0.381,0.379 0.034,0.034 0.347,0.344 0.19,0.189 0.952,0.947 0.209,0.208 0.172,0.171 0.381,0.378 0.19,0.189 0.952,0.189 0.123,0.123 0.258,0.256 0.381,0 0.19,0 0.952,0 0.381,0 0.381,0 0.129,0 1.013,0 0.381,0 0.38,0 0.052,0 1.091,0 0.761,0 0.193,0 0.188,0 1.142,0 0.342,0 0.039,0 0.381,0 1.142,0 0.241,0 0.521,0 0.381,0 0.761,0 0.381,0 0.762,0 0.38,0 0.009,0 1.515,0.378 0.761,0 0.127,0 0.254,0 1.142,0 0.492,0 0.27,0 1.142,0.379 0.726,0.361 0.036,0.018 0.38,0 1.143,0 0.101,0 0.28,0 0.38,0 0.659,0 0.484,0 0.761,0 0.36,0 0.021,0 1.142,0 0.762,0 0.387,0 0.755,0 0.762,0 1.111,0 0.412,0 0.762,0 1.142,0 0.129,0 0.633,0 1.523,0 0.379,0 0.382,0 1.523,0 0.658,0 0.104,0 1.523,0 0.762,0 0.065,0 0.315,0 1.524,0 0.362,0 0.399,0 0.381,0 0.902,0 0.24,0 0.762,0 0.381,0 0.04,0 1.102,0 0.313,0 0.448,0 0.381,0 0.191,0 0.952,0 0.761,0 0.024,0 0.357,0 0.766,0 0.376,0 0.762,0 0.805,0 0.337,0 0.762,0 0.381,0 0.039,0 1.103,-0.758 0.761,-0.378 0.56,-0.371 0.583,-0.386 0.761,-0.378 0.966,-0.641 0.177,-0.117 0.761,-0.378 0.381,0 0.214,-0.142 0.928,-0.615 0.762,-0.379 0.19,0 0.191,0 1.142,-0.757 0.308,-0.305 0.073,-0.074 0.381,0 0.19,0 0.952,-1.135 0.762,-0.378 0.161,-0.161 0.219,-0.218 1.143,-1.135 0.562,-0.28 0.199,-0.099 0.381,-0.379 1.142,-1.135 0.056,-0.055 0.706,-0.702 0.381,-0.378 0.274,-0.41 0.487,-0.726 0.381,-0.757 0.255,-0.254 0.126,-0.125 0.761,-1.135 0.373,-0.371 0.008,-0.008 0,-0.378 0.762,-1.136 0.109,-0.108 0.272,-0.27 0.761,-1.136 0.229,-0.455 0.152,-0.302 0.762,-1.893 0.346,-0.69 0.034,-0.066 0.762,-1.515 0.381,-0.756 0.165,-0.329 0.596,-1.186 0.381,-0.757 0.402,-0.798 0.36,-0.716 0.38,-0.757 0.69,-1.372 0.072,-0.142 0.381,-0.757 0.38,-1.136 0.115,-0.228 0.266,-0.529 0,-1.514 0,-0.531 0,-0.226 0.381,-1.893 0,-0.756 0,-0.077 0,-1.438 0,-0.756 0.168,-0.667 0.213,-0.848 0,-0.756 0.306,-1.525 0.075,-0.368 0.38,-1.136 0,-1.514 0,-0.139 0,-0.618 0,-1.135 0,-0.414 0,-0.344 0.381,-1.135 0,-0.71 0,-0.047 0,-0.378 0,-1.136 0,-0.25 0,-0.507 0,-0.379 0.275,-0.82 0.106,-0.316 0,-0.756 0,-0.379 0,-0.045 0,-1.091 0,-0.378 0,-0.341 0,-0.037 0,-0.19 0,0.19 0,1.135 0,0.379 0,0.44 0,0.696 0,0.756 0,0.889 0,0.247 0,1.514 0,1.892 0,0.131 0,0.626 0,1.893 0,0.592 0,0.544 0,1.892 0,0.757 0,0.111 0,1.782 0,0.757 0,0.326 0,1.566 0,0.758 -0.197,1.176 -0.184,1.095 -0.381,1.892 0,0.975 0,0.161 -0.38,1.514 -0.381,0.757 -0.063,0.25 -0.318,1.264 -0.381,1.514 0,0.364 0,0.393 -0.381,1.893 0,0.757 0,0.086 0,1.428 0,0.757 0,0.065 -0.761,1.449 -0.381,0.757 -0.155,0.619 -0.226,0.895 -0.38,0.757 -0.274,1.36 -0.107,0.533 -0.381,0.757 -0.381,1.514 -0.011,0.046 -0.37,0.711 0,1.514 0,0.258 0,0.499 0,0.378 -0.251,1 -0.129,0.515 0,0.757 0,0.364 0,0.014 0,1.136 0,0.756 0,0.375 0,0.004 0,0.19 0,0.946 0,0.337 0,0.041 0,0.379 0,0.189 0,0.947 0,0.193 0,0.185 0,0.378 0,0.19 0,-0.946 0,-0.379 0,-0.022 0,-0.357 0.761,-1.135 0.138,-0.274 0.243,-0.483 0,-0.379 0.518,-0.773 0.244,-0.362 0.38,-0.757 0.376,-1.493 0.005,-0.021 0.381,-0.758 0.381,-1.892 0,-0.287 0,-0.47 0.38,-1.514 0.295,-0.586 0.086,-0.171 0,-0.379 0.762,-1.514 0.061,-0.122 0.32,-0.635 0.761,-1.893 0.2,-0.397 0.181,-0.359 0.762,-1.515 0.331,-0.658 0.049,-0.098 0,-0.379 0.762,-1.136 0.068,-0.135 0.313,-0.621 0.38,-0.379 0.375,-0.559 0.387,-0.577 0.381,-0.757 0.306,-0.304 0.075,-0.074 1.142,-1.136 0.761,-0.757 0.316,-0.313 1.208,-0.822 0.761,-0.379 0.161,-0.159 0.22,-0.22 0.992,-0.657 0.15,-0.1 0.381,-0.378 0.381,-0.379 0.015,-0.015 1.127,-0.363 0.272,-0.135 0.49,-0.244 0.381,0 0.76,-0.251 0.382,-0.127 0.761,0 0.369,0 0.012,0 1.143,0 0.38,0 0.108,0 0.273,0 1.142,0 0.255,0 0.126,0 0.381,0 1.142,0 0.032,0 0.349,0 0.381,0 0.157,0 0.985,0 0.381,0 0.381,0 0.045,0 1.097,0.378 0.381,0 0.282,0 0.099,0 0.19,0 0.952,1.136 0.381,0.378 0.135,0.135 0.246,0.244 0.19,0.189 0.571,0.947 0.381,0.378 0.003,0.003 -0.003,0.376 0,0.189 0.381,0.946 0.293,0.291 0.088,0.088 0,0.378 0,0.19 0,0.946 0,0.192 0,0.186 0,0.379 0,1.012 0,0.124 0,0.756 0,0.379 0,0.239 0,0.897 0,0.756 0,0.211 0,0.168 0,1.058 0,0.078 0,0.378 0,0.378 0,0.197 0,0.939 0,0.757 0,0.184 0,0.195 0,1.019 0,0.116 0,0.757 0,0.379 0.038,0.114 0.342,1.021 0,0.379 0,0.156 0,0.222 0.381,1.136 0.274,0.544 0.107,0.213 0,0.378 0.762,1.136 0.021,0.032 0.359,0.725 0,0.379 0.26,0.387 0.502,0.748 0.381,0.379 0,0.248 0,0.13 0.761,1.136 0.365,0.363 0.016,0.015 0,0.379 0.487,0.725 0.275,0.41 0.38,0.758 0.222,0.22 0.159,0.158 0.191,0.189 0.951,0.946 0.381,0.379 0.074,0.073 0.307,0.306 0.19,0.189 0.952,0.946 0.651,0.324 0.111,0.055 0.381,0.378 1.523,0.757 0.156,0.078 0.605,0.3 0.381,0.379 0.682,0.452 0.461,0.305 0.761,0.379 0.373,0 0.008,0 1.142,0.378 0.762,0 0.415,0 0.727,0 0.762,0 1.021,-0.254 0.502,-0.124 0.761,0 1.487,0 0.037,0 0.761,0 1.142,0 0.219,0 0.543,0 0.381,0 0.686,0 0.456,0 0.762,0 0.345,0 0.036,0 1.142,-0.379 0.761,-0.378 0.338,-0.084 1.186,-0.295 0.761,0 0.236,0 0.145,0 1.523,-0.757 0.762,-0.378 0.005,-0.003 1.518,-0.376 0.761,-0.378 0.45,0 0.693,0 0.761,0 0.889,-0.295 0.254,-0.084 0.761,0 0.381,0 0.051,0 1.091,-0.757 0.762,-0.378 0.176,0 0.205,0 1.142,-1.136 0.762,-0.379 0.038,-0.019 0.342,-0.359 0.762,-1.136 0.05,-0.075 0.331,-0.682 0,-0.378 0.281,-0.42 0.48,-0.716 0.381,-0.757 0.259,-0.257 0.122,-0.121 1.142,-1.136 0.376,-0.747 0.005,-0.01 0.381,-0.378 0.761,-1.136 0.329,-0.49 0.052,-0.267 0.762,-1.135 0.364,-0.725 0.016,-0.033 0,-0.378 0.7,-1.043 0.062,-0.093 0.381,-0.757 0.381,-1.514 0.088,-0.176 0.292,-0.581 0.381,-1.893 0.206,-0.408 0.175,-0.348 0,-1.893 0,-0.643 0,-0.114 0.381,-1.514 0,-0.757 0,-0.329 0,-0.05 0.38,-1.135 0,-0.351 0,-0.406 0,-0.379 0,-1.177 0,-0.337 0,-0.757 0,-0.378 0,-0.15 0,-0.986 0,-0.757 0,-0.379 0,-1.135 0,-0.534 0,-0.223 0,-0.379 0,-0.189 0,-0.946 0,-0.126 0,-0.253 0,-0.378 0,-0.19 0.381,0.947 0.006,0.011 0.375,0.367 0,0.379 0,0.553 0,0.582 0,0.379 0,0.303 0,0.075 0,1.136 0,0.757 0,0.093 0,0.285 0,1.515 0,0.323 0,0.433 0.381,1.515 0,0.556 0,0.201 0,1.514 0,0.757 0,0.032 0,1.482 0,0.757 0,0.538 0,0.976 0,0.757 0,1.011 0,0.503 0,0.757 0,1.472 0,0.042 0,0.757 0,1.136 0,0.215 0,0.542 0,0.378 0,0.677 0,0.459 0,0.757 0,0.343 0,0.035 0,1.136 0,0.757 0,0.08 0,0.299 0,1.135 0,0.199 0,0.18 0,0.378 0,0.189 0,0.947 0,0.055 0,0.323 0,0.379 0,0.165 0,0.97 0,0.379 0,0.379 0,0.028 0,-0.786 0,-0.378 0,-0.379 0,-0.087 0.381,-1.048 0,-0.758 0,-0.202 0,-0.176 0.761,-1.514 0.324,-0.644 0.057,-0.113 0.761,-1.514 0.381,-0.757 0.131,-0.326 0.631,-1.567 0.381,-0.757 0.412,-1.025 0.349,-0.867 0.381,-0.757 0,-0.33 0,-0.049 0.762,-1.514 0.38,-0.757 0,-0.1 0,-0.279 1.143,-1.135 0.247,-0.492 0.133,-0.265 0.381,-0.379 0.759,-1.131 0.003,-0.004 0.381,-0.757 0.38,-0.379 0.242,-0.36 0.52,-0.775 0.381,-0.757 0.236,-0.236 0.144,-0.143 1.1,-1.093 0.043,-0.042 0.381,-0.379 0.38,-0.378 0.092,-0.092 1.051,-0.666 0.381,-0.378 0.327,0 0.053,0 1.143,0 0.086,0 0.294,0 0.381,0 0.178,0 0.965,0 0.297,0 0.083,0 0.381,0 0.191,0 0.951,0.378 0.154,0.153 0.227,0.226 0.381,0 0.19,0 0.952,1.136 0.009,0.008 0.372,0.37 0.381,0.379 0.124,0.123 0.257,1.012 0.381,0.379 0,0.361 0,0.018 0.285,0.852 0.095,0.283 0.381,0.378 0,0.216 0,0.163 0.381,1.135 0.334,0.333 0.047,0.046 0,0.379 0,0.67 0,0.465 0,0.378 0,0.188 0,0.191 0,1.136 0,0.614 0,0.143 0,0.378 0,1.136 0,0.135 0,0.622 0,0.378 0,0.49 0,0.646 0,0.378 0,0.279 0,0.1 0,1.136 0,0.378 0,0.017 0,0.361 0,1.136 0,0.379 0,0.255 0,0.123 0,1.136 0,0.368 0,0.01 0,0.379 0,0.189 0.38,0.946 0,0.227 0,0.152 0,0.378 0,0.19 0.381,0.946 0,0.081 0,0.297 0,0.379 0,0.189 0,0.946 0,0.379 0,0.378 0,0.068 1.143,0.311 0.322,0.321 0.058,0.058 0.381,0 0.19,0 0.952,0 0.245,0 0.136,0 0.381,0 0.19,0 0.952,0 0.381,0 0.381,0 0.07,0 1.072,0 0.381,0 0.381,0 0.131,0 1.011,0 0.381,0 0.335,0 0.046,0 0.863,0 0.279,0 0.381,0 0.244,0 0.137,0 0.19,0 0.952,0 0.381,0 0.214,0 0.167,0 0.761,-0.758 0.381,-0.378 0.07,-0.069 0.311,-0.31 0.761,-1.135 0.19,-0.377 0.191,-0.38 0,-0.379 0.616,-0.919 0.146,-0.216 0.38,-0.758 0,-0.378 0,-0.044 0.762,-1.091 0.381,-0.757 0,-0.379 0.761,-1.136 0.282,-0.28 0.099,-0.098 0,-0.379 0.762,-1.135 0.028,-0.043 0.352,-0.714 0,-0.379 0.272,-0.404 0.49,-0.731 0.381,-0.379 0,-0.254 0,-0.124 1.142,-1.136 0.381,-0.757 0.003,-0.006 0.378,-0.372 1.142,-0.757 0.309,-0.154 0.453,-0.225 0.38,-0.378 0.903,-0.598 0.24,-0.16 0.761,-0.378 0.381,0 0.191,-0.19 0.951,-0.945 0.762,-0.758 0.381,-0.378 1.142,-1.136 0.624,-0.31 0.138,-0.068 0.38,-0.379 1.143,-0.756 0.131,-0.088 0.25,-0.291 0.38,0 0.164,0 0.979,-0.757 0.761,-0.379 0.381,0 0.027,0 1.115,-0.378 0.134,-0.133 0.247,-0.246 0.381,0 0.19,0 0.952,0 0.381,0 0.381,0 0.113,0 -0.113,0 -0.762,0 -0.007,0 -0.373,0 -0.381,0 -0.165,0 -0.978,0.379 -0.38,0.378 -0.381,0 -0.086,0 -1.056,0.379 -0.381,0.378 -0.332,0 -0.049,0 -0.827,0.822 -0.315,0.314 -0.381,0.757 -0.381,0.378 -0.686,1.023 -0.076,0.113 -0.38,0.378 -0.381,0.379 -0.035,0.035 -1.107,0.722 -0.762,0.379 -0.158,0.157 -0.223,0.221 -0.761,1.136 -0.276,0.547 -0.105,0.21 -0.381,0.378 -0.761,1.136 -0.381,0.757 -0.381,0.378 -0.265,0.395 -0.497,0.741 -0.38,0.378 0,0.379 0,1.116 0,0.02 0,0.757 0,0.378 0,0.294 0,0.841 0,0.758 0,0.221 0,0.157 0,1.136 0,0.35 0,0.028 0,0.379 0.761,1.135 0.381,0.379 0,0.27 0,0.108 0,0.19 1.142,0.946 0.762,0.378 0.186,0.186 0.195,0.193 1.142,0.379 0.762,0.378 1.142,0 0.761,0 0.127,0 0.254,0 1.143,0 0.349,0 0.412,0 0.381,0 1.142,0 0.762,0 0.381,0 0.035,0 1.107,-0.757 0.762,-0.379 0.38,0 1.143,-0.378 0.266,-0.265 0.114,-0.114 0.381,0 1.143,-0.757 0.38,-0.378 0.381,0 0.375,-0.248 0.767,-0.51 0.762,-0.378 0.238,0 0.143,0 1.142,-0.757 0.762,-0.378 0.381,-0.379 0.761,-1.135 0.094,-0.094 0.287,-0.285 0,-0.379 0.73,-1.088 0.031,-0.047 0.381,-0.378 0,-0.379 0,-0.063 0,-1.073 0,-0.378 0,-0.303 0,-0.076 0,-1.135 0,-0.054 0,-0.703 0,-0.379 0,-0.155 0,-0.98 0,-0.379 0,-0.378 0,-0.189 0,-0.947 0,-0.379 0,-0.378 0,-0.189 -1.142,-0.568 -0.381,-0.378 -0.104,0 -0.277,0 -0.19,0 -0.952,-0.379 -0.381,0 -0.381,0 -0.19,0 -0.952,-0.379 -0.381,0 -0.381,0 -0.19,0 -0.952,0 -0.067,0 -0.314,0 -0.38,0 -1.11,0 -0.033,0 -0.381,0 -0.38,0 -0.997,0 -0.146,0 -0.38,0 -0.381,0 -0.191,0 0.952,-0.378 0.381,0 0.109,0 0.272,0 0.19,0 0.952,-0.378 0.346,-0.344 0.035,-0.035 0.381,0 1.142,-0.757 0.762,-0.379 0.38,0 0.598,0 0.545,0 0.761,0 1.524,0 0.761,0 1.142,0 0.218,0 0.544,0 0.381,0 1.523,0 0.762,0 0.377,0 0.003,0 1.143,0 0.761,0 0.109,0 0.272,0 1.142,0 0.381,0 0.381,0 0.19,0 0.952,0 0.381,0 0.381,0 0.19,0 0.952,0 0.381,0 0.381,0 0.19,0 0.952,0 0.011,0 0.37,0 0.381,0 0.19,0 0.952,0 0.381,0 0.381,0 0.19,0 0.952,0 0.356,0 0.025,0 0.38,0 0.191,0 0.952,0 0.381,0 0.283,0 0.097,0 0.191,0 0.952,0 0.38,0 0.084,0 0.297,0 0.191,0 0.952,0 0.176,0 0.204,0 0.381,0 0.191,0 0.952,0 0.166,0 0.214,0 0.381,0 0.924,0 0.218,0 0.381,0 0.381,0 0.19,0 0.952,0 0.151,0 0.23,0 0.381,0 0.904,0 0.238,0 0.381,0 0.381,0 0.19,0 0.952,0 0.381,0 0.381,0 0.19,0 0.952,0 0.381,0 0.084,0 0.297,0 0.19,0 0.952,0 0.006,0 0.375,0 0.381,0 0.19,0 0.19,0.757 0,0.379 0,0.118 0,0.261 0,0.188 0.381,0.947 0.381,0.379 0,0.378 0,0.189 0.381,0.946 0.38,0.379 0,0.379 0,0.189 0.762,0.946 0.381,0.379 0.381,0.378 0.182,0.181 0.198,0.955 0,0.378 0,0.379 0,0.035 0.762,1.1 0.381,0.379 0,0.27 0,0.108 0,0.189 1.142,0.569 0.762,0.378 0.38,0.379 0.191,0.189 0.952,0.567 0.381,0.379 0.38,0 0.191,0 0.952,0.757 0.38,0.379 0.381,0.378 0.191,0.189 -0.191,-0.189 0.762,1.136 0.381,0.378 0,0.379 1.103,1.096 0.039,0.039 0.381,0.379 0.381,0.378 1.012,0.672 0.13,0.085 0.381,0.379 0.38,0.378 0.927,0.307 0.216,0.072 0.381,0.379 0.298,0 0.082,0 1.143,0 0.041,0 0.339,0 0.381,0 1.143,0.378 0.38,0.378 0.263,0 0.118,0 1.143,0.379 0.38,0.378 0.381,0 0.358,0.119 0.784,0.26 0.381,0 0.381,0 1.142,0.379 0.354,0 0.027,0 0.381,0 1.142,0.378 0.208,0.207 0.173,0.171 0.381,0 1.142,0 0.063,0 0.318,0 0.381,0 1.062,0 0.08,0 0.381,0 0.381,0 0.963,0 0.179,0 0.381,0 0.381,0 0.881,0 0.261,0 0.381,0 0.38,0 0.191,0 0.952,0 0.381,0 0.38,0 0.191,0 0.952,0 0.381,0 0.38,0 0.191,0 0.952,0 0.38,0 0.381,0 0.144,0 0.618,-1.135 0.381,-0.757 0.375,-0.374 0.005,-0.005 0.762,-1.135 0.381,-0.757 0,-0.379 0.761,-1.135 0.23,-0.458 0.151,-0.3 0.762,-1.513 0.38,-0.757 0.762,-1.515 0.381,-0.757 0.085,-0.169 -0.085,-0.209 0.761,-1.135 0.381,-0.758 0,-0.378 0.32,-0.955 0.061,-0.181 0.381,-0.757 0,-0.378 0,-1.136 0,-0.757 0,-0.173 0,-0.205 0,-1.136 0,-0.379 0,-0.378 0,-0.028 0,-1.107 0,-0.379 0,-0.262 0,-0.117 0,-1.135 0,-0.379 0,-0.124 0,-0.254 0,-1.116 0,-0.019 0,-0.379 0,-0.379 0,-0.189 0,0.947 0,0.378 0,0.378 0,0.094 0.38,1.042 0,0.379 0,0.378 0.331,0.984 0.05,0.152 0,0.757 0,0.378 0,1.136 0,0.757 0,0.184 0,0.194 0,1.136 0,0.757 0,0.378 0,1.136 0,0.12 0,0.637 0,0.378 0,1.136 0,0.757 0,0.274 0,0.104 0,1.136 0,0.757 0,0.379 0,0.762 0,0.373 0,0.379 0,0.378 0,0.189 0,0.947 0,0.378 0,0.379 0,0.189 0,0.946 0,0.379 0,0.379 0,0.189 1.143,-1.325 0.38,-0.379 0.37,-0.367 0.011,-0.011 0,-1.136 0,-0.379 0,-0.378 0.303,-0.902 0.078,-0.233 0,-0.757 0,-0.379 0.761,-1.136 0.381,-0.757 0.079,-0.155 0.302,-1.358 0.381,-0.758 0,-0.378 0.761,-1.136 0.314,-0.623 0.067,-0.134 0,-0.378 0.762,-1.136 0.38,-0.757 0,-0.378 0,-0.189 1.143,-0.947 0.381,-0.379 0.38,-0.378 0.723,-0.718 0.42,-0.417 0.761,-0.379 0.381,-0.379 1.142,-1.135 0.381,-0.757 0.012,-0.023 0.369,-0.356 1.142,-1.135 0.258,-0.256 0.123,-0.123 0.381,-0.378 1.142,-0.379 0.113,0 0.268,0 0.381,0 1.142,0 0.348,0 0.033,0 0.381,0 1.142,0 0.201,0 0.18,0 0.381,0 1.142,0.757 0.061,0.041 0.32,0.338 0.381,0 0.702,1.046 0.059,0.089 0.381,0.379 0,0.378 0,0.902 0,0.234 0,0.757 0,0.379 0.381,1.135 0,0.757 0,0.003 0,0.376 0,1.135 0,0.757 0,0.379 0.234,0.7 0.146,0.435 0,0.757 0,0.379 0.381,1.135 0,0.758 0,0.113 0,0.265 0.381,1.135 0.381,0.757 0,0.379 0,1.136 0,0.099 0,0.279 0,0.379 0.381,1.135 0,0.283 0,0.095 0,0.379 0.38,1.136 0.152,0.15 0.229,0.228 0,0.379 1.143,0.757 0.006,0.004 0.374,0.375 0.381,0.378 1.142,0 0.381,0 0.865,-0.287 0.278,-0.091 0.761,0 1.523,-0.758 0.762,-0.378 1.523,-1.514 0.347,-0.345 0.415,-0.413 1.523,-1.513 0.761,-0.757 1.523,-1.515 0.762,-0.757 0.055,-0.054 1.468,-1.459 0.762,-0.758 1.142,-1.135 0.762,-0.379 0.262,-0.26 0.118,-0.118 1.143,-1.136 0.38,-0.757 0.381,-0.378 0.762,-1.136 0.118,-0.118 0.263,-0.26 0.38,-0.379 1.143,-0.757 0.761,-0.378 0.352,0 0.029,0 1.142,-0.379 0.381,-0.378 0.219,0 0.162,0 1.142,-0.379 0.381,-0.379 0.381,0 0.099,0 1.043,-0.378 0.381,0 0.357,0 0.024,0 0.19,0 -0.952,0.378 -0.114,0.114 -0.267,0.265 -0.38,0 -1.112,1.104 -0.031,0.032 -0.38,0.378 -0.381,0.378 -0.762,1.136 -0.204,0.203 -0.177,0.176 -0.38,0.378 -0.381,1.136 -0.381,0.757 0,0.378 0,0.059 0,1.077 0,0.757 0,0.378 0,1.005 0,0.131 0,0.379 0,0.378 0,1.135 0,0.758 0,0.146 0,0.232 0.381,1.136 0.381,0.378 0.001,0.002 -0.001,0.377 1.142,0.756 0.381,0.379 0.281,0.28 0.1,0.099 1.142,0.378 0.761,0.379 1.143,0 0.761,0 0.191,0 0.19,0 1.142,0 0.762,0 0.381,0 1.142,-0.379 0.119,-0.039 0.643,0.039 0.381,0 1.142,-0.757 0.761,-0.379 0.274,0 0.107,0 1.143,-0.756 0.38,-0.379 0.381,0 0.762,-1.135 0.153,-0.153 0.227,-0.226 0,-0.378 0.762,-1.136 0.381,-0.379 0,-0.359 0,-0.019 0.381,-1.135 0,-0.379 0,-0.379 0.38,-1.135 0,-0.431 0,-0.326 0,-0.379 0,-1.135 0,-0.379 0,-0.071 0,-0.307 0,-1.136 0,-0.378 0,-0.34 0,-0.039 -1.142,-1.135 -0.381,-0.379 -0.25,-0.249 -0.131,-0.129 -1.142,-0.758 -0.381,-0.378 -0.146,0 -0.234,0 -1.143,0 -0.761,0 -0.381,0 -0.191,0 -0.951,0 -0.381,0 -0.381,0 -0.19,0 -0.952,0 -0.381,0 -0.381,0 -0.086,0 -1.056,0 -0.381,0 -0.326,0 -0.055,0 -0.19,0 0.952,0 0.38,0 0.219,0 0.162,0 1.143,0 0.38,0 1.143,0 0.761,0 0.072,0 0.309,0 1.523,0 0.762,0 1.142,0 0.614,0 0.148,0 0.38,0 1.143,-0.378 0.761,0 0.381,0 0.486,0 0.656,0 0.381,0 0.381,0 1.142,-0.379 0.762,0 0.029,0 0.352,0 1.142,-0.379 0.381,0 0.264,0 0.117,0 1.142,-0.378 0.762,0 0.38,0 1.143,-0.379 0.174,-0.173 0.207,-0.205 0.38,0 1.143,-0.757 0.761,-0.379 0.381,0 0.059,0 1.083,-0.757 0.762,-0.378 0.381,-0.379 0.761,-1.135 0.294,-0.293 0.087,-0.086 0.381,-0.379 1.142,-1.135 0.762,-0.757 1.142,-1.136 0.297,-0.295 0.465,-0.462 1.523,-1.514 0.761,-0.757 1.143,-1.514 0.38,-0.757 0.003,-0.005 1.14,-1.887 0.381,-0.758 0.761,-1.892 0.381,-1.135 0.238,-1.185 0.143,-0.708 0.38,-1.136 0.381,-1.892 0.381,-1.136 0,-1.514 0,-0.185 0,-0.572 0,-1.893 0,-1.135 0.381,-1.892 0,-0.758 0,-1.514 0,-0.757 0,-0.063 0,-0.316 0.381,-1.513 0,-0.758 0,-0.378 0.299,-0.894 0.081,-0.242 0,-0.757 0,-0.378 0,-0.909 0,-0.227 0,-0.378 0,-0.379 0,-0.189 0,0.946 0,0.379 0,0.095 0,0.283 0,1.514 0,0.757 0,1.515 0,0.658 0,0.098 0,1.893 0,1.136 0,1.892 0,1.136 -0.185,0.924 -0.195,0.969 -0.381,1.135 -0.381,1.893 0,0.757 -0.381,1.892 -0.039,0.197 0.039,0.939 -0.381,1.514 0,0.757 -0.38,1.514 0,0.545 0,0.212 -0.381,1.514 0,0.757 0,1.514 0,0.757 0,0.51 0,1.004 0,0.757 0,0.379 0,1.135 0,0.721 0,0.036 0,0.379 0,1.136 0,0.378 0,0.379 0,0.189 0,0.946 0,0.379 0,0.378 0,0.071 0,1.065 0,0.378 0,0.236 0,0.143 0,0.189 0.761,-0.189 0.339,0 0.042,0 0.381,0 1.142,0 0.381,0 0.152,0 0.229,0 1.142,-0.379 0.762,0 0.381,0 1.142,-0.378 0.11,-0.11 0.271,-0.269 0.381,0 1.142,0 0.381,0 0.365,0 0.015,0 1.143,0 0.381,0 0.38,0 0.785,0 0.358,0 0.381,0 0.38,0 0.191,0 0.952,0 0.38,0 0.381,0 0.191,0 -0.191,0 -0.761,0 -0.171,0 -0.21,0 -0.381,0 -1.142,0 -0.026,0 -0.736,0 -0.381,0 -1.142,0.379 -0.261,0 -0.12,0 -0.381,0 -1.142,0.378 -0.381,0 -0.119,0 -0.261,0 -1.143,0.379 -0.35,0 -0.031,0 -0.38,0 -1.143,0.378 -0.204,0.204 -0.176,0.175 -0.381,0 -0.191,0 -0.952,1.135 -0.38,0.379 -0.381,0.378 -0.09,0.09 -0.291,1.046 -0.381,0.378 0,0.324 0,0.055 -0.761,1.136 -0.381,0.756 -0.381,0.379 -0.359,0.536 -0.402,0.6 -0.381,0.378 0,0.379 0,1.135 0,0.1 0,0.657 0,0.379 0,1.135 0,0.757 0,0.267 0,0.112 0,1.136 0,0.378 0,0.378 0,1.136 0,0.127 0,0.252 0,0.378 0.381,1.136 0,0.378 0,0.356 0,0.023 1.142,1.135 0.381,0.379 0.211,0.21 0.169,0.168 1.143,0.757 0.381,0.379 0.38,0 1.143,0.757 0.184,0.092 0.577,0.287 1.143,0.378 0.761,0.378 1.143,0.379 0.761,0 0.008,0 1.515,0 0.762,0 0.381,0 1.142,0 0.526,0 0.236,0 0.38,0 1.143,0 0.761,0 0.381,0 0.118,0 1.024,0.378 0.762,0 0.352,0 0.029,0 1.142,0 0.381,0 0.206,0 0.175,0 0.19,0 0.952,0 0.01,0 0.371,0 0.381,0 0.19,0 0.952,0 0.381,0 0.101,0 0.279,0 0.191,0 0.952,0 0.381,0 0.095,0 0.285,0 1.143,0 0.313,0 0.067,0 0.381,0 0.983,0 0.16,0 0.38,0 0.381,0 0.191,0 0.952,0 0.38,0 0.291,0 0.09,0 1.142,0 0.381,0 0.205,0 0.176,0 1.142,0 0.117,0 0.264,0 0.381,0 1.142,0 0.029,0 0.352,0 0.381,0 0.933,0 0.209,0 0.381,0 0.381,0 0.19,0 0.952,-0.378 0.008,-0.003 0.373,-0.376 0.381,0 0.19,0 0.952,-0.756 0.381,-0.379 0.341,-0.34 0.04,-0.039 0.38,-1.135 0,-0.379 0,-0.194 0,-0.184 1.143,-1.136 0.38,-0.378 0.051,-0.05 0.33,-0.329 0.762,-1.135 0.381,-0.757 0.38,-0.379 0.804,-0.799 0.339,-0.337 0.381,-0.756 1.523,-1.136 0.761,-0.379 1.523,-0.757 0.317,-0.157 0.445,-0.221 1.523,-0.757 0.762,-0.379 1.904,-1.135 1.142,-0.757 0.096,-0.065 1.808,-1.071 1.142,-0.378 1.904,-1.136 1.142,-0.378 1.067,-0.266 0.457,-0.113 0.761,-0.378 0.381,0 1.523,-0.758 0.762,-0.378 0.012,0 0.368,0 1.143,0 0.38,0 0.355,0 0.026,0 0.191,0 -0.952,0.378 -0.381,0.379 -0.35,0 -0.031,0 -1.142,0.757 -0.381,0.379 -1.142,1.135 -0.762,0.757 -0.613,0.813 -0.529,0.701 -0.762,0.757 -1.523,1.893 -0.762,0.757 -1.523,1.893 -0.237,0.295 -0.524,0.84 -0.762,1.514 -0.381,0.757 -0.38,0.379 -0.294,1.166 -0.087,0.347 0,0.758 0,0.378 0.381,1.136 0,0.378 0,0.183 0,0.196 1.523,0.379 0.761,0 1.904,-0.379 0.186,-0.037 0.576,0.037 1.904,-0.757 1.142,-0.379 1.904,-1.514 0.547,-0.544 0.215,-0.213 1.523,-1.514 0.761,-0.757 1.523,-1.514 0.762,-0.757 0.255,-0.634 0.507,-1.259 0.38,-1.135 0.762,-1.514 0.381,-0.757 0,-0.36 0,-0.019 0,-1.135 0,-0.379 0,-0.378 0,-0.19 -0.762,0.19 -0.381,0 -0.761,1.135 -0.085,0.126 -0.296,0.253 0,1.892 0,1.893 0,1.893 0,1.375 0,0.517 0,1.136 0.381,1.514 0,0.756 0.381,1.515 0.131,0.26 0.249,0.497 0,0.378 0.762,1.136 0.379,0.377 0.002,10e-4 0.38,0.379 1.143,0.378 0.381,0.379 1.142,0 0.566,0 0.195,0 1.143,-0.379 0.761,0 1.524,-1.135 0.761,-0.757 0.688,-0.547 1.216,-0.967 1.142,-0.757 1.523,-1.514 0.762,-0.757 1.491,-1.483 0.032,-0.031 0.762,-0.758 1.523,-1.513 0.761,-0.757 1.143,-1.515 0.451,-0.449 0.31,-0.308 1.143,-1.135 0.38,-0.757 0.381,-0.379 1.118,-1.111 0.025,-0.024 0.38,-0.757 0.381,-0.379 0.718,-1.07 0.044,-0.065 0.38,-0.379 0,-0.378 0,-0.19 -0.761,0.19 -0.007,0 -0.374,0 -0.381,0 -1.142,0.757 -0.381,0.378 -1.121,0.836 -0.402,0.3 -0.761,0.757 -1.143,1.514 -1.142,1.514 -0.762,0.757 -0.549,1.091 -0.593,1.18 -1.142,1.892 -0.762,1.893 -0.762,1.892 -0.348,1.038 -0.032,0.098 -0.381,1.893 0,0.757 0,1.514 0,0.757 0,0.314 0,0.064 1.142,1.136 0.762,0.757 1.142,0.378 1.523,0 0.341,0 0.421,0 1.904,-0.378 1.142,-0.378 1.904,-1.136 1.142,-0.757 0.389,-0.387 1.515,-1.506 1.523,-1.892 0.762,-1.136 1.142,-1.892 0.754,-1.123 0.008,-0.013 0.761,-2.271 0.762,-2.271 0.381,-1.136 0.381,-1.892 0,-0.559 0,-0.198 0,-0.379 0,-0.378 -0.381,-1.136 0,-0.378 0,-0.161 0,-0.218 -0.381,-1.135 0,-0.379 0,-0.12 0,-0.258 0,-0.19 0,1.325 0,0.378 0.381,1.136 0,0.312 0,0.445 0.381,2.271 0.38,2.65 0.381,2.649 0.381,3.029 0.174,1.384 0.207,1.644 0.38,2.649 0,2.65 0,3.028 0,2.609 0,0.041 0,3.028 -0.38,3.028 -0.381,2.65 -0.381,2.649 -0.229,1.594 -0.152,1.056 -0.38,2.65 -0.762,2.649 -0.762,2.65 -0.38,2.65 -0.345,1.198 -0.417,1.451 -0.761,2.271 -0.762,1.893 -0.762,1.893 -0.761,1.892 -0.104,0.259 -0.277,0.877 -0.762,1.892 -0.38,0.757 -1.143,1.514 -0.356,0.355 -0.405,0.402 -1.143,1.136 -0.761,0.757 -0.381,0.379 -1.142,0.757 -0.185,0.091 -0.577,0.287 -0.381,0.378 -1.523,0 -0.761,0 -1.523,-0.756 -0.337,-0.168 -0.425,-0.211 -1.904,-1.514 -0.761,-0.757 -1.524,-1.892 -0.406,-0.405 -0.355,-0.353 -1.523,-1.892 -0.762,-1.136 -1.142,-1.892 -0.762,-1.136 -0.12,-0.179 -1.022,-1.713 -0.381,-1.136 -0.381,-1.893 -0.38,-1.892 0,-0.877 0,-0.259 0.38,-2.271 0.762,-2.271 0.761,-1.893 1.143,-1.892 0.484,-0.802 -0.103,-0.334 1.904,-2.271 1.903,-1.893 2.285,-2.271 2.666,-1.892 0.096,-0.069 2.569,-2.203 2.666,-1.892 3.046,-1.893 3.046,-1.892 2.016,-1.145 0.65,-0.369 2.284,-1.514 2.666,-1.514 2.665,-1.515 3.046,-1.514 1.297,-0.644 1.369,-0.869 2.285,-1.515 2.284,-1.135 1.904,-1.136 1.904,-1.135 0.115,-0.069 1.789,-1.067 1.142,-0.757 1.904,-1.136 1.143,-0.378 1.291,-1.027 0.613,-0.487 1.142,-0.757 1.523,-1.136 0.762,-0.378 0.38,-0.379 0.161,-0.16 0.22,0.16 1.143,-1.135 0.38,-0.379 0.381,-0.378 0.19,-0.19 -0.571,-0.946 0,-0.378 0,-0.379 0,-0.189 -1.142,0.189 -0.762,0 -1.523,0.379 -0.892,0.354 -1.012,0.403 -1.904,0.757 -2.284,1.135 -2.285,1.136 -1.142,0.757 -0.006,0.004 -1.898,1.889 -1.143,0.757 -1.904,1.892 -1.523,1.893 -0.851,1.41 -0.291,0.482 -0.381,1.136 -0.761,1.514 -0.381,0.757 0,1.514 0,0.641 0,0.116 0,0.378 1.142,1.136 0.381,0.757 1.492,0.742 0.031,0.015 0.762,0.379 1.523,0.378 0.761,0.379 1.904,-0.379 0.794,0 0.349,0 1.904,-1.136 1.142,-0.378 1.904,-1.514 1.904,-1.514 0.803,-0.639 1.101,-0.875 1.523,-1.893 1.523,-1.893 0.762,-0.756 1.059,-1.756 0.083,-0.137 0.761,-1.136 1.143,-1.892 0.381,-0.757 0.38,-0.379 0.206,-0.819 0.175,-0.695 0.381,-0.757 0,-0.378 0,-1.136 0,-0.378 0,-0.09 0,-0.289 0,-0.189 -0.762,1.325 -0.151,0.299 -0.229,0.458 -0.381,2.271 -0.381,2.271 -0.381,2.271 -0.381,2.271 -0.004,0.029 -0.376,2.242 0,1.893 0,1.893 0,1.135 0,0.951 0,0.563 0,0.757 0.38,1.514 0,0.757 0,0.379 0.188,0.28 0.574,0.856 0.381,0.756 0,0.379 0,0.189 1.142,-0.189 0.381,0 1.523,-0.757 0.762,-0.378 0.922,-0.917 0.601,-0.598 1.523,-1.892 1.523,-1.893 1.523,-2.271 1.142,-1.892 0.387,-0.641 0.756,-1.252 1.142,-1.893 0.762,-1.135 1.142,-1.893 0.733,-1.094 0.029,-0.042 1.142,-1.892 0.762,-1.136 0.761,-1.514 0.381,-0.757 0.219,-0.217 0.162,-0.161 0.761,-1.136 0.381,-0.757 0,-0.378 0,-0.19 0,0.19 -0.024,0.048 -0.357,0.709 -0.381,0.378 -0.38,1.893 -0.381,1.892 -0.381,1.893 -0.381,2.271 -0.38,2.271 -0.381,2.271 -0.257,1.277 -0.124,0.616 0,1.892 0,1.136 0,1.893 0,0.756 0,0.699 0,0.816 0,0.757 0,0.378 0,1.515 0,0.756 0,0.071 0,0.308 0.706,0.702 0.056,0.055 0.38,0.379 0.381,0.378 1.142,-0.378 0.381,0 0.123,0 0.258,0 1.523,-1.515 0.762,-0.756 1.142,-1.515 0.717,-0.713 0.045,-0.044 1.523,-1.893 1.142,-1.892 0.762,-1.135 1.142,-1.893 0.211,-0.63 0.17,-0.506 1.142,-1.514 0.381,-0.757 1.142,-1.514 0.381,-0.757 0.213,-0.423 0.549,-1.091 0.38,-0.757 0.381,-0.379 0.762,-1.513 0.381,-0.758 0.761,-1.135 0.381,-0.757 0,-0.167 0,-0.212 0.761,-1.135 0.381,-0.757 0,-0.379 0,-0.189 0,0.189 0,0.757 0,0.379 -0.353,1.406 -0.028,0.108 0,0.757 -0.38,2.271 -0.381,1.892 -0.762,1.893 -0.206,1.026 -0.174,0.866 -0.381,1.893 -0.381,1.136 -0.381,1.514 -0.381,0.757 -0.061,0.243 -0.319,1.271 -0.381,0.757 0,0.379 -0.762,1.514 -0.38,0.757 0,0.378 0,0.189 0,0.947 0,0.378 0,0.379 0,0.189 0.38,-1.325 0.762,-1.514 0.248,-0.616 0.513,-1.276 0.762,-1.893 0.381,-1.136 0.761,-1.892 0.381,-1.136 1.142,-1.893 0.381,-1.135 0.348,-0.691 0.414,-0.823 0.381,-0.757 1.142,-1.514 0.762,-0.757 1.142,-1.893 0.381,-1.135 1.523,-1.893 0.298,-0.297 0.463,-0.46 1.523,-1.514 0.762,-0.757 1.523,-1.514 0.76,-0.756 0.002,-10e-4 1.523,-1.893 0.761,-0.756 1.524,-1.136 0.761,-0.757 0.381,-0.379 1.142,-0.757 0.381,-0.378 0.009,-0.009 0.372,0.009 1.142,0.378 0.303,0 0.078,0 0.381,0 0.761,1.136 0.381,0.378 0,0.379 0.381,1.136 0,0.68 0,0.076 0,0.379 0,1.136 0,0.756 0,0.379 0,1.514 0,0.757 0,1.352 0,0.162 0,0.757 0,1.514 0,0.757 0,1.514 0,0.758 0,1.513 0,0.696 0,0.061 0,1.136 0,0.757 0,0.379 0,1.135 0,0.757 0,0.379 0,1.135 0,0.757 0,0.379 0.185,0.552 0.196,0.583 0.38,0.379 0,0.378 0.381,1.136 0,0.378 0,0.379 0,0.189 1.143,0.947 0.38,0.378 0.381,0.378 1.017,0.337 0.125,0.042 0.381,0 0.381,0 1.142,0 0.211,0 0.551,0 0.381,0 1.142,0 0.762,0 0.38,0 1.143,-0.379 0.381,0 0.076,0 0.304,0 1.143,-0.756 0.761,-0.379 1.143,-0.757 0.761,-0.379 1.523,-1.135 0.762,-0.379 0.186,-0.185 0.956,-0.95 0.762,-0.378 0.381,-0.379 1.142,-1.136 0.761,-0.757 0.381,-0.378 1.143,-1.136 0.233,-0.116 0.528,-0.262 0.381,-0.379 1.142,-0.757 0.762,-0.378 0.381,-0.379 1.523,-1.136 0.761,-0.378 0.906,-0.541 0.998,-0.594 1.143,-0.379 1.903,-1.136 0.762,-0.378 0.381,-0.379 1.523,-1.135 0.761,-0.379 1.066,-0.529 0.458,-0.228 0.761,-0.378 0.381,-0.379 1.142,-0.757 0.762,-0.378 0.381,0 1.523,-0.757 0.752,-0.374 0.009,-0.005 1.143,-0.757 0.761,-0.378 0.381,0 1.142,-0.757 0.762,-0.379 0.381,0 1.142,0 0.249,0 0.513,0 0.38,0"
       __comy="248.144"
       __comx="386.276"
       __timestamp="0x13dc2b92880" />
  </g>
</svg>
