<?xml version="1.0" encoding="UTF-8" standalone="no"?>
<!-- Created with Inkscape (http://www.inkscape.org/) -->

<svg
   xmlns:dc="http://purl.org/dc/elements/1.1/"
   xmlns:cc="http://creativecommons.org/ns#"
   xmlns:rdf="http://www.w3.org/1999/02/22-rdf-syntax-ns#"
   xmlns:svg="http://www.w3.org/2000/svg"
   xmlns="http://www.w3.org/2000/svg"
   xmlns:sodipodi="http://sodipodi.sourceforge.net/DTD/sodipodi-0.dtd"
   xmlns:inkscape="http://www.inkscape.org/namespaces/inkscape"
   width="788.078"
   height="129.31799"
   id="svg3515"
   version="1.1"
   inkscape:version="0.47 r22583"
   sodipodi:docname="New document 19">
  <defs
     id="defs3517">
    <inkscape:perspective
       sodipodi:type="inkscape:persp3d"
       inkscape:vp_x="0 : 526.18109 : 1"
       inkscape:vp_y="0 : 1000 : 0"
       inkscape:vp_z="744.09448 : 526.18109 : 1"
       inkscape:persp3d-origin="372.04724 : 350.78739 : 1"
       id="perspective3523" />
    <inkscape:perspective
       id="perspective3510"
       inkscape:persp3d-origin="0.5 : 0.33333333 : 1"
       inkscape:vp_z="1 : 0.5 : 1"
       inkscape:vp_y="0 : 1000 : 0"
       inkscape:vp_x="0 : 0.5 : 1"
       sodipodi:type="inkscape:persp3d" />
  </defs>
  <sodipodi:namedview
     id="base"
     pagecolor="#ffffff"
     bordercolor="#666666"
     borderopacity="1.0"
     inkscape:pageopacity="0.0"
     inkscape:pageshadow="2"
     inkscape:zoom="0.35"
     inkscape:cx="351.89614"
     inkscape:cy="-101.05528"
     inkscape:document-units="px"
     inkscape:current-layer="layer1"
     showgrid="false"
     inkscape:window-width="607"
     inkscape:window-height="491"
     inkscape:window-x="0"
     inkscape:window-y="25"
     inkscape:window-maximized="0" />
  <metadata
     id="metadata3520">
    <rdf:RDF>
      <cc:Work
         rdf:about="">
        <dc:format>image/svg+xml</dc:format>
        <dc:type
           rdf:resource="http://purl.org/dc/dcmitype/StillImage" />
        <dc:title></dc:title>
      </cc:Work>
    </rdf:RDF>
  </metadata>
  <g
     inkscape:label="Layer 1"
     inkscape:groupmode="layer"
     id="layer1"
     transform="translate(-23.103857,-301.9889)">
    <path
       style="fill:none;stroke:#000000;stroke-width:1;stroke-linecap:round;stroke-linejoin:round"
       id="path81"
       d="m 25.698857,381.5989 -1.143,0 -0.152,0 -0.228,0 -0.381,0 -0.191,0 0.191,0 0.761,0.758 0.003,0.002 0.378,0.376 0.381,0.379 0.173,0.172 0.969,-0.172 0.381,0 0.381,0 0.33,0 0.812,0 0.762,0 0.256,0 0.124,0 1.143,0 0.381,0 0.368,0 0.774,0 0.762,0 0.474,0 0.668,0 0.761,0 0.841,0 0.302,0 0.761,0 1.143,0 0.056,0 0.705,0 0.381,0 0.406,0 0.736,0 0.762,0 0.253,0 0.128,0 1.142,-0.379 0.371,0 0.01,0 0.381,0 0.19,0 0.952,0 0.225,0 0.156,0 0.381,0 0.19,0 0.952,0 0.082,0 0.299,0 0.38,0 0.191,0 0.952,0 0.381,0 0.38,0 0.055,0 1.088,0 0.01,0 0.371,0 0.38,0 0.142,0 1.001,0 0.119,0 0.261,0 0.381,0 0.191,0 -0.191,0 1.143,0 0.269,0 0.111,0 0.381,0 0.191,0 0.951,0 0.381,0 0.381,0 0.067,0 1.075,0 0.339,0 0.042,0 0.381,0 0.19,0 0.952,0 0.381,0 0.261,0 0.12,0 0.19,0 0.952,0 0.191,0 0.19,0 0.381,0 0.19,0 0.952,0 0.166,0 0.215,0 0.381,0 0.19,0 0.952,0 0.381,0 0.381,0 0.107,0 1.035,0 0.381,0 0.317,0 0.064,0 0.19,0 0.952,0 0.381,0 0.146,0 0.234,0 0.191,0 0.952,0.379 0.381,0.378 0.122,0 0.258,0 0.191,0 0.952,0.379 0.048,0.015 0.332,-0.015 0.381,0 0.191,0 0.952,0.378 0.3,0 0.08,0 0.381,0 0.191,0 0.952,0.379 0.38,0 0.381,0 0.011,0 1.131,0 0.381,0 0.365,0 0.016,0 0.19,0 0.952,0.378 0.311,0 0.07,0 0.381,0 0.19,0 0.952,0.379 0.104,0.103 0.277,0.275 0.381,0 0.19,0 0.952,0.379 0.381,0 0.234,0 0.147,0 1.142,0 0.222,0 0.159,0 0.381,0 0.19,0 0.952,0.378 0.381,0 0.257,0 0.124,0 0.19,0 0.952,0.379 0.246,0 0.135,0 0.38,0 0.722,0.239 0.421,0.139 0.761,0 0.236,0 0.145,0 1.143,0.379 0.459,0.228 0.302,0.15 0.381,0 0.19,0 0.952,0.379 0.375,0.372 0.006,0.006 0.381,0 0.19,0 0.952,0.757 0.229,0.228 0.152,0.151 0.381,0 0.19,0 0.952003,0.378 0.381,0.379 0.097,0 0.284,0 0.19,0 0.952,0.378 0.377,0.375 0.004,0.004 0.38,0 0.762,0.504 0.381,0.253 0.381,0.378 0.189,0 0.191,0 1.111,0.736 0.032,0.022 0.761,0.378 0.381,0.379 0.1,0.099 1.042,0.658 0.437,0.217 0.325,0.161 0.381,0.379 0.19,0.189 0.952,0.946 0.072,0.072 0.309,0.307 0.381,0.378 0.188,0.187 0.954,0.949 0.381,0.378 0.381,0.379 0.045,0.045 1.097,1.09 0.381,0.379 0.281,0.28 0.1,0.098 1.142,0.757 0.02,0.014 0.361,0.365 0.38,0.378 0.137,0.137 1.006,0.621 0.254,0.252 0.127,0.126 0.38,0.379 0.191,0.189 0.952,0.946 0.108,0.108 0.272,0.271 0.381,0.378 0.191,0.19 0.952,0.946 0.38,0.378 0.381,0.379 0.083,0.083 1.06,1.052 0.38,0.379 0.319,0.317 0.062,0.061 0.19,0.19 0.952,0.946 0.762,0.378 0.191,0.19 0.19,0.189 1.142,0.757 0.629,0.312 0.133,0.067 0.38,0 0.191,0 0.952,0.757 0.381,0.378 0.169,0.168 0.211,0.211 1.143,0.757 0.574,0.285 0.187,0.093 0.381,0 0.19,0 0.952,0.757 0.762,0.379 0.142,0.141 0.239,0.237 1.142,0.757 0.259,0.258 0.122,0.121 0.381,0 1.128,0.747 0.014,0.01 0.762,0.378 1.523,0.379 0.252,0 0.509,0 0.381,0 0.93,0.231 0.593,0.147 0.762,0 1.414,0.352 0.109,0.027 0.761,0 1.143,0 0.174,0 0.587,0 1.143,0 0.41,0 0.351,0 1.143,0.378 0.646,0.322 0.115,0.057 1.523,0.378 0.762,0 0.124,0 1.399,0.379 0.762,0.379 0.712,0.177 0.811,0.201 0.761,0.379 1.186,0.294 0.337,0.084 0.762,0.379 1.523,0.378 0.067,0.034 0.695,0.345 1.142,0.378 0.303,0.151 0.459,0.228 1.523,0.378 0.41,0.204 0.351,0.175 1.523,0.378 0.762,0 0.036,0 1.487,0 0.762,0 0.671,0 1.233,0 0.761,0 1.27,0 0.634,0 1.142,0 1.858,0 0.046,0 0.762,0 1.523,0 0.217,0 0.545,0 1.903,0 0.451,0 0.311,0 1.904,0 1.035,0 0.107,0 1.904,0 1.904,-0.378 0.248,0 0.894,0 1.904,-0.379 0.597,-0.197 0.546,-0.181 1.904,-0.379 0.954,-0.316 0.188,-0.062 1.904,-0.379 0.761,0 0.115,0 1.789,-0.378 0.762,0 0.689,0 0.834,0 0.762,0 1.904,-0.379 1.142,0 1.904,-0.378 0.119,-0.024 1.023,-0.355 1.904,-0.378 0.438,-0.146 0.704,-0.233 1.904,-0.379 0.823,-0.272 0.32,-0.106 1.904,-0.757 1.142,-0.379 0.035,-0.011 1.869,-1.124 1.142,-0.379 0.504,-0.167 1.4,-0.968 1.904,-0.757 1.485,-0.492 0.8,-0.265 1.904,-0.757 1.093,-0.362 0.049,-0.017 1.904,-1.135 1.142,-0.379 0.513,-0.306 1.391,-0.829 0.762,-0.379 1.103,-0.658 0.801,-0.478 1.142,-0.757 1.754,-1.395 0.15,-0.119 0.761,-0.757 1.524,-1.514 0.177,-0.176 0.584,-0.581 1.523,-1.514 0.412,-0.409 0.35,-0.348 1.142,-1.893 0.646,-0.642 0.116,-0.115 1.142,-1.892 0.762,-1.136 0.12,-0.179 1.022,-1.713 0.381,-1.136 0.534,-0.885 0.608,-1.008 0.381,-1.135 0.885,-1.467 0.257,-0.426 0.381,-1.135 1.523,-2.271 0.133,-0.199 1.01,-1.694 0.38,-1.135 0.301,-0.749 0.461,-1.144 0.381,-1.136 0.537,-1.068 0.224,-0.446 0.381,-0.757 1.142,-1.892 0.015,-0.025 0.366,-1.111 0.762,-1.892 0.121,-0.242 0.259,-0.516 0,-1.514 0,-0.481 0,-0.276 0.381,-1.892 0,-0.716 0,-0.041 0,-1.893 0,-0.757 0,-0.382 0,-1.132 0,-1.893 0,-0.424 0,-0.333 -0.381,-1.892 0,-0.989 0,-0.147 -0.38,-1.514 -0.381,-0.757 -0.068,-0.402 -0.313,-1.869 -0.381,-1.893 -0.184,-0.918 -0.196,-0.974 -0.381,-1.893 0,-0.912 0,-0.223 -0.381,-1.893 -0.381,-1.136 -0.042,-0.124 -0.339,-1.768 -0.38,-1.136 -0.318,-0.79 -0.444,-1.102 -0.381,-1.136 -0.557,-1.384 -0.204,-0.508 -0.381,-1.136 -1.142,-1.893 -0.029,-0.047 -0.352,-0.71 -1.142,-1.514 -0.479,-0.634 0.098,-0.123 -1.143,-1.135 -0.231,-0.459 -0.149,-0.298 -0.381,-0.379 -1.047,-1.04 -0.096,-0.095 -0.761,-0.757 -0.381,-0.379 -0.256,-0.254 -0.886,-0.881 -0.762,-0.758 -0.612,-0.609 -0.53,-0.526 -0.381,-0.757 -0.967,-0.962 -0.175,-0.174 -0.762,-0.757 -1.523,-1.514 -0.118,-0.118 -0.644,-0.639 -1.523,-1.514 -0.357,-0.355 -0.404,-0.402 -1.523,-1.514 -0.612,-0.608 -0.15,-0.149 -1.523,-1.136 -0.762,-0.757 -0.119,-0.118 -1.404,-1.017 -0.761,-0.379 -0.704,-0.525 -0.819,-0.61 -0.762,-0.379 -1.175,-0.876 -0.348,-0.259 -0.762,-0.379 -1.523,-0.757 -0.118,-0.059 -0.643,-0.319 -1.524,-0.379 -0.296,0 -0.465,0 -1.523,-0.378 -0.537,-0.267 -0.225,-0.112 -1.904,0 -0.761,0 -0.005,0 -1.899,-0.379 -1.143,0 -0.616,-0.122 -1.287,-0.256 -1.143,0 -1.269,0 -0.635,0 -0.761,0 -1.842,0 -0.062,0 -0.762,0 -1.904,0 -0.217,0 -0.544,0 -1.904,0 -0.454,0 -0.308,0 -2.284,0.378 -1.031,0 -0.112,0 -1.904,0.758 -1.142,0.378 -0.324,0.161 -1.199,0.596 -0.762,0.379 -0.996,0.594 -0.908,0.541 -1.904,1.136 -1.592,0.949 -0.311,0.186 -1.904,1.136 -0.762,0.757 -0.112,0.111 -1.792,1.403 -1.142,0.757 -0.532,0.397 -0.991,0.739 -0.762,0.757 -1.446,1.15 -0.458,0.364 -0.761,0.757 -1.523,1.514 -0.107,0.106 -0.655,0.651 -1.904,1.892 -0.837,0.832 -0.686,1.061 -1.142,1.893 -1.143,1.892 -0.001,0.002 -1.141,1.891 -1.142,1.892 -0.005,0.007 -1.138,1.886 -1.142,2.271 -0.239,0.594 -0.523,1.299 -0.761,1.892 -0.497,1.236 -0.265,0.657 -0.381,1.892 -0.354,1.761 -0.026,0.132 -0.381,1.893 -0.381,1.892 -0.09,0.45 -0.291,1.443 -0.381,1.892 0,0.625 0,0.511 -0.38,1.893 0,0.652 0,0.105 -0.381,1.514 0,0.757 0,0.324 0,1.568 0,0.757 0,0.912 0,0.981 0,1.135 0,1.497 0,0.396 0,1.136 0,2.271 0,0.214 0.381,1.678 0,1.136 0.159,0.792 0.221,1.101 0.381,1.135 0,1.363 0,0.53 0,1.135 0.381,1.893 0.01,0.047 0.371,1.088 0.381,1.893 0.259,0.645 0.502,1.248 0.381,1.892 0.249,1.239 0.132,0.654 0.381,1.892 0.364,1.087 0.016,0.049 0.381,1.893 0.381,0.757 0.105,0.416 0.276,1.098 0.38,0.757 0.222,0.882 0.159,0.632 0.381,0.757 0.34,1.351 0.041,0.163 0.381,0.757 0.761,1.514 0.075,0.149 0.306,0.608 0.761,1.893 0.211,0.419 0.17,0.338 0.381,0.378 1.071,1.42 0.071,0.094 0.762,0.757 0.381,0.379 0.366,0.364 0.776,0.771 0.762,0.757 0.235,0.234 0.145,0.145 1.143,1.136 0.705,0.701 0.056,0.056 0.381,0.378 1.142,1.136 0.187,0.185 0.575,0.572 1.142,1.135 0.42,0.209 0.342,0.17 1.523,1.135 0.654,0.325 0.108,0.054 1.904,0.757 0.761,0.378 0.259,0.129 1.264,0.628 0.762,0.379 0.73,0.182 0.793,0.196 0.761,0.379 1.126,0.28 0.398,0.098 0.761,0.379 1.904,0.379 0.078,0.015 0.684,0.363 1.904,0.379 0.409,0.135 0.733,0.243 1.523,0.379 0.508,0.252 0.254,0.126 1.523,0.379 0.739,0.367 0.022,0.011 1.143,0.379 0.761,0.378 0.322,0.107 0.821,0.272 0.761,0.378 0.903,0 0.62,0 0.762,0 0.341,0 0.04,0 1.523,0.379 0.761,0 0.317,0 1.206,0 0.762,0 0.555,0 0.587,0 0.762,0 0.886,0 0.256,0 0.762,0 1.523,0 0.121,0 0.641,0 1.523,0 0.3,0 0.461,0 1.523,0 0.537,0 0.225,0 0.381,0 1.142,0 0.01,0 0.752,0 0.38,0 0.369,0 0.774,0 0.761,0 0.241,0 0.14,0 1.142,0 0.357,0 0.024,0 1.143,0 0.761,0 0.095,0 0.286,0 1.142,0 0.429,0 0.333,0 0.381,0 1.324,-0.658 0.199,-0.099 0.761,-0.379 1.143,-0.378 0.135,-0.068 0.626,-0.311 1.143,-0.378 0.396,-0.197 0.365,-0.182 1.142,-0.378 0.631,0 0.131,0 0.381,0 1.142,-0.379 0.155,-0.051 0.607,0.051 0.381,0 0.513,-0.17 0.629,-0.208 0.761,-0.379 0.287,0 0.094,0 1.143,-0.378 0.761,0 0.052,0 1.09,-0.379 0.762,-0.379 0.429,-0.284 0.713,-0.473 0.762,-0.378 0.262,0 0.119,0 1.142,-0.379 0.38,-0.377 0.001,-10e-4 0.381,0 1.142,-0.379 0.118,-0.117 0.263,-0.261 0.381,0 0.705,-0.701 0.437,-0.435 0.761,-0.757 0.352,-0.349 0.029,-0.029 1.143,-1.136 0.761,-0.757 0.267,-0.265 0.875,-0.87 0.381,-0.757 0.618,-1.024 0.525,-0.869 0.761,-0.757 0.974,-1.614 0.169,-0.279 0.38,-1.135 1.143,-1.514 0.148,-0.148 0.613,-0.609 1.143,-1.893 0.383,-0.572 0.378,-0.564 1.142,-1.892 0.31,-0.924 0.071,-0.212 1.143,-1.892 0.38,-1.136 0.047,-0.139 1.096,-1.753 1.142,-1.893 0.494,-0.819 0.648,-1.074 0.381,-1.135 0.851,-1.411 0.292,-0.482 1.142,-1.892 0.761,-2.271 0.038,-0.113 0.343,-1.023 0.762,-1.893 0.139,-0.277 0.242,-0.48 0.761,-1.892 0.515,-1.279 0.247,-0.614 0.381,-0.757 0.745,-1.853 0.016,-0.039 0.381,-1.136 0.761,-1.893 0.116,-0.345 0.265,-0.79 0.381,-1.893 0.231,-0.688 0.15,-0.447 0.381,-1.893 0,-1.032 0,-0.103 0,-1.893 0,-1.136 0,-0.422 0,-1.47 0.38,-1.893 0.204,-1.216 0.177,-1.055 0.381,-2.271 0,-1.918 0,-0.353 0,-2.271 0,-1.136 0.059,-0.294 0.322,-1.598 0,-1.893 0,-0.529 0,-0.607 0.38,-1.892 0,-0.876 0,-0.26 0,-1.892 0,-0.757 0,-0.06 0,-1.833 0,-0.757 0,-0.744 0,-1.149 0,-1.135 0,-1.332 0,-0.561 0,-1.135 0,-1.893 0,-0.015 0,-1.12 0.381,-1.893 0,-0.363 0,-0.773 0,-1.892 0,-0.718 0,-0.418 0,-1.892 0,-1.063 0,-0.073 0.381,-1.892 0,-0.758 0,-0.371 0,-1.143 0,-0.757 0,-0.211 0,-0.167 0,-1.136 0,-0.657 0,-0.1 0,-0.378 0,-0.19 0,-0.946 0,-0.184 0,-0.194 0,-0.379 0,-0.189 0,0.946 0,0.379 0,0.244 0,0.134 0,1.136 0,0.361 0,0.017 0,1.514 0,0.757 0,0.512 0,1.381 0,0.757 0,1.317 0,0.954 0,1.893 0,1.685 0,0.207 -0.381,1.893 0,1.892 0,0.443 0,1.829 0,1.892 -0.195,1.164 -0.186,1.107 -0.38,2.271 -0.313,1.867 -0.068,0.405 -0.381,2.271 -0.381,1.892 -0.049,0.247 -0.331,2.024 -0.381,2.271 -0.169,0.84 -0.212,1.053 -0.381,1.893 0,1.708 0,0.563 0,1.892 0,1.893 0,0.106 0,2.165 0,2.271 0,0.831 0,1.44 0,1.136 0,1.892 -0.381,2.272 0,2.271 0,2.649 0,2.271 0,0.703 0,1.569 0,2.649 0,1.614 0,1.036 0,2.649 0,2.421 0,0.229 -0.38,2.65 -0.381,2.649 -0.087,0.603 -0.294,2.047 -0.381,2.271 -0.204,1.017 -0.176,0.876 -0.381,1.892 0,1.604 0,0.289 0,1.135 0,2.272 0,0.186 0,0.949 -0.381,1.893 -0.178,0.885 -0.203,1.007 -0.381,1.893 0,0.881 0,0.254 -0.38,1.893 -0.381,0.757 -0.032,0.064 -0.349,1.829 0,0.757 -0.151,0.599 -0.23,0.915 -0.381,0.757 -0.268,1.069 -0.112,0.445 0,0.757 -0.381,1.514 -0.004,0.015 0.004,0.742 0,0.379 0,0.366 0,0.769 0,0.757 0,0.237 0,0.142 0,1.135 0,0.356 0,0.023 0,0.378 0,0.19 0,0.946 0,0.213 0,0.165 0,0.379 0,0.189 -0.381,-1.325 -0.157,-0.156 -0.224,-0.222 0,-1.514 0,-0.545 0,-0.212 0,-1.893 0,-0.757 0,-0.024 0,-1.869 0,-1.135 0.133,-0.788 0.248,-1.483 0,-1.136 0.251,-1.245 0.13,-0.647 0,-1.136 0.366,-2.183 0.015,-0.088 0,-1.136 0,-1.892 0.106,-0.53 0.274,-1.363 0.381,-1.892 0,-0.668 0,-0.468 0.381,-1.514 0.34,-0.675 0.041,-0.082 0.381,-1.893 0.38,-1.892 0.078,-0.154 0.303,-0.603 0.381,-1.893 0.196,-0.583 0.185,-0.552 0.381,-1.893 0.313,-0.935 0.067,-0.201 0.381,-1.892 0.381,-1.136 0.051,-0.153 0.33,-1.739 0.38,-0.757 0.169,-0.669 0.212,-0.845 0.381,-0.757 0.285,-1.135 0.096,-0.38 0.381,-0.757 0.38,-1.514 0.022,-0.086 0.359,-0.671 0,-0.378 0.762,-1.136 0.38,-0.757 0,-0.259 0,-0.119 0.762,-1.136 0.374,-0.744 0.007,-0.013 0,-0.378 0.761,-1.136 0.381,-0.757 0,-0.379 0.374,-0.557 0.388,-0.578 0.381,-0.757 0.357,-0.355 0.023,-0.024 1.143,-0.757 0.38,-0.378 0.098,-0.097 0.283,-0.282 1.143,-0.757 0.761,-0.378 0.381,0 0.19,0 0.952,-1.136 0.065,-0.064 0.316,-0.314 0.381,-0.379 0.185,-0.184 0.957,-0.194 0.381,0 0.381,0 0.045,0 1.097,0 0.381,0 0.279,0 0.102,0 0.19,0 0.952,0 0.381,0 0.133,0 0.248,0 0.19,0 0.952,0 0.367,0 0.014,0 0.38,0 0.191,0 0.952,0 0.381,0 0.38,0 1.143,0 0.076,0 0.305,0 0.38,0 0.191,0 0.952,0.378 0.38,0 0.381,0 0.092,0 1.051,0.379 0.38,0.378 0.327,0 0.054,0 0.191,0 0.951,0.757 0.381,0.379 0.381,0.378 0.19,0.189 0.952,0.568 0.381,0.379 0.381,0 0.19,0 0.952,1.135 0.273,0.271 0.108,0.108 0.381,0.378 0.19,0.19 0.952,0.946 0.381,0.378 0.381,0.379 0.19,0.189 0.571,0.947 0.381,0.378 0.381,0.379 0.105,0.104 0.656,1.031 0.218,0.217 0.163,0.162 0.381,0.378 0.381,1.136 0.381,0.757 0,0.378 0,0.079 0.761,1.057 0.381,0.757 0,0.378 0,1.136 0,0.622 0,0.135 0,0.379 0.381,1.514 0.044,0.174 0.337,0.583 0.38,1.135 0.381,0.757 0,0.379 0.282,0.84 0.099,0.295 0,0.757 0,0.379 0,1.135 0,0.757 0,0.136 0,0.243 0,1.135 0,0.758 0,0.378 0,1.107 0,0.029 0,0.757 0,0.378 0,0.327 0,0.809 0,0.757 0,0.378 0,1.136 0,0.683 0,0.074 0,0.378 0,1.136 0,0.378 0,0.198 0,0.181 0,1.136 0,0.757 0,0.378 0,0.189 0,0.947 0,0.167 0,0.211 0,0.379 0,1.135 0,0.027 0,0.352 0,0.378 0,1.136 0,0.519 0,0.238 0,0.378 0,1.136 0,0.379 0,0.378 0,0.118 0,1.018 0,0.378 0,0.353 0,0.026 0,0.845 0,0.29 0,0.379 0,0.378 0,0.189 0,0.947 0,0.378 0,0.379 0,0.189 0,0.946 0,0.296 0,0.083 0,0.378 0,0.19 0,0.946 0,0.004 0,0.374 0,0.379 0,0.189 0,0.947 0,0.328 0,0.05 0,0.379 0,0.189 0,0.946 0,0.275 0,0.104 0,0.378 0,0.189 1.142,0.568 0.013,0.009 0.368,0.37 0.381,0 0.189,0 0.953,0 0.165,0 0.216,0 0.381,0 0.19,0 -0.19,0 1.142,0 0.201,0 0.18,0 0.381,0 0.19,0 0.952,0 0.381,0 0.381,0 0.19,0 0.952,0 0.761,0 0.381,0 0.096,0 1.047,0 0.38,0 0.381,0 1.142,0 0.328,0 0.053,0 0.381,0 1.142,0 0.762,0 0.381,0 0.315,0 0.827,0 0.762,0 0.298,0 0.082,0 1.143,0 0.381,0 0.38,0 1.143,0 0.309,0 0.452,0 0.381,0 1.142,0 0.762,0 0.381,0 0.01,0 1.132,0 0.762,0 1.523,0 0.761,0 0.978,0 0.545,0 0.762,0 1.523,0 0.762,0 1.523,0 0.222,0 0.539,0 1.904,0 0.762,0 1.523,0 0.676,0 0.086,0 1.903,0 0.762,0 1.904,0 1.142,0 0.772,0 0.751,0 0.762,0 1.904,0 1.904,0 1.904,0 0.219,0 1.685,0 1.904,0 1.142,0 1.904,0 0.834,0 0.308,0 1.904,0 0.762,0 1.904,0 0.761,0 0.668,0 1.236,0 1.142,0 1.523,0 0.762,0 1.106,0 0.036,0 0.762,0 1.523,0 0.762,0 1.523,0 0.472,0 0.289,0 1.524,0 0.761,0 1.142,0 0.762,0 0.091,0 0.29,0 1.142,-0.379 0.762,0 0.38,0 0.979,0 0.164,0 0.761,0 0.381,0 0.942,0 0.2,0 0.381,0 0.381,0 0.796,0 0.346,0 0.381,0 0.381,0 0.19,0 0.952,0 0.381,0 0.381,0 0.19,0 -0.19,-1.135 0,-0.315 0,-0.064 0,-0.378 -0.657,-0.98 -0.105,-0.156 -0.38,-0.378 -0.381,-0.379 -1.143,-1.136 -0.078,-0.078 -0.302,-0.3 -0.381,-0.379 -1.143,-1.135 -0.761,-0.757 -0.285,-0.283 -0.096,-0.096 -1.142,-1.135 -0.762,-0.757 -0.381,-0.379 -0.781,-0.776 -0.361,-0.359 -0.381,-0.379 -0.38,-0.378 -0.762,-1.136 -0.374,-0.372 -0.007,-0.006 0,-0.379 -0.761,-1.136 -0.381,-0.378 -0.229,-0.228 -0.152,-0.151 -0.761,-1.135 -0.381,-0.379 -0.381,-0.378 -0.082,-0.244 -0.299,-0.892 -0.381,-0.378 0,-0.379 -0.38,-1.135 -0.319,-0.634 -0.062,-0.123 0,-0.379 -0.381,-1.135 0,-0.758 0,-0.378 0,-0.174 -0.381,-0.962 -0.381,-0.378 0,-0.379 0,-1.135 0,-0.081 0,-0.676 0,-1.514 0,-0.757 0,-0.379 0,-1.045 0,-0.469 0,-0.757 0,-0.378 0,-1.136 0,-0.757 0,-0.118 0,-0.261 0,-1.135 0,-0.757 0,-0.379 0,-0.189 0,-0.946 0,-0.379 0,-0.378 0.381,-1.136 0,-0.413 0,-0.344 0,-0.378 0.381,-1.136 0.021,-0.063 0.36,-0.694 0,-0.378 0.761,-1.136 0.381,-0.379 0,-0.295 0,-0.083 0.762,-1.136 0.381,-0.378 0,-0.056 0,-0.323 1.142,-1.135 0.381,-0.379 0.017,-0.017 0.363,-0.361 1.143,-1.136 0.252,-0.25 0.129,-0.128 0.38,-0.379 1.143,-0.757 0.106,-0.105 0.274,-0.273 0.381,0 1.105,-0.366 0.038,-0.013 0.38,0 0.381,0 1.142,-0.378 0.392,0 0.37,0 0.381,0 1.142,0 0.381,0 0.051,0 0.33,0 1.142,-0.379 0.381,0 0.128,0 0.253,0 1.523,-0.379 0.761,0 0.134,0 0.247,0 1.142,-0.378 0.762,-0.379 0.381,0 1.141,0 10e-4,0 0.762,0 0.381,0 1.142,0 0.761,0 1.09,0 0.434,0 0.761,0 1.142,-0.378 0.762,0 1.142,0 0.254,0 0.508,0 1.523,0 0.762,0 1.904,0 1.087,0 0.055,0 1.523,0 0.762,0 1.523,-0.379 0.761,0 0.545,0 0.978,0 0.762,0 1.523,0 0.762,0 0.38,0 0.254,0 0.889,0 0.761,0 0.381,0 0.191,0 0.952,0 0.38,0 0.381,0 0.19,0 0.952,0 0.381,0 0.381,0 0.19,0 -0.952,0 -0.38,0 -0.24,0 -0.141,0 -1.142,0 -0.381,0 -0.095,0 -0.286,0 -1.142,0 -0.762,0 -0.989,-0.327 -0.153,-0.051 -0.762,0 -0.381,0 -1.523,0 -0.761,0 -0.833,0 -0.69,0 -0.762,0 -1.523,0 -0.762,0 -1.142,0 -0.184,0 -0.578,0 -1.142,-0.379 -0.762,0 -0.38,0 -0.894,0 -0.249,0 -0.761,0 -0.381,0 -1.142,0 -0.762,0 -0.152,0 -0.229,0 -1.142,0.379 -0.762,0.378 -0.38,0 -1.143,0 -0.022,0 -0.739,0 -0.381,0 -1.142,0 -0.762,0 -0.243,0 -0.138,0 -1.142,0.757 -0.762,0.379 -0.381,0 -0.717,0.475 -0.425,0.282 -0.381,0.379 -0.38,0 -0.191,0 -0.952,0.378 -0.381,0.379 -0.38,0 -0.191,0 -0.952,0.757 -0.38,0.378 -0.381,0.379 -0.191,0.189 -0.952,0.568 -0.761,0.378 -0.381,0.379 -1.142,1.135 -0.381,0.379 -0.381,0.378 -0.19,0.19 -0.952,0.946 -0.381,0.378 -0.381,0.379 -0.19,0.189 -0.952,0.946 -0.381,0.379 -0.381,0.379 -0.18,0.179 -0.962,0.956 -0.381,0.379 -0.381,0.378 -0.036,0.036 -0.344,1.1 -0.381,0.757 0,0.378 -0.272,1.08 -0.109,0.434 0,0.757 0,1.514 0,0.757 0,0.379 -0.126,0.376 -0.255,0.759 0,0.758 0,1.514 0,0.757 0,1.436 0,0.078 0,0.757 0,0.378 0,1.136 0,0.757 0,0.215 0,0.163 0,1.136 0,0.757 0,0.378 0,1.136 0,0.139 0,0.618 0,0.379 0,1.135 0,0.757 0,0.304 0,0.075 0,1.135 0,0.757 0,0.379 0,0.189 0.762,0.946 0.381,0.379 0,0.378 0.38,1.136 0.052,0.154 0.329,0.225 0,0.378 1.061,1.054 0.082,0.082 0.38,0.378 0.381,0.379 0.915,0.909 0.227,0.226 0.381,0.379 0.381,0.378 0.19,0.19 0.952,0.946 0.381,0.378 0.381,0.379 0.19,0.189 0.952,0.946 0.381,0.379 0.381,0.378 0.72,0 0.422,0 0.381,0 1.142,0 0.762,0 0.334,0 0.047,0 1.142,0 0.762,0 0.38,0 1.143,0 0.189,0 0.191,0 0.381,0 1.143,0 0.38,0 0.044,0 0.337,0 1.143,0 0.38,0 0.279,0 0.102,0 1.142,0 0.381,0 0.381,0 0.162,0 0.98,-0.757 0.762,-0.378 0.381,0 0.022,0 1.12,-0.757 0.381,-0.379 0.381,0 1.142,-0.757 0.257,-0.255 0.124,-0.123 0.381,0 1.142,-1.136 0.381,-0.378 0.38,-0.379 0.338,-0.336 0.805,-0.799 0.381,-0.757 0.761,-1.136 0.381,-0.757 1.044,-1.038 0.098,-0.098 0.762,-0.757 1.523,-1.514 0.762,-0.757 1.523,-1.514 0.403,-0.401 0.358,-0.356 1.143,-1.514 0.38,-0.757 1.143,-1.893 0.38,-1.135 0.06,-0.178 1.083,-1.715 0.381,-1.135 0.761,-1.893 0.381,-1.135 0.585,-1.163 0.177,-0.352 0.38,-0.757 0.381,-1.514 0.381,-0.757 0.381,-1.514 0.047,-0.094 0.333,-0.663 0.381,-1.514 0.381,-0.757 0.381,-1.514 0,-0.757 0,-0.005 0,-1.509 0,-0.757 0.381,-1.893 0,-0.757 0,-1.126 0,-0.388 0,-0.757 0.38,-1.135 0,-0.757 0,-1.515 0,-0.235 0,-0.522 0,-1.514 0,-0.757 0,-1.514 0,-0.66 0,-0.097 0.381,-1.514 0,-0.757 0.381,-1.892 0,-1.893 0,-1.088 0,-1.183 0,-1.893 0,-1.135 0,-1.893 0,-1.893 0,-0.171 0,-0.964 0,-2.271 0,-1.136 0,-1.892 0,-0.87 0,-0.266 0,-1.893 0,-1.135 0,-1.893 0,-1.135 0,-0.722 0,-1.171 0,-1.135 0,-1.893 0,-0.757 0,-0.379 0,-0.011 0,-1.503 0,-0.757 0,-0.378 0,-1.136 0,-0.489 0,-0.268 0,-0.378 0,-1.136 0,-0.757 0,-0.378 0,-0.332 0,-0.804 0,-0.757 0,-1.136 0,-0.757 0,-0.911 0,-0.224 0,-0.757 0,-0.379 0,-1.514 0,-0.757 0,-0.103 0,-0.275 0,-1.514 0,-0.757 0,-0.379 0,-0.783 0,-0.352 0,-0.758 0,-0.378 0.381,-1.136 0,-0.757 0,-0.127 0,-0.251 0,-1.136 0,-0.757 0,-0.378 0,-0.19 0,-0.946 0,-0.378 0,-0.379 0,-0.189 0,0.946 0,0.007 0,0.372 0,0.378 0.38,1.514 0,0.757 0,1.237 0,0.277 0,0.757 0,1.515 0,0.756 0.381,1.893 0,0.573 0,0.563 0,1.892 0,1.136 0,1.892 0,1.136 0,0.142 0,1.751 0,1.135 0,1.893 0,0.757 0,1.204 0,0.31 0,0.757 0,1.514 0,0.757 0,1.514 0,0.43 0,0.327 0,1.514 0,0.757 0,1.893 0,1.135 0,0.196 0,1.318 0,0.757 0,1.893 0,0.757 0,1.093 0,0.8 0,1.135 0,1.893 0,1.135 0,1.893 0,0.178 0,0.579 0,1.893 0,0.757 0,1.514 0,0.757 0,0.006 0,1.508 0,0.757 0,1.514 0,0.757 0,1.02 0,0.494 0,0.757 0,1.514 0,0.757 0,1.136 0,0.188 0,0.569 0,1.514 0,0.757 0,1.514 0,0.728 0,0.029 0,1.514 0,0.757 0,1.514 0,0.757 0,1.12 0,0.394 0,0.757 0,1.136 0,0.757 0,1.136 0,0.39 0,0.367 0,1.514 0,0.757 0,1.514 0,0.757 0,0.268 0,1.246 0,0.757 0,1.514 0,0.757 0,1.202 0,0.312 0,0.757 0,1.514 0,0.757 0,1.514 0,0.333 0,0.424 0,0.379 0,1.514 0,0.757 0,0.379 0,0.064 0,1.071 0,0.757 0,0.379 0,1.135 0,0.638 0,0.119 0,0.379 0.381,1.135 0,0.757 0,0.379 0.181,0.269 0.581,0.866 0.38,0.758 0,0.378 0.762,1.136 0.381,0.757 0.029,0.058 -0.029,0.32 1.142,1.136 0.265,0.263 0.116,0.115 0.381,0.379 1.142,1.135 0.12,0.119 0.261,0.26 0.381,0.378 1.117,1.111 0.025,0.025 0.761,0.378 0.381,0.379 0.971,0.643 0.172,0.114 0.38,0.378 0.381,0.379 1.143,0 0.064,0 0.316,0 0.381,0 1.142,0 0.381,0 0.299,0 0.082,0 1.523,0 0.762,0 1.142,0 0.762,0 0.46,0 0.682,0 0.762,0 1.142,0 0.761,0 1.143,0 0.021,0 0.74,0 1.143,0 0.761,0 0.381,0 0.969,0 0.554,0 0.762,0 1.904,0 0.761,0 1.904,0 0.194,0 0.568,0 1.523,0 0.761,0 0.381,0 1.367,-0.34 0.156,-0.039 0.762,-0.378 1.142,-0.379 0.762,-0.378 1.142,0 0.393,0 0.369,0 0.38,0 1.143,-0.757 0.761,-0.379 0.381,0 0.05,0 1.092,-0.757 0.762,-0.378 0.381,0 1.142,-0.757 0.442,-0.22 0.32,-0.159 0.381,0 1.142,-0.757 0.761,-0.378 0.381,0 0.418,-0.277 0.725,-0.48 0.38,-0.379 0.381,0 1.142,-0.757 0.75,-0.372 0.012,-0.006 0.381,0 1.142,-0.757 0.762,-0.379 0.381,0 0.687,-0.455 0.455,-0.302 0.381,-0.379 0.38,-0.378 1.143,-1.136 0.761,-0.757 0.081,-0.08 0.3,-0.298 1.142,-1.136 0.762,-0.757 0.381,-0.378 0.983,-0.978 0.159,-0.158 0.381,-0.757 1.142,-1.514 0.381,-0.757 1.142,-1.893 0.183,-0.363 0.198,-0.394 1.143,-1.514 0.38,-0.757 0.762,-1.135 0.381,-0.757 0.036,-0.072 0.725,-1.442 0.381,-0.757 1.142,-1.515 0.381,-0.757 0.214,-0.212 0.167,-0.166 0.762,-1.514 0.38,-0.757 0.381,-1.514 0.381,-0.757 0.125,-0.498 0.256,-1.016 0,-0.757 0,-0.379 0,-1.135 0,-0.715 0,-0.043 0,-0.378 0,-1.514 0,-0.757 0,-1.136 0,-0.313 0,-0.444 0,-0.378 0,-1.136 0,-0.757 0,-0.378 -0.067,-0.2 -0.314,-0.936 -0.381,-0.757 0,-0.379 -0.761,-1.135 -0.287,-0.569 -0.094,-0.188 0,-0.379 -0.762,-1.135 -0.381,-0.757 0,-0.379 0,-0.16 -1.142,-0.975 -0.381,-0.379 -0.261,-0.259 -0.12,-0.119 -1.142,-1.136 -0.761,-0.378 -0.381,-0.379 -1.143,-0.757 -0.409,-0.204 -0.352,-0.174 -1.523,-0.379 -0.762,-0.379 -1.523,-0.378 -0.762,-0.379 -0.512,0 -1.011,0 -0.761,0 -1.904,0 -0.762,0 -1.029,0 -0.875,0 -1.142,0 -1.904,0.379 -1.142,0 -1.523,0.378 -0.255,0.127 -0.507,0.252 -1.523,0.379 -0.762,0.378 -0.38,0 -1.524,0.757 -0.383,0.191 -0.378,0.188 -1.142,0.757 -0.762,0.378 -1.523,0.757 -0.334,0.166 -0.428,0.213 -1.142,0.378 -0.762,0.379 -1.142,0.757 -0.762,0.378 -0.07,0 -0.31,0 -1.143,1.136 -0.761,0.378 -0.381,0.379 -0.612,0.913 -0.15,0.222 -0.38,0.379 -0.381,0.378 -0.762,1.136 -0.38,0.757 0,0.158 0,0.221 -0.762,1.135 -0.381,0.757 -0.381,1.136 -0.38,0.757 -0.013,0.025 -0.368,1.489 -0.381,0.757 0,0.378 -0.381,1.136 0,0.716 0,0.041 0,1.514 0,0.757 0,1.514 0,0.757 0,0.399 0,1.115 0,0.757 0,1.514 0,0.757 0.336,1.337 0.045,0.178 0,0.757 0,0.378 0.381,1.136 0,0.757 0,0.19 0,0.188 0.381,1.136 0.38,0.757 0,0.378 0.381,1.136 0.044,0.132 -0.044,0.625 0,0.378 1.143,1.136 0.38,0.757 0.28,0.278 0.101,0.101 1.142,1.135 0.381,0.757 0.381,0.379 0.762,1.135 0.135,0.269 0.245,0.488 0.381,0.379 1.142,1.135 0.381,0.757 0.369,0.367 0.012,0.012 1.142,1.135 0.381,0.758 0.381,0.378 0.467,0.464 0.675,0.672 0.762,0.757 0.381,0.378 1.142,0.757 0.762,0.379 0.115,0.057 0.265,-0.057 1.143,0.757 0.761,0.378 0.381,0 0.874,0.58 0.268,0.177 0.762,0.379 0.381,0 1.142,0.757 0.381,0.378 0.144,0 0.237,0 1.142,0.757 0.762,0.379 1.523,0 0.759,0 0.002,0 0.381,0 1.523,0 0.762,0 0.381,0 0.7,0 0.442,0 0.761,0 0.381,0 0.849,0 0.294,0 0.38,0 0.381,0 0.191,0 0.951,0 0.381,0 0.381,0 1.142,0 0.51,0 0.252,0 0.381,0 1.131,-0.375 0.011,-0.004 0.762,0 0.38,0 1.143,-0.757 0.224,-0.223 0.157,-0.155 0.38,0 1.143,-0.757 0.761,-0.379 0.381,0 0.077,0 1.065,-0.757 0.762,-0.378 0.381,-0.379 0.19,-0.189 0.952,-0.568 0.762,-0.378 0.38,-0.379 1.143,-1.135 0.335,-0.333 0.426,-0.424 0.381,-0.379 1.142,-1.136 0.762,-0.757 0.381,-0.378 0.021,-0.021 1.502,-1.115 0.762,-0.757 1.523,-1.135 0.761,-0.379 0.745,-0.555 0.778,-0.58 0.762,-0.379 1.142,-1.135 0.762,-0.379 0.381,-0.378 0.265,-0.264 0.877,-0.872 0.762,-0.379 1.142,-1.135 0.761,-0.757 1.143,-1.136 0.381,-0.757 0.38,-0.378 0.061,-0.06 1.082,-1.076 0.38,-0.757 0.381,-0.378 0.762,-1.136 0.295,-0.586 0.086,-0.171 0,-0.378 0.761,-1.136 0.381,-0.757 1.142,-1.136 0.151,-0.15 0.23,-0.228 1.142,-1.136 0.762,-0.378 0.381,-0.379 1.142,-0.757 0.019,-0.012 0.362,-0.366 0.381,-0.379 1.142,-0.757 0.24,-0.238 0.141,-0.14 0.381,-0.379 1.142,-0.757 0.381,-0.378 0.381,0 0.094,0 1.048,-1.136 0.761,-0.378 0.381,-0.379 0.989,-0.655 0.154,-0.102 0.38,-0.379 0.381,0 1.142,-0.757 0.381,-0.378 0.183,0 0.198,0 1.142,-0.757 0.762,-0.379 0.381,0 1.142,-0.757 0.113,-0.074 0.268,-0.304 0.381,0 1.142,-0.757 0.545,-0.271 0.217,-0.108 0.38,0 1.143,-0.757 0.761,-0.378 0.381,0 0.402,-0.134 0.74,-0.245 0.762,-0.378 0.381,0 1.142,0 0.361,0 0.02,0 0.381,0 1.142,0 0.762,0 0.215,0 0.165,0 1.143,0 0.38,0 0.381,0 0.191,0 0.952,0 0.38,0 0.381,0 0.191,0 0.951,-0.379 0.762,0 0.381,0 0.19,0 0.952,-0.378 0.381,-0.379 0.381,0 0.09,0 -0.852,-0.378 -0.127,0 -0.254,0 -0.38,0 -1.123,0 -0.02,0 -0.381,0 -0.38,0 -1.143,0 -0.433,0 -0.328,0 -0.381,0 -1.142,0.378 -0.762,0 -0.381,0 -0.069,0 -1.073,0.757 -0.762,0.379 -1.523,0.378 -1.904,0.379 -0.57,0.283 -0.191,0.095 -1.904,0.379 -0.762,0.378 -1.904,0.379 -0.761,0.378 -0.556,0.138 -0.967,0.241 -0.762,0.378 -0.381,0 -1.523,0.757 -0.751,0.373 -0.01,0.006 -1.523,0.378 -0.762,0.379 -0.381,0 -1.142,0.757 -0.762,0.378 -0.38,0 -1.038,1.031 -0.105,0.105 -0.761,0.757 -0.381,0.379 -1.143,1.135 -0.38,0.757 -0.401,0.598 -0.361,0.538 -0.381,0.757 -1.142,1.514 -0.381,0.757 -0.761,1.514 -0.116,0.23 -0.265,0.527 -0.762,1.893 -0.381,0.757 -1.142,1.892 -0.227,0.452 -0.154,0.305 -0.761,1.893 -0.381,0.757 -0.762,1.514 -0.38,0.757 -0.116,0.459 -0.265,1.055 -0.381,0.757 -0.381,1.514 -0.38,0.757 0,0.364 0,0.015 -0.762,1.514 -0.381,0.757 0,1.135 0,0.757 0,0.169 0,0.21 0,1.136 0,0.757 0,0.378 0,1.108 0,0.028 0,0.757 0,0.378 0.381,1.514 0,0.757 0,0.227 0,0.152 0.762,1.135 0.38,0.757 0,0.379 0.762,1.135 0.08,0.16 0.301,0.598 0,0.378 0.761,1.136 0.381,0.378 0,0.314 0,0.065 1.142,1.135 0.381,0.379 0.171,0.169 0.21,0.209 1.142,0.757 0.762,0.379 0.381,0.378 0.025,0.025 1.117,0.732 0.762,0.379 0.38,0 0.823,0.545 0.32,0.212 0.38,0.378 0.381,0.379 1.143,0 0.118,0 0.262,0 0.381,0 1.143,0 0.761,0 0.313,0 0.068,0 1.142,0 0.381,0 0.381,0 1.142,-0.379 0.326,-0.161 0.436,-0.217 0.38,0 1.143,-0.757 0.381,-0.379 0.38,0 0.018,0 1.125,-0.757 0.38,-0.378 0.381,-0.379 1.143,-1.135 0.253,-0.252 0.127,-0.127 1.143,-1.135 0.761,-0.757 1.143,-1.136 0.38,-0.757 0.107,-0.106 0.274,-0.273 1.523,-1.514 0.762,-0.757 1.142,-1.514 0.685,-0.68 0.077,-0.077 0.381,-0.378 1.142,-1.136 0.762,-0.757 0.38,-0.378 0.394,-0.587 0.368,-0.549 0.381,-0.757 0,-0.378 0.761,-1.136 0.381,-0.757 0.161,-0.32 -0.161,-0.059 0.762,-1.514 0.38,-0.757 0.381,-1.135 0.324,-0.643 0.057,-0.114 0.381,-1.136 0.38,-0.757 0.381,-1.893 0.381,-0.757 0.14,-0.694 0.241,-1.198 0.381,-1.136 0.38,-1.514 0,-0.757 0,-1.121 0,-0.014 0,-0.757 0,-1.515 0,-0.757 0,-0.378 0,-0.686 0,-0.45 0,-0.757 0,-1.135 0,-0.757 0,-1.136 0,-0.163 0,-0.594 0,-1.135 0,-0.757 0,-0.379 0,-0.953 0,-0.182 0,-0.758 0,-0.378 0,-1.514 0,-0.757 0,-0.173 0,-0.206 0,-1.135 0,-0.757 0,-0.379 0,-0.189 0,-0.946 0,-0.379 0,-0.378 0,-0.19 0,-0.946 0,-0.378 0,-0.379 0,-0.189 0,0.946 0,0.379 0,0.003 0,0.375 0,1.136 0,0.757 0,1.514 0,0.473 0,0.284 0,1.514 0,0.757 0,1.893 0,1.892 0,0.458 0,1.435 0,0.757 -0.38,1.514 0,0.757 0,1.302 0,0.212 0,0.757 -0.381,1.514 -0.381,0.757 0,1.514 0,0.279 0,0.478 0,1.514 0,0.757 0,0.379 0,1.135 0,0.07 0,0.687 0,0.379 0,1.135 0,0.757 0,1.515 0,0.757 0,1.135 0,0.018 0,0.739 0,0.379 0,1.135 0,0.757 0,0.379 0,1.135 0,0.713 0,0.044 0,0.379 0,1.136 0,0.757 0,0.378 0,0.189 0.381,0.947 0,0.378 0,0.379 0,0.189 0.761,0.946 0.381,0.379 0,0.378 0,0.19 0.381,0.946 0.381,0.378 0,0.379 0,0.185 1.142,0.95 0.381,0.379 0.246,0.244 0.135,0.134 0.761,1.136 0.381,0.379 0,0.181 0,0.197 0.381,1.136 0.381,0.378 0.036,0.037 -0.036,0.342 0,0.189 1.142,0.189 0.381,0.379 0.38,0 0.126,0 1.017,0 0.043,0 0.338,0 0.38,0 0.191,0 0.952,0 0.381,0 0.039,0 0.341,0 0.191,0 0.952,0 0.38,0 0.381,0 0.129,0 1.014,0 0.38,0 0.364,0 0.017,0 1.044,0 0.098,0 0.381,0 0.381,0 0.19,0 0.952,0 0.381,0 0.381,0 0.19,0 0.952,-0.379 0.381,-0.378 0.16,0 0.221,0 1.142,-0.757 0.01,-0.007 0.371,-0.372 0.381,-0.378 0.19,-0.19 0.952,-0.946 0.381,-0.378 0.381,-0.379 0.19,-0.189 0.952,-0.947 0.381,-0.378 0.381,-0.379 1.058,-0.701 0.084,-0.056 0.381,-0.378 0.381,0 0.761,-1.136 0.381,-0.378 0,-0.206 0,-0.173 1.142,-1.135 0.381,-0.757 0.381,-0.379 0.061,-0.06 0.7,-1.075 0.381,-0.757 0,-0.379 0.762,-1.136 0.38,-0.757 0.027,-0.052 -0.027,-0.326 1.143,-1.136 0.381,-0.757 0.38,-0.378 0.448,-0.445 0.695,-0.691 0.761,-0.757 0.381,-0.378 1.142,-1.136 0.381,-0.757 0.004,-0.007 0.377,-0.371 0.381,-1.136 0.381,-0.757 0,-0.379 0.475,-0.708 0.286,-0.427 0.381,-0.757 0.381,-1.136 0.38,-0.757 0.381,-1.135 0.093,-0.184 0.288,-0.573 0,-1.136 0,-0.757 0.381,-1.514 0,-0.65 0,-0.107 0,-0.379 0,-1.135 0,-0.757 0,-0.379 0,-0.54 0,-0.595 0,-0.757 0,-0.379 0,-1.135 0,-0.757 0,-0.071 0,-0.308 0.381,-1.135 0.38,-0.757 0,-0.379 0.27,-0.804 0.111,-0.332 0,-0.757 0,-0.378 0.381,-1.136 0,-0.757 0,-0.122 0,-0.256 0,-1.136 0,-0.757 0,-0.378 0,-0.19 0,-0.946 0,-0.378 0,-0.379 0,-0.189 0,-0.947 0,-0.378 0,-0.379 0,-0.189 0,-0.946 0,-0.3 0,-0.079 0,-0.378 0,-0.189 0,0.946 0,0.378 0,0.361 0,0.018 0,1.135 0,0.379 0,0.379 0,1.514 0,0.429 0,0.328 0,1.514 0,0.757 0,1.514 0,0.757 0,0.322 0,1.192 0,1.893 0,1.892 0,1.893 0,0.607 0,0.15 0,1.514 0,0.757 0,1.514 0,0.757 -0.16,0.638 -0.221,0.876 0,0.757 0,1.514 0,0.757 0,0.379 0,0.015 -0.381,1.499 0,0.757 0,0.378 0,1.136 0,0.495 0,0.262 0,0.378 0,1.136 0,0.757 0,0.379 0,0.303 0,0.832 0,0.757 0,0.379 -0.38,1.135 0,0.671 0,0.086 0,0.379 -0.381,1.135 -0.381,0.379 0,0.378 0,0.189 0,0.947 0,0.379 0,0.378 0,1.136 0,0.14 0,0.617 0,0.378 0,1.136 0,0.378 0,0.279 0,0.1 0,1.135 0,0.757 0,0.133 0,0.246 0,1.135 0,0.367 0,0.012 0,0.378 0,1.136 0,0.22 0,0.159 0,0.378 0,1.136 0,0.075 0,0.303 0,0.379 0,1.066 0,0.069 0,0.379 0,0.378 0,0.189 0,-0.946 0,-0.168 0,-0.21 0,-0.379 0,-1.514 0,-0.757 0,-0.378 0,-0.023 0.381,-1.113 0,-0.757 0,-0.379 0.381,-1.135 0,-0.509 0,-0.248 0,-0.379 0,-1.135 0,-0.757 0,-0.379 0,-0.329 0,-0.806 0,-0.757 0,-0.379 0,-1.135 0,-0.686 0,-0.072 0,-0.378 0.761,-1.136 0.381,-0.757 0,-0.378 0,-0.189 0,-0.947 0,-0.378 0,-0.379 0.381,-1.135 0.052,-0.157 -0.052,-0.222 0,-0.378 0.381,-1.136 0,-0.378 0,-0.287 0,-0.092 0.38,-1.514 0,-0.757 0.381,-1.136 0,-0.282 0,-0.475 0,-0.378 0,-1.136 0,-0.757 0,-0.375 0,-0.003 0,-1.136 0,-0.757 0,-0.378 0,-1.136 0,-0.46 0,-0.297 0,-0.379 0,-1.135 0,-0.757 0,-0.379 0,-0.084 0.381,-1.051 0,-0.379 0,-0.378 0.64,-0.954 0.121,-0.182 0.381,-0.757 0,-0.378 0.381,-1.136 0.146,-0.145 0.235,-0.233 0,-0.379 0.376,-1.123 0.005,-0.012 0.38,-0.379 0,-0.379 0.656,-0.977 0.106,-0.158 0.381,-0.379 0.38,-0.378 0.558,-0.832 0.204,-0.304 0.381,-0.378 0,-0.379 0,-0.189 1.142,-0.189 0.381,0 0.381,0 0.19,0 0.952,-0.379 0.381,-0.378 0.254,0 0.127,0 1.142,-1.136 0.109,-0.108 0.272,-0.27 0.381,-0.379 1.105,0 0.037,0 0.381,0 0.38,0 0.96,0 0.183,0 0.381,0 0.38,0 0.191,0 0.952,-0.378 0.284,0 0.097,0 0.38,0 0.191,0 0.952,0 0.38,0 0.375,0 0.006,0 0.191,0 0.952,0 0.38,0 0.381,0 0.19,0 0.952,0 0.023,0 0.358,0 0.381,0 0.19,0 0.952,0 0.381,0 0.174,0 0.207,0 1.142,0 0.381,0 0.073,0 0.308,0 0.19,0 0.952,0 0.162,0 0.219,0 0.381,0 0.19,0 0.952,0 0.381,0 0.256,0 0.125,0 0.19,0 0.952,0 0.339,0 0.042,0 0.381,0 0.19,0 0.952,0 0.019,0 0.362,0 0.381,0 1.042,0 0.1,0 0.381,0 0.38,0 0.191,0 0.952,0 0.381,0 0.38,0 0.191,0 0.952,0 0.38,0 0.347,0 0.034,0 1.143,0 0.38,0 0.196,0 0.185,0 1.142,0 0.051,0 0.33,0 0.381,0 0.19,0 0.952,0 0.138,0 0.243,0 0.381,0 0.19,0 0.952,0 0.381,0 0.381,0 0.19,0 0.952,0 0.381,0 0.146,0 0.235,0 1.142,0 0.38,0 0.001,0 0.381,0 0.19,0 0.952,0 0.381,0 0.381,0 0.19,0 0.952,0 0.322,0 0.059,0 0.381,0 0.19,0 0.952,0 0.381,0 0.38,0 0.031,0 1.112,0 0.381,0 0.264,0 0.116,0 1.143,0 0.38,0 0.126,0 0.255,0 0.191,0 0.952,0 0.38,0 0.381,0 0.191,0 0.951,0 0.381,0 0.381,0 0.191,0 0.951,0 0.381,0 0.381,0 0.19,0 0.952,0 0.381,0 0.272,0 0.109,0 1.142,0 0.125,0 0.256,0 0.381,0 0.19,0 0.952,0 0.381,0 0.381,0 0.19,0 0.952,0 0.381,0 0.381,0 0.19,0 0.952,-0.379 0.381,0 0.381,0 1.142,0 0.077,0 0.304,0 0.38,0 1.143,0 0.259,0 0.122,0 0.38,0 1.143,0 0.381,0 0.112,0 0.268,0 1.143,-0.378 0.38,0 0.381,0 1.143,-0.379 0.38,-0.378 0.381,0 0.967,0 0.175,0 0.381,0 0.381,0 0.19,0 0.952,0 0.381,0 0.381,0 1.024,0 0.118,0 0.381,0 0.381,0 0.948,0 0.194,0 0.381,0 0.381,0 1.142,-0.379 0.381,-0.379 0.101,0 0.28,0 1.142,0 0.346,0 0.035,0 0.381,0 1.142,-0.378 0.381,0 0.38,0 0.191,0 0.952,0 0.381,0 0.38,0 0.053,0 1.09,0 0.381,0 0.38,0 1.143,0 0.288,0 0.092,0 0.381,0 1.143,0 0.38,0 0.142,0 0.239,0 1.142,-0.379 0.381,0 0.378,0 0.003,0 1.142,-0.378 0.381,0 0.381,0 0.19,0 0.952,0 0.381,0 0.381,0 0.689,0 0.453,0 0.381,0 0.381,0 0.19,0 0.952,0 0.381,0 0.381,0 0.957,0 0.185,0 0.381,0 0.381,0 1.142,0 0.381,0 0.381,0 1.142,0 0.538,0 0.223,0 0.381,0 1.143,-0.379 0.38,0 0.122,0 0.259,0 1.143,0 0.761,0 0.357,0 0.024,0 1.142,0 0.762,0 0.381,0 0.886,0 0.256,0 0.381,0 0.38,0 1.143,0 0.381,0 0.064,0 0.316,0 1.143,0 0.298,0 0.082,0 0.381,0 1.143,0 0.152,0 0.228,0 0.381,0 1.143,0 0.006,0 0.374,0 0.381,0 1.003,0 0.139,0 0.381,0 0.381,0 0.855,0 0.287,0 0.381,0 0.381,0 0.19,0 0.952,0 0.381,0 0.381,0 0.19,0 0.952,0 0.319,0 0.062,0 0.381,0 0.19,0 0.952,0 0.381,0 0.077,0 0.304,0 0.19,0 0.952,0 0.381,0 0.166,0 0.215,0 0.19,0 0.952,0 0.381,0 0.254,0 0.127,0 0.19,0 0.952,0 0.343,0 0.038,0 0.38,0 1.143,0 0.197,0 0.184,0 0.38,0 0.191,0 0.952,0 0.38,0 0.285,0 0.096,0 0.191,0"
       __comy="772.948"
       __comx="347.436"
       __timestamp="0x13dc2a192a0" />
  </g>
</svg>
