<?xml version="1.0" encoding="UTF-8" standalone="no"?>
<!-- Created with Inkscape (http://www.inkscape.org/) -->

<svg
   xmlns:dc="http://purl.org/dc/elements/1.1/"
   xmlns:cc="http://creativecommons.org/ns#"
   xmlns:rdf="http://www.w3.org/1999/02/22-rdf-syntax-ns#"
   xmlns:svg="http://www.w3.org/2000/svg"
   xmlns="http://www.w3.org/2000/svg"
   xmlns:sodipodi="http://sodipodi.sourceforge.net/DTD/sodipodi-0.dtd"
   xmlns:inkscape="http://www.inkscape.org/namespaces/inkscape"
   width="773.68402"
   height="107.364"
   id="svg3314"
   version="1.1"
   inkscape:version="0.47 r22583"
   sodipodi:docname="New document 12">
  <defs
     id="defs3316">
    <inkscape:perspective
       sodipodi:type="inkscape:persp3d"
       inkscape:vp_x="0 : 526.18109 : 1"
       inkscape:vp_y="0 : 1000 : 0"
       inkscape:vp_z="744.09448 : 526.18109 : 1"
       inkscape:persp3d-origin="372.04724 : 350.78739 : 1"
       id="perspective3322" />
    <inkscape:perspective
       id="perspective3309"
       inkscape:persp3d-origin="0.5 : 0.33333333 : 1"
       inkscape:vp_z="1 : 0.5 : 1"
       inkscape:vp_y="0 : 1000 : 0"
       inkscape:vp_x="0 : 0.5 : 1"
       sodipodi:type="inkscape:persp3d" />
  </defs>
  <sodipodi:namedview
     id="base"
     pagecolor="#ffffff"
     bordercolor="#666666"
     borderopacity="1.0"
     inkscape:pageopacity="0.0"
     inkscape:pageshadow="2"
     inkscape:zoom="0.35"
     inkscape:cx="386.842"
     inkscape:cy="53.681997"
     inkscape:document-units="px"
     inkscape:current-layer="layer1"
     showgrid="false"
     inkscape:window-width="607"
     inkscape:window-height="491"
     inkscape:window-x="406"
     inkscape:window-y="506"
     inkscape:window-maximized="0" />
  <metadata
     id="metadata3319">
    <rdf:RDF>
      <cc:Work
         rdf:about="">
        <dc:format>image/svg+xml</dc:format>
        <dc:type
           rdf:resource="http://purl.org/dc/dcmitype/StillImage" />
        <dc:title></dc:title>
      </cc:Work>
    </rdf:RDF>
  </metadata>
  <g
     inkscape:label="Layer 1"
     inkscape:groupmode="layer"
     id="layer1"
     transform="translate(11.842,-478.68018)">
    <path
       style="fill:none;stroke:#000000;stroke-width:1;stroke-linecap:round;stroke-linejoin:round"
       id="path3057"
       d="m -11.342,549.39618 0.761,0 0.362,0 0.019,0 0.381,0 1.142,-0.379 0.102,-0.101 0.279,-0.277 1.142,-0.379 0.974,-0.242 0.549,-0.137 0.762,-0.378 1.904,-0.379 0.034,-0.006 1.87,-0.372 1.142,-0.379 0.787,0 1.117,0 1.142,0 1.564,0 0.34,0 0.762,0 1.904,0 0.108,0 0.653,0 1.904,0 0.333,0 0.429,0 0.381,0 1.164,0 0.359,0 0.761,0 0.381,0 0.028,0 1.114,0 0.381,0 0.146,0 0.235,0 0.19,0 0.952,0 0.381,0 0.002,0 0.379,0 0.19,0 0.571,-1.135 0.381,-0.379 0,-0.356 0,-0.022 0.381,-1.136 0.088,-0.087 0.293,-0.291 0.761,-1.136 0.212,-0.42 0.169,-0.337 1.142,-1.135 0.331,-0.657 0.05,-0.1 1.143,-1.515 0.761,-0.757 0.161,-0.24 0.601,-0.895 0.381,-0.757 0.354,-0.704 0.407,-0.81 0.762,-1.514 0.37,-0.737 0.01,-0.02 0.381,-1.514 0.381,-0.758 0,-0.139 0,-0.239 0.762,-1.893 0.29,-0.577 0.09,-0.179 0.762,-1.893 0.381,-1.136 0.06,-0.3 0.32,-1.592 0.381,-1.136 0.208,-1.033 0.173,-0.86 0.381,-1.135 0.355,-2.12 0.026,-0.151 0.38,-1.136 0.381,-1.892 0.124,-0.37 0.257,-0.766 0.381,-1.893 0,-0.807 0,-0.328 0.381,-1.514 0,-0.757 0,-0.078 0,-0.301 0,-1.135 0,-0.361 0,-0.396 0,-0.379 0,-0.189 0,0.189 0,0.757 0,0.379 0,0.074 0.38,1.818 0.381,1.893 0.222,0.66 0.159,0.475 0.381,1.893 0.698,2.083 0.063,0.188 0.381,2.271 0.381,2.65 0.088,0.524 0.293,1.747 0.38,2.65 0.476,1.893 0.286,1.135 0.381,3.028 0.362,2.519 0.018,0.131 0.381,3.028 0.381,3.028 0,0.795 0,2.233 0.381,3.028 0.23,2.061 0.151,1.346 0.38,3.406 0,2.961 0,0.068 0,2.271 0,1.135 0,0.62 0,1.273 0,1.136 0,0.925 0,0.589 0,0.757 0,1.394 0,0.12 0,0.757 0,1.514 0,0.176 0,0.581 0,0.378 0,0.615 0,0.521 0,0.378 0,0.322 0,0.057 0,0.189 0,0.947 0,0.378 0,0.178 0,0.201 0,0.189 -0.761,-0.946 -0.378,-0.376 -0.003,-0.003 -0.762,-1.136 -0.38,-0.756 -0.149,-0.297 -0.613,-1.596 -0.381,-1.893 -0.299,-1.488 -0.081,-0.404 -0.381,-2.271 -0.381,-2.271 0,-0.198 0,-0.938 -0.381,-1.893 0,-0.473 0,-0.662 0,-1.514 0,-0.731 0,-0.026 -0.381,-1.893 0,-0.757 0,-0.135 0,-0.244 0,-1.514 0,-0.585 0,-0.172 0,-0.378 0.381,-1.136 0.04,-0.118 -0.04,-0.26 0,-0.379 0,-0.144 1.143,0.144 0.274,0 0.106,0 0.381,0 1.142,0 0.039,0 0.342,0 0.381,0 0.133,0 1.009,0 0.381,0 0.368,0 0.013,0 1.142,-0.378 0.381,0 0.47,-0.117 1.053,-0.262 0.762,-0.379 0.275,0 0.106,0 1.523,-0.756 0.761,-0.379 0.047,0 0.334,0 1.142,-0.757 0.392,-0.194 0.37,-0.184 0.381,0 1.037,-0.688 0.105,-0.069 0.762,-0.379 0.38,0 0.332,-0.329 0.811,-0.807 0.761,-0.378 0.688,-0.911 0.455,-0.603 0.761,-1.893 1.081,-1.791 0.062,-0.101 0.38,-1.136 0.762,-2.271 0.126,-0.879 0.255,-1.77 0.38,-2.272 0.266,-1.845 0.115,-0.804 0.381,-2.65 0.381,-2.65 0.034,-0.237 -0.034,-2.412 0,-2.272 0,-1.076 0,-1.195 0,-1.135 0,-1.966 0,-0.305 0,-1.136 0,-0.378 0,-0.39 0,-1.125 0,-0.756 0,-0.243 0,-0.136 0,-0.189 0,0.189 0,1.135 0,1.515 0,0.031 0.381,1.861 0.38,2.272 0.143,0.85 0.238,1.42 0,2.65 0,1.815 0,0.835 0.381,3.028 0.38,3.019 10e-4,0.009 0.381,3.407 0.38,3.406 0,1.039 0,1.99 0.381,3.028 0,2.23 0,1.176 0,3.407 0.367,3.644 0.014,0.141 0,3.407 0,3.028 0,0.92 0,1.73 0,2.271 0,0.743 0,0.393 0,1.514 0,0.729 0,0.028 0,0.378 0,1.514 0,0.211 0,0.546 0,0.379 0,0.189 0,0.946 0,0.379 0,0.378 0,0.08 0.761,-1.215 0.381,-0.379 0.631,-1.566 0.131,-0.326 0.761,-2.271 0.762,-2.272 0.094,-0.281 0.287,-0.854 1.142,-1.893 0.573,-0.949 0.569,-0.943 1.143,-1.893 0.69,-1.029 0.071,-0.106 1.143,-1.893 0.761,-0.757 0.35,-0.464 0.793,-1.05 0.761,-0.757 0.731,-0.727 0.411,-0.409 0.762,-0.379 1.443,-0.717 0.08,-0.039 0.762,-0.379 1.904,-0.378 0.196,-0.098 0.565,-0.281 1.523,-0.378 0.435,0 0.327,0 1.142,0 0.672,0 0.09,0 1.523,-0.379 0.762,-0.378 0.071,0 0.309,0 1.523,-0.379 0.38,0 0.382,0 0.381,0 0.19,0 0.952,0 0.381,0 0.047,0 0.334,0 0.19,0 -0.952,0 -0.274,0 -0.107,0 -0.38,0 -1.143,0.757 -0.118,0.079 -0.643,0.3 -1.143,0.757 -0.385,0.191 -0.376,0.187 -1.143,1.135 -0.685,0.682 -0.076,0.076 -1.143,1.514 -0.761,1.892 -0.114,0.228 -0.267,0.529 -1.142,1.893 -0.267,0.531 -0.114,0.226 -0.762,1.514 -0.38,0.757 -0.044,0.086 -0.337,1.428 0,0.757 0,0.192 0,0.187 0,1.514 0,0.681 0,0.076 0,0.379 0,1.135 0,0.27 0,0.487 0,0.379 0,0.189 1.142,0.189 0.381,0 0.381,0 0.083,0 1.059,-1.135 0.762,-0.379 0.588,-0.779 0.554,-0.735 0.381,-0.757 0.956,-1.584 0.186,-0.309 0.381,-0.757 0.762,-1.892 0.115,-0.288 0.265,-0.469 0.762,-1.514 0.173,-0.345 0.208,-0.412 0.38,-1.515 0,-0.579 0,-0.178 0,-1.514 0,-0.757 0,-0.057 0,-0.321 0.381,-1.136 0,-0.293 0,-0.464 0,-0.378 0,-0.19 0,1.325 0,0.379 0,1.892 0,0.63 0,0.127 0.762,1.893 0.158,0.473 0.223,0.663 0.761,1.892 0.33,0.656 0.051,0.101 0.761,1.514 0.381,0.757 0,0.065 0,0.314 0.762,1.135 0.206,0.411 0.175,0.346 0.38,0.379 0.191,0.189 0.952,0.947 0.131,0.13 0.25,0.248 0.38,0.378 0.191,0.19 0.952,0.189 0.055,0 0.325,0 0.381,0 0.73,-0.544 0.793,-0.591 0.762,-0.379 1.2,-1.491 0.323,-0.402 1.142,-1.892 1.143,-2.271 0.11,-0.22 1.032,-2.051 0.762,-2.65 0.468,-1.242 0.674,-1.786 0.762,-3.028 0.548,-2.454 0.213,-0.953 0.762,-3.028 0.761,-3.028 0.023,-0.092 0.358,-2.558 0.381,-2.65 0.13,-0.905 0.251,-1.744 0,-2.65 0.247,-1.724 0.133,-0.925 0,-2.65 0,-2.547 0,-0.103 0.381,-2.649 0,-2.272 0,-0.304 0,-0.831 0,-1.514 0,-0.442 0,-0.315 0,-0.379 0,-1.011 0,-0.125 0,-0.756 0,-0.379 0,-0.077 0,0.834 0,0.378 0,0.051 -0.381,2.221 -0.38,2.271 0,0.982 0,1.289 -0.381,2.65 0,2.283 0,0.745 -0.381,3.028 -0.381,3.028 -0.038,0.301 -0.343,2.727 -0.38,3.407 -0.184,1.64 -0.197,1.767 -0.381,3.028 0,2.101 0,0.548 0,3.029 0,2.649 0,0.259 0,2.391 0,2.649 0,1.1 0,1.55 0.381,2.271 0,0.823 0,0.313 0.381,1.892 0.38,0.757 0.012,0.023 0.369,1.492 0.381,0.756 0,0.131 0,0.248 0.762,1.136 0.249,0.496 0.131,0.26 0,0.379 1.105,0.366 0.038,0.013 0.381,0 0.38,0 0.526,0 0.617,0 0.761,0 0.275,0 0.106,0 1.142,-0.758 0.762,-0.378 0.317,-0.158 0.444,-1.735 0.762,-1.892 0.387,-1.153 0.375,-1.118 0.761,-2.65 0.685,-2.384 0.077,-0.265 0.761,-2.272 0.381,-1.135 0.157,-0.469 0.605,-1.424 0.38,-0.757 0,-0.379 0,-0.003 0.381,-1.51 0,-0.757 0,-0.049 0,-0.33 0,-0.189 0,-0.947 0,-0.378 0,-0.074 0,-0.305 0,-0.189 0,0.946 0,0.379 0,1.167 0,0.347 0.381,1.892 0,1.893 0,0.869 0,1.402 0,1.893 0,1.799 0,0.472 0,2.65 0,2.271 0,0.42 0,1.851 0,2.649 -0.221,1.539 -0.16,1.111 0,2.65 -0.381,2.271 0,0.564 0,1.707 0,1.893 -0.139,0.833 -0.241,1.438 -0.381,2.271 0,1.468 0,0.424 0,1.136 -0.381,1.893 -0.065,0.128 -0.316,0.629 0,0.378 -0.216,0.861 -0.164,0.653 -0.381,0.757 0,0.364 0,0.015 0,0.189 -0.381,-0.946 -0.381,-1.893 -0.005,-0.023 0.005,-2.248 0.381,-3.028 0.17,-1.355 0.211,-2.052 0.381,-3.406 0,-2.33 0,-0.698 0.38,-3.029 0.381,-3.028 0.16,-1.273 0.221,-1.755 0.761,-3.028 0.362,-1.436 0.4,-1.592 0.381,-2.65 0.666,-1.988 0.095,-0.283 0.762,-2.271 1.142,-2.271 0.496,-0.985 0.266,-0.908 0.381,-1.135 1.215,-1.51 0.308,-0.383 0.761,-0.757 1.233,-1.226 0.29,-0.288 0.762,-0.757 1.904,-0.757 0.826,-0.329 0.316,-0.05 1.904,-0.378 0.36,-0.179 0.402,-0.2 1.523,0 0.613,0 0.148,0 1.524,0.379 0.761,0 0.091,0 1.432,0.757 0.762,0.378 0.747,0.558 0.776,0.578 0.761,0.757 0.61,1.212 0.152,0.302 0.381,0.757 0.381,1.893 0,0.139 0,0.618 0,2.271 0,0.597 0,0.538 -0.762,1.893 -0.318,0.632 -0.063,0.125 -1.523,2.271 -1.904,1.893 -0.423,0.28 -1.861,1.234 -2.285,1.135 -1.345,0.668 -0.94,0.468 -1.904,0.757 -1.809,0.359 -0.095,0.019 -1.142,0.379 -1.523,0.379 -0.198,0.098 -0.564,0.28 -1.523,0 -0.436,0 -0.325,0 -0.381,0 -1.047,0 -0.096,0 -0.761,0 -0.381,0 -0.115,0 1.257,0.378 1.524,0.379 1.903,0 0.053,0 2.232,0 1.904,0 0.437,0 0.705,0 1.904,0 0.918,0 0.225,0 1.904,0.379 0.761,0 0.346,0.057 1.939,0.321 1.904,0.379 0.874,0 1.03,0 2.284,0 0.883,0 0.26,0 2.284,0 1.904,0 0.144,0 0.999,0 1.904,0 0.448,0 0.694,0 0.381,0 1.108,0 0.415,0 0.761,0 0.381,0 0.032,0 1.111,0 0.151,0 0.229,0 0.381,0 0.191,0 -0.952,0.756 -0.332,0.33 -0.049,0.049 0,0.379 0,0.189 0,0.946 0,0.186 0,0.193 0,0.378 0,0.189 0.761,-0.189 0.107,0 0.274,0 0.381,0 0.19,0 0.191,-0.757 0,-0.378 0,-0.379 0,-0.017 -0.762,-0.361 -0.106,-0.106 -0.275,-0.273 -0.38,0 -0.191,0 0.952,-0.379 0.381,0 0.371,0 0.01,0 1.142,-0.378 0.381,-0.378 0.395,-0.132 0.747,-0.247 0.762,-0.378 1.285,-0.256 0.619,-0.123 1.904,-0.379 0.761,0 0.22,0 1.684,0 0.762,0 0.463,0 1.06,0 1.523,0 0.46,0 0.301,0 1.904,0 1.045,0 0.098,0 1.523,0 0.761,0 0.118,0 0.263,0 1.143,0 0.512,0 0.249,0 0.381,0 0.19,0 0.952,0 0.381,0 0.18,0 0.201,0 0.19,0 0.952,0 0.011,0 0.37,0 0.381,0 0.176,0 0.966,-1.514 0.762,-1.514 0.194,-0.578 0.567,-1.693 0.762,-2.271 0.47,-1.635 0.291,-1.015 0.762,-3.028 1.069,-3.188 0.073,-0.218 0.762,-3.407 0.761,-3.407 0.214,-0.953 0.548,-2.453 0.761,-3.785 0.675,-2.236 0.468,-1.55 1.142,-4.542 1.028,-4.428 0.115,-0.493 0.761,-4.92 0.762,-4.164 0.329,-1.801 0.432,-1.984 0.381,-3.407 0.198,-1.379 0.183,-1.271 0.381,-2.271 0.317,-0.945 0.063,-0.19 0.381,-2.271 0,-1.136 0,-0.167 0,-0.212 0,-1.514 0,-0.342 0,-0.414 0,-0.379 0,-0.19 0,2.082 0,2.263 0,0.009 0,3.406 -0.381,3.785 -0.116,1.269 -0.264,2.895 -0.381,4.164 -0.237,2.353 -0.144,1.432 -0.381,4.164 -0.355,3.883 -0.026,0.281 -0.38,4.163 -0.381,4.164 -0.21,1.044 -0.552,2.741 -0.761,4.164 -0.488,2.425 -0.274,1.36 -0.761,3.785 -0.762,3.028 -0.021,0.085 -0.36,2.943 -0.381,2.65 -0.161,0.961 -0.219,1.31 -0.381,2.271 0,0.909 0,0.227 0,1.893 0,0.756 -0.075,0.299 -0.306,1.216 0,0.756 0,0.224 0,0.155 0,1.12 0,0.016 0,0.378 0,0.379 0,0.137 0,-0.137 0,-0.791 0,-0.345 0,-1.514 0.381,-2.271 0.028,-0.17 0.353,-2.858 0.38,-4.164 0.148,-1.618 0.233,-2.546 0.381,-4.164 0.275,-2.736 0.106,-1.049 0,-3.406 0,-3.028 0,-0.135 0,-2.894 0,-2.649 0.134,-0.932 0.247,-1.718 0.38,-2.649 0,-2.006 0,-1.023 0.381,-3.406 0,-2.926 0,-0.102 0.381,-3.029 0.381,-2.649 0,-1.096 0,-1.175 0,-1.136 0.381,-2.271 0,-1.135 0,-1.356 0,-0.159 0,-0.757 0,-0.378 0,-0.082 0,-0.297 0,-1.135 0,-0.198 0,-0.181 0,-0.378 0,-0.189 0.761,0.946 0.381,0.378 0.024,0.024 0.737,1.49 1.143,1.893 0.417,0.83 0.725,1.441 1.142,2.65 0.857,1.703 0.286,0.568 1.142,2.649 1.142,3.029 0.169,0.447 0.974,2.581 1.142,2.65 0.618,1.432 0.525,1.217 1.142,2.65 1.06,2.459 0.082,0.19 1.143,2.65 1.523,3.028 0.277,0.643 0.865,2.007 1.142,2.649 0.633,1.468 0.51,1.182 1.142,2.65 0.985,1.959 0.157,0.312 0.762,2.271 0.762,1.892 0.133,0.332 0.628,1.561 0.381,1.136 0.367,0.913 0.394,0.979 0.381,0.757 0.302,1.201 0.079,0.313 0.381,0.757 0,0.379 0,0.036 0.381,1.1 0,0.756 0,0.379 0,0.189 0.38,-2.082 0.244,-1.455 0.137,-0.816 0.381,-3.406 0,-4.318 0,-0.225 0.381,-4.92 0,-4.921 0,-1.214 0,-3.328 0.381,-4.921 0.218,-3.037 0.162,-2.262 0,-5.3 0.339,-5.047 0.042,-0.631 0,-5.299 0,-5.299 -0.381,-4.164 0,-3.406 -0.194,-1.546 -0.186,-1.482 0,-2.65 0,-0.915 0,-0.22 -0.381,-2.272 0,-1.135 0,-0.144 0,-0.235 0,-1.514 0,-0.333 0,-0.424 0,-0.378 0,-0.19 -0.381,1.325 -0.381,0.757 0,2.227 0,0.044 0,2.65 0.381,2.649 0,0.969 0,2.438 0,3.785 0,2.297 0,1.489 0,3.406 0,3.103 0,0.304 0,3.028 0,3.028 0,0.768 0,2.639 0.381,3.785 0.381,3.407 0,3.028 0.319,2.541 0.061,0.487 0,2.65 0,2.649 0,0.419 0,2.231 0,2.271 0,1.057 0,1.214 0.381,1.893 0.294,1.459 0.087,0.433 0,1.136 0.761,1.893 0.381,1.135 0.381,1.514 0.147,0.293 0.234,0.464 0,0.379 0.381,1.514 0.38,0.757 0,0.378 0,0.067 0.381,1.069 0,0.378 0,0.37 0,0.009 0.6,-0.596 0.162,-0.161 0.38,-0.379 0.868,-1.437 0.275,-0.455 1.142,-1.893 0.762,-0.757 0.077,-0.077 1.446,-1.815 0.761,-1.136 1.524,-1.893 0.761,-0.757 1.101,-1.095 0.422,-0.419 0.762,-0.757 1.523,-1.514 0.762,-0.757 1.903,-1.514 0.267,-0.265 0.495,-0.492 1.523,-0.757 0.494,-0.246 0.268,-0.133 0.38,-0.378 1.143,-0.757 0.761,-0.379 0.381,0 0.391,-0.259 0.752,-0.498 0.761,-0.378 0.381,0 0.19,0 0.952,-0.379 0.381,-0.378 0.148,0 0.233,0 0.19,0 -0.952,-0.379 -0.381,0 -0.357,0 -0.023,0 -1.143,0.379 -0.761,0.378 -0.097,0 -0.284,0 -1.142,1.136 -0.762,0.378 -0.381,0.379 -1.142,1.514 -0.051,0.068 -0.711,0.689 -1.142,1.893 -0.318,0.79 -0.444,1.102 -0.761,1.893 -0.762,1.892 -0.38,1.136 -0.381,2.271 -0.04,0.236 0.04,0.9 0.381,1.892 0,0.757 0.761,1.514 0.272,0.542 0.109,0.215 0,0.379 1.142,1.136 0.762,0.378 1.142,0.378 0.273,0.136 0.489,0.243 1.142,0 0.567,0 0.195,0 1.142,0 0.762,0 0.38,0 1.143,-0.757 0.4,-0.199 0.361,-0.179 1.143,-1.515 0.38,-0.757 0.762,-1.514 0.381,-0.757 0.117,-0.465 0.263,-1.049 0,-0.757 0,-1.514 0,-0.757 -0.366,-1.82 -0.014,-0.073 0,-1.135 -0.762,-1.514 -0.098,-0.194 -0.283,-0.563 0,-0.379 -1.142,-1.135 -0.762,-0.757 -0.335,-0.333 -0.045,-0.046 -0.762,-1.135 -0.381,-0.379 -0.38,-0.379 -0.191,-0.189 -0.571,-0.946 -0.021,-0.032 -0.36,-0.347 -0.381,-0.378 -0.161,-0.16 1.304,-0.219 0.381,-0.378 1.142,0 0.143,0 0.618,0 1.904,0 1.904,0 2.285,-0.379 1.938,-0.275 0.727,-0.103 2.666,-0.379 2.285,-0.378 2.284,0 1.143,0 1,0 0.904,0 1.142,0 1.66,0 0.244,0 0.761,0 1.904,0 0.762,0 1.904,0 0.563,0 0.579,0 1.904,0 1.142,0 1.524,0 0.761,0 0.087,0 0.294,0 1.142,0 0.381,0 0.381,0 0.129,0 1.013,0 0.369,0 0.012,0 0.381,0 1.142,-0.379 0.104,0 0.277,0 0.381,0 1.142,-0.378 0.381,-0.379 0.344,0 0.037,0 1.142,0 0.381,0 0.133,0 0.247,0 0.191,0 0.19,1.136 0.381,0.378 0,1.165 0,0.349 0,1.893 0,2.65 0,2.649 -0.381,3.028 0,0.381 0,2.648 0,2.649 0,2.65 0,2.65 0,2.271 0,0.002 0,1.89 0,1.893 0,1.892 0,1.136 0,0.935 0,0.579 0,0.757 -0.381,1.514 0,0.757 0,0.379 0,0.268 0,0.867 0,0.379 0,0.378 0,0.19 -0.761,-1.325 -0.381,-1.893 0,-1.785 0,-0.486 0,-3.028 0,-3.407 0,-3.407 0,-3.406 0,-1.102 0,-1.548 0.381,-2.649 0.381,-2.272 0.761,-1.892 0.381,-1.136 0.016,-0.048 0.746,-1.845 0.38,-1.135 0.762,-1.892 0.381,-0.758 0.859,-1.139 0.283,-0.375 0.381,-0.757 0.381,-0.378 1.142,-1.136 0.761,-0.757 0.617,-0.306 0.907,-0.451 0.761,-0.378 1.904,-0.379 1.142,-0.378 2.285,0 0.043,0 1.099,0 1.904,0.378 1.143,0.379 1.523,0.757 0.488,0.242 0.273,0.136 1.143,1.514 0.381,0.757 0.38,1.893 0.381,1.893 0,0.492 0,1.4 -0.381,1.893 -0.38,1.892 -0.381,1.136 -0.723,1.436 -0.039,0.078 -0.381,0.757 -1.523,1.514 -0.761,0.757 -1.523,1.136 -0.522,0.518 -0.24,0.239 -1.523,0.757 -0.762,0.378 -1.904,0.379 -0.761,0.378 -0.476,0 -1.047,0 -0.762,0 -1.523,0 -0.762,0 -0.351,0 -0.029,0 -1.143,-0.378 -0.38,0 -0.381,0 -0.191,0 0.191,0 0.761,-0.757 0.263,-0.261 0.118,-0.118 1.904,-0.757 2.285,-0.378 1.904,-0.379 1.142,-0.378 0.714,-0.119 1.571,-0.26 1.904,-0.378 1.142,-0.379 2.285,-0.757 2.284,-1.135 0.251,-0.125 2.034,-0.633 2.285,-0.757 2.284,-0.757 2.285,-0.757 1.73,-0.573 0.555,-0.184 1.904,-0.757 1.142,-0.378 1.523,-0.757 0.762,-0.379 0.573,-0.427 0.95,-0.708 0.761,-0.379 1.524,-1.135 0.761,-0.379 1.14,-1.133 0.002,-0.003 0.762,-0.378 0.381,-0.379 0.761,-1.135 0.381,-0.379 0,-0.232 0,-0.146 -1.142,-0.757 -0.381,-0.379 -0.348,-0.346 -0.033,-0.032 -1.142,0 -0.762,0 -0.38,0 -1.524,1.135 -0.544,0.271 -0.217,0.108 -1.523,1.135 -0.762,0.757 -1.523,1.515 -0.761,0.757 -0.322,0.319 -1.202,1.573 -0.761,0.757 -0.762,1.893 -0.381,0.757 -0.453,0.901 -0.308,0.613 -0.381,0.757 -0.381,1.514 0,0.757 0,0.378 0,1.018 0,0.497 0,0.757 0,0.378 0,1.136 0,0.378 0,0.176 0,0.203 0.762,1.135 0.381,0.379 0.38,0.378 0.026,0.026 1.117,-0.026 0.381,0 0.38,0 1.143,-1.135 0.52,-0.517 0.241,-0.24 1.143,-1.514 0.38,-0.757 0.762,-1.893 0.762,-1.892 0.117,-0.352 0.263,-0.784 0.381,-1.893 0.381,-1.135 0.381,-1.893 0,-1.046 0,-0.089 0,-1.514 0,-0.757 0,-0.379 0,-1.136 0,-0.204 0,-0.174 0,-0.379 0,-0.189 0,0.946 0,0.379 0,0.035 0.38,1.479 0.381,0.757 0.381,1.892 0.762,1.893 0.206,0.412 0.174,0.345 1.143,1.893 0.761,1.135 1.143,1.515 0.761,0.756 0.174,0.173 0.207,0.206 1.142,1.136 0.762,0.757 0.381,0.378 1.142,0.757 0.188,0.093 0.574,0.286 0.38,0 1.143,0 0.761,0 0.022,0 0.359,0 1.142,-0.757 0.762,-0.379 0.762,-1.135 0.296,-0.589 0.084,-0.168 0.762,-1.136 0.381,-0.757 0.38,-1.136 0.381,-0.757 0.213,-0.844 0.168,-0.67 0,-0.757 0,-0.378 0,-0.189 0,0.189 -0.359,1.071 -0.022,0.064 -0.381,0.379 0,0.378 -0.38,1.136 0,0.757 0,0.259 0,0.12 0,1.135 0,0.757 0,0.379 0,0.846 0,0.289 0,0.379 0,0.378 1.142,-1.135 1.523,-1.515 0.89,-1.105 0.633,-0.787 1.143,-2.271 1.142,-2.271 1.523,-1.893 1.142,-2.271 0.077,-0.228 0.304,-0.908 1.143,-1.892 0.761,-0.757 0.762,-1.514 0.312,-0.621 0.068,-0.136 0.381,-0.379 0.762,-1.135 0.381,-0.379 0.38,-0.378 0.659,-0.437 0.484,-0.32 0.381,-0.379 1.142,-0.378 0.761,0 1.524,0 0.383,0 1.14,0 1.904,0 0.761,0 2.285,0.378 1.655,0.329 0.249,0.05 1.142,0.378 1.904,0.379 1.142,0.378 1.524,0.379 0.372,0.185 0.389,0.193 0.381,0 0.381,0 1.142,0 0.06,0 0.321,0 0.381,0 0.19,0 -0.19,0 -0.261,0 -0.501,0 -0.381,0 -0.381,0 -1.523,0 -0.761,0 -0.055,0 -0.326,0 -1.523,0.379 -0.762,0 -0.381,0 -1.222,0.607 -0.301,0.15 -0.761,0.378 -0.381,0 -1.523,1.136 -0.762,0.378 -0.639,0.636 -0.884,0.878 -0.761,0.757 -0.762,1.893 -0.381,1.136 -0.381,1.513 -0.015,0.061 -0.365,0.697 0,1.514 0,0.757 0,1.514 0,0.629 0,0.128 0,0.378 0.38,1.136 0,0.379 0,0.165 0,0.213 1.143,0.378 0.761,0 0.071,0 0.31,0 1.143,-0.756 0.38,-0.379 1.143,-1.514 0.608,-0.605 0.153,-0.152 1.143,-1.893 0.761,-0.757 1.142,-1.893 0.381,-1.135 0.284,-0.705 0.478,-1.187 0.381,-1.136 0.38,-1.514 0.381,-0.757 0,-0.379 0,-0.015 0.381,-1.12 0.381,-0.379 0,-0.378 0,-0.19 0,1.325 0,0.757 0,1.118 0,0.775 0.381,1.893 0,1.892 0,1.893 0.38,1.892 0,0.15 0,0.607 0.381,1.514 0,0.757 0.762,1.515 0.311,0.618 0.069,0.138 0.381,0.379 0.762,1.136 0.381,0.378 0.38,0.379 0.191,0.189 0.952,-0.189 0.761,0 1.523,-0.757 0.762,-0.379 0.455,-0.271 1.449,-0.865 1.904,-1.513 1.904,-1.515 1.904,-1.514 1.962,-1.3 0.322,-0.214 2.285,-1.514 1.904,-1.514 1.142,-0.757 1.904,-1.514 0.428,-0.426 0.334,-0.331 0.381,-0.379 1.523,-0.757 0.761,-0.378 0.381,-0.379 0.4,-0.265 0.742,-0.492 0.762,-0.378 0.381,0 1.142,-0.757 0.381,-0.379 0.053,0 0.328,0 0.19,0 -1.333,-0.378 -0.381,0 -0.38,0 -0.025,0 -1.498,0.757 -0.762,0.378 -1.142,1.514 -0.381,0.757 -0.776,1.028 -0.366,0.486 -0.381,0.758 -0.762,1.892 -0.381,1.893 0,1.892 0.112,0.557 0.269,1.336 0,1.135 0.762,1.515 0.381,0.756 0.359,0.358 0.021,0.021 1.143,1.514 0.761,0.757 1.143,0.757 0.761,0.379 1.235,0 0.669,0 1.904,0 1.904,-0.379 1.904,-1.135 2.284,-1.514 0.503,-0.5 1.401,-1.393 1.904,-1.893 2.285,-2.649 1.904,-2.65 1.34,-2.664 0.183,-0.364 1.142,-3.028 1.143,-3.028 1.523,-3.786 1.142,-3.785 0.43,-1.922 0.332,-1.484 0.381,-3.029 0.38,-3.028 0.381,-3.406 0,-3.028 0.142,-0.985 0.239,-1.665 0.381,-3.028 0,-2.65 0,-1.135 0.38,-1.893 0.035,-0.171 -0.035,-0.965 0,-0.378 0,-0.379 0,-0.189 0,0.946 0,0.379 0,1.604 0,0.667 -0.38,2.271 -0.381,3.407 0,3.406 0,3.786 -0.128,1.268 -0.253,2.517 -0.381,3.785 -0.761,3.785 -0.381,3.407 -0.724,3.241 -0.038,0.166 -0.761,3.028 -0.762,3.028 -0.381,2.271 -0.38,2.271 -0.217,1.079 -0.164,0.814 -0.381,1.135 -0.381,1.893 -0.38,0.757 -0.381,1.514 0,0.143 0,0.614 0,0.379 -0.381,1.135 -0.381,0.379 0,0.304 0,0.074 0,0.189 0.762,-2.081 1.142,-2.272 0.762,-2.649 0.028,-0.098 0.733,-2.552 1.143,-2.271 0.761,-2.271 0.762,-2.271 0.64,-1.91 0.121,-0.361 0.381,-1.136 0.762,-1.514 0.38,-0.757 0.381,-0.379 0.457,-0.68 0.305,-0.455 0.381,-0.378 0.38,-0.379 1.143,0 0.081,0 0.299,0 0.381,0 0.762,1.135 0.34,0.338 0.041,0.041 0.38,1.514 0,0.757 0,1.893 0,1.135 0,1.546 0,0.725 0,1.893 0,1.893 0,1.135 0,1.893 0,0.351 0,0.406 0,1.514 0,0.757 0,0.378 0.381,1.136 0.027,0.079 -0.027,0.678 0,0.379 1.02,0.676 0.123,0.081 0.761,0.378 0.381,0.378 1.142,0 0.762,0 0.159,0 0.222,0 1.142,-0.756 0.761,-0.379 1.524,-1.514 1.412,-1.404 0.111,-0.11 1.142,-1.893 0.762,-0.757 1.142,-1.892 0.381,-1.136 0.622,-1.03 0.52,-0.863 0.381,-1.135 0.381,-1.514 0.38,-0.757 0,-0.341 0,-0.038 0.381,-1.514 0.381,-0.757 0,-0.378 0,-0.19 0.381,-0.946 0,-0.378 0,-0.379 0,-0.189 0,1.325 0,0.017 0,0.361 0,1.136 0,0.757 0,1.892 0,1.347 0,0.546 0.381,1.893 0,0.757 0.38,1.892 0.381,0.757 0.144,0.57 0.237,0.944 0,0.757 0.381,1.514 0.381,0.757 0,0.379 0.11,0.33 0.27,0.806 0.381,0.378 0,0.379 0,0.189 1.142,0.567 0.381,0.379 0.381,0 0.884,-0.293 0.258,-0.086 0.381,-0.378 1.142,-1.135 0.381,-0.758 1.143,-1.892 0.065,-0.129 0.315,-0.628 0.762,-1.893 0.381,-1.136 0.381,-1.892 0.298,-0.89 0.082,-0.245 0.381,-1.515 0,-0.757 0,-0.378 0,-1.136 0,-0.304 0,-0.453 0,-0.378 0,-1.136 0,-0.008 0,-0.37 0,-0.379 0,-0.189 0,0.946 0,0.379 0,0.101 0,0.277 0,1.136 0,0.757 0.381,1.514 0.303,0.602 0.078,0.155 0.761,1.514 0.381,0.757 0.762,1.892 0.38,1.136 0.314,0.623 0.448,0.891 0.381,0.757 0.761,1.514 0.381,0.757 0.762,1.515 0.023,0.045 0.357,0.711 0.381,0.379 1.143,1.136 0.38,0.757 0.246,0.244 0.135,0.134 1.142,1.136 0.381,0.378 0.171,0.169 0.21,0.21 1.142,1.135 0.381,0.379 0.094,0.094 0.287,0.284 1.142,-0.378 0.71,0 0.052,0 1.142,-1.136 0.762,-0.757 1.523,-2.271 1.142,-2.271 0.627,-1.247 0.516,-1.024 1.142,-2.271 1.523,-2.65 1.523,-3.028 1.142,-2.65 0.128,-0.444 0.634,-2.205 0.762,-3.028 1.142,-3.029 1.142,-3.028 0.895,-2.372 0.248,-0.656 1.142,-3.028 0.762,-2.65 0.761,-2.649 0.381,-2.65 0.159,-1.261 0.222,-1.767 0.381,-3.028 0.761,-3.029 0.381,-2.649 0.381,-1.136 0.051,-0.153 0.329,-2.118 0.381,-1.135 0,-1.514 0,-0.757 0,-0.336 0,-0.043 0,-1.135 0,-0.379 0,-0.378 0,-0.19 -0.381,1.704 0,0.757 0,0.375 0,1.517 0,1.893 0,2.271 -0.38,2.271 -0.311,2.158 -0.07,0.492 -0.381,2.649 0,2.65 0,2.65 0,2.649 -0.164,0.976 -0.217,1.295 0,1.893 0,1.892 0,1.893 0,1.136 0,0.057 -0.38,2.214 -0.381,1.893 -0.381,2.271 0,1.892 -0.254,1.26 -0.127,0.633 -0.381,1.892 0,1.893 0,1.893 0,1.892 0,0.325 0,0.81 0.381,1.515 0,0.757 0.381,1.514 0,0.681 0,0.076 0,1.514 0,0.757 0,0.379 0,1.135 0,0.392 0,0.365 0,0.379 0.381,1.135 0,0.379 0,0.052 0,0.326 0.381,1.136 0,0.36 0,0.018 0,0.379 0,0.189 0,-1.325 0,-0.374 0,-0.383 0,-1.135 0,-0.757 0,-1.515 0,-0.756 0,-0.077 0,-0.302 0.38,-1.514 0,-0.757 0.381,-1.514 0.345,-0.686 0.036,-0.071 0,-0.379 0,-1.135 0,-0.758 0,-0.378 0,-0.591 0,-0.544 0,-0.757 0,-0.379 0,-1.136 0,-0.757 0,-0.103 0,-0.275 0,-1.136 0,-0.285 0,-0.093 0,-0.379 0,-0.189 -0.762,-0.568 -0.375,-0.373 -0.005,-0.005 -0.381,-0.379 -1.143,-0.757 -0.23,-0.228 -0.15,-0.15 -0.381,-0.379 -1.143,-0.378 -0.081,0 -0.299,0 -0.381,0 -0.19,0 1.332,-0.379 0.762,-0.378 0.915,-0.182 0.989,-0.197 1.904,-0.378 2.284,-0.379 2.666,-0.378 2.665,-0.379 0.26,-0.037 2.025,-0.342 2.285,-0.378 1.142,0 1.904,0 0.567,0 0.194,0 0.381,0 1.523,0 0.762,0 0.381,0 0.142,0 -0.142,0 -0.762,0 -0.361,0 -0.02,0 -1.142,0 -0.762,0 -1.523,0 -0.761,0 -0.965,0 -0.558,0 -0.762,0 -1.523,0 -0.762,0 -1.523,0 -0.647,0 -0.114,0 -1.904,-0.379 -0.762,0 -1.523,0 -0.669,0 -0.092,0 -0.381,0 -1.143,0 -0.38,0 -0.381,0 -0.191,0 0.191,0.757 0,0.288 0,0.091 0,0.379 0,1.135 0,0.173 0,0.206 0,0.378 0,1.136 0,0.757 0,0.091 0,0.287 0,1.136 0,0.757 0,0.378 0,1.136 0,0.057 0,0.7 0,1.514 0,0.757 0,1.514 0,0.619 0,0.138 0.381,1.136 0,0.757 0,0.378 0,1.136 0,0.467 0,0.29 0,0.378 0,1.136 0,0.757 0,0.379 0.16,0.477 0.22,0.658 0,0.379 0,0.378 0.281,0.837 0.1,0.299 0.381,0.378 0,0.379 1.087,0.72 0.055,0.037 0.381,0.378 1.523,0.757 0.762,0.379 1.904,0.378 0.396,0.197 0.365,0.182 1.904,0.378 1.904,0.379 1.142,0 1.904,0 0.455,0 0.688,0 1.904,0 1.142,0 2.285,0 2.318,0 0.347,0 3.046,0 2.666,-0.379 3.046,-0.378 2.666,-0.379 1.448,-0.205 1.217,-0.173 2.285,-0.379 2.665,-0.757 2.285,-0.757 2.285,-0.757 1.026,-0.34 1.258,-0.417 2.285,-0.757 2.285,-1.136 2.284,-1.135 0.948,-0.628 0.195,-0.129 1.523,-1.514 0.761,-0.757 1.524,-1.514 0.761,-0.757 0.51,-0.846 0.633,-1.047 0.38,-1.135 0.762,-1.514 0.381,-0.758 0,-1.514 0,-0.093 0,-0.664 0,-0.378 -0.381,-1.514 -0.381,-0.757 0,-0.267 0,-0.112 -1.523,-1.135 -0.762,-0.379 -0.38,-0.378 -1.524,-0.379 -0.308,-0.154 -0.453,-0.224 -1.523,0 -0.762,0 -1.523,0.378 -0.761,0 -0.017,0 -1.887,0.757 -1.143,0.379 -1.904,1.135 -1.142,0.379 -1.214,0.965 -0.69,0.549 -1.142,0.757 -1.523,1.514 -0.762,0.757 -1.142,1.514 -0.098,0.195 -0.283,0.562 -0.762,1.514 -0.38,0.757 -0.381,1.514 0,0.664 0,0.093 0,1.514 0,0.757 0.381,1.515 0,0.757 0,0.179 0,0.199 1.142,1.136 0.761,0.757 0.381,0.378 0.733,0.729 0.41,0.407 0.761,0.378 1.143,0.757 0.761,0.379 1.513,0.376 0.01,0.002 0.762,0.379 1.142,0.378 0.762,0 0.38,0 0.696,0 0.447,0 0.381,0 0.38,0 0.84,0 0.303,0 0.381,0 0.38,0 0.191,0 0.952,0 0.38,0 0,0 0.381,0 0.191,0 0.952,0 0.38,0 0.178,0 0.203,0 0.19,0 0.952,0 0.293,0 0.088,0 0.381,0 1.523,0 0.762,0 0.381,0 0.597,0 0.926,0 0.761,0 1.143,0 0.761,0 0.381,0 0.206,0 0.936,0 0.762,0 1.523,-0.378 0.762,0 1.276,-0.317 0.247,-0.062 0.761,0 1.143,-0.378 0.761,0 0.381,0 0.676,-0.168 0.847,-0.211 0.762,0 1.142,-0.378 0.762,0 0.38,0 0.024,0 1.119,0 0.38,0 0.381,0 0.191,0 0.952,0 0.38,0 0.232,0 0.149,0 1.142,0 0.762,0 0.083,0 0.298,0 1.142,0 0.762,0 0.362,0 0.019,0 1.142,-0.379 0.761,0 0.381,0 1.143,-0.378 0.562,-0.28 0.199,-0.099 1.142,-0.378 0.762,-0.379 1.523,-0.378 0.762,-0.379 0.703,-0.28 1.201,-0.477 1.142,-0.379 1.904,-1.135 0.761,-0.378 1.499,-0.745 0.025,-0.013 0.761,-0.378 1.523,-0.757 0.762,-0.379 0.381,0 0.759,-0.503 0.383,-0.254 0.762,-0.378 1.523,-1.136 0.761,-0.378 1.523,-1.136 0.354,-0.351 0.408,-0.406 0.381,-0.378 1.142,-1.136 0.762,-0.378 0.38,-0.379 0.272,-0.18 0.871,-0.577 0.761,-0.379 1.523,-0.757 0.762,-0.378 1.627,-0.647 0.277,-0.11 1.142,-0.379 2.285,-1.135 2.285,-0.757 1.904,-0.757 0.534,-0.177 0.608,-0.202 1.904,-0.757 1.142,-0.378 1.904,-0.379 1.142,-0.378 1.524,-0.379 0.761,-0.378 1.904,-0.379 1.904,-0.378 1.715,-0.342 0.189,-0.037 2.285,-0.379 2.284,-0.378 1.904,-0.379 1.143,-0.378 0.985,-0.196 0.918,-0.182 0.762,0 1.904,-0.379 0.761,0 1.524,0 0.236,0 0.525,0 1.904,-0.379 1.904,-0.378 0.762,-0.378 2.173,-0.361 0.111,-0.018 1.143,-0.379 1.903,-0.378 1.904,-0.379 1.143,0 1.077,-0.214 0.827,-0.164 1.142,0 1.904,-0.379 0.761,0 1.904,-0.378 0.241,0 0.521,0 1.904,-0.379 1.904,0 1.142,0 1.897,0 0.007,0 1.904,-0.378 1.904,0 1.904,0 2.285,-0.379 1.166,0 0.737,0 1.143,0 2.284,0 1.143,0 1.904,-0.378 0.677,0 1.227,0 1.904,-0.379 1.903,0 2.285,0 1.904,0 0.058,0 2.227,0 1.904,0 1.142,0 1.904,0 0.735,0 0.407,0 1.523,0 0.762,0 0.381,0 1.523,0 0.269,0 0.492,0 0.381,0 1.143,0 0.38,0 0.381,0 0.077,0"
       __comy="559.494"
       __comx="356.423"
       __timestamp="0x13dc2b584f1" />
  </g>
</svg>
