<?xml version="1.0" encoding="UTF-8" standalone="no"?>
<!-- Created with Inkscape (http://www.inkscape.org/) -->

<svg
   xmlns:dc="http://purl.org/dc/elements/1.1/"
   xmlns:cc="http://creativecommons.org/ns#"
   xmlns:rdf="http://www.w3.org/1999/02/22-rdf-syntax-ns#"
   xmlns:svg="http://www.w3.org/2000/svg"
   xmlns="http://www.w3.org/2000/svg"
   xmlns:sodipodi="http://sodipodi.sourceforge.net/DTD/sodipodi-0.dtd"
   xmlns:inkscape="http://www.inkscape.org/namespaces/inkscape"
   width="802.73798"
   height="74.810997"
   id="svg3261"
   version="1.1"
   inkscape:version="0.47 r22583"
   sodipodi:docname="New document 9">
  <defs
     id="defs3263">
    <inkscape:perspective
       sodipodi:type="inkscape:persp3d"
       inkscape:vp_x="0 : 526.18109 : 1"
       inkscape:vp_y="0 : 1000 : 0"
       inkscape:vp_z="744.09448 : 526.18109 : 1"
       inkscape:persp3d-origin="372.04724 : 350.78739 : 1"
       id="perspective3269" />
    <inkscape:perspective
       id="perspective3256"
       inkscape:persp3d-origin="0.5 : 0.33333333 : 1"
       inkscape:vp_z="1 : 0.5 : 1"
       inkscape:vp_y="0 : 1000 : 0"
       inkscape:vp_x="0 : 0.5 : 1"
       sodipodi:type="inkscape:persp3d" />
  </defs>
  <sodipodi:namedview
     id="base"
     pagecolor="#ffffff"
     bordercolor="#666666"
     borderopacity="1.0"
     inkscape:pageopacity="0.0"
     inkscape:pageshadow="2"
     inkscape:zoom="0.35"
     inkscape:cx="401.369"
     inkscape:cy="37.405497"
     inkscape:document-units="px"
     inkscape:current-layer="layer1"
     showgrid="false"
     inkscape:window-width="607"
     inkscape:window-height="491"
     inkscape:window-x="406"
     inkscape:window-y="506"
     inkscape:window-maximized="0" />
  <metadata
     id="metadata3266">
    <rdf:RDF>
      <cc:Work
         rdf:about="">
        <dc:format>image/svg+xml</dc:format>
        <dc:type
           rdf:resource="http://purl.org/dc/dcmitype/StillImage" />
        <dc:title></dc:title>
      </cc:Work>
    </rdf:RDF>
  </metadata>
  <g
     inkscape:label="Layer 1"
     inkscape:groupmode="layer"
     id="layer1"
     transform="translate(26.369,-494.95668)">
    <path
       style="fill:none;stroke:#000000;stroke-width:1;stroke-linecap:round;stroke-linejoin:round"
       id="path3059"
       d="m -23.774,538.79668 -1.143,0.757 -0.38,0.379 -0.381,0 -0.191,0 0.952,0.378 0.381,0 0.381,0 0.017,0 1.125,0 0.381,0 0.171,0 0.21,0 1.523,0 0.646,0 0.115,0 1.524,-0.378 0.761,0 0.47,0 1.053,0 0.762,0 1.034,0.257 0.489,0.121 0.762,0 1.903,0.379 0.158,0.031 1.746,0.347 1.904,0 0.689,0 1.215,0 1.904,0 0.894,0 0.248,0 1.524,0 0.761,0 0.101,0 0.28,0 1.142,0 0.183,0 0.579,0 1.142,0 0.7,0 0.062,0 1.523,0 0.761,0 0.085,0 1.439,0 0.761,0 0.83,0 0.693,0 0.762,0 1.904,0 0.257,0 1.647,0 1.904,0 0.543,0 0.599,0 1.904,0 0.895,0 0.247,0 1.523,0 0.762,0 0.07,0 0.311,0 0.38,0 0.191,0 0.952,0 0.381,0 0.282,0 0.098,0 0.812,0 0.331,0 0.381,0 0.183,0 0.197,0 0.191,0 0.952,0 0.38,0 0.112,0 0.269,0 0.191,0 0.952,0 0.38,0 0.039,0 0.342,0 0.19,0 0.952,0 0.342,0 0.039,0 0.381,0 0.745,-1.111 0.017,-0.024 0.38,-0.379 0,-0.379 0.54,-0.803 0.222,-0.332 0.381,-0.757 0,-0.378 0,-0.041 0.38,-1.095 0.381,-0.757 0,-0.194 0,-0.185 0.381,-1.135 0,-0.693 0,-0.064 0,-0.379 0,-1.135 0,-0.24 0,-0.517 0,-1.514 0,-0.543 0,-0.214 0,-1.893 0,-0.757 0,-0.094 0,-0.285 0,-1.892 0,-0.992 0,-0.901 0,-1.893 0,-1.677 0,-0.215 0,-1.893 0,-1.892 0,-0.631 0,-1.641 0,-2.649 -0.237,-1.416 -0.144,-0.855 -0.381,-2.271 0,-1.102 0,-0.034 -0.38,-1.892 0,-0.757 0,-0.134 0,-0.245 0,-1.514 0,-0.529 0,-0.228 0,-0.379 0,-0.189 -0.381,-0.946 -0.381,-0.379 0,-0.126 0,-0.252 0,-0.189 0,0.946 0,0.379 0.186,0.553 0.195,0.582 0.381,0.757 0.338,1.346 0.042,0.168 0.381,0.757 0.762,2.271 0.111,0.333 0.27,0.803 0.761,1.892 0.261,1.298 0.12,0.595 0.762,2.271 0.761,2.271 0.061,0.183 0.701,2.467 1.142,3.028 0.539,1.607 0.603,1.8 1.143,3.028 0.913,2.117 0.229,0.532 0.762,2.65 0.761,2.65 0.085,0.296 0.677,2.353 0.761,2.65 0.322,1.119 0.44,1.531 0.381,2.649 0.279,1.665 0.101,0.606 0.381,2.271 0.381,1.893 0.017,0.083 0.364,1.81 0.381,1.135 0.134,0.671 0.246,1.222 0.381,0.757 0,1.007 0,0.507 0,0.757 0,1.47 0,0.044 0,0.757 0.381,1.514 0.109,0.216 0.272,0.541 0.761,1.514 0.227,0.45 0.154,0.307 0,0.379 0.688,1.025 0.074,0.11 0.38,0.758 0,0.378 0,0.082 0.381,1.054 0,0.378 0,0.316 0,0.062 0,0.19 0.381,-0.946 0.381,-0.379 0.435,-0.65 0.326,-0.485 0.381,-0.758 0.736,-1.462 0.026,-0.052 0.38,-0.757 0.762,-1.514 0.14,-0.277 0.241,-0.48 1.142,-1.893 0.639,-1.058 0.503,-0.834 1.143,-2.271 1.142,-2.271 0.124,-0.246 1.019,-1.647 0.761,-1.135 0.477,-0.949 0.665,-1.323 0.762,-1.135 0.829,-1.373 0.313,-0.519 0.381,-1.136 1.142,-1.893 0.039,-0.064 0.723,-1.071 0.762,-1.515 0.13,-0.26 0.25,-0.497 0,-0.378 0,-0.189 0.381,-0.946 0,-0.366 0,-0.013 0,-0.379 0,-0.189 1.143,0.568 0.38,0.379 0.14,0 0.241,0 0.381,1.135 0.258,0.256 0.123,0.122 0.38,1.136 0.38,0.754 10e-4,0.003 0.762,1.514 0.381,0.757 0.252,0.502 0.509,1.012 0.381,0.758 0.514,1.022 0.247,0.491 0.381,0.758 0.762,1.892 0.057,0.141 0.324,0.616 0.38,2.271 0.18,0.536 0.201,0.6 0.381,1.514 0.331,0.657 0.05,0.1 0.381,1.135 0.38,0.757 0.097,0.384 0.284,1.131 0.381,0.756 0.494,0.984 0.267,0.531 0.381,0.757 0,0.378 0,0.017 0.762,1.119 0.381,0.757 0,0.165 0,0.213 0,0.19 0.761,0.946 0.381,0.378 0,0.091 0,0.288 0,0.189 1.142,0.19 0.209,0.207 0.172,0.171 0.381,0 0.979,-0.974 0.163,-0.162 0.381,-0.378 1.523,-1.893 0.201,-0.399 0.941,-1.872 1.524,-2.271 0.554,-1.101 0.588,-1.17 1.523,-2.271 0.939,-1.556 0.203,-0.337 1.143,-1.892 1.523,-2.271 0.327,-0.569 1.196,-2.081 1.523,-3.028 0.937,-1.629 0.586,-1.021 1.143,-2.271 1.142,-2.65 0.009,-0.021 1.514,-3.007 2.285,-3.028 0.44,-0.584 0.702,-0.93 1.523,-2.271 0.8,-1.324 0.343,-0.569 1.142,-1.892 1.142,-2.272 0.009,-0.016 0.753,-1.876 0.381,-1.136 0.24,-0.598 0.521,-1.294 0.381,-1.136 0.238,-1.184 0.143,-0.709 0.381,-1.135 0.714,-1.776 0.047,-0.116 0.381,-1.136 0.381,-1.893 0.094,-0.281 0.286,-0.854 0.381,-1.514 0,-0.423 0,-0.334 0,-0.379 0.331,-0.988 0.05,-0.147 0.381,-0.757 0,-0.379 0,-0.065 0,-1.071 0,-0.016 0,-0.362 0,-0.379 0,-0.151 0,0.908 0,0.002 0,0.377 0,0.379 0,0.352 0,0.783 0,0.379 -0.261,0.778 -0.12,0.357 0,0.757 0,1.513 0,0.001 0,0.757 0,1.514 0,0.252 0,0.505 0,1.515 0,0.463 0,0.293 0,1.515 0,0.702 0,0.054 -0.381,2.272 -0.381,1.892 -0.166,0.826 0.166,1.067 0,1.892 -0.207,1.033 -0.173,0.86 0,2.271 0,1.685 0,0.208 0,1.892 -0.381,1.893 0,0.37 0,1.523 0,1.892 0,0.577 0,0.559 0,1.892 0,1.554 0,0.339 0,1.135 0,1.515 0,0.206 0,0.551 0.381,1.514 0,0.338 0,0.419 0.761,1.514 0.286,0.569 0.095,0.188 1.142,1.514 0.381,0.757 0.038,0.075 1.104,1.439 0.381,0.757 0.19,0.189 0.191,0.19 1.142,1.514 0.549,0.545 0.213,0.212 1.523,1.514 0.762,0.757 0.33,0.328 1.574,0.807 1.142,0.757 1.04,0.414 0.864,0.344 1.142,0.378 1.637,0.325 0.267,0.054 0.762,0.378 1.523,0 0.332,0 1.572,0 0.761,0 1.099,-0.218 0.805,-0.16 1.143,0 1.483,-0.369 0.04,-0.01 0.761,0 1.523,-0.378 0.606,-0.151 0.156,-0.228 1.523,-0.379 0.583,-0.289 0.179,-0.089 1.523,-0.379 0.761,-0.378 0.064,-0.032 0.317,0.032 1.142,-0.757 0.298,-0.148 0.464,-0.231 0.381,-0.378 0.8,-0.796 0.342,-0.34 0.381,-0.757 0.381,-0.378 0.016,-0.017 0.745,-1.119 0.381,-0.757 0,-0.16 0,-0.218 0.381,-1.136 0,-0.618 0,-0.139 0,-0.379 0,-1.135 0,-0.467 0,-0.29 0,-0.379 -0.348,-1.037 -0.033,-0.098 -0.381,-0.757 -0.379,-1.509 -0.002,-0.005 -0.38,-0.757 0,-0.379 -0.239,-0.357 -0.523,-0.778 -0.381,-0.379 0,-0.379 0,-0.046 -1.142,0.046 -0.381,0 -0.179,0 -0.202,0 -1.142,0.379 -0.293,0.291 -0.088,0.088 -0.38,0 -1.143,1.135 -0.097,0.097 -0.664,0.282 -1.143,1.514 -0.151,0.3 -0.23,0.457 -0.761,1.514 -0.27,0.537 -0.111,0.22 -0.761,1.514 -0.381,0.757 -0.006,0.012 0.006,1.502 0,0.757 0,0.496 0,1.018 0,0.757 0.535,1.064 0.226,0.45 0.381,0.757 0.762,1.136 0.078,0.116 0.302,0.641 1.524,1.136 0.83,0.33 1.074,0.427 1.903,0.756 1.42,0.565 0.484,0.193 1.904,0.378 1.904,0.379 0.19,0.038 2.095,0.34 2.285,0.379 0.952,0.189 0.951,0.189 2.285,0.379 1.969,0 0.316,0 2.665,0 2.666,-0.379 0.452,-0.128 2.213,-0.629 2.666,-0.757 0.982,-0.418 1.683,-0.718 2.666,-1.135 2.284,-1.136 0.462,-0.229 0.681,-0.149 1.904,-1.136 0.286,-0.095 0.856,-0.283 1.904,-1.514 0.488,-0.486 0.273,-0.271 1.524,-1.893 0.761,-0.757 0.019,-0.019 1.124,-1.495 0.761,-0.757 0.158,-0.157 0.223,-0.222 0.381,-1.514 0.309,-0.615 0.071,-0.142 0,-0.378 0,-0.189 -0.761,-0.947 -0.381,-0.378 0,-0.168 0,-0.211 -1.142,-0.378 -0.287,0 -0.094,0 -0.381,0 -1.523,0 -0.077,0 -0.685,0 -1.903,0.378 -0.937,0.373 -0.967,0.384 -0.762,0.379 -1.707,1.358 -0.197,0.156 -1.142,0.757 -1.523,1.514 -0.225,0.224 -0.537,0.533 -1.142,1.514 -0.53,1.316 -0.232,0.577 -0.381,0.757 -0.38,1.514 -0.029,0.114 0.029,0.643 0,0.378 0.148,0.442 0.232,0.694 0.381,0.757 0.8,0.795 0.343,0.341 0.38,0.756 1.524,1.136 0.545,0.407 0.978,0.35 1.904,0.379 0.81,0.161 1.093,0.217 2.285,0.379 1.743,0.289 0.542,0.089 2.285,0 2.665,0 0.339,-0.056 1.946,-0.322 1.142,0 0.863,-0.143 1.422,-0.236 1.904,-0.757 0.795,-0.263 0.347,-0.115 1.904,-0.757 1.142,-0.379 0.331,-0.164 1.192,-0.593 0.762,-0.378 0.128,-0.128 0.253,-0.251 1.142,-0.757 0.519,-0.258 0.243,-0.121 0.38,-0.378 0.191,-0.189 0.571,-0.947 0.381,-0.378 0.126,-0.126 0.255,-0.253 0.38,-1.135 0,-0.492 0,-0.265 0,-0.379 0,-1.135 0,-0.298 0,-0.459 0,-0.379 -0.1,-0.299 -0.28,-0.836 0,-0.757 0,-0.218 0,-0.161 -0.719,-1.072 -0.043,-0.063 -0.381,-0.379 0,-0.379 0,-0.074 -1.142,0.074 -0.381,0 -0.311,0 -0.07,0 -0.761,0.758 -0.045,0.044 -0.336,0.334 -0.381,0.378 -0.129,0.387 -0.252,0.749 0,0.757 0,1.514 0,0.065 0,0.692 0.381,1.136 0.021,0.062 0.36,0.695 0.762,1.135 0.132,0.262 0.248,0.495 1.523,1.136 2.285,1.136 0.196,0.097 2.089,1.038 2.665,1.136 0.247,0.105 2.419,1.03 2.665,0.757 1.314,0.187 1.352,0.192 3.046,0 2.918,0 0.509,0 3.808,0.378 3.427,0 0.553,0 2.874,0 2.665,-0.378 1.269,-0.181 1.397,-0.198 2.285,-0.757 0.973,-0.322 0.169,-0.056 2.285,-0.757 1.142,-0.379 0.382,-0.19 1.141,-0.567 0.762,-0.378 0.981,-0.732 0.542,-0.404 0.761,-0.379 0.381,-0.378 0.014,-0.014 1.129,-1.122 0.38,-0.757 0.164,-0.489 0.217,-0.646 0,-0.757 -0.287,-1.142 -0.094,-0.372 0,-0.757 0,-0.379 0,-0.024 -1.142,-1.111 -0.381,-0.757 -0.485,-0.322 -0.657,-0.436 -0.762,-0.378 -1.548,0 -0.356,0 -1.904,0.378 -1.903,0.379 -0.184,0 -0.959,0 -1.904,0.757 -0.538,0.178 -0.604,0.201 -1.904,1.135 -0.889,0.295 -0.253,0.084 -1.904,1.514 -1.143,0.757 -0.097,0.064 -1.426,1.45 -0.761,0.757 -0.152,0.151 -0.229,0.227 -0.762,1.514 -0.269,0.536 -0.111,0.222 -0.381,1.513 0,0.758 0,0.074 0.381,1.44 0.38,0.757 0.5,0.496 0.643,0.639 1.523,0.757 0.569,0.283 0.192,0.096 2.285,0.757 2.285,0.378 0.216,0 2.068,0 2.666,0 1.456,-0.181 1.59,-0.197 3.046,-0.379 2.77,-0.305 0.658,-0.073 3.046,-0.757 2.665,-0.757 0.331,-0.094 2.335,-0.663 2.284,-1.136 0.981,-0.487 1.304,-0.648 2.285,-1.136 0.842,-0.279 0.3,-0.099 1.523,-1.136 0.762,-0.379 0.046,-0.045 0.335,-0.333 1.142,-1.136 0.404,-0.402 0.358,-0.355 0.38,-0.378 0.191,-0.19 0.19,-0.946 0.381,-0.757 0.056,-0.111 -0.056,-0.267 -0.381,-1.136 0,-0.344 0,-0.413 0,-0.378 0,-0.19 -0.761,-0.946 -0.381,-0.378 -0.026,-0.026 -0.355,-0.353 -1.142,-0.379 -0.146,0 -0.235,0 -0.381,0 -0.851,0 -0.291,0 -0.762,0 -0.381,0 -0.151,0.051 -0.991,0.328 -0.762,0.379 -0.198,0 -0.182,0 -1.143,0.757 -0.695,0.345 -0.066,0.033 -0.381,0.379 -0.762,1.135 -0.113,0.226 -0.267,0.531 0,1.514 0,0.479 0,0.278 0.38,1.136 0,0.709 0,0.048 1.143,1.135 0.381,0.758 0.593,0.471 1.31,1.042 2.285,1.136 1.757,0.749 0.909,0.387 2.665,0.757 3.325,0.734 0.102,0.023 3.046,0.378 3.047,0 1.107,0 1.939,0 3.427,-0.378 2.748,0 1.06,0 4.188,0 3.808,-0.379 0.11,-0.011 3.698,-0.746 3.427,-0.757 1.208,-0.4 2.219,-0.735 2.666,-1.136 0.852,-0.282 0.29,-0.096 2.285,-1.136 1.142,-0.379 0.212,-0.157 1.311,-0.978 0.762,-0.379 0.201,-0.2 0.179,-0.178 1.143,-1.136 0.353,-0.703 0.028,-0.054 0.38,-1.135 0,-0.757 0,-0.091 0,-0.288 -0.761,-1.135 -0.21,-0.417 -0.171,-0.34 -1.142,-1.136 -0.338,-0.336 -0.043,-0.043 -1.523,-0.756 -0.762,-0.379 -0.592,0 -1.312,0 -1.904,0 -0.698,0 -0.444,0 -1.904,0.379 -1.05,0.348 -0.092,0.03 -1.904,0.757 -0.762,0.379 -0.36,0.268 -1.163,0.867 -0.761,0.379 -1.033,1.026 -0.871,0.866 -0.762,0.757 -0.669,1.33 -0.092,0.184 -0.381,0.757 0,1.136 0,0.234 0,0.523 0.761,1.514 0.232,0.461 0.149,0.296 1.904,1.514 2.087,1.383 0.198,0.131 2.284,1.136 2.285,1.135 0.83,0.236 1.836,0.521 2.665,0.379 1.969,0 1.077,0 3.427,-0.379 2.895,-0.359 0.152,-0.019 3.046,-0.379 2.665,-0.757 0.829,-0.235 1.837,-0.522 2.285,-0.757 1.524,-0.757 0.76,-0.378 2.285,-1.136 1.904,-1.135 0.103,-0.062 1.039,-0.317 1.904,-1.136 0.762,-0.757 1.142,-1.135 0.635,-0.632 0.127,-0.125 0.38,-0.379 0.381,-1.514 0.082,-0.163 0.299,-0.594 0,-1.514 0,-0.468 0,-0.289 -0.381,-1.135 -0.381,-0.758 0,-0.378 -0.736,-0.488 -0.406,-0.269 -0.381,-0.379 -0.223,0 -0.158,0 -1.142,0 -0.343,0 -0.038,0 -1.142,0.758 -0.762,0.378 -0.244,0.162 -0.898,0.595 -0.762,0.379 -1.142,1.514 -0.381,0.757 -0.25,0.995 -0.13,0.519 -0.381,0.757 0.381,1.135 0,0.757 0,0.379 0.607,0.604 0.535,0.531 1.523,1.136 1.642,0.979 0.262,0.157 2.285,0.756 3.046,0.758 3.046,0.757 3.046,0.757 1.441,0.204 1.225,0.174 3.046,0.379 3.045,0 0.382,0 3.427,0 3.808,-0.379 0.771,-0.153 3.037,-0.604 3.808,-1.135 3.427,-1.136 3.046,-0.757 2.564,-0.729 0.102,-0.028 2.284,-0.757 1.143,-0.379 0.532,-0.317 1.371,-0.818 1.143,-0.379 1.523,-1.135 0.762,-0.757 1.06,-1.055 0.082,-0.081 0.381,-0.757 0.38,-0.378 0,-1.136 0,-0.757 0,-0.268 0,-0.11 -0.761,-1.136 -0.381,-0.757 0,-0.379 -1.142,-0.378 -0.292,-0.145 -0.47,-0.234 -1.142,0 -0.53,0 -0.232,0 -1.904,0 -1.904,0.379 -1.903,0.757 -1.143,0.379 -0.737,0.366 -0.786,0.39 -0.762,0.379 -1.523,1.136 -0.761,0.757 -0.762,1.892 -0.103,0.205 -0.278,0.552 -0.38,1.514 -0.381,0.757 0.761,1.514 0.339,0.673 0.042,0.084 1.523,1.893 1.904,1.514 0.48,0.381 1.424,1.133 2.285,1.136 2.665,0.757 3.047,0.378 3.004,0.332 0.423,0.047 3.046,0 2.665,0 3.047,0 3.427,-0.379 2.059,-0.227 1.368,-0.151 3.046,-0.379 2.665,-0.378 2.666,-0.757 2.665,-0.757 0.605,-0.172 2.061,-0.964 2.285,-1.136 0.596,-0.395 0.546,-0.361 1.904,-1.515 0.761,-0.757 0.762,-1.514 0.381,-0.757 0.059,-0.117 0.702,-1.397 0.381,-0.757 0,-0.378 -0.381,-1.514 0,-0.578 0,-0.179 0,-0.379 -1.523,-1.136 -0.761,-0.378 -1.904,-0.378 -0.364,-0.181 -0.398,-0.198 -1.904,0.379 -1.142,0 -2.285,0.378 -2.285,0.757 -0.238,0.079 -0.904,0.3 -1.904,1.514 -1.142,0.757 -1.142,1.514 -0.544,0.54 -0.218,0.217 -0.762,1.135 -0.38,0.757 0,0.379 0,1.514 0,0.295 0,0.462 0.761,1.514 1.08,0.805 0.443,0.331 1.523,1.135 1.904,1.136 2.285,0.757 2.285,0.378 1.029,0.146 1.636,0.233 3.046,0 2.523,-0.279 0.905,-0.1 3.427,0 3.427,-0.378 3.427,-0.379 2.665,-0.378 0.956,-0.272 1.71,-0.485 2.284,-0.757 2.285,-1.136 2.285,-1.135 1.904,-1.515 0.154,-0.122 0.988,-0.635 1.523,-1.514 0.762,-0.757 1.142,-1.892 0.66,-0.656 0.102,-0.101 0.38,-1.514 0,-0.757 0,-0.379 -0.38,-1.136 -0.186,-0.184 -0.195,-0.194 -1.143,-0.757 -0.38,-0.379 -1.523,-0.378 -1.904,0 -0.387,0.077 -1.517,0.301 -1.904,0.379 -0.762,0 -1.904,0.757 -0.94,0.312 -0.202,0.066 -1.523,0.758 -0.762,0.378 -0.381,0.379 -1.523,1.135 -0.348,0.346 -0.413,0.411 -0.381,1.514 -0.381,0.757 0,0.379 0.762,1.514 0.12,0.239 0.261,0.518 1.523,1.514 1.904,1.136 2.284,0.756 2.149,0.611 0.517,0.147 3.046,0.757 3.427,0.378 3.427,0.379 3.427,0.378 1.511,0 1.916,0 3.427,0 3.427,0 3.427,-0.378 3.427,-0.379 0.488,-0.054 2.939,-0.703 2.666,-0.757 2.665,-1.135 2.666,-1.136 2.031,-0.866 0.634,-0.27 2.285,-1.514 1.142,-0.757 1.904,-1.892 0.762,-0.757 0.314,-0.626 0.447,-0.888 0.381,-0.757 0.381,-0.379 0.381,-1.136 0.381,-0.756 0.01,-0.022 -0.01,-0.357 -1.043,-0.691 -0.1,-0.066 -0.381,-0.379 -1.142,0 -0.762,0 -1.903,0.757 -0.371,0.123 -0.772,0.256 -1.904,0.757 -0.761,0.378 -1.523,1.136 -0.717,0.356 -0.045,0.023 -0.381,0.378 -1.523,1.136 -0.761,0.757 -0.762,1.514 -0.21,0.418 -0.171,0.339 0.381,1.135 0,0.757 1.523,1.514 0.762,0.758 0.622,0.371 1.282,0.764 2.284,1.136 3.047,0.757 3.427,0.757 4.554,0.377 0.015,10e-4 4.569,0 4.189,0 3.427,0 3.427,0 2.737,-0.272 1.071,-0.106 3.427,-0.757 3.427,-0.757 2.665,-0.758 2.666,-0.756 0.769,-0.382 1.516,-0.754 2.284,-1.136 1.904,-0.757 1.143,-0.378 1.452,-0.722 0.071,-0.035 0.761,-0.379 0.381,-0.378 0.381,-1.136 0,-0.378 0,-0.216 0,-0.163 -0.381,-1.135 0,-0.757 -1.142,-1.136 -0.381,-0.378 -0.457,-0.342 -1.066,-0.794 -1.904,-0.757 -1.904,-0.757 -0.762,-0.379 -1.79,0 -0.113,0 -1.143,0 -1.523,0.379 -0.762,0.378 -1.523,0.758 -0.425,0.211 -0.336,0.167 -1.523,1.514 -0.762,0.757 -0.761,1.514 -0.381,0.757 -0.163,0.324 -0.218,0.812 -0.381,0.757 0,1.135 0,0.757 1.024,1.018 0.119,0.118 1.523,1.136 1.904,1.135 2.284,1.136 2.619,0.743 0.047,0.014 3.046,0.757 3.427,0.378 3.427,0 3.808,0 3.427,0 1.465,0 1.962,0 2.665,-0.378 2.666,-0.757 2.665,-0.757 1.308,-0.65 0.977,-0.486 2.285,-1.135 2.285,-1.136 1.903,-1.136 1.904,-1.514 1.007,-1.251 0.516,-0.641 1.524,-1.893 0.761,-0.757 1.523,-1.893 0.762,-0.756 0.326,-0.325 0.055,-1.568 0.38,-1.136 0,-1.892 0,-0.757 0,-0.379 0,-0.049 -0.761,-1.086 -0.381,-0.758 -1.523,-0.378 -0.762,-0.379 -1.222,0 -0.301,0 -1.904,0 -2.284,0.379 -2.285,0.757 -2.285,1.136 -0.944,0.751 -0.96,0.763 -1.142,0.757 -1.904,1.893 -1.142,0.756 -1.523,1.893 -0.118,0.291 -0.644,1.602 -0.381,1.892 -0.381,1.136 0,1.514 0,0.657 0,0.1 1.143,1.514 0.381,0.757 1.904,1.136 1.903,1.135 1.027,0.409 0.877,0.348 2.666,0.757 3.046,0.379 3.427,0.378 3.427,0.379 0.588,0.065 2.839,0.313 3.046,0 3.047,0 2.665,0 1.882,0 0.784,0 2.284,0 2.285,-0.378 2.285,-0.757 2.284,-0.757 0.615,-0.204 0.528,-0.175 2.284,-0.757 1.143,-0.378 1.904,-1.515 0.761,-0.757 0.121,-0.119 1.402,-1.395 0.762,-0.757 0.381,-1.514 0.381,-0.757 0,-0.301 0,-0.077 -0.381,-1.136 0,-0.757 0,-0.378 -1.143,-1.136 -0.209,-0.209 -0.171,-0.17 -0.381,-0.378 -1.142,-0.378 -0.762,-0.379 -0.381,0 -0.188,0.062 -0.954,0.317 -0.762,0 -0.381,0 -1.142,0.756 -0.23,0.229 -0.151,0.15 -1.142,1.136 -0.381,0.757 -0.761,1.135 -0.381,0.757 0,0.556 0,0.58 0,0.757 0,0.378 1.142,1.136 0.762,0.757 0.343,0.273 1.561,1.241 2.284,1.136 2.285,1.135 2.285,0.757 1.584,0.525 0.7,0.232 2.285,0.757 2.666,0.757 2.665,0.379 2.666,0.378 1.59,0.198 1.456,0.181 3.046,0.378 3.046,0 2.666,-0.378 2.665,0 0.672,-0.095 1.994,-0.284 2.665,-0.378 2.666,0 2.284,0 2.038,-0.338 0.247,-0.041 1.904,-0.378 1.904,-0.379 2.285,-0.378 2.284,-0.757 1.375,-0.683 0.91,-0.453 2.285,-1.135 2.284,-1.136 2.285,-1.136 2.285,-1.135 0.497,-0.395 1.407,-1.119 1.904,-1.514 1.904,-1.514 1.904,-1.514 1.67,-1.329 0.233,-0.186 1.904,-1.135 1.143,-0.757 1.904,-1.514 1.142,-0.757 1.419,-0.941 0.866,-0.573 2.284,-1.514 2.285,-1.136 2.285,-1.136 2.665,-1.513 0.667,-0.379 1.999,-1.136 2.665,-1.135 3.046,-1.136 3.047,-1.135 2.251,-0.839 0.795,-0.297 2.665,-0.757 3.047,-0.379 3.427,-0.756 3.427,-0.379 2.606,-0.288 0.821,-0.09 3.427,-0.379 3.046,-0.379 2.666,-0.378 1.142,0 1.196,0 0.708,0 1.142,0 0.381,0 0.381,0"
       __comy="724.326"
       __comx="372.282"
       __timestamp="0x13dc2b61459" />
  </g>
</svg>
