<?xml version="1.0" encoding="UTF-8" standalone="no"?>
<svg
   xmlns:dc="http://purl.org/dc/elements/1.1/"
   xmlns:cc="http://creativecommons.org/ns#"
   xmlns:rdf="http://www.w3.org/1999/02/22-rdf-syntax-ns#"
   xmlns:svg="http://www.w3.org/2000/svg"
   xmlns="http://www.w3.org/2000/svg"
   xmlns:sodipodi="http://sodipodi.sourceforge.net/DTD/sodipodi-0.dtd"
   xmlns:inkscape="http://www.inkscape.org/namespaces/inkscape"
   width="779.77606"
   height="157.14096"
   id="svg2"
   version="1.1"
   inkscape:version="0.47 r22583"
   sodipodi:docname="page4.svg">
  <metadata
     id="metadata103">
    <rdf:RDF>
      <cc:Work
         rdf:about="">
        <dc:format>image/svg+xml</dc:format>
        <dc:type
           rdf:resource="http://purl.org/dc/dcmitype/StillImage" />
        <dc:title></dc:title>
      </cc:Work>
    </rdf:RDF>
  </metadata>
  <sodipodi:namedview
     pagecolor="#ffffff"
     bordercolor="#666666"
     borderopacity="1"
     objecttolerance="10"
     gridtolerance="10"
     guidetolerance="10"
     inkscape:pageopacity="0"
     inkscape:pageshadow="2"
     inkscape:window-width="1680"
     inkscape:window-height="975"
     id="namedview101"
     showgrid="false"
     inkscape:zoom="0.61298701"
     inkscape:cx="32.055137"
     inkscape:cy="-85.920624"
     inkscape:window-x="0"
     inkscape:window-y="25"
     inkscape:window-maximized="1"
     inkscape:current-layer="svg2" />
  <defs
     id="defs4">
    <inkscape:perspective
       sodipodi:type="inkscape:persp3d"
       inkscape:vp_x="0 : 770 : 1"
       inkscape:vp_y="0 : 1000 : 0"
       inkscape:vp_z="728 : 770 : 1"
       inkscape:persp3d-origin="364 : 513.33333 : 1"
       id="perspective105" />
    <style
       type="text/css"
       id="style6"> 
  path { stroke-linecap: round; stroke-linejoin: round; }
  .ruleline { shape-rendering: crispEdges; }
</style>
    <inkscape:perspective
       id="perspective3018"
       inkscape:persp3d-origin="0.5 : 0.33333333 : 1"
       inkscape:vp_z="1 : 0.5 : 1"
       inkscape:vp_y="0 : 1000 : 0"
       inkscape:vp_x="0 : 0.5 : 1"
       sodipodi:type="inkscape:persp3d" />
  </defs>
  <path
     style="fill:none;stroke:#000000;stroke-width:1;stroke-linecap:round;stroke-linejoin:round"
     id="path99"
     d="m 2.937,62.957 -1.371,0.909 -0.457,0.455 -0.457,0.453 -0.152,0.152 1.066,0.303 0.03,0.015 0.427,0.439 1.828,0.454 1.395,0.347 0.433,0.108 2.284,0 2.285,0 0.091,0 1.28,0 2.285,0 0.336,0 0.577,0 2.285,0 1.748,0 0.537,0 2.742,0 2.741,-0.455 0.468,-0.077 2.274,-0.377 2.284,0 0.758,0 0.613,0 2.742,0 2.391,0 0.351,0 2.741,0 2.285,0 0.251,0 1.12,0 0.457,0 0.901,0 0.926,0 0.914,0 1.472,-0.366 0.356,-0.088 0.914,-0.455 2.285,-0.453 0.258,-0.052 1.112,-0.403 0.457,0 0.84,-0.209 0.988,-0.245 0.914,-0.455 0.381,0 0.076,0 1.371,-0.908 0.914,-0.454 0.106,0 0.351,0 0.864,-0.573 0.506,-0.336 0.457,-0.454 0.457,-0.454 0.012,-0.012 0.902,-1.351 0.457,-0.454 0,-1.127 0,-0.235 0,-0.909 0,-1.817 0,-0.196 0,-0.712 0,-0.454 0,-1.028 0,-0.789 0,-1.817 0,-1.993 0,-0.278 -0.457,-2.272 -0.457,-2.271 -0.082,-0.41 -0.375,-1.861 -0.457,-0.908 -0.451,-1.121 -0.463,-1.15 -0.457,-1.363 -0.456,-2.271 -0.07,-0.346 -0.387,-1.017 -0.806,-1.602 -0.108,-0.215 -0.457,-0.908 0,-1.817 0,-0.39 0,-0.518 0,-0.455 0,-1.005 0,-0.357 0,-0.909 0,-0.454 0,-0.021 -0.457,-1.342 0,-0.454 0,-0.305 0,-0.149 0,-0.227 0.457,1.59 0.003,0.01 -0.003,0.444 0.914,1.817 0.247,0.491 0.21,0.417 0.913,2.271 0.434,1.293 0.023,0.07 0.914,2.271 0.457,0.909 0.467,0.928 0.904,1.797 1.371,2.725 0.978,1.944 0.393,0.782 1.371,2.271 1.37,2.725 0.035,0.068 0.879,2.203 1.371,2.726 0.46,1.067 0.911,2.112 1.371,2.725 0.592,1.766 0.322,0.96 1.37,3.179 0.871,2.598 0.043,0.127 0.914,2.726 0.457,3.18 0.131,0.78 0.326,1.945 0.457,2.271 0.26,1.291 0.197,0.98 0.457,2.271 0.329,1.635 0.128,0.636 0.457,1.363 0.457,2.271 0,0.176 0,0.733 0.457,1.816 0,0.459 0,0.45 0,0.454 0,1.108 0,0.255 0,0.908 0,0.454 0,0.059 0,1.304 0,0.908 0,0.197 0,0.258 0,1.191 0,0.171 0,0.455 0,0.454 0,0.024 0,1.338 0,0.455 0,0.442 0,0.012 1.044,-0.346 0.326,-0.108 0.457,0 0.64,-0.636 0.731,-0.727 0.457,-0.454 1.29,-2.137 0.081,-0.134 0.457,-0.909 0.914,-2.271 0.277,-0.688 0.637,-1.583 0.913,-2.725 0.637,-1.583 0.277,-0.688 0.457,-1.363 0.914,-2.725 0.082,-0.245 0.832,-2.481 0.457,-1.362 0.419,-1.041 0.495,-1.23 0.457,-1.363 0.816,-1.352 0.555,-0.919 0.457,-1.363 0.913,-1.817 0.074,-0.147 0.383,-0.761 0,-0.454 0.354,-0.529 0.56,-0.834 0.457,-0.908 0,-0.317 0,-0.138 0.457,-1.363 0.457,-0.454 0.004,0 -0.004,-0.45 0,-1.363 0,-0.286 0,-0.168 0,-0.454 0,-0.227 1.371,0.681 0.359,0.357 0.098,0.097 0.457,0 1.371,1.363 0.123,0.123 0.334,0.331 0.456,0.454 0.378,0.564 0.536,0.799 0.457,0.908 0.661,0.986 0.253,0.377 0.457,0.909 0.457,1.817 0.015,0.058 0.442,2.213 0.914,2.271 0.409,1.018 0.048,-0.11 1.371,2.271 0.228,0.683 0.229,0.68 1.37,2.271 0.455,0.905 0.002,0 0.914,1.817 0.457,0.908 0.36,0.895 0.554,1.376 0.457,1.363 0.359,1.429 0.098,0.388 0.457,0.908 0.457,1.817 0.078,0.156 0.379,0.752 0,0.455 0,0.227 1.371,1.135 0.456,0.454 0.457,0.455 0.148,0.146 1.223,1.216 0.457,0.455 0.457,0.454 0.041,0.041 1.33,-0.041 0.457,0 0.365,0 0.092,0 0.914,-1.817 0.042,-0.083 0.415,-0.826 1.37,-2.271 0.378,-0.939 0.536,-1.332 0.914,-2.725 0.655,-1.954 0.259,-0.771 0.914,-2.726 0.914,-2.725 0.029,-0.086 1.342,-3.094 0.913,-3.179 0.313,-1.087 0.601,-2.093 0.914,-3.633 0.899,-2.385 0.472,-1.25 1.371,-3.633 1.32,-3.062 0.051,-0.118 1.371,-3.633 1.37,-3.634 0.246,-0.853 0.668,-2.327 0.914,-3.179 0.532,-1.85 0.382,-1.33 0.914,-3.633 0.438,-3.046 0.019,-0.134 0.457,-2.726 0.457,-2.725 0.16,-0.478 0.297,-0.885 0.457,-2.271 0.339,-1.012 0.117,-0.35 0.457,-1.817 0,-0.909 0,-0.086 0,-0.368 0,-1.362 0,-0.367 0,-0.542 0,-0.454 0,-0.227 0,-1.136 0,-0.454 0,-0.025 0,-0.429 0,-0.228 0,0.228 0.457,-1.363 0.001,-10e-4 0.456,-0.454 0,-0.453 0,-0.181 1.371,-0.274 0.238,0 0.219,0 0.457,0 0.228,0 1.143,0 0.069,0 0.388,0 0.457,0 0.204,0 1.166,0 0.914,0 0.457,0 0.036,0 1.335,0 0.171,0 0.286,0 0.457,0 0.228,0 1.143,0 0.912,0 0.002,0 0.457,0 1.37,0 0.145,0 0.312,0 0.457,0 0.229,0 1.142,0 0.457,0 0.457,0 0.13,0 1.698,0 0.572,0 0.342,0 0.457,0 1.37,-0.454 0.029,-0.01 0.885,0.01 0.457,0 0.187,0 1.184,0 0.362,0 0.095,0 0.457,0 1.371,0 0.457,0 0.457,0 0.228,0 0.685,1.362 0.457,0.455 0.152,0.602 0.305,1.215 0.457,0.908 0,1.638 0,0.634 0,2.725 0,3.179 0,0.331 0,2.849 0,3.179 0,1.483 0,1.697 0,4.088 0,3.351 0,0.737 0,3.634 0,3.633 0,0.772 0,2.863 0,3.633 0,2.204 0,1.43 0,3.633 0,3.18 0,0.001 0,3.179 0,3.18 0,1.037 0,1.688 0,2.271 0,1.06 0,0.303 0,1.816 0,0.909 0,0.373 0,1.898 0,2.271 0,0.511 0,0.398 0,1.816 0,0.863 0,0.046 0,1.817 0,0.908 0,0.156 0,0.298 0,0.455 0,0.997 0,0.365 0,0.454 0,0.455 0,0.054 0,-0.054 0,-1.363 0,-0.302 0,-0.152 0,-1.817 0,-0.908 0,-0.058 0.457,-2.214 0,-2.271 0,-0.602 0,-0.76 0.457,-2.271 0.38,-1.888 0.077,-0.384 0.457,-2.271 0.457,-0.908 0.066,-0.131 0.848,-2.14 0.457,-1.363 0.414,-1.03 0.5,-1.241 1.371,-2.271 1.049,-1.738 0.321,-0.533 0.914,-2.272 0.457,-1.362 0.034,-0.101 1.337,-2.17 0.457,-1.363 0.523,-0.866 0.848,-1.405 0.914,-0.908 0.634,-1.262 0.279,-0.555 0.457,-0.909 0.457,-0.454 0.001,0 1.37,-1.361 0.914,-0.455 0.642,-0.212 0.729,-0.242 0.914,-0.454 0.338,0 0.119,0 1.371,0 0.913,0 0.38,0 0.077,0 0.98,0.324 0.391,0.13 0.457,0 0.414,0 0.043,0 0.914,1.363 0.133,0.132 0.324,0.322 0.914,1.363 0.307,0.61 0.15,0.298 0.457,2.271 0.457,0.908 0.025,0.05 0.431,2.221 0,1.363 0.201,1.194 0.256,1.531 0.457,2.726 0.376,2.243 0.081,0.482 0,2.272 0,2.271 0.093,0.46 0.364,1.811 0.457,2.271 0.272,1.352 0.185,0.919 0.457,2.271 0.444,2.208 0.013,0.063 0,1.363 0.457,2.271 0.157,0.312 0.3,0.596 0.457,1.817 0.301,0.599 0.156,0.31 0,0.454 0,0.227 1.371,0.681 0.913,0.454 0.125,0.124 0.332,0.331 1.371,0.908 0.267,0.265 0.19,0.189 1.371,0.909 0.845,0.42 0.069,0.034 1.828,0.454 0.913,0 0.572,0 1.256,0 0.914,0 1.28,-0.636 0.548,-0.272 0.914,-0.454 1.827,-0.909 0.172,-0.085 0.742,-0.369 1.371,-1.363 0.435,-0.215 0.479,-0.239 1.828,-1.817 0.764,-0.759 0.15,-0.149 1.827,-2.726 1.371,-2.725 0.204,-0.337 1.167,-1.934 0.914,-1.363 0.411,-1.022 0.503,-1.249 0.457,-1.362 0.694,-2.07 0.22,-0.656 0.913,-2.271 0.914,-2.271 0.062,-0.154 0.395,-2.117 0.457,-2.271 0.175,-0.521 0.282,-0.842 0.457,-2.271 0.314,-0.935 0.143,-0.428 0.457,-2.271 0.453,-1.351 0.004,-0.012 0.457,-1.816 0,-0.909 0,-0.141 0,-0.313 0,-1.817 0,-0.564 0,-0.344 0,-0.454 0,-0.228 0,-1.135 0,-0.454 0,-0.107 0,-0.347 0,-0.228 0,1.136 0,0.454 0,0.454 0,0.04 0,1.323 0,0.908 0,0.892 0,1.379 0,0.909 0,1.686 0,0.585 0,0.908 -0.457,2.725 -0.022,0.133 0.022,2.139 0,2.725 0,1.363 0,0.908 0,2.272 0,1.528 0,0.743 0.457,2.271 0.447,2.219 0.01,0.052 0,1.362 0.457,2.272 0.149,0.445 0.308,0.917 0.457,1.817 0.287,0.571 0.17,0.338 0.913,1.816 0.431,0.858 0.026,0.051 1.371,1.363 0.914,0.454 0.606,0.301 1.222,0.607 0.914,0.454 0.957,0 0.414,0 0.913,0 1.828,0 0.004,0 0.91,0 2.285,-0.454 0.434,-0.144 0.937,-0.31 2.284,-0.908 0.855,-0.284 0.516,-0.171 1.828,-0.908 0.85,-0.423 0.064,-0.031 1.828,-1.817 0.913,-0.909 0.457,-0.454 1.371,-1.363 0.914,-0.908 0.751,-0.995 0.62,-0.822 0.457,-0.908 1.176,-1.559 0.195,-0.258 0.913,-1.817 0.914,-2.271 0.079,-0.156 0.378,-0.753 0.914,-2.725 0.219,-0.652 0.238,-0.711 0.914,-2.271 0.358,-1.067 0.099,-0.295 0.457,-1.818 0,-0.908 0,-0.088 0,-0.366 0,-1.363 0,-0.186 0,-0.268 0,-0.454 0,-0.227 0,-1.136 0,-0.015 0,-0.439 0,-0.454 0,-0.148 0,1.51 0,0.282 0,0.172 0,0.455 0.446,1.775 0.011,0.041 0,0.909 0.914,2.271 0.34,1.015 0.574,1.711 0.456,2.725 0.349,2.076 0.108,0.649 0.457,2.726 0.457,3.179 0.069,0.412 0.388,2.314 0.457,2.725 0,1.216 0,1.055 0.457,2.725 0,2.427 0,0.299 0,2.271 0,2.725 0,0.631 0,2.094 0,2.726 0,1.819 0,1.361 -0.457,3.179 -0.4,2.388 -0.057,0.337 -0.457,2.725 -0.457,2.726 -0.171,0.51 -0.743,2.215 -0.913,2.272 -0.457,1.361 -0.457,1.364 -0.914,2.271 -0.367,1.822 -0.09,0.449 -0.914,2.271 -0.457,1.362 -0.055,0.166 -0.859,2.105 -0.457,1.364 -0.869,0.863 -0.959,0.953 -0.913,0.909 -1.574,1.173 -0.254,0.19 -0.914,0.454 -1.828,0.908 -0.191,0.095 -0.723,0.36 -2.284,0.454 -0.476,0 -0.438,0 -2.285,0 -1.134,0 -0.237,0 -2.284,-0.454 -1.371,0 -0.204,0 -1.624,-0.909 -0.914,-0.454 -0.818,-0.407 -1.01,-0.501 -0.914,-0.455 -1.374,-1.367 -0.453,-0.45 -0.914,-0.908 -1.828,-1.818 -0.117,-0.116 -0.797,-0.792 -0.914,-1.363 -0.172,-0.341 -0.285,-0.567 -0.913,-1.817 -0.315,-0.625 -0.142,-0.283 -0.457,-2.271 0,-0.901 0,-0.01 0,-2.271 0,-0.908 0.153,-0.761 0.304,-1.51 0,-0.909 0,-0.279 0,-0.175 0.913,-1.817 0.422,-0.838 0.035,-0.071 1.828,-1.816 0.914,-0.909 0.491,-0.487 1.337,-1.33 0.914,-0.908 1.502,-1.195 0.782,-0.622 1.371,-0.908 2.228,-1.329 0.057,-0.034 1.371,-0.908 1.827,-0.909 0.262,-0.129 0.652,-0.325 2.285,-0.908 0.543,-0.27 0.371,-0.184 1.828,-0.455 0.827,-0.411 0.087,-0.043 1.827,0 0.914,0 0.493,-0.098 1.792,-0.357 0.914,0 1.314,0 0.97,0 1.371,0 2.186,-0.434 0.099,-0.019 1.371,0 2.284,-0.455 0.456,0 0.915,0 2.742,0 1.401,0 0.884,0 1.37,0 2.099,0 0.186,0 0.914,0 1.828,-0.454 0.208,0 0.706,0 2.284,-0.454 0.548,0 0.366,0 2.742,-0.455 2.24,-0.445 0.044,-0.01 2.285,-0.454 2.285,0 0.738,0 1.547,0 2.284,0 1.45,0 0.835,0 1.371,0 2.15,0 0.135,0 1.37,0 2.742,0 0.808,0 1.934,0 2.741,-0.454 1.866,-0.31 0.876,-0.145 2.742,-0.454 2.283,-0.907 0.001,-0.001 2.285,-0.909 2.285,-0.908 0.714,-0.426 1.57,-0.937 1.371,-0.454 1.7,-0.845 1.042,-0.518 2.741,-1.362 2.535,-1.26 0.207,-0.103 2.285,-1.817 2.284,-1.817 0.569,-0.706 1.259,-1.565 0.914,-0.908 1.528,-1.519 0.757,-0.752 0.914,-0.909 1.827,-2.271 0.098,-0.12 0.816,-0.788 1.828,-2.726 0.914,-1.362 1.371,-2.271 0.362,-1.081 0.095,-0.282 0.913,-2.271 0.457,-1.363 0.132,-0.327 0.782,-1.944 0.457,-0.909 0,-0.205 0,-0.249 0.914,-1.817 0.348,-0.691 0.109,-0.217 0,-0.454 0,-0.227 0.457,-1.136 0.457,-0.454 0,-0.171 0,-0.283 0,-0.227 0,0.227 0,1.362 0,0.454 0,1.67 0,0.601 -0.457,2.271 0,3.18 0,0.325 -0.457,2.855 -0.457,3.634 -0.457,4.088 -0.457,4.088 -0.382,3.804 -0.075,0.738 -0.457,4.542 0,4.996 0,0.834 0,4.163 -0.457,5.451 -0.254,3.036 -0.203,2.414 0,4.997 0,4.482 0,0.514 0,4.997 0,4.996 0,1.333 0,3.209 -0.456,3.634 0,1.243 0,0.574 0,2.726 0,2.725 0,0.213 0,2.05796 0,1.362 0,1.069 0,1.203 0,0.908 0,1.569 0,0.248 0,0.908 0,0.455 0,0.115 0,-0.115 0.456,-1.817 0.368,-2.193 0.089,-0.533 0.457,-3.633 0,-4.08796 0.083,-0.742 0.374,-3.346 0.457,-4.543 0.457,-4.088 0,-4.088 0,-4.337 0,-0.205 0.457,-4.542 0,-4.088 0.164,-1.463 0.293,-2.625 0,-4.088 0.457,-4.088 0.457,-4.088 0.457,-4.088 0.061,-0.549 0.396,-3.539 0.457,-4.088 0,-4.088 0,-4.088 0.355,-2.823 0.102,-0.811 0.457,-3.179 0.457,-2.726 0.456,-2.725 0.914,-2.726 0.181,-0.537 0.276,-0.825 0.914,-2.726 0.316,-0.942 0.141,-0.42 1.371,-1.817 0.457,-0.908 1.371,-1.817 0.914,-0.909 0.659,-0.492 1.168,-0.87 0.914,-0.454 2.285,-0.909 0.914,-0.455 2.284,0 0.237,0 0.677,0 2.285,0.455 1.371,0 2.285,0.909 0.651,0.323 0.262,0.131 2.285,1.362 1.371,0.909 0.029,0.019 1.799,2.252 1.371,2.271 1.37,2.271 0.914,2.271 0.585,1.743 0.329,0.983 0.457,2.725 0.457,2.725 0,3.18 0,3.179 -0.123,0.853 -0.334,2.327 -0.914,2.725 -0.914,2.725 -0.457,1.363 -1.77,2.641 -0.057,0.084 -0.914,1.363 -1.828,2.271 -2.285,1.817 -0.914,0.908 -1.362,0.813 -0.922,0.55 -0.914,0.909 -2.938,1.251 -0.261,0.111 -2.741,1.363 -2.742,0.908 -2.285,0.455 -1.371,0.454 -1.605,-0.319 -0.679,-0.135 -1.371,0 -1.828,-0.455 -0.914,0 -0.457,0 -0.906,0 -0.921,0 -0.914,0 -0.457,0 -0.229,0 1.143,0 0.026,0 0.431,0 2.284,-0.454 2.285,0 2.285,0 2.741,-0.454 0.002,0 2.74,0 3.199,0 3.198,-0.454 2.742,0 1.717,0 1.024,0 2.742,0 2.106,-0.419 0.179,-0.036 2.741,-0.454 2.742,-0.908 2.285,-0.909 1.37,-0.454 1.503,-0.597 0.782,-0.311 1.371,-0.455 2.285,-1.816 0.914,-0.909 1.827,-1.817 0.321,-0.318 0.593,-0.59 2.285,-2.271 1.828,-2.271 0.914,-1.363 1.329,-2.644 0.041,-0.081 1.371,-2.726 0.914,-2.725 0.914,-2.725 0.914,-2.726 0.544,-1.352 0.37,-0.919 0.457,-1.362 0.457,-2.271 0.456,-1.364 0.457,-2.271 0.1,-0.494 0.357,-0.414 0,-0.454 0.457,-1.363 0,-0.908 0,-0.378 0,-0.076 0,-0.227 0,1.589 0,0.454 0,1.817 -0.457,2.271 -0.027,0.136 -0.43,2.59 -0.457,2.725 0,3.18 0,3.179 0,2.456 0,1.178 0.457,3.18 0.457,2.725 0.457,2.725 0,1.363 0.134,0.665 0.323,1.606 0.457,0.909 0.457,1.816 0.457,0.909 0.832,1.653 0.082,0.164 0.457,0.908 1.371,1.363 0.457,0.908 0.457,0.454 1.111,0.277 0.716,0.178 0.914,0 1.371,0 0.914,0 1.371,-0.455 0.284,-0.14 0.63,-0.314 1.827,-1.362 0.914,-0.909 1.828,-2.725 1.679,-2.503 0.149,-0.222 1.828,-3.18 1.827,-3.18 1.828,-3.633 1.828,-3.634 0.473,-1.098 0.898,-2.082 0.913,-2.725 0.914,-2.725 0.457,-1.363 0.914,-1.817 0.144,-0.286 0.313,-0.623 0,-0.453 0,-1.364 0,-0.908 0,-0.351 0,-0.103 0,1.362 0,0.354 0,0.555 0,2.726 0,3.179 -0.457,3.18 -0.457,3.633 -0.003,0.027 -0.454,3.607 -0.457,2.726 -0.457,2.725 -0.913,2.725 -0.287,1.708 -0.17,1.018 -0.457,1.362 -0.457,1.817 -0.457,0.908 0,0.455 -0.142,0.424 -0.315,0.938 0,0.909 0,0.454 0,0.227 0,-0.227 0.914,-1.817 0.914,-2.725 0.744,-1.725 0.626,-1.455 0.914,-3.179 0.914,-3.18 0.914,-3.179 0.914,-2.726 0.147,-0.439 1.224,-2.286 1.371,-2.725 0.913,-2.726 1.371,-2.725 0.385,-1.147 0.072,-0.216 1.371,-2.271 0.457,-1.363 1.828,-2.725 1.371,-2.271 0.56,-0.835 0.353,-0.528 1.371,-2.271 0.914,-0.908 0.457,-0.454 1.371,-0.909 0.128,-0.127 0.329,-0.327 0.457,-0.454 0.914,1.363 0.407,0.81 0.05,0.098 1.37,2.271 0.914,2.271 0.914,2.271 0.914,2.725 0.467,1.624 0.447,1.556 0.914,3.18 0.457,3.179 0.457,3.18 0.457,2.725 0.059,0.358 0.398,2.367 0.456,2.272 0.457,1.362 0.457,2.271 0,0.676 0,0.233 0.457,1.817 0.457,0.908 0,0.454 0.622,0.928 0.292,0.435 0.457,0.454 0.457,0.454 1.346,0 0.025,0 0.914,0 1.827,-1.362 0.914,-0.454 1.828,-1.817 0.976,-1.618 0.395,-0.653 1.371,-2.726 1.37,-3.179 1.371,-3.634 1.371,-4.088 0.465,-1.539 0.906,-3.003 1.828,-4.997 1.827,-4.996 1.371,-4.542 1.31,-3.471 0.061,-0.163 0.914,-3.634 1.371,-4.088 0.914,-4.088 0.914,-4.088 0.523,-2.342 0.39,-1.746 0.457,-4.088 0.914,-4.088 0.914,-4.088 0.914,-3.634 0.391,-1.556 0.523,-1.623 0.914,-2.726 0.457,-1.363 0.914,-2.271 0.345,-1.03 0.111,-0.332 0,-0.454 0.457,-1.363 0.457,-0.908 0,-0.455 0,-0.227 -0.457,1.59 0,0.454 0,0.823 0,1.448 0,2.271 0,2.725 0,2.726 0,2.643 0,0.082 -0.457,2.726 -0.456,3.179 -0.457,3.18 -0.457,3.179 -0.268,1.863 -0.189,1.317 -0.457,3.634 -0.457,4.088 0,4.088 0,4.542 -0.093,0.831 -0.364,3.257 -0.457,4.088 0,3.634 0,3.633 0,2.984 0,0.65 -0.457,3.18 0,3.18 0,3.179 0,3.18 0,1.388 0,1.791 0,2.725 0,1.363 0,1.817 0,0.908 0,0.047 0,1.77 0,0.909 0,1.817 0,0.908 0,0.304 0,0.15 0,1.363 0,0.908 0,0.455 0,0.877 0,0.485 0,0.454 0,0.455 0,0.227 0,1.135 0,0.455 0,0.454 0,0.227 -0.457,-1.59 -0.002,-0.01 0.002,-0.448 -0.457,-1.363 0,-0.908 0,-1.817 0,-0.613 0,-0.296 0,-1.816 0,-0.909 0,-2.271 0,-0.908 0,-0.659 0,-1.612 0,-0.909 0,-2.725 0.457,-2.271 0,-2.063 0,-0.208 0,-2.272 0,-1.362 0.457,-2.271 0,-1.363 0.238,-1.184 0.219,-1.087 0.457,-1.363 0.914,-2.271 0.457,-0.909 0.457,-0.453 0.064,-0.065 0.85,-1.753 0.456,-0.908 0,-0.454 0.914,-1.817 0.78,-1.55 0.134,-0.267 0.91404,-2.271 0.457,-0.908 0.914,-2.271 0.457,-0.909 0.274,-0.272 0.183,-0.182 1.371,-1.363 0.457,-0.909 0.456,-0.454 1.828,-0.908 0.196,-0.098 0.718,-0.356 1.371,-0.909 0.914,-0.454 0.457,0 1.138,-0.754 0.233,-0.155 0.913,-0.454 0.457,0 1.371,0 0.206,0 0.251,0 0.457,0 1.371,0 0.031,0 0.426,0 0.457,0 0.228,0 -1.142,0.454 -0.457,0 -0.457,0 -0.11,0 -1.261,0.909 -0.914,0.454 -0.457,0.454 -1.258,1.252 -0.112,0.111 -0.457,0.454 -0.457,0.454 -1.371,1.364 -0.914,0.908 -0.731,0.726 -0.64,0.637 -0.914,0.454 -1.827,1.362 -0.914,0.455 -1.371,1.362 -0.214,0.213 -0.243,0.696 -1.371,1.816 -0.45704,0.909 -0.457,0.454 -1.051,1.046 -0.32,0.317 -0.913,0.908 -0.457,0.454 -0.914,1.363 -0.418,0.416 -0.039,0.039 0,0.453 -0.914,1.363 -0.457,0.455 -10e-4,0 10e-4,0.454 -0.457,1.363 0,0.28 0,0.174 0,0.454 0.457,1.363 0.11,0.109 0.347,0.345 0,0.454 1.371,0.909 0.914,0.454 0.015,0.01 0.442,0.447 1.37,0.908 0.914,0.455 1.37104,0.454 0.634,0.315 0.28,0.139 0.457,0 1.828,0.908 0.913,0.455 1.371,0.454 0.297,0.148 0.617,0.306 1.828,0.454 0.914,0.455 0.457,0 1.272,1.264 0.099,0.098 0.913,0.454 0.457,0.455 1.371,1.362 0.914,0.909 0.248,0.246 0.209,0.208 0.914,1.363 0.457,0.454 0.409,0.407 0.048,0.047 0.914,1.363 0.457,0.908 0,0.454 0.914,1.363 0.354,0.352 0.102,0.102 0,0.455 1.371,1.362 0.457,0.454 0.193,0.193 0.264,0.262 1.371,0.908 0.457,0.454 0.457,0.454 0.228,0.228 1.143,0.681 0.457,0.454 0.456,0 1.313,0.435 0.058,0.019 0.457,0.455 0.457,0 1.371,0 0.31,0 0.147,0 0.457,0 1.371,0 0.457,0 0.457,0 0.153,0 1.217,0.454 0.457,0 0.438,0 0.019,0 1.371,0.454 0.457,0 0.261,0 0.196,0 1.371,0.454 0.457,0 0.085,0 0.372,0 1.37,0 0.457,0 0.457,0 1.101,-0.364 0.27,-0.09 0.914,-0.454 0.457,0 1.371,-0.454 0.457,-0.455 0.192,0 0.265,0 1.37,-0.908 0.914,-0.454 0.457,0 0.229,0 1.142,-0.455 0.457,0 0.457,0 1.134,-0.375 0.237,-0.079 0.457,-0.454 0.457,0 0.228,0 1.143,0 0.457,0 0.456,0 0.073,0 1.298,0 0.283,0 0.174,0 0.457,0 1.371,0 0.113,0 0.344,0 0.457,0 1.084,0 0.287,0 0.457,0 0.456,0 1.371,0 0.425,0 0.489,0 0.457,0 1.371,-0.908 0.914,-0.455 0.457,0 0.036,0 1.335,-0.908 0.913,-0.454 0.457,0 1.371,-0.454 0.634,0 0.28,0 0.457,0 1.371,-0.909 0.914,-0.454 0.457,0 0.43,-0.285 0.94,-0.624 0.914,-0.454 0.457,0 1.371,-0.908 0.914,-0.454 0.053,-0.027 0.404,0.027 1.371,-0.909 0.914,-0.454 0.457,0 1.094,-0.363 0.276,-0.091 0.457,-0.455 0.457,0 1.371,-0.454 0.457,-0.454 0.19,0 0.267,0 1.371,-0.454 0.457,-0.454 0.457,0 1.37,-0.909 0.047,-0.031 0.867,-0.423 0.457,0 1.371,-0.909 0.914,-0.454 0.297,0 0.16,0 1.371,-0.908 0.914,-0.454 0.457,0 1.342,-0.891 0.028,-0.018 0.914,-0.454 0.457,0 1.371,-0.909 0.914,-0.454 0.42,0 0.037,0 1.371,-0.908 0.914,-0.454 0.456,-0.455 1.371,-0.908 0.631,-0.314 0.283,-0.14 1.371,-1.363 0.914,-0.454 1.828,-1.363 0.913,-0.454 0.433,-0.287 0.938,-0.621 0.914,-0.455 0.457,0 1.828,-0.908 0.852,-0.424 0.062,-0.03 2.284,-0.909 0.914,-0.454 2.285,-0.908 0.914,-0.455 0.964,-0.383 1.321,-0.526 0.913,-0.454 1.828,-0.454 0.914,-0.454 1.828,-0.454 0.212,-0.105 0.702,-0.35 0.457,0 1.827,-0.454 0.914,0 1.727,-0.429 0.101,-0.025 0.914,0 1.371,-0.454 0.914,-0.454 1.827,-0.455 0.511,0 0.403,0 2.285,-0.454 0.914,-0.454 1.828,-0.454 0.913,0 0.319,-0.079 1.509,-0.375 0.914,0 2.285,-0.455 1.371,0 1.872,0 0.412,0 0.914,0 2.285,-0.454 0.914,0 2.284,-0.454 0.466,0 0.448,0 1.828,0 2.285,-0.454 0.914,0 2.284,-0.454 0.306,-0.061 1.065,-0.394 2.285,-0.454 2.285,-0.454 2.284,0 1.017,0 0.354,0 2.285,0 1.371,0 2.284,0 1.371,0 0.894,0 1.391,0 0.914,0 1.827,0 2.285,-0.454 2.285,-0.454 0.316,-0.063 1.969,0.063 0.913,0 2.742,0 3.199,0 2.417,0 0.781,0 3.656,0 3.655,0 3.656,-0.455 1.827,0 0.456,0 0.458,0 0.457,0"
     __comy="1308.270"
     __comx="410.303"
     __timestamp="0x13dc2baf780" />
</svg>
