<?xml version="1.0" encoding="UTF-8" standalone="no"?>
<!-- Created with Inkscape (http://www.inkscape.org/) -->

<svg
   xmlns:dc="http://purl.org/dc/elements/1.1/"
   xmlns:cc="http://creativecommons.org/ns#"
   xmlns:rdf="http://www.w3.org/1999/02/22-rdf-syntax-ns#"
   xmlns:svg="http://www.w3.org/2000/svg"
   xmlns="http://www.w3.org/2000/svg"
   xmlns:sodipodi="http://sodipodi.sourceforge.net/DTD/sodipodi-0.dtd"
   xmlns:inkscape="http://www.inkscape.org/namespaces/inkscape"
   width="815.11304"
   height="235.48801"
   id="svg3568"
   version="1.1"
   inkscape:version="0.47 r22583"
   sodipodi:docname="New document 22">
  <defs
     id="defs3570">
    <inkscape:perspective
       sodipodi:type="inkscape:persp3d"
       inkscape:vp_x="0 : 526.18109 : 1"
       inkscape:vp_y="0 : 1000 : 0"
       inkscape:vp_z="744.09448 : 526.18109 : 1"
       inkscape:persp3d-origin="372.04724 : 350.78739 : 1"
       id="perspective3576" />
    <inkscape:perspective
       id="perspective3563"
       inkscape:persp3d-origin="0.5 : 0.33333333 : 1"
       inkscape:vp_z="1 : 0.5 : 1"
       inkscape:vp_y="0 : 1000 : 0"
       inkscape:vp_x="0 : 0.5 : 1"
       sodipodi:type="inkscape:persp3d" />
  </defs>
  <sodipodi:namedview
     id="base"
     pagecolor="#ffffff"
     bordercolor="#666666"
     borderopacity="1.0"
     inkscape:pageopacity="0.0"
     inkscape:pageshadow="2"
     inkscape:zoom="0.35"
     inkscape:cx="31.12793"
     inkscape:cy="472.02972"
     inkscape:document-units="px"
     inkscape:current-layer="layer1"
     showgrid="false"
     inkscape:window-width="607"
     inkscape:window-height="491"
     inkscape:window-x="0"
     inkscape:window-y="25"
     inkscape:window-maximized="0" />
  <metadata
     id="metadata3573">
    <rdf:RDF>
      <cc:Work
         rdf:about="">
        <dc:format>image/svg+xml</dc:format>
        <dc:type
           rdf:resource="http://purl.org/dc/dcmitype/StillImage" />
        <dc:title></dc:title>
      </cc:Work>
    </rdf:RDF>
  </metadata>
  <g
     inkscape:label="Layer 1"
     inkscape:groupmode="layer"
     id="layer1"
     transform="translate(-343.87207,-768.9039)">
    <path
       style="fill:none;stroke:#000000;stroke-width:1;stroke-linecap:round;stroke-linejoin:round"
       id="path83"
       d="m 344.37207,832.8109 0.762,0 0.381,0 0.38,0 0.06,0 1.083,0 0.38,0 0.297,0 0.084,0 0.792,0 0.351,0 0.38,0 0.148,0 0.233,0 0.191,0 0.951,0 0.381,0 0.004,0 0.377,0 1.142,0 0.246,0 0.516,0 0.381,0 0.72,0 0.422,0 0.762,0 0.374,0 0.006,0 1.143,0 0.381,0 0.146,0 0.234,0 1.143,0 0.476,0 0.285,0 0.381,0 1.142,0 0.184,0 0.578,0 1.142,0 0.353,0 0.409,0 0.381,0 0.879,0 0.263,0 0.762,0 0.38,0 0.03,0 1.113,0 0.761,0 0.15,0 0.231,0 1.523,-0.378 0.403,0 0.359,0 1.142,-0.379 0.762,0 0.009,0 1.133,0 0.762,0 0.494,0 1.029,0 0.761,0 0.723,0 0.42,0 0.761,0 0.381,0 0.002,0 1.14,0 0.762,0 0.455,0 0.687,0 0.762,0 0.832,0 0.31,0 0.762,0 1.142,0 0.043,0 0.719,0 1.142,0 0.267,0 0.495,0 0.38,0 0.756,0 0.387,0 0.761,0 0.369,0 0.012,0 1.142,0 0.381,0 0.107,0 0.274,0 1.142,0 0.452,0 0.31,0 0.381,0 1.031,0 0.111,0 0.762,0 0.38,0 0.243,0 0.9,0 0.761,0 0.2,0 0.181,0 1.142,0 0.318,0 0.063,0 0.381,0 0.19,0 0.952,0 0.359,0 0.403,0 0.381,0 0.979,0 0.163,0 0.761,0 0.381,0 0.228,0 0.915,0 0.761,0 0.585,0 0.558,0 0.761,0 0.314,0 0.067,0 1.142,0 0.762,0 0.108,0 0.273,0 1.142,0 0.341,0 0.42,0 1.524,0 0.576,0 0.185,0 1.523,0 0.762,0 0.046,0 1.858,0 0.761,0 0.567,0 0.956,0 0.762,0 1.076,0 0.447,0 0.762,0 1.523,0 0.146,0 0.615,0 1.524,0 0.355,0 0.406,0 1.523,0 0.542,0 0.22,0 1.523,0 0.578,0 0.184,0 1.903,0.379 1.143,0.378 0.632,0.126 1.272,0.253 0.761,0.378 0.978,0 0.545,0 0.762,0 1.819,0 0.085,0 0.761,0 1.524,0 0.668,0 0.093,0 0.381,0 0.676,0 0.466,0 0.762,0 0.908,0 0.234,0 0.762,0 1.142,0 0.393,0 0.369,0 1.142,0 0.482,0 0.28,0 0.38,0 1.177,0 0.346,0 0.762,0 0.381,0 0.292,0 0.85,0 0.762,0 0.865,0.216 0.658,0.163 0.761,0 1.006,0 0.137,0 0.761,0 0.381,0 0.211,0 0.931,0 0.381,0 0.569,0 0.574,0 0.761,0 0.308,0 0.073,0 1.142,0 0.762,0 0.131,0 0.25,0 1.142,0 0.161,0 0.22,0 0.381,0 0.19,0 0.952,0 0.032,0 0.349,0 0.38,0 0.164,0 0.979,0 0.381,0 0.38,0 0.041,0 1.102,0 0.381,0 0.332,0 0.048,0 0.858,0 0.285,0 0.38,0 0.246,0 0.135,0 0.191,0 0.952,-0.379 0.38,0 0.018,0 0.363,0 0.19,0 -0.19,-1.135 0,-0.379 0,-0.054 0,-0.324 0,-0.189 0.381,-0.947 0,-0.301 0,-0.077 0,-0.379 0,-0.189 0,-0.946 0,-0.218 0,-0.161 0,-0.378 0,-0.19 0,-0.946 0,-0.094 0,-0.284 0,-0.379 0,-0.189 0,-0.946 0,-0.508 0,-0.249 0,-0.379 -0.451,-0.672 -0.311,-0.464 -0.38,-0.378 0,-0.185 0,-0.194 0,-0.189 -0.762,-0.946 -0.381,-0.379 -0.043,-0.042 0.043,-0.336 -0.381,-1.136 -0.161,-0.32 -0.219,-0.437 0,-0.378 0,-0.19 -0.762,-0.946 -0.01,-0.016 -0.371,-0.362 -0.38,-0.379 -0.136,-0.134 -0.626,-1.002 -0.196,-0.194 -0.185,-0.184 -0.381,-0.379 -0.742,-1.106 -0.019,-0.029 -0.381,-0.757 -0.381,-1.136 -0.108,-0.214 -0.273,-0.543 0,-0.378 -0.453,-0.902 -0.308,-0.612 -0.381,-0.757 -0.691,-1.374 -0.07,-0.14 -0.381,-0.758 -0.762,-1.514 -0.082,-0.162 -0.299,-0.595 -0.761,-1.514 -0.154,-0.306 -0.227,-0.451 -0.761,-1.514 -0.318,-0.631 -0.063,-0.126 -1.143,-1.892 -0.38,-0.757 -0.058,-0.116 -0.704,-1.777 -0.381,-0.757 -0.172,-0.687 -0.209,-0.827 -0.38,-0.757 0,-0.274 0,-0.105 -0.762,-1.135 -0.381,-0.757 -0.018,-0.037 -0.362,-0.342 -0.762,-1.135 -0.336,-0.502 -0.045,-0.255 0,-0.379 -0.537,-0.8 -0.224,-0.336 -0.381,-0.378 0,-0.379 0,-0.005 -1.142,-1.13 -0.381,-0.379 -0.241,-0.239 -0.14,-0.139 -0.19,-0.189 -0.952,-0.568 -0.096,-0.095 -0.285,-0.284 -0.381,-0.378 0,0.757 0,0.378 0,0.242 0,0.137 0,0.189 0.381,0.946 0.381,0.379 0,0.095 0,0.283 0.894,0.889 0.248,0.247 0.381,0.757 0.996,1.32 0.146,0.194 0.381,0.757 1.142,1.514 0.07,0.14 0.311,0.617 1.142,1.893 0.377,0.374 0.385,0.383 1.523,1.893 0.614,0.915 0.148,0.22 1.523,1.893 0.761,1.135 0.092,0.136 1.431,1.378 0.762,0.757 0.323,0.642 0.439,0.872 0.38,0.757 0.279,0.277 0.102,0.102 1.142,1.514 0.381,0.757 0.017,0.033 0.364,0.346 1.142,1.135 0.135,0.269 0.246,0.488 0.381,0.379 0.443,0.661 0.319,0.474 0.38,0.757 0,0.33 0,0.049 1.143,1.135 0.761,0.757 0.068,0.068 0.313,0.311 1.142,1.135 0.372,0.37 0.39,0.388 0.381,0.378 0.917,1.216 0.225,0.298 0.381,0.757 0.761,1.136 0.084,0.124 0.297,0.633 0.762,1.135 0.157,0.313 0.223,0.444 0.762,1.136 0.276,0.549 0.105,0.208 1.142,1.514 0.381,0.757 0.014,0.028 0.748,1.486 0.38,0.757 0.396,0.525 0.747,0.989 0.38,0.757 0.251,0.25 0.13,0.129 1.143,1.514 0.369,0.734 0.011,0.023 1.143,1.514 0.38,0.757 0.315,0.417 0.828,1.097 0.381,0.757 0.446,0.888 0.315,0.626 0.381,0.757 0.682,1.357 0.08,0.157 0.38,0.757 0.762,1.514 0.081,0.162 0.3,0.596 0.761,1.135 0.227,0.451 0.154,0.306 0.381,0.379 0.75,1.118 0.011,0.017 0.381,0.757 0.381,0.379 0.276,0.411 0.485,0.724 0.381,0.757 0,0.254 0,0.125 0.762,1.514 0.371,0.738 0.01,0.019 0.761,1.135 0.381,0.758 0.322,0.32 0.82,0.815 0.381,0.757 0.457,0.908 0.305,0.606 0.38,0.757 0.691,1.373 0.071,0.141 0.381,0.757 0.381,1.136 0.38,0.757 0,0.379 0.59,0.586 0.553,0.549 0.761,0.757 0.95,0.944 0.193,0.192 0.761,0.757 0.381,0.378 0.171,0.171 0.971,0.965 0.762,0.757 0.174,0.173 0.207,0.205 1.142,1.136 0.292,0.581 0.089,0.176 0.381,0.378 0.761,1.136 0.061,0.091 0.32,0.666 0.381,1.514 0.146,0.292 0.234,0.465 0.762,1.136 0.263,0.523 0.118,0.234 0,0.378 0.761,1.136 0.004,0 0.377,0.752 0.381,0.378 0.238,0.355 0.524,0.781 0.38,0.757 0,0.254 0,0.124 0.762,1.136 0.381,0.757 0.009,0.018 -0.009,0.361 0.761,1.135 0.158,0.314 0.223,0.443 0,0.379 0.565,0.842 0.197,0.293 0.38,0.757 0,0.379 0,0.019 0.762,1.116 0.137,0.136 0.244,0.243 0.38,0.378 0.191,0.19 0.571,0.946 0.381,0.378 0,0.379 0,0.112 0.381,1.024 0.38,0.378 0,0.346 0,0.033 0.28,0.834 0.101,0.301 0,0.379 0,0.2 0,0.178 0,0.189 0,0.947 0,0.378 0,0.058 0,0.321 0,0.189 0.381,-0.946 0,-0.326 0,-0.053 0,-0.378 0.444,-0.883 0.318,-0.631 0.38,-0.757 0.185,-0.55 0.196,-0.586 0.381,-0.757 0.302,-1.203 0.079,-0.311 0.38,-0.757 0.762,-1.893 0.077,-0.191 0.304,-0.566 0.381,-1.892 0.157,-0.47 0.223,-0.666 0.381,-1.892 0.275,-0.82 0.106,-0.316 0.381,-1.893 0.38,-1.135 0.012,-0.034 0.75,-1.859 0.381,-1.135 0.384,-0.636 0.758,-1.257 0.381,-1.135 0.745,-1.234 0.397,-0.659 0.381,-0.757 0.731,-1.453 0.031,-0.061 0.38,-0.757 0.381,-1.514 0.103,-0.205 0.278,-0.552 0.762,-1.893 0.222,-0.443 0.158,-0.314 0.762,-1.514 0.339,-0.674 0.042,-0.083 0.38,-1.514 0.381,-0.757 0.074,-0.293 0.307,-1.221 0.381,-0.757 0.194,-0.774 0.187,-0.74 0.38,-0.757 0.313,-1.245 0.068,-0.269 0.381,-0.758 0.381,-1.514 0.05,-0.099 0.331,-0.658 0,-0.378 0.362,-0.721 0.399,-0.793 0.381,-0.757 0,-0.305 0,-0.074 0.761,-1.135 0.381,-0.757 0.048,-0.096 0.333,-1.418 0.381,-0.758 0.163,-0.65 0.218,-0.864 0.38,-0.757 0,-0.279 0,-0.099 0.381,-1.136 0.381,-0.757 0.016,-0.032 -0.016,-0.346 0.258,-0.77 0.123,-0.366 0,-0.378 0,-0.379 0.38,-1.135 0.381,-0.379 0,-0.378 0.245,-0.731 0.136,-0.405 0,-0.379 0,-0.225 0,-0.153 0,-0.189 0,-0.947 0,-0.378 0,-0.081 0,-0.298 0,-0.189 1.142,0.946 0.381,0.379 1.143,1.135 0.261,0.261 0.119,0.497 0.762,1.514 0.204,0.405 0.177,0.352 1.523,1.892 0.65,0.647 0.111,0.11 1.143,1.893 0.38,0.757 0.185,0.244 0.958,1.27 0.381,0.757 0.544,0.722 0.598,0.792 0.381,0.757 0.597,1.187 0.164,0.327 0.381,0.757 0,0.379 0,0.033 0.762,1.481 0.38,0.757 0.309,0.613 0.453,0.901 0.381,0.757 0,0.27 0,0.109 0.761,1.514 0.381,0.757 0.008,0.015 -0.008,0.363 0.762,1.514 0.127,0.254 0.253,0.503 0.381,1.514 0.233,0.463 0.148,0.294 0.381,1.514 0.352,0.7 0.029,0.058 0,0.378 0.38,1.514 0.103,0.205 0.278,0.552 0.381,1.136 0.221,0.44 0.16,0.317 0.38,1.135 0,0.673 0,0.084 0.381,1.136 0.381,0.757 0,0.074 0,0.304 0.762,1.515 0.194,0.386 0.186,0.371 0.381,1.514 0.312,0.62 0.069,0.137 0.381,1.514 0.381,0.757 0.048,0.097 0.332,1.417 0.381,0.757 0,0.167 0,0.211 0.381,1.136 0.286,0.569 0.095,0.188 0.38,1.514 0.381,0.757 0.022,0.044 0.359,1.092 0.381,0.757 0,0.139 0,0.239 0.761,1.136 0.259,0.513 0.122,0.244 0,0.378 0.375,1.117 0.006,0.019 0.381,0.757 0.38,1.135 0.127,0.251 0.254,0.506 0.381,1.515 0.232,0.46 0.149,0.297 0.381,1.135 0.35,0.697 0.03,0.06 0,0.379 0.762,1.135 0.083,0.166 0.298,0.591 0,0.379 0.204,0.61 0.177,0.525 0,0.379 0,0.319 0,0.06 0,0.816 0,0.319 0,0.379 0,0.177 0,0.201 0,0.189 0.38,0.947 0.152,0.151 0.229,0.227 0,0.379 0,0.189 1.142,0.189 0.212,0.21 0.169,0.169 0.381,0 0.19,0 0.572,-0.757 0.3,-0.299 0.08,-0.08 0.381,-0.378 0.762,-1.136 0.07,-0.105 0.31,-0.652 0.381,-1.135 0.159,-0.316 0.222,-0.442 0.762,-1.514 0.275,-0.547 0.105,-0.21 0.762,-1.892 0.381,-1.136 0.146,-0.435 0.615,-1.836 0.762,-2.271 0.761,-1.893 0.381,-1.135 0.677,-1.122 0.466,-0.771 0.761,-1.892 0.762,-1.893 0.018,-0.045 0.743,-1.848 0.762,-2.271 0.255,-0.634 0.506,-1.258 0.381,-1.136 0.742,-1.229 0.401,-0.663 0.761,-1.893 0.725,-2.163 0.037,-0.108 0.38,-1.136 1.143,-1.892 0.204,-0.507 0.557,-1.386 0.762,-2.271 0.442,-1.099 0.319,-0.794 0.381,-1.135 0.675,-2.012 0.087,-0.259 0.761,-1.893 0.762,-2.271 0.145,-0.361 0.617,-1.532 0.38,-1.892 0.387,-1.154 0.375,-1.117 0.761,-2.271 0.622,-1.855 0.14,-0.417 0.381,-2.271 0.381,-2.271 0.049,-0.293 0.331,-1.978 0.381,-2.271 0.334,-0.997 0.428,-1.274 0.38,-2.271 0.284,-1.412 0.097,-0.481 0.381,-1.893 0.381,-1.892 0.037,-0.184 0.344,-0.952 0.38,-1.892 0.176,-0.525 0.205,-0.611 0.762,-1.892 0.381,-1.136 0.039,-0.117 0.341,-2.154 0.381,-1.136 0.762,-1.892 0.38,-1.136 0.151,-0.746 0.23,-1.146 0.381,-1.136 0.263,-1.309 0.118,-0.584 0.381,-1.135 0.38,-2.271 0.005,-0.027 0.376,-1.109 0.381,-1.892 0.127,-0.378 0.254,-0.758 0.38,-1.892 0.241,-0.716 0.14,-0.42 0.381,-1.893 0.356,-1.062 0.025,-0.073 0.381,-1.893 0.38,-1.135 0.094,-0.467 0.287,-1.426 0.381,-1.135 0,-0.209 0,-0.17 0.381,-1.514 0,-0.657 0,-0.1 0,-0.379 0.381,-1.135 0.069,-0.137 0.311,-0.62 0,-0.379 0,-0.552 0,-0.583 0,-0.757 0,-0.301 0,-0.078 0.381,-1.135 0.381,-0.757 0.038,-0.075 -0.038,-0.304 0.761,-1.135 0.159,-0.315 0.222,-0.443 0,-0.378 0.276,-0.823 0.105,-0.313 0.381,-0.378 0,-0.379 0,-0.011 0,-1.124 0,-0.379 0,-0.249 0,-0.129 0,-0.19 0.761,0.947 0.381,0.378 0,0.356 0,0.023 0,0.189 0.381,0.946 0,0.379 0,0.378 0,0.077 0,1.059 0,0.379 0,0.309 0,0.069 0,0.189 0,0.947 0,0.378 0,0.379 0,0.189 0,0.946 0,0.379 0,0.378 0,0.136 0,1 0,0.378 0,0.37 0,0.009 0,1.135 0,0.379 0,0.226 0,0.152 0,0.19 0,0.946 0,0.757 0,0.083 0,0.295 0,0.19 0,0.946 0,0.64 0,0.117 0,0.379 0,1.135 0,0.757 0,0.379 0,1.135 0,0.583 0,0.174 0,0.379 0,1.135 0,0.084 0,0.673 0,0.379 0,0.439 0,0.697 0,0.757 0,0.263 0,0.115 0,1.136 0,0.757 0,10e-4 0,0.377 0,1.136 0,0.12 0,0.258 0,0.379 0,0.713 0,0.422 0,0.379 0,0.353 0,0.025 0,1.136 0,0.378 0,0.379 0,0.621 0,0.514 0,0.758 0,0.326 0,0.052 0,1.136 0,0.757 0,0.065 0,0.313 0,1.136 0,0.378 0,0.379 0,0.189 0,0.946 0,0.037 0,0.342 0,0.378 0,0.155 0,0.981 0,0.378 0,0.379 0,0.013 0.761,1.123 0.381,0.378 0.249,0.247 0.132,0.132 0.19,0.189 0.191,0.946 0.381,0.379 0,0.098 0,0.28 0.38,1.136 0.34,0.337 0.041,0.041 0,0.379 0.762,1.135 0.193,0.192 0.188,0.187 0.38,0.378 0.191,0.19 0.952,0.946 0.05,0.05 0.33,0.328 0.381,0.379 0.191,0.189 0.952,0.568 0.38,0.379 0.071,0.07 0.31,-0.07 0.191,0 0.951,0.378 0.304,0 0.077,0 0.381,0 1.142,0 0.161,0 0.22,0 0.381,0 0.19,0 0.952,0 0.381,0 0.381,0 0.129,0 1.013,0.378 0.381,0 0.368,0 0.013,0 0.19,0 0.952,0 0.341,0 0.04,0 0.381,0 0.19,0 0.952,0.379 0.314,0 0.067,0 0.381,0 0.19,0 0.952,0.379 0.381,0 0.381,0 0.19,0 0.952,0 0.256,0 0.125,0 0.38,0 0.191,0 0.952,0 0.345,0 0.036,0 0.38,0 1.143,0 0.289,0 0.091,0 0.381,0 0.191,0 0.571,-0.758 0.381,-0.378 0,-0.378 0.38,-1.136 0.01,-0.028 0.371,-0.351 0,-0.378 0,-0.146 0.381,-0.99 0.381,-0.378 0,-0.379 0,0 0.38,-1.133 0.381,-0.379 0,-0.243 0,-0.135 0.381,-1.136 0.375,-0.372 0.006,-0.01 0,-0.379 0.761,-1.135 0.381,-0.757 0,-0.379 0.575,-0.857 0.187,-0.279 0.381,-0.757 0,-0.378 0.38,-1.136 0.381,-0.757 0.145,-0.432 0.236,-0.703 0.381,-0.757 0.38,-1.136 0.381,-0.757 0.381,-1.514 0,0 0.381,-0.755 0.381,-1.136 0,-0.757 0,-1.135 0,-0.317 0,-0.44 0.38,-1.136 0,-0.7 0,-0.057 0.381,-1.892 0,-0.757 0.381,-1.514 0,-0.758 0.205,-0.815 0.176,-0.699 0,-0.757 0,-1.514 0,-0.757 0,-1.514 0,-0.238 0,-0.519 0.38,-1.135 0,-0.757 0,-0.379 0.295,-0.879 0.086,-0.257 0,-0.757 0,-0.378 0,-1.136 0,-0.757 0,-0.157 0,-0.221 0,-1.136 0,-0.529 0,-0.228 0,-0.378 0,-1.136 0,-0.378 0,-0.127 0,-0.252 0,-1.135 0,-0.359 0,-0.02 0,-0.378 0,-0.19 0,-0.946 0,-0.379 0,-0.378 0,-0.189 0,0.189 0,0.757 0,0.378 0,0.102 0,0.277 0,1.191 0,0.323 0,0.757 0.381,2.271 0,2.271 0,2.271 0.074,0.442 0.307,1.83 0,2.271 0,2.271 0,2.271 0,1.85 0,0.421 0,1.893 0,1.892 0,1.893 0,1.892 0,0.377 0,1.516 0,1.135 0,1.893 0,1.893 -0.381,1.892 -0.022,0.112 -0.359,1.781 -0.381,1.892 -0.38,2.272 -0.381,1.892 -0.304,1.511 -0.077,0.382 -0.381,2.271 -0.38,2.271 -0.048,0.283 -0.333,1.988 -0.381,2.271 -0.381,2.271 -0.381,2.65 -0.266,1.851 -0.114,0.799 -0.381,2.271 -0.381,1.892 -0.381,1.893 -0.38,2.271 0,0.817 0,1.454 0,2.271 0,1.493 0,0.778 -0.381,2.271 -0.381,2.272 0,2.271 0,2.271 0,2.271 0,1.893 0,1.17 0,0.722 0,2.271 0,2.271 0,2.65 0,3.028 0,0.64 0,2.01 0,2.649 0,2.272 0,2.271 0,1.691 0,0.201 0,1.893 0,1.892 0,1.893 0,1.893 -0.195,0.969 -0.186,0.923 0,1.136 -0.381,1.892 0,1.136 0,2.271 0,0.316 0,0.82 0,1.514 0,0.757 0,1.514 0,0.517 0,0.24 0,1.514 0,0.757 0,0.379 0,1.514 0,0.309 0,0.448 0,0.378 0,1.136 0,0.378 0,0.379 0,0.01 0,1.125 0,0.379 0,0.244 0,0.134 0,1.136 0,0.378 0,0.101 0,0.278 0,0.189 0,-0.189 -0.761,-1.136 -0.381,-0.378 0,-1.514 0,-0.562 0,-0.195 0,-1.514 0,-0.757 0,-1.514 0,-0.757 0,-0.146 0,-1.369 0,-0.757 0,-1.514 0,-0.757 0,-1.858 0,-0.034 0,-0.757 0.381,-1.893 0.381,-1.136 0.38,-2.271 0.227,-0.676 0.154,-0.459 0.381,-2.271 0.381,-1.893 0.381,-2.271 0.38,-1.893 0.009,-0.025 0.372,-1.11 0.381,-2.271 0,-1.136 0.381,-2.271 0,-1.088 0,-0.048 0.38,-2.271 0.381,-1.135 0.381,-2.271 0.381,-1.136 0.218,-1.087 0.163,-0.805 0.38,-1.136 0.381,-1.893 0.381,-1.135 0.381,-1.893 0.073,-0.217 0.307,-0.918 0.381,-1.893 0.381,-1.135 0.381,-1.514 0,-0.617 0,-0.141 0.381,-1.892 0.38,-0.757 0.381,-1.893 0.381,-0.757 0.163,-0.65 0.218,-0.864 0,-0.757 0.381,-1.135 0.38,-0.758 0,-0.378 0,-0.019 0.762,-1.117 0.381,-0.757 0,-0.378 0.761,-1.136 0.253,-0.503 0.128,-0.254 0.762,-1.892 0.38,-0.757 0.762,-1.514 0.381,-0.758 0.11,-0.109 0.27,-0.269 0.762,-1.136 0.381,-0.757 0,-0.378 0.689,-1.028 0.072,-0.108 0.381,-0.757 0,-0.378 1.143,-1.136 0.38,-0.378 0.2,-0.199 0.181,-0.18 1.142,-0.757 0.381,-0.378 0.381,0 0.19,0 0.952,-1.136 0.762,-0.378 0.381,-0.379 0.19,-0.189 0.952,-0.19 0.381,-0.378 0.381,0 1.142,-0.379 0.381,0 0.296,0 0.085,0 1.142,0 0.381,0 0.152,0 0.228,0 1.143,-0.378 0.761,0 0.014,0 0.367,0 1.523,0 0.762,0 1.142,0 0.484,0 0.278,0 0.38,0 1.143,0 0.761,0 0.381,0 0.29,0 0.853,0 0.38,0 0.381,0 1.142,0 0.355,0 0.026,0 0.381,0 1.142,0.378 0.762,0.379 0.381,0 0.736,0.488 0.406,0.269 0.762,0.379 0.38,0 1.143,1.135 0.761,0.379 0.1,0.099 0.281,0.279 1.142,1.136 0.762,0.757 0.381,0.378 1.005,0.999 0.137,0.137 0.762,0.757 0.38,0.378 1.143,1.136 0.19,0.378 0.191,0.379 0.38,0.378 0.762,1.136 0.381,0.757 0,0.379 0,0.043 0.761,1.092 0.381,0.757 0,0.379 0.762,1.135 0.279,0.556 0.101,0.201 0.381,0.379 0.381,1.135 0,0.757 0,0.379 0.134,0.399 0.247,0.736 0.381,0.379 0,0.379 0.38,1.135 0.37,0.735 0.011,0.022 0,0.379 0.381,1.135 0.381,0.757 0,0.379 0.224,0.668 0.156,0.467 0,0.757 0,0.379 0,1.135 0,0.757 0,0.078 0,0.301 0,1.136 0,0.757 0,0.378 0.314,0.934 0.067,0.202 0,0.757 0,0.378 0.381,1.136 0.167,0.332 0.214,0.425 0,0.378 0.381,1.136 0.38,0.378 0,0.379 0,0.021 0.381,1.114 0,0.758 0,0.378 0,1.136 0,0.519 0,0.238 0,0.378 0,1.136 0,0.378 0,0.379 0,0.336 0,0.799 0,0.379 0,0.378 0,1.136 0,0.692 0,0.065 0,0.378 0.381,1.514 0,0.758 0.381,1.135 0,0.403 0,0.354 0,0.379 0,1.135 0,0.757 0,0.379 0,0.058 0,1.077 0,0.757 0,0.379 0.381,1.135 0,0.583 0,0.174 0,0.379 0.38,1.136 0,0.378 0,0.146 0,0.233 0.762,1.135 0.381,0.379 0,10e-4 0,0.377 0,1.136 0,0.234 0,0.144 0,0.379 0,1.135 0,0.09 0,0.289 0,0.378 0,1.081 0,0.055 0,0.379 0,0.378 0,0.189 0,0.947 0,0.378 0,0.379 0,0.189 1.142,0.568 0.381,0.378 0.124,0.124 0.257,0.255 0.19,0.189 0.952,0.189 0.381,0.379 0.069,0.069 0.311,-0.069 0.191,0 0.952,0.378 0.206,0.205 0.175,0.174 0.38,0 0.191,0 0.952,0.378 0.381,0 0.38,0 0.036,0 1.107,0.379 0.38,0 0.24,0 0.141,0 0.97,0 0.173,0 0.38,0 0.381,0 0.191,0 0.951,0 0.183,0 0.198,0 0.381,0 0.19,0 0.952,0.378 0.381,0 0.381,0 0.19,0 0.952,0 0.762,0 0.126,0 0.255,0 1.142,0 0.381,0 0.362,0 0.019,0 1.142,0 0.381,0 0.38,0 0.191,0 0.952,-0.378 0.761,-0.379 0.381,0 0.191,0 0.952,-1.135 0.38,-0.379 0.381,-0.378 1.134,-0.752 0.008,-0.01 0.381,-0.379 0.381,0 1.523,-1.514 0.762,-0.757 0.93,-0.924 0.593,-0.59 0.761,-0.757 0.381,-0.379 1.143,-1.135 0.761,-0.757 0.251,-0.333 0.891,-1.181 0.381,-0.757 1.143,-1.893 0.761,-0.757 0.966,-1.6 0.176,-0.293 0.762,-0.757 1.523,-1.892 0.762,-0.757 1.142,-1.893 0.353,-0.526 0.409,-0.609 1.142,-1.893 0.381,-1.136 0.761,-1.892 0.381,-1.136 0.03,-0.089 0.351,-1.803 0.381,-1.136 0.38,-1.892 0.381,-1.136 0.266,-1.322 0.115,-0.571 0.381,-1.135 0.381,-1.893 0.38,-1.135 0.381,-1.893 0.176,-0.525 0.205,-0.61 0,-1.515 0,-0.757 0.381,-1.892 0,-0.707 0,-0.05 0,-1.893 0,-1.135 0.381,-1.893 0,-1.136 0,-1.039 0,-0.853 0,-1.136 0,-1.892 0,-0.757 0,-1.893 0,-0.188 0,-0.947 0,-1.893 0,-1.136 0,-1.892 0,-0.891 0,-0.245 0,-1.892 0,-0.757 0,-1.514 0,-0.758 0,-0.152 0,-0.226 0,-1.514 0,-0.757 0,-0.379 0,-1.135 0,-0.021 0,-0.736 0,-0.379 0,-1.135 0,-0.242 0,-0.137 0,-0.378 0,-1.136 0,-0.098 0,-0.28 0,-0.379 0,-0.189 0,0.189 0,0.757 0,0.378 0,0.379 0,0.013 0,1.123 0,0.757 0,1.135 0,0.494 0,0.263 0,1.514 0,0.757 0,0.379 0,1.514 0,0.205 0,0.552 0,1.514 0,0.757 0,1.514 0,0.67 0,0.087 0,1.514 0,0.757 0,1.136 0,0.757 0,0.191 0,0.187 0,1.136 0,0.757 0,0.379 0,1.135 0,0.145 0,0.612 0,0.379 0,1.135 0,0.757 0,1.12 0,0.394 0,0.757 0,1.515 0,0.756 0,1.136 0,0.269 0,0.488 0,1.514 0,0.757 0,1.514 0,0.738 0,0.019 0,1.514 0,0.758 0,1.514 0,0.757 0,0.975 0,0.539 0,0.757 0,1.514 0,0.757 0.38,1.135 0,0.256 0,0.501 0,1.136 0,0.757 0,1.514 0,0.721 0,0.036 0,1.514 0,0.757 0.381,1.514 0,0.757 0.216,0.86 0.165,0.654 0.381,0.757 0.38,1.515 0,0.757 0,1.514 0,0.196 0,0.561 0,0.378 0,1.136 0,0.757 0,0.378 0,0.014 0.381,1.122 0,0.757 0,0.378 0,1.136 0,0.54 0,0.217 0,0.379 0.381,1.135 0.381,0.757 0,0.379 0.253,0.378 0.508,0.757 0.381,0.379 0,0.378 0.762,1.136 0.361,0.718 0.019,0.039 0,0.378 0.762,1.136 0.381,0.757 0,0.378 0.349,0.522 0.412,0.614 0.381,0.757 0,0.379 0.762,1.135 0.381,0.379 0,0.069 0,0.309 1.142,1.136 0.381,0.378 0.916,0.608 0.226,0.149 0.762,0.379 1.142,0.757 0.761,0.378 0.381,0 0.64,0.318 0.883,0.439 0.762,0.379 0.381,0 1.142,0 0.746,0 0.016,0 1.523,0 0.761,0 0.381,0 1.142,0 0.457,0 0.305,0 0.381,0 1.142,-0.379 0.381,-0.378 0.381,0 0.243,-0.161 0.899,-0.596 0.381,-0.379 0.381,0 1.523,-0.757 0.633,-0.315 0.128,-0.063 0.381,-0.379 0.762,-1.135 0.38,-0.757 1.143,-1.136 0.171,-0.341 0.21,-0.416 1.142,-1.514 0.381,-0.757 0.761,-1.514 0.381,-0.757 0.027,-0.054 1.115,-1.839 0.762,-1.135 1.142,-1.893 0.381,-1.135 0.6,-1.194 0.542,-1.078 0.762,-1.892 0.381,-1.136 1.142,-1.892 0.381,-1.136 0.238,-0.591 0.523,-1.301 0.381,-1.136 0.381,-1.893 0.381,-1.135 0.351,-1.745 0.03,-0.148 0.38,-1.135 0.381,-1.893 0.381,-1.135 0.381,-1.893 0.158,-0.472 0.223,-0.664 0.38,-1.892 0.381,-1.136 0.381,-1.892 0.381,-1.136 0.07,-0.351 0.31,-1.541 0,-0.758 0,-1.514 0,-0.757 0,-1.073 0,-0.441 0,-0.757 0,-1.514 0,-0.757 0.381,-1.892 0.034,-0.169 0.347,-0.589 0,-1.514 0,-0.757 0,-1.514 0,-0.456 0,-0.301 0,-0.378 0,-1.514 0,-0.757 0.368,-1.462 0.013,-0.052 0,-0.758 0,-0.378 0,-1.514 0,-0.757 0,-0.352 0,-0.027 0,-1.135 0,-0.379 0,-0.378 0,-0.19 0,-0.946 0,-0.378 0,-0.379 0,-0.189 0,-0.946 0,-0.379 0,-0.378 0,-0.19 0,0.947 0,0.22 0,0.158 0,1.514 0,0.757 0.381,2.271 0,1.893 0,0.203 0,0.932 0,1.515 0,0.757 0,1.892 0,0.646 0,0.111 0,1.893 0,1.135 0,1.893 0,0.757 0,1.074 0,1.197 0,1.893 0,1.892 0,1.136 -0.381,1.893 -0.035,0.172 0.035,0.963 -0.381,1.893 -0.381,1.135 -0.381,1.893 -0.269,1.338 -0.111,0.554 -0.381,1.893 -0.381,2.271 -0.381,2.65 -0.38,2.649 -0.129,0.765 -0.252,1.506 -0.381,2.272 0,2.271 -0.381,2.271 -0.358,2.139 -0.023,0.132 -0.38,2.271 -0.381,2.65 -0.381,2.271 0,2.271 -0.212,1.056 -0.169,0.836 -0.381,1.893 0,1.893 0,1.135 0,1.893 0,0.2 0,0.935 -0.38,1.893 -0.381,1.893 0,1.135 -0.302,1.501 -0.079,0.392 -0.381,1.135 -0.38,1.893 -0.381,0.757 -0.381,2.271 -0.31,0.771 -0.452,1.122 -0.38,1.892 -0.381,1.136 -0.381,1.892 -0.381,0.758 -0.011,0.021 -0.369,1.492 -0.381,0.758 0,1.514 0,0.757 0,1.229 0,0.663 0,0.757 0,1.514 0,0.757 0,1.515 0,0.196 0,0.561 0,0.378 -0.381,1.136 -0.381,0.757 0,0.333 0,0.045 -0.761,1.136 -0.381,0.757 0,0.378 -0.762,1.136 -0.188,0.374 -0.193,0.383 0,0.378 -0.38,1.136 0,0.757 -0.381,1.514 -0.043,0.172 0.043,0.585 -0.381,1.136 -0.381,0.757 0,0.378 -0.556,1.107 -0.205,0.407 -0.381,0.757 -0.381,1.514 -0.381,0.757 -0.38,1.514 0,0.347 0,0.411 -0.381,1.514 -0.381,0.757 -0.381,1.514 -0.38,0.757 -0.05,0.098 -0.331,1.416 -0.381,0.757 -0.381,1.514 -0.381,0.757 -0.283,1.127 -0.097,0.387 -0.381,0.757 -0.381,1.514 -0.381,0.757 -0.381,1.514 -0.137,0.274 -0.243,0.483 -0.381,1.514 -0.381,0.757 0,0.379 -0.747,1.485 -0.014,0.029 -0.381,0.757 0,0.379 -0.762,1.135 -0.381,0.757 0,0.226 0,0.153 -0.761,1.135 -0.381,0.757 -0.381,0.379 -0.159,0.238 -0.602,0.897 -0.381,0.757 0,0.379 -0.697,1.039 -0.065,0.096 -0.38,0.379 -0.381,0.379 -0.931,0.925 -0.212,0.21 -0.38,0.379 -0.381,0.378 -0.19,0.189 -0.952,0.947 -0.381,0.378 -0.381,0.379 -1.142,0.757 -0.521,0.259 -0.241,0.119 -0.381,0 -1.523,0.757 -0.761,0.379 -1.143,0.378 -0.235,0.117 -0.526,0.262 -1.523,0.378 -0.762,0.379 -0.381,0 -1.049,0.695 -0.093,0.062 -0.762,0.378 -1.142,0.379 -0.762,0.379 -1.523,0.378 -0.408,0 -0.353,0 -1.143,0 -0.761,0 -0.381,0 -1.142,0 -0.179,0 -0.583,0 -0.381,0 -1.142,0 -0.762,0 -0.294,0 -0.086,0 -1.523,0 -0.762,0 -1.523,-0.378 -0.762,0 -0.596,-0.149 -0.927,-0.23 -0.761,0 -1.524,-0.379 -0.761,-0.378 -1.523,-0.378 -0.015,0 -0.747,0 -1.523,-0.379 -0.762,-0.379 -1.142,-0.378 -0.477,-0.237 -0.284,-0.142 -1.143,-0.378 -0.761,0 -0.381,0 -1.523,-0.757 -0.187,-0.093 -0.575,-0.286 -1.142,-0.757 -0.762,-0.378 -0.381,-0.379 -0.985,-0.98 -0.157,-0.155 -0.761,-0.757 -0.381,-0.379 -1.143,-1.135 -0.761,-0.758 -0.57,-0.754 -0.572,-0.76 -0.762,-0.757 -1.142,-1.892 -0.381,-0.757 -1.143,-1.514 -0.074,-0.148 -0.306,-0.609 -0.381,-0.379 -1.142,-1.514 -0.381,-0.757 -0.64,-1.272 -0.122,-0.242 -0.381,-0.757 0,-0.379 -0.761,-1.514 -0.381,-0.757 -0.188,-0.746 -0.193,-0.768 0,-0.757 0,-1.135 0,-0.757 0,-1.136 0,-0.171 0,-0.586 0,-1.514 0,-0.757 0.381,-1.514 0,-0.579 0,-0.178 0,-0.379 0.762,-1.135 0.38,-0.757 0,-0.379 0.292,-0.434 0.47,-0.701 0.381,-0.758 0,-0.378 0.761,-1.136 0.38,-0.754 10e-4,0 0,-0.378 0.762,-1.136 0.38,-0.378 0,-0.379 0,-0.189 1.143,-0.946 0.761,-0.757 0.381,-0.379 0.704,-0.467 0.439,-0.29 0.38,-0.378 0.381,-0.379 0.19,-0.189 0.952,-0.568 0.381,-0.378 0.381,0 0.836,0 0.306,0 0.381,0 0.381,0 1.142,0 0.762,0 0.065,0 0.316,0 1.142,0 0.381,0 0.29,0 0.091,0 1.142,0 0.381,0 0.38,0 1.143,0 0.55,0 0.211,0 0.381,0 1.142,0 0.381,0 0.381,0 0,0 1.142,-0.379 0.762,0 1.523,-0.378 0.762,0 0.706,0 0.436,0 0.762,0 0.38,0 1.143,0 0.761,0 0.178,0 0.203,0 1.142,0 0.762,0 0.381,0 1.142,0 0.762,0 0.38,0 0.068,0 1.075,0 0.761,0 0.381,0 0.922,0 0.22,0 0.762,0 0.381,0 1.142,0 0.762,0 0.16,0 0.221,0 1.142,0 0.761,0 0.381,0 1.143,0 0.047,0 0.333,0 0.381,0 1.142,0.378 0.363,0 0.018,0 0.381,0 1.142,0.379 0.381,0 0.106,0 0.275,0 1.142,0 0.381,0 0.381,0 1.021,0 0.121,0 0.762,0 0.381,0 1.142,0 0.761,0 0.195,0 0.186,0 1.143,0 0.38,0 0.05,0 0.331,0 1.142,0 0.285,0 0.096,0 0.381,0 1.142,0 0.184,0 0.197,0 0.381,0 1.142,0 0.005,0 0.376,0 0.381,0 1,0 0.142,0 0.381,0 0.381,0 0.855,0 0.287,0 0.381,0 0.381,0 0.19,0 0.952,0 0.381,0 0.381,0 0.846,0 0.296,0 0.381,0 0.381,0 0.19,0 0.952,0 0.761,0 0.381,0 1.143,0 0.543,0 0.218,0 0.381,0 1.142,0 0.255,0 0.507,0 0.381,0 1.142,0 0.762,0 0.38,0 0.097,0 1.046,0 0.38,0 0.381,0 0.191,0 0.952,0 0.38,0 0.381,0 1.523,0 0.219,0 0.543,0 0.381,0 1.523,0 0.761,0 1.036,0 0.107,0 0.761,0 1.904,0 0.762,0 1.523,0 0.398,0 0.363,0 1.524,0 0.761,0 1.142,-0.379 0.762,-0.378 0.104,-0.052 1.8,-0.706 0.761,-0.378 1.904,-0.379 1.143,-0.378 1.244,-0.309 0.279,-0.07 0.761,-0.378 1.904,-0.379 1.143,-0.378 1.904,-0.379 0.501,-0.166 0.641,-0.212 1.523,-0.379 0.762,-0.378 1.523,-0.757 0.761,-0.379 0.044,-0.021 1.479,-0.357 0.762,-0.379 1.904,-0.378 0.761,-0.379 1.03,-0.256 0.494,-0.122 0.761,-0.379 0.381,0 1.142,-0.757 0.762,-0.378 0.335,-0.111 0.807,-0.268 0.762,-0.378 1.142,-0.758 0.762,-0.378 1.438,-0.715 0.085,-0.042 0.761,-0.379 0.381,0 1.143,-0.757 0.761,-0.378 0.214,0 0.167,0 1.142,-0.757 0.762,-0.379 0.381,0 1.142,-0.757 0.137,-0.068 0.624,-0.31 0.381,0 1.143,-1.136 0.609,-0.303 0.152,-0.075 1.143,-1.136 0.761,-0.378 0.381,-0.379 1.142,-0.757 0.381,-0.379 0.381,0 1.142,-1.135 0.013,-0.013 0.368,-0.366 0.381,-0.378 0.761,-1.136 0.248,-0.246 0.133,-0.132 0.381,-0.379 0.761,-1.135 0.381,-0.757 0,-0.379 0.205,-0.306 0.557,-0.829 0.381,-0.757 0,-0.379 0.761,-1.136 0.337,-0.67 0.044,-0.087 0,-0.378 0.761,-1.136 0.381,-0.378 0,-0.379 0.386,-0.575 0.376,-0.56 0.381,-0.757 0,-0.379 0.761,-1.135 0.381,-0.757 0.05,-0.099 -0.05,-0.28 0.761,-1.135 0.381,-0.757 0.381,-1.136 0.282,-0.56 0.099,-0.197 0,-0.379 0.381,-1.514 0.38,-0.757 0,-1.514 0,-0.271 0,-0.486 0.381,-1.514 0,-0.757 0.381,-1.514 0,-0.739 0,-0.018 0,-1.514 0,-0.757 0.381,-1.514 0,-0.757 0.225,-0.894 0.156,-0.62 0.38,-0.757 0.381,-1.515 0,-0.757 0.381,-1.892 0,-0.385 0,-0.751 0.381,-1.892 0,-1.136 0.38,-1.892 0,-1.128 0,-0.01 0,-1.893 0,-0.757 0,-1.514 0,-0.757 0,-0.922 0,-0.592 0,-0.757 0,-1.514 0,-0.757 0.381,-1.514 0,-0.173 0,-0.584 0.381,-1.514 0.381,-0.757 0,-1.514 0,-0.639 0,-0.118 0.381,-1.514 0,-0.757 0,-0.379 0,-1.514 0,-0.348 0,-0.409 0.38,-1.514 0,-0.757 0.381,-1.514 0,-0.757 0,-0.06 0,-1.454 0,-0.757 0,-1.515 0,-0.756 0,-1.054 0,-0.461 0,-0.757 0,-1.514 0,-0.757 0,-1.514 0,-0.757 0,-1.135 0,-0.479 0,-0.278 0,-1.893 0,-0.757 0,-1.514 0,-0.757 0,-0.103 0,-0.276 0,-1.135 0,-0.757 0,-0.379 0,-1.01 0,-0.125 0,-0.757 0,-0.379 0,-1.135 0,-0.758 0,-0.378 0.381,-1.136 0,-0.625 0,-0.132 0,-0.378 0,-1.136 0,-0.163 0,-0.215 0,-0.379 0,-0.189 0,1.325 0,0.757 0,0.161 0,1.353 0,0.757 0,1.893 0,1.135 0,1.567 0,0.326 0,1.135 0,1.893 0,0.757 0,1.514 0,0.757 0,1.514 0,0.571 0,0.186 0,0.379 0,1.514 0,0.757 0,1.135 0,0.757 0,1.514 0,0.52 0,0.237 0,0.379 0,1.135 0,0.758 0,1.135 0,0.235 0,0.522 0,1.514 0,0.757 0,1.514 0,0.692 0,0.065 0,1.515 0,0.757 0,1.514 0,0.757 0,1.514 0,0.757 0,1.788 0,0.104 0,1.893 0,1.893 0,1.892 0,0.757 0,1.893 0,0.757 0,1.4 0,0.492 0,1.136 0,1.893 0,0.757 0,1.514 0,0.328 0,0.429 -0.381,1.514 0,0.757 -0.381,1.514 0,0.757 0,0.053 0,0.325 0,1.514 0,0.758 0,0.378 -0.38,1.136 0,0.757 0,0.378 0,0.09 -0.381,1.046 0,0.757 0,0.378 0,1.136 0,0.682 0,0.075 0,0.378 0,1.136 0,0.757 0,0.379 0,0.961 0,0.174 0,0.379 0,0.378 0,0.189 0,0.947 0,0.378 0,0.379 0,0.189 -1.143,-0.189 -0.004,0 -0.376,0 -0.381,0 -0.381,-1.514 0,-0.757 -0.254,-1.011 -0.127,-0.503 0,-0.758 0,-1.514 0,-0.757 0,-1.892 0,-1.136 0.381,-1.892 0,-0.745 0,-0.391 0.381,-2.271 0.381,-1.136 0.38,-2.271 0.381,-1.135 0.104,-0.518 0.277,-1.375 0.381,-1.892 0.381,-1.136 0.761,-1.893 0.381,-1.135 0.381,-1.893 0.38,-1.135 0.077,-0.379 0.304,-1.514 0.381,-1.135 0.381,-1.893 0.381,-1.136 0.761,-1.892 0.381,-1.136 0.762,-1.514 0.107,-0.214 0.273,-0.543 0.762,-1.135 0.381,-0.757 0.761,-1.893 0.282,-0.561 0.099,-0.196 1.142,-1.893 0.381,-0.757 0.381,-0.378 0.761,-1.514 0.381,-0.757 0,-0.379 0.508,-0.757 0.254,-0.379 0.381,-0.756 0.761,-1.136 0.381,-0.757 0.762,-1.136 0.38,-0.757 0.381,-0.378 0.677,-0.673 0.465,-0.463 0.762,-0.757 0.381,-0.378 1.142,-1.136 0.381,-0.378 0.381,-0.379 1.142,-0.757 0.137,-0.136 0.244,-0.242 0.381,0 1.142,-0.758 0.381,-0.378 0.381,0 0.147,0 0.995,0 0.381,0 0.38,0 0.002,0 1.141,0 0.381,0 0.38,0 0.191,0 0.952,0 0.38,0 0.381,0 0.191,0 0.952,0.378 0.38,0 0.381,0 1.059,1.053 0.084,0.083 0.38,0.379 0.381,0.378 1.142,1.136 0.381,0.378 0.267,0.266 0.114,0.113 1.142,1.135 0.381,0.379 0.381,0.378 0.19,0.19 0.952,0.946 0.381,0.378 0.381,0.379 0.761,1.135 0.381,0.379 0,0.378 0.42,0.836 0.342,0.678 0.381,0.758 0,0.378 0.38,1.136 0,0.757 0,0.378 0,1.136 0,0.359 0,0.398 0,0.378 0,1.136 0,0.757 0,0.378 0,1.136 0,0.151 0,0.228 0,0.378 0,1.136 0,0.378 0,0.379 0,0.123 0,1.012 0,0.379 0,0.378 0,0.189 0.762,-0.946 0.155,-0.154 0.226,-0.224 0.38,-0.379 0.762,-1.135 0.381,-0.757 0.381,-0.379 0.761,-1.135 0.153,-0.304 0.228,-0.454 0,-0.378 0.761,-1.514 0.381,-0.757 1.143,-1.514 0.38,-0.757 1.143,-1.514 0.124,-0.248 0.257,-0.509 0.38,-0.379 0.762,-1.514 0.381,-0.757 0,-0.379 0.761,-1.135 0.381,-0.757 0.186,-0.277 0.576,-0.859 0.38,-0.757 0.762,-1.514 0.381,-0.757 0.38,-0.378 1.143,-1.136 0.381,-0.757 0.063,-0.063 0.317,-0.316 0.762,-1.135 0.381,-0.379 0,-0.378 1.142,-0.379 0.381,-0.378 0.034,-0.034 0.347,0.034 1.142,-0.757 0.381,-0.379 0.381,-0.378 0.19,-0.189 0.571,-0.947 0.381,-0.378 0.381,-0.379 1.142,-0.378 0.38,0 0.001,0 0.381,0 1.142,0 0.016,0 0.365,0 0.381,0 1.142,0.378 0.381,0.379 0.016,0.016 0.364,-0.016 1.143,0.757 0.381,0.378 0.38,0 0.191,0 0.571,1.136 0.381,0.378 0.38,0.379 1.102,1.095 0.041,0.04 0.381,0.379 0.38,0.378 0.762,1.136 0.381,0.757 0.381,0.379 0.619,0.923 0.142,0.212 0.381,0.757 0.761,1.136 0.381,0.757 0.762,1.514 0.381,0.757 0,0.378 0.564,0.842 0.197,0.294 0.381,0.757 0,0.379 0.761,1.135 0.381,0.757 0,0.379 0.762,1.135 0.25,0.498 0.131,0.259 0,0.379 0.38,1.135 0,0.757 0,0.379 0,1.135 0,0.757 0,0.22 0,0.159 0,1.136 0,0.757 0,0.378 0,1.136 0,0.757 0,0.378 0.115,0.342 0.266,0.794 0,0.757 0,0.378 0,1.136 0,0.378 0,0.379 0,1.135 0,0.322 0,0.436 0,0.378 0,1.136 0,0.757 0,0.378 0,1.136 0,0.378 0,0.133 0,0.246 0,1.135 0,0.379 0,0.378 0,1.136 0,0.103 0,0.275 0,0.379 0,1.135 0,0.757 0,0.379 0,0.83 0,0.306 0,0.757 0,0.378 0,1.136 0,0.378 0,0.046 0,0.333 0,1.135 0,0.379 0,0.378 0,0.19 0,0.946 0,0.378 0,0.379 0,1.135 0,0.366 0,0.013 0,0.378 0,1.136 0,0.379 0,0.378 0,0.189 0,0.947 0,0.378 0,0.379 0,1.064 0,0.071 0,0.379 0,0.378 0,1.136 0,0.378 0,0.277 0,0.102 0,1.136 0,0.378 0,0.378 0,0.19 0,0.946 0,0.379 0,0.378 0,0.189 0,0.947 0,0.378 0,0.379 0,0.189 0.381,0.946 0,0.379 0,0.378 0,0.19 1.14203,-0.19 0.381,0 0.381,0 0.955,0 0.187,0 0.381,0 0.381,0 1.142,0 0.381,0 0.038,0 0.343,0 1.142,0 0.381,0 0.381,0 0.19,0 0.952,0 0.381,0 0.38,0 1.038,0 0.105,0 0.381,0 0.38,0 1.143,0 0.381,0 0.274,0 0.106,0 1.143,0 0.38,0 0.381,0 1.523,-0.378 0.762,0 1.523,-0.379 0.612,0 0.15,0 1.523,-0.378 0.761,0 0.381,0 1.523,-0.757 0.762,-0.379 1.904,-0.757 0.909,-0.301 0.233,-0.077 1.904,-0.757 1.142,-0.379 1.904,-1.136 1.143,-0.378 1.903,-1.136 1.904,-0.757 1.367,-0.814 0.537,-0.321 0.762,-0.379 1.904,-1.135 1.142,-0.757 1.904,-1.514 0.762,-0.757 1.904,-1.136 0.796,-0.528 0.346,-0.229 1.904,-1.136 0.761,-0.757 1.904,-1.135 0.762,-0.379 1.523,-1.514 0.761,-0.757 0.959,-0.953 0.565,-0.561 0.761,-0.757 1.143,-1.514 0.761,-0.757 0.381,-0.379 0.761,-1.514 0.381,-0.757 0.211,-0.209 0.17,-0.169 0.762,-1.136 0.38,-0.757 0,-0.378 0.762,-1.514 0.381,-0.757 0.761,-1.136 0.182,-0.362 0.199,-0.395 0.762,-1.514 0.38,-0.757 0.381,-1.514 0.381,-0.757 0,-1.514 0,-0.757 0.153,-0.608 0.228,-0.906 0,-0.757 0,-1.893 0,-1.136 0,-1.514 0,-0.757 0,-1.514 0,-0.246 0,-0.511 0,-1.514 0,-0.757 -0.381,-1.514 0,-0.757 0,-0.379 -0.381,-1.514 0,-0.188 0,-0.569 0,-0.378 -0.761,-1.136 -0.381,-0.757 -0.381,-1.514 -0.381,-0.757 -0.381,-1.893 -0.081,-0.161 -0.299,-0.596 -0.381,-1.514 -0.381,-0.757 0,-0.378 -0.761,-1.514 -0.381,-0.757 0,-0.379 0,-0.075 -0.762,-1.06 -0.381,-0.757 -0.38,-0.379 -1.143,-1.135 -0.761,-0.758 -0.381,-0.378 -0.762,-1.136 -0.268,-0.399 -0.112,0.021 -0.381,-0.379 -1.143,-0.757 -0.38,-0.378 -0.381,-0.379 -0.19,-0.189 -0.952,-0.568 -0.381,-0.378 -0.381,0 -1.142,0 -0.381,0 -0.381,0 -1.027,0 -0.115,0 -0.762,0 -0.381,0 -1.142,0.378 -0.761,0 -0.381,0 -1.143,0.757 -0.627,0.312 -0.134,0.067 -0.381,0 -1.142,1.135 -0.762,0.379 -1.523,1.135 -0.762,0.379 -1.142,1.136 -0.528,0.524 -0.233,0.233 -1.143,1.514 -0.761,0.757 -1.143,1.514 -0.761,0.757 -1.143,1.514 -0.38,0.757 -0.703,0.931 -0.44,0.583 -0.381,0.757 -0.38,0.379 -0.762,1.135 -0.381,0.757 0,0.379 -0.761,1.514 -0.205,0.407 -0.176,0.35 -0.381,1.514 -0.381,0.757 0,0.378 -0.761,1.136 -0.381,0.757 -0.381,1.135 -0.176,0.35 -0.205,0.408 0,0.378 -0.38,1.136 0,0.757 0,0.378 -0.381,1.514 0,0.757 0,0.584 0,0.93 0,0.757 0,0.379 0,1.136 0,0.757 0,0.378 0,1.136 0,0.245 0,0.512 0,0.378 0,1.136 0,0.757 0,1.135 0,0.757 0,1.514 0,0.176 0,0.582 0,1.135 0,0.757 0,0.379 0,1.514 0,0.757 0,1.514 0,0.237 0,0.52 0.381,1.135 0,0.757 0,0.379 0,1.135 0,0.758 0.38,1.514 0.031,0.121 0.35,0.636 0.381,1.135 0.381,0.757 0,0.379 0.761,1.135 0.381,0.757 0,0.379 0,0.025 0.762,1.11 0.38,0.757 0,0.379 0.762,1.136 0.381,0.757 0,0.378 0,0.189 0.761,0.947 0.381,0.378 0.381,0.379 1.142,1.135 0.381,0.379 0.01,0.01 0.374,0.372 1.142,1.136 0.762,0.378 0.381,0.379 0.19,0.189 0.952,0.568 0.381,0.379 0.381,0.378 1.142,0.757 0.381,0.379 0.38,0 0.191,0 0.952,1.135 0.381,0.379 0.38,0.378 1.143,0.379 0.38,0.378 0.3,0 0.081,0 1.143,0.757 0.38,0.379 0.381,0.378 0.94,0.312 0.203,0.067 0.38,0.378 0.381,0 1.142,0.379 0.381,0 0.381,0 0.847,0.28 0.295,0.098 0.381,0 1.142,0 0.762,0 0.381,0 1.142,0 0.762,0 0.149,0 0.231,0 1.143,0.379 0.381,0 0.38,0 0.191,0 0.952,0 0.381,0 0.38,0 1.143,0.378 0.09,0 0.29,0 0.381,0 1.143,0 0.38,0 0.381,0 0.06,0 1.082,0 0.381,0 0.381,0 1.142,0 0.381,0 0.381,0 0.032,0 1.11,0 0.381,0 0.381,0 0.19,0 0.952,0 0.381,0 0.381,0 0.19,0 0.952,0 0.325,0 0.056,0 0.381,0 0.19,0 0.952,0 0.381,0 0.381,0 0.19,0 0.952,0 0.381,0 0.038,0 0.343,0 0.19,0 0.952,0 0.294,0 0.087,0 0.38,0 0.191,0 0.952,0 0.381,0 0.38,0 0.191,0 0.952,0 0.283,0 0.098,0 0.38,0 0.191,0 0.952,0 0.38,0 0.381,0 0.103,0 1.04,0 0.35,0 0.03,0 0.381,0 0.19,0 0.952,0 0.381,0 0.143,0 0.238,0 1.142,0 0.381,0 0.128,0 0.253,0 1.142,0 0.381,0 0.381,0 0.19,0 0.952,0 0.381,0 0.381,0 0.19,0 0.952,0 0.381,0 0.381,0 0.19,0 0.952,-0.378 0.381,-0.379 0.129,0 0.252,0 0.38,-1.135 0.381,-0.379 0,-0.378 0.36,-1.073 0.021,-0.063 0,-0.378 0,-0.379 0,-1.08 0,-0.055 0,-0.379 0,-0.378 0,-0.19 0,-0.946 0,-0.378 0,-0.379 0,-0.189 0,-0.947 0,-0.378 0,-0.198 0,-0.181 -0.762,-0.378 -0.38,-0.379 -0.171,0 -0.21,0 -1.143,0 -0.38,0 -0.381,0 -0.139,0 -1.003,0 -0.381,0 -0.381,0 -0.873,0 -0.269,0 -0.381,0 -0.381,0 -0.19,0 -0.952,0.379 -0.381,0.378 -0.381,0 -0.19,0 -0.191,1.136 0,0.378 0,0.379 0,0.189 -0.38,0.946 -0.381,0.379 0,0.379 0,0.189 -0.381,0.946 0,0.379 0,0.378 0,1.098 0,0.038 0,0.378 0,0.379 0,1.135 0,0.258 0,0.121 0,0.378 0,0.19 0,0.946 0,0.378 0,0.379 0,0.189 0,0.946 0,0.379 0,0.379 0,0.189 0,0.946 0,0.379 0,0.315 0,0.063 1.142,0.379 0.381,0 0.381,0 1.044,0.692 0.098,0.065 0.381,0.378 0.381,0 1.142,0.379 0.381,0.378 0.381,0 0.19,0 0.952,0 0.381,0 0.381,0 0.19,0 0.952,0 0.381,0 0.311,0 0.07,0 1.142,0 0.381,0 0.38,0 0.191,0 0.952,0 0.128,0 0.253,0 0.38,0 1.143,0 0.381,0 0.38,0 0.099,0 0.282,-1.135 0.381,-0.379 0,-0.378 0,-0.19 0,-0.946 0,-0.378 0,-0.379 0,-1.136 0,-0.378 0,-0.016 0,-0.363 0,-1.135 0,-0.379 0,-0.378 0,-0.024 0,-1.112 0,-0.378 0,-0.379 0,-0.031 -0.381,-1.104 -0.381,-0.379 0,-0.378 0,0 -1.142,-0.755 -0.381,-0.379 -0.381,0 -0.168,0 -0.974,-0.757 -0.381,-0.378 -0.381,0 -0.101,0 -0.279,-1.136 -0.381,-0.378 -0.043,-0.044 0.043,-0.335 -0.381,-1.136 0,-0.378 0,-0.379 0,-0.013 -0.381,-1.122 0,-0.379 0,-0.378 0,-0.19 0,-0.946 0,-0.378 0,-0.379 0,-0.189 0,-0.946 0,-0.379 0,-0.378 0,-1.136 0,-0.304 0,-0.075 0,-0.378 0,-1.136 0,-0.378 0,-0.379 0,-0.189 0,-0.946 0,-0.379 0,-0.378 0,-0.189 0.381,-0.947 0,-0.378 0,-0.379 0,-0.189 0,-0.946 0,-0.379 0,-0.378 0,-0.19 0.381,-0.946 0,-0.379 0,-0.378 0,-0.189 0.381,-0.947 0,-0.228 0,-0.15 0,-0.379 0,-0.189 0,-0.946 0,-0.379 0,-0.038 0,-0.34 0,-0.19 0,-0.946 0,-0.378 0,-0.379 0,-0.189 0,0.189 0,-1.135 0,-0.379 0,-0.378 0,-0.19 0,-0.946 0,-0.378 0,-0.297 0,-0.082 0,-1.136 0,-0.378 0,-0.379 0,-0.189 0,-0.946 0,-0.379 0,-0.378 0,-0.189 0,-0.947 0,-0.378 0,-0.379 0,-0.189 0,-0.946 0,-0.379 0,-0.378 0,-0.19 0,-0.946 0,-0.378 0,-0.379 0,-0.189 0.761,-0.946 0.381,-0.379 0.381,-0.379 0.761,-1.135 0.381,-0.379 0.169,-0.167 0.212,-0.211 1.142,-1.136 0.381,-0.378 0.381,-0.379 0.19,-0.189 0.571,-0.946 0.381,-0.379 0.381,-0.378 1.142,-1.136 0.185,-0.184 0.196,-0.194 0.381,-0.379 0.762,-1.135 0.38,-0.379 0.381,-0.379 0.184,-0.183 0.578,-0.952 0.38,-0.379 0,-0.378 0.558,-0.832 0.204,-0.304 0.381,-0.378 0,-0.379 0.761,-1.135 0.381,-0.379 0.047,-0.046 -0.047,-0.332 0.762,-1.136 0.38,-0.757 0,-0.378 0.762,-1.136 0.381,-0.757 0,-0.379 0,-0.127 0.761,-1.008 0.381,-0.757 0,-0.379 0.762,-1.514 0.381,-0.757 0.761,-1.135 0.367,-0.729 0.014,-0.028 0.381,-1.136 0.38,-0.757 0,-0.378 0.762,-1.136 0.381,-0.757 0,-0.379 0.688,-1.025 0.073,-0.11 0.381,-0.757 0,-0.379 0.381,-1.135 0.381,-0.757 0,-0.379 0.38,-1.135 0.381,-0.758 0.056,-0.11 -0.056,-0.268 0.762,-1.135 0.381,-0.758 0,-0.378 0.38,-1.136 0.301,-0.598 0.08,-0.159 0,-0.378 0.381,-1.136 0,-0.757 0,-0.378 0.381,-1.136 0,-0.757 0,-0.22 0,-0.158 0,-1.136 0,-0.757 0,-0.379 0,-1.135 0,-0.757 0,-0.2 0,-0.179 0,-1.514 0,-0.757 0,-0.378 0,-1.514 0,-0.757 0,-0.379 0,-0.686 0,-0.45 0,-0.756 0,-0.379 -0.381,-1.136 0,-0.757 0,-0.378 0,-1.136 0,-0.397 0,-0.36 -0.381,-1.135 -0.381,-0.757 -0.38,-1.136 -0.381,-0.757 -0.381,-1.893 0,-0.757 -0.17,-0.677 -0.211,-0.837 0,-0.757 -0.381,-1.135 -0.38,-0.757 -0.381,-1.136 -0.381,-0.757 0,-0.378 -0.282,-0.42 -0.479,-0.716 -0.381,-0.757 0,-0.379 -0.762,-1.135 -0.381,-0.757 0,-0.379 -0.492,-0.733 -0.269,-0.402 -0.381,-0.379 -0.381,-0.378 -0.761,-1.136 -0.381,-0.378 -0.381,-0.379 -0.162,-0.242 -0.599,-0.893 -0.381,-0.379 -0.381,-0.378 -1.142,-1.136 -0.762,-0.757 -0.053,-0.052 -0.328,-0.326 -1.142,-1.136 -0.381,-0.379 -0.381,-0.378 -1.142,-0.757 -0.761,-0.379 -0.381,-0.378 -0.511,-0.169 -0.632,-0.21 -0.38,0 -0.381,0 -1.143,-0.378 -0.38,0 -0.381,0 -1.142,0 -0.272,0 -0.49,0 -0.381,0 -1.142,0 -0.381,0 -0.381,0 -1.142,-0.379 -0.106,-0.105 -0.275,-0.273 -0.381,0 -1.142,0 -0.381,0 -0.381,0 -0.076,0 -1.066,0 -0.761,0 -0.381,0 -1.143,0 -0.761,0 -0.097,0 -0.284,0 -1.142,0 -0.762,0 -0.381,0 -1.142,0 -0.075,0 -0.306,0 -0.381,0 -1.142,0 -0.381,0 -0.38,0 -1.143,0 -0.144,0 -0.237,0 -0.38,0 -1.143,0.378 -0.38,0.379 -0.381,0 -0.191,0 -0.952,1.135 -0.38,0.379 -0.381,0.378 -1.143,1.136 -0.38,0.378 -0.101,0.1 -0.28,0.279 -1.142,0.757 -0.381,0.379 -0.381,0 -0.19,0 -0.952,0.378 -0.381,0.379 -0.381,0 -0.19,0 -0.952,0.757 -0.381,0.378 -0.381,0.379 -0.19,0.189 0.19,-0.189 0.762,0.757 0.306,0.304 0.075,0.074 0.38,0 1.143,0 0.38,0 0.381,0 1.143,0 0.039,0 0.341,0 0.381,0 1.142,0 0.381,0 0.378,0 0,0 1.142,-0.378 0.381,0 0.381,0 1.142,0 0.381,0 0.381,0 0.19,0 0.952,0 0.381,0 0.381,0 1.08,0 0.062,0 0.762,0 0.38,0 1.143,0 0.761,0 0.381,0 0.19,0 0.952,0 0.381,0 0.381,0 1.142,0 0.212,0 0.169,0 0.381,0 1.142,0 0.381,0 0.381,0 0.691,0.229 0.451,0.149 0.381,0.379 0.381,0 1.142,0.378 0.381,0.379 0.381,0 0.19,0 0.952,0.757 0.381,0.378 0.381,0 0.956,0.317 0.186,0.062 0.381,0.378 0.381,0 1.142,0.379 0.381,0.378 0.38,0 0.167,0 0.976,0.379 0.381,0.378 0.38,0 0.898,0.596 0.245,0.161 0.381,0.379 0.38,0 1.143,0.757 0.38,0.379 0.381,0.378 0.108,0.107 1.035,1.029 0.38,0.378 0.381,0.379 0.836,0.831 0.306,0.304 0.381,0.379 0.381,0.378 0.381,1.136 0.012,0.037 -0.012,0.341 0,0.379 0.381,1.135 0,0.379 0,0.02 0,0.358 0.38,1.136 0,0.379 0,0.378 0,0.189 0.381,0.947 0.341,0.339 0.04,0.039 0,0.379 0.381,1.135 0.381,0.379 0,0.24 0,0.138 0,1.136 0,0.378 0,0.379 0,0.189 0,0.946 0,0.379 0,0.378 0.38,1.136 0.254,0.252 0.127,0.127 0,0.378 0.381,1.136 0.381,0.378 0,0.379 0,0.189 0,0.946 0,0.379 0,0.378 0,0.189 0.38,0.947 0,0.378 0,0.019 0,0.36 0,0.189 0,0.946 0,0.379 0,0.378 0,1.136 0,0.277 0,0.101 0,0.379 0,1.136 0,0.378 0,0.379 0,0.189 0,0.946 0,0.379 0,0.378 0,0.189 0,0.947 0,0.378 0,0.379 0,0.189 0,0.946 0,0.379 0,0.378 0,0.19 0,0.946 0,0.378 0,0.379 0,0.132 0,1.004 0,0.378 0,0.102 0,0.276 0,1.136 0,0.379 0,0.073 0,0.305 -1.142,0.757 -0.381,0.379 -0.38,0 -0.191,0 0.191,1.135 0,0.379 0,0.378 0,1.136 0,0.016 0,0.362 0,0.379 0,1.135 0,0.379 0,0.364 0,0.015 0,0.189 -0.762,0.946 -0.381,0.379 0,0.378 0,0.189 -0.761,0.947 -0.381,0.378 -0.381,0.379 -0.762,1.135 -0.28,0.279 -0.1,0.1 0,0.378 -0.719,1.072 -0.043,0.064 -0.381,0.378 -0.38,0.379 -0.381,1.135 -0.381,0.379 0,0.378 0,0.19 -0.762,0.946 -0.38,0.379 0,0.378 0,0.189 -1.143,0.19 -0.38,0.378 -0.381,0 -0.191,0 -0.952,0.379 -0.38,0.378 -0.381,0 -0.191,0 -0.952,0.757 -0.38,0.379 -0.381,0 -0.19,0 -0.952,0.757 -0.381,0.378 -0.381,0 -0.19,0 -0.191,1.136 0,0.377 0,10e-4 0,0.379 0,0.189 -0.381,0.946 0,0.379 0,0.378 0,0.19 -0.38,0.946 0,0.378 0,0.03 0,0.349 0,0.189 -0.762,0.947 -0.381,0.378 0,0.379 -0.741,1.104 -0.02,0.031 -0.381,0.379 0,0.378 0,1.136 0,0.378 0,0.318 0,0.061 0,0.189 0,0.946 0,0.379 0,0.378 0,0.19 0,0.946 0,0.379 0,0.378 0,0.086 0,1.05 0,0.144 0,0.234 0,0.379 0,0.189 0.381,0.946 0,0.379 0,0.173 0,0.205 1.142,0.379 0.381,0 0.117,0 0.264,0 1.142,0.378 0.381,0 0.381,0 0.19,0 0.952,0.379 0.381,0 0.38,0 0.191,0 0.952,0 0.381,0 0.38,0 0.191,0 0.952,0 0.381,0 0.38,0 0.191,0 0.952,0 0.38,0 0.089,0 0.292,0 0.191,0 0.952,0 0.38,0 0.024,0 0.357,0 1.142,0 0.381,0 0.381,0 0.19,0 0.952,0 0.381,0 0.381,0 1.107,0 0.035,0 0.381,0 0.381,0 0.19,0 0.952,-0.757 0.381,-0.379 0.381,-0.378 1.142,-0.757 0.287,-0.285 0.094,-0.094 0.381,0 1.142,-1.135 0.381,-0.379 0.381,-0.378 0.19,-0.19 0.952,-0.946 0.381,-0.378 0.38,-0.379 0.762,-1.136 0.353,-0.35 0.028,-0.028 0.381,-0.379 1.142,-1.135 0.381,-0.379 0.381,-0.378 0.19,-0.189 0.952,-0.947 0.761,-0.378 0.381,-0.379 1.143,-0.757 0.108,-0.107 0.272,-0.271 0.381,-0.379 1.142,-0.378 0.381,-0.379 0.381,0 0.943,-0.625 0.199,-0.132 0.381,-0.378 0.381,-0.379 1.142,-0.379 0.381,-0.378 0.254,0 0.127,0 1.142,-0.379 0.381,0 0.381,0 0.19,0 0.952,-0.378 0.381,-0.379 0.381,0 0.19,0 0.952,-0.757 0.381,-0.378 0.381,-0.379 0.19,-0.189 0.952,-0.568 0.381,-0.378 0.38,0 0.191,0 0.952,-0.379 0.181,0 0.2,0 0.38,0 0.191,0 0.952,-0.378 0.381,-0.379 0.38,0 0.191,0 0.952,-0.378 0.316,-0.314 0.064,-0.065 0.381,0 1.143,0 0.02,0 0.36,0 0.381,0 0.191,0 0.951,0 0.381,0 0.381,0 0.058,0 1.084,-0.378 0.124,-0.123 0.257,-0.256 0.381,0 -0.359,-1.07 -0.022,-0.065 -0.381,-0.379 0,-0.378 0,-0.19 0,-0.946 0,-0.379 0,-0.378 0,-0.189"
       __comy="1032.163"
       __comx="377.899"
       __timestamp="0x13dc2a2084d" />
  </g>
</svg>
